<?xml version="1.0" encoding="utf-8"?>
<!-- Generator: Adobe Illustrator 24.0.2, SVG Export Plug-In . SVG Version: 6.00 Build 0)  -->
<svg version="1.1" id="Capa_1" xmlns="http://www.w3.org/2000/svg" xmlns:xlink="http://www.w3.org/1999/xlink" x="0px" y="0px"
	 viewBox="0 0 152 152" style="enable-background:new 0 0 152 152;" xml:space="preserve">
<style type="text/css">
	.st0{fill:#E1E1E1;}
	.st1{fill:#FFFFFF;}
	.st2{fill:#5680C0;}
</style>
<g>
	<path class="st0" d="M76,150.9C34.8,151,0.5,117.2,1,74.8C1.5,34.7,34.5,0.2,77.5,0.9c39.6,0.7,74.3,33.5,73.3,76.8
		C150,117.4,117.5,150.9,76,150.9z M7.8,75.9c0.3,38,30.2,67.2,66.2,68.1c39.8,0.9,69.2-30.4,69.9-66.5
		c0.8-39.4-30.5-69.3-67.2-69.7C38.2,7.4,8,38.3,7.8,75.9z"/>
	<path class="st1" d="M7.8,75.9C8,38.3,38.2,7.4,76.9,7.8c36.7,0.4,67.9,30.3,67.2,69.7c-0.7,36.1-30.2,67.4-69.9,66.5
		C38,143.1,8.1,113.9,7.8,75.9z M75.9,41.8c-10.7,0-21.4,0-32.1,0c-1.5,0-1.9,0.4-1.9,1.9c0.1,17,0,33.9,0.1,50.9
		c0,8.6,6.9,15.4,15.5,15.4c12.3,0.1,24.7,0.1,37,0c8.7,0,15.5-6.8,15.6-15.5c0.1-16.9,0-33.8,0.1-50.7c0-1.7-0.5-2-2-2
		C97.3,41.9,86.6,41.8,75.9,41.8z"/>
	<path class="st2" d="M75.9,41.8c10.7,0,21.4,0,32.1,0c1.5,0,2,0.3,2,2c-0.1,16.9,0,33.8-0.1,50.7c0,8.7-6.9,15.5-15.6,15.5
		c-12.3,0-24.7,0.1-37,0c-8.6,0-15.5-6.8-15.5-15.4c-0.1-17,0-33.9-0.1-50.9c0-1.5,0.4-1.9,1.9-1.9C54.5,41.9,65.2,41.8,75.9,41.8z
		 M76.1,44.8c-9.7,0-19.4,0-29.2,0c-1.7,0-2.1,0.4-2.1,2.1c0.1,15.9,0,31.8,0,47.7c0,6.9,5.5,12.5,12.4,12.5c12.5,0,25,0,37.5,0
		c6.9,0,12.4-5.6,12.4-12.5c0-15.9,0-31.8,0-47.7c0-1.7-0.4-2.1-2.1-2.1C95.4,44.8,85.7,44.8,76.1,44.8z"/>
	<path class="st1" d="M76.1,44.8c9.6,0,19.3,0,28.9,0c1.7,0,2.1,0.4,2.1,2.1c-0.1,15.9,0,31.8,0,47.7c0,6.9-5.5,12.5-12.4,12.5
		c-12.5,0-25,0-37.5,0c-6.9,0-12.4-5.6-12.4-12.5c0-15.9,0-31.8,0-47.7c0-1.7,0.4-2.1,2.1-2.1C56.6,44.8,66.3,44.8,76.1,44.8z
		 M75.7,56c6.1,0,12.2,0,18.3,0c0.9,0,1.9,0.3,1.9-1.2c0.1-1.6-0.9-1.5-1.9-1.5c-12.1,0-24.1,0-36.2,0C57,53.3,56,53,56,54.5
		c-0.1,1.6,0.9,1.5,1.9,1.5C63.8,56,69.8,56,75.7,56z M61.9,80.1c0-2.8,0-2.8-2.6-2.8c-3.7,0-3.2-0.5-3.2,2.8c0,3.4-0.4,3,2.8,3
		C62.3,83.1,61.8,83.5,61.9,80.1z M95.9,80.2c0-3.3,0.4-3-2.7-3c-3.5,0-3.2-0.5-3.2,2.7c0,3.5-0.4,3.2,2.7,3.2
		C96.3,83.1,95.9,83.6,95.9,80.2z M92.9,71.7c3.4,0,3,0.4,3-2.6c0-3.3,0.4-3-2.6-3c-3.6,0-3.2-0.5-3.2,2.8
		C90.1,72.1,89.6,71.6,92.9,71.7z M73,80.2c0-3.3,0.4-3-2.7-3c-3.4,0-2.9-0.4-2.9,2.7c0,3.6-0.5,3.2,2.6,3.2
		C73.4,83.1,73,83.5,73,80.2z M84.5,80.2c0-3.3,0.4-2.9-2.7-2.9c-3.3,0-2.9-0.4-2.9,2.7c0,3.5-0.4,3.2,2.7,3.2
		C84.9,83.1,84.4,83.5,84.5,80.2z M58.9,94.3c3.3,0,2.9,0.4,2.9-2.7c0-3.3,0.4-2.9-2.7-2.9c-3.6,0-3.1-0.5-3.1,2.7
		C56,94.7,55.6,94.3,58.9,94.3z M73,69c0-3.4,0.4-3-2.6-3c-3.4,0-3-0.4-3,2.6c0,3.4-0.4,3,2.6,3C73.4,71.7,73,72.1,73,69z M82,71.7
		c1.6,0.3,2.7,0,2.5-2.5c-0.3-3.5,0.4-3.1-2.6-3.1c-3.5,0-3.1-0.4-3.1,2.7C78.9,72.1,78.5,71.6,82,71.7z M81.3,88.7
		c-2.1-0.6-2.5,0.5-2.4,2.7c0.2,3.3-0.3,2.9,2.7,2.9c3.4,0,2.9,0.4,2.9-2.9C84.5,88.7,84.5,88.7,81.3,88.7z M70.3,88.7
		c-3.3,0-2.8-0.4-2.8,2.5c0,3.5-0.4,3.1,2.5,3.1c3.5,0,3.1,0.4,3.1-2.8C73,88.2,73.4,88.7,70.3,88.7z"/>
	<path class="st2" d="M75.7,56c-6,0-11.9,0-17.9,0c-1,0-2,0.1-1.9-1.5c0-1.5,1-1.2,1.9-1.2c12.1,0,24.1,0,36.2,0c1,0,2-0.1,1.9,1.5
		c0,1.5-1,1.2-1.9,1.2C87.9,56,81.8,56,75.7,56z"/>
	<path class="st2" d="M61.9,80.1c0,3.5,0.4,3-3,3c-3.2,0-2.8,0.4-2.8-3c0-3.3-0.4-2.8,3.2-2.8C61.9,77.2,61.9,77.2,61.9,80.1z"/>
	<path class="st2" d="M95.9,80.2c-0.1,3.3,0.4,2.9-3.2,2.9c-3.1,0-2.7,0.4-2.7-3.2c0-3.1-0.4-2.7,3.2-2.7
		C96.3,77.2,95.9,76.9,95.9,80.2z"/>
	<path class="st2" d="M92.9,71.7c-3.3,0-2.9,0.4-2.9-2.8c0-3.3-0.4-2.8,3.2-2.8c3,0,2.6-0.4,2.6,3C95.9,72.1,96.3,71.6,92.9,71.7z"
		/>
	<path class="st2" d="M73,80.2c0,3.3,0.4,2.9-3,2.9c-3.1,0-2.6,0.4-2.6-3.2c0-3.1-0.4-2.7,2.9-2.7C73.4,77.2,73,76.9,73,80.2z"/>
	<path class="st2" d="M84.5,80.2c-0.1,3.3,0.5,2.9-2.9,2.9c-3.1,0-2.7,0.4-2.7-3.2c0-3.1-0.3-2.7,2.9-2.7
		C84.9,77.3,84.4,76.9,84.5,80.2z"/>
	<path class="st2" d="M58.9,94.3c-3.3,0-2.9,0.4-2.9-2.9c0-3.1-0.4-2.7,3.1-2.7c3.1,0,2.7-0.4,2.7,2.9
		C61.9,94.7,62.2,94.3,58.9,94.3z"/>
	<path class="st2" d="M73,69c-0.1,3,0.4,2.6-3,2.6c-3,0-2.6,0.5-2.6-3c0-3-0.4-2.6,3-2.6C73.4,66.1,73,65.7,73,69z"/>
	<path class="st2" d="M82,71.7c-3.5-0.1-3.1,0.5-3.1-2.9c0-3.2-0.4-2.7,3.1-2.7c2.9,0,2.3-0.4,2.6,3.1C84.8,71.7,83.6,72,82,71.7z"
		/>
	<path class="st2" d="M70.3,88.7c3.2,0.1,2.8-0.4,2.8,2.9c0,3.2,0.4,2.8-3.1,2.8c-3,0-2.5,0.4-2.5-3.1C67.4,88.3,67,88.7,70.3,88.7z
		"/>
	<path class="st2" d="M81.7,88.7c3.2,0.1,2.8-0.4,2.8,2.9c0,3.2,0.4,2.8-3.1,2.8c-3,0-2.5,0.4-2.5-3.1
		C78.9,88.3,78.4,88.7,81.7,88.7z"/>
</g>
</svg>
