<?xml version="1.0" encoding="utf-8"?>
<!-- Generator: Adobe Illustrator 24.0.2, SVG Export Plug-In . SVG Version: 6.00 Build 0)  -->
<svg version="1.1" id="Capa_1" xmlns="http://www.w3.org/2000/svg" xmlns:xlink="http://www.w3.org/1999/xlink" x="0px" y="0px"
	 viewBox="0 0 152 152" style="enable-background:new 0 0 152 152;" xml:space="preserve">
<style type="text/css">
	.st0{fill:#E1E1E1;}
	.st1{fill:#FFFFFF;}
	.st2{fill:#5680C0;}
</style>
<g>
	<path class="st0" d="M75.3,1.3c41.1-0.1,75.6,33.7,75,76.3c-0.6,39.8-33.5,74.5-76.8,73.6c-39.4-0.8-74-33.4-73.1-76.8
		C1.2,34.7,33.7,1.3,75.3,1.3z M75.2,144.4c38-0.3,67.2-30.2,68.1-66.3c0.9-39.7-30.4-69.5-66.9-70C37.4,7.6,7.7,38.5,7.2,75.1
		C6.6,114,37.7,144.2,75.2,144.4z"/>
	<path class="st1" d="M75.2,144.4c-37.6-0.2-68.6-30.4-68-69.3C7.7,38.5,37.4,7.6,76.5,8.1c36.4,0.5,67.8,30.3,66.9,70
		C142.5,114.2,113.3,144.1,75.2,144.4z M75.2,99.7c10.7,0,21.4,0,32.1,0c1.7,0,2.1-0.5,2.1-2.1c-0.1-14.5-0.1-29,0-43.4
		c0-1.6-0.3-2.2-2.1-2.2C85.9,52,64.6,52,43.2,52c-1.8,0-2.1,0.6-2.1,2.2c0.1,14.5,0.1,29,0,43.4c0,1.6,0.3,2.2,2.1,2.1
		C53.9,99.6,64.5,99.7,75.2,99.7z"/>
	<path class="st2" d="M75.2,99.7c-10.6,0-21.3,0-31.9,0c-1.7,0-2.1-0.5-2.1-2.1c0.1-14.5,0.1-29,0-43.4c0-1.6,0.3-2.2,2.1-2.2
		c21.4,0.1,42.7,0.1,64.1,0c1.8,0,2.1,0.6,2.1,2.2c-0.1,14.5-0.1,29,0,43.4c0,1.6-0.3,2.2-2.1,2.1C96.6,99.6,85.9,99.7,75.2,99.7z
		 M75,96.4c9.6,0,19.3,0,28.9,0c1.7,0,2.1-0.5,2.1-2.2c-0.1-12.3-0.1-24.6,0-36.8c0-1.7-0.4-2.2-2.1-2.2c-19.2,0.1-38.3,0.1-57.5,0
		c-1.7,0-2.1,0.5-2.1,2.1c0.1,12.3,0.1,24.6,0,36.8c0,1.9,0.7,2.2,2.3,2.2C56.2,96.4,65.6,96.4,75,96.4z"/>
	<path class="st1" d="M75,96.4c-9.4,0-18.9,0-28.3,0c-1.7,0-2.4-0.3-2.3-2.2c0.1-12.3,0.1-24.6,0-36.8c0-1.7,0.5-2.1,2.1-2.1
		c19.2,0.1,38.3,0.1,57.5,0c1.7,0,2.1,0.5,2.1,2.2c-0.1,12.3-0.1,24.6,0,36.8c0,1.7-0.4,2.2-2.1,2.2C94.3,96.3,84.7,96.4,75,96.4z
		 M84.6,87.2c0.7-0.2,1.2-0.3,1.6-0.5c2.5-1.4,4.9-1.4,7.4,0.1c1,0.6,1.7,0.5,1.6-1c-0.1-1.6,0.1-3.1,0-4.7
		c-0.1-1.7,0.3-2.9,1.6-4.1c2.8-2.6,3.5-5.9,2.5-9.6c-1.1-4.1-4.8-7.2-8.8-7.4c-4.8-0.3-8.8,2.1-10.5,6.3c-1.6,4-0.6,8.5,3,11.3
		c1.4,1.1,1.9,2.3,1.7,3.9C84.5,83.4,84.6,85.2,84.6,87.2z"/>
	<path class="st2" d="M84.6,87.2c0-2-0.1-3.8,0-5.6c0.1-1.7-0.3-2.8-1.7-3.9c-3.5-2.8-4.6-7.3-3-11.3c1.7-4.2,5.7-6.6,10.5-6.3
		c4.1,0.3,7.8,3.3,8.8,7.4c0.9,3.6,0.2,7-2.5,9.6c-1.3,1.2-1.7,2.4-1.6,4.1c0.1,1.6-0.1,3.1,0,4.7c0.1,1.5-0.6,1.6-1.6,1
		c-2.5-1.5-4.9-1.4-7.4-0.1C85.8,86.9,85.3,87,84.6,87.2z M89.3,77.2c4.2,0,7.5-3.1,7.5-7c0-4.1-3.4-7.5-7.4-7.5
		c-4,0-7.3,3.3-7.4,7.3C82,74.1,85.1,77.2,89.3,77.2z M92.7,83.4c0-1.1,0-1.9,0-2.7c0-0.5,0-1-0.8-0.8c-1.4,0.4-2.8,0-4.2,0.1
		c-1.6,0.1-0.6,1.5-0.8,2.3c-0.1,0.5-0.1,1.4,0.8,0.9C89.3,82.3,90.9,82.6,92.7,83.4z"/>
	<path class="st1" d="M89.3,77.2c-4.2,0-7.3-3.1-7.2-7.2c0-4,3.3-7.2,7.4-7.3c4,0,7.4,3.4,7.4,7.5C96.8,74.1,93.5,77.2,89.3,77.2z"
		/>
	<path class="st1" d="M92.7,83.4c-1.8-0.8-3.3-1.1-5-0.3c-0.9,0.5-0.9-0.4-0.8-0.9c0.2-0.8-0.8-2.2,0.8-2.3c1.4-0.1,2.8,0.3,4.2-0.1
		c0.8-0.2,0.8,0.3,0.8,0.8C92.7,81.5,92.7,82.4,92.7,83.4z"/>
</g>
</svg>
