<?xml version="1.0" encoding="utf-8"?>
<!-- Generator: Adobe Illustrator 24.0.2, SVG Export Plug-In . SVG Version: 6.00 Build 0)  -->
<svg version="1.1" id="Capa_1" xmlns="http://www.w3.org/2000/svg" xmlns:xlink="http://www.w3.org/1999/xlink" x="0px" y="0px"
	 viewBox="0 0 152 152" style="enable-background:new 0 0 152 152;" xml:space="preserve">
<style type="text/css">
	.st0{fill:#E1E1E1;}
	.st1{fill:#FFFFFF;}
	.st2{fill:#5680C0;}
</style>
<g>
	<path class="st0" d="M75.9,151.1c-41.2,0.1-75.5-33.7-75-76.1C1.4,35,34.4,0.3,77.7,1.1c39.4,0.8,74,33.4,73.1,76.8
		C150,117.6,117.5,151,75.9,151.1z M76,8C37.8,8.2,8.6,38.1,7.8,74.3c-0.9,39.8,30.3,69.2,66.5,69.9c39.5,0.7,69-30.4,69.6-66.8
		C144.5,38.2,113.5,8.2,76,8z"/>
	<path class="st1" d="M76,8c37.5,0.3,68.5,30.3,67.9,69.4c-0.6,36.5-30.1,67.5-69.6,66.8c-36.2-0.6-67.4-30-66.5-69.9
		C8.6,38.1,37.8,8.2,76,8z M75.8,110.2c18.9,0,34.1-15.2,34.2-34c0-18.9-15.2-34.1-34.1-34.1c-18.7,0-34,15.2-34,33.9
		C41.8,94.9,57,110.2,75.8,110.2z"/>
	<path class="st2" d="M75.8,110.2c-18.8,0-34-15.3-34-34.2c0-18.7,15.3-33.9,34-33.9c18.9,0,34.1,15.3,34.1,34.1
		C109.9,95,94.6,110.2,75.8,110.2z M76,74.8c3.6,0,7.2,0,10.8,0c0.7,0,1.7,0.3,1.6-1c-0.3-3.7-0.5-7.5-1.2-11.2
		c-0.2-0.9-0.5-1.4-1.5-1.2c-6.4,0.9-12.9,0.9-19.3,0.1c-1.2-0.1-1.3,0.4-1.4,1.2c-0.7,3.5-1.1,7-1.2,10.5c0,1.4,0.6,1.6,1.8,1.6
		C69.1,74.7,72.6,74.8,76,74.8z M76.2,77.4c-3.6,0-7.2,0-10.8,0c-1.1,0-1.5,0.3-1.5,1.4c0,3.4,0.5,6.8,1,10.1
		c0.1,0.8,0.5,1.2,1.5,1.1c6.4-0.9,12.8-0.8,19.3,0c1.1,0.1,1.6-0.1,1.8-1.3c0.5-3.2,0.7-6.5,1-9.7c0.1-1.5-0.4-1.7-1.6-1.6
		C83.3,77.5,79.8,77.4,76.2,77.4z M52.7,74.8c2.3,0,4.5,0,6.8,0c1.1,0,1.5-0.3,1.5-1.4c0.1-3.7,0.4-7.3,1.2-10.9
		c0.2-1.1,0-1.7-1.2-2c-3-0.6-5.8-1.7-8.4-3.3c-0.8-0.5-1.2-0.3-1.7,0.4c-3.5,4.7-5.5,10-6.1,15.8c-0.1,1.1,0.2,1.5,1.4,1.5
		C48.3,74.7,50.5,74.8,52.7,74.8z M99.1,74.8c2.1,0,4.1-0.1,6.2,0c1.3,0.1,1.8-0.2,1.7-1.6c-0.7-5.8-2.6-11-6.1-15.7
		c-0.5-0.7-1-1-1.9-0.5c-2.5,1.5-5.1,2.7-8,3.3c-0.9,0.2-1.2,0.6-1,1.5c0.8,3.8,1.3,7.5,1.2,11.4c0,1.3,0.6,1.6,1.7,1.5
		C95,74.7,97.1,74.8,99.1,74.8z M52.9,77.4c-2.1,0-4.3,0.1-6.4,0c-1.4-0.1-1.9,0.4-1.7,1.8c0.7,5.5,2.5,10.4,5.6,14.9
		c0.5,0.8,0.9,1,1.8,0.4c2.7-1.7,5.7-2.9,8.8-3.6c1-0.2,1.2-0.7,1-1.6c-0.7-3.5-1.1-7-1.1-10.5c0-1.2-0.5-1.4-1.5-1.4
		C57.3,77.5,55.1,77.4,52.9,77.4z M99.2,77.4c-2.1,0-4.3,0-6.4,0c-1,0-1.6,0.2-1.6,1.4c0.1,3.7-0.4,7.4-1.1,11
		c-0.2,0.8,0,1.1,0.8,1.3c3,0.8,5.9,1.9,8.6,3.6c0.6,0.4,1.1,0.4,1.6-0.3c3.3-4.7,5.3-9.8,5.9-15.5c0.1-1.3-0.4-1.6-1.6-1.5
		C103.3,77.5,101.3,77.4,99.2,77.4z M86.4,93.2c-6.5-1.2-12.9-1-19.3-0.4c-0.9,0.1-1.2,0.6-0.9,1.5c1.2,3.7,2.5,7.4,5.2,10.4
		c3.2,3.6,6.6,3.5,9.7-0.1C83.8,101.3,85.3,97.4,86.4,93.2z M76,59c2.9,0.2,5.8-0.2,8.7-0.4c0.8-0.1,1.6-0.2,1.2-1.4
		c-1.2-3.6-2.5-7.1-5.2-9.9c-3.1-3.3-6.2-3.3-9.3,0c-2.7,2.9-4,6.4-5.2,10.1c-0.4,1.2,0.3,1.1,1.1,1.2C70.3,58.9,73.1,59.2,76,59z
		 M68.5,106.2c-2.5-3.6-4.1-7.5-5.3-11.6c-0.2-0.9-0.6-1.1-1.5-0.9c-2.7,0.7-5.2,1.7-7.6,3.1c-0.7,0.4-1,0.7-0.3,1.4
		C58,102.3,62.8,105,68.5,106.2z M69.1,45.7c-6.1,1.5-10.8,4.1-14.8,8c-0.8,0.8,0,1.1,0.5,1.4c2.2,1.3,4.6,2.1,7.1,2.7
		c1,0.3,1.5,0,1.8-1.1C64.7,52.9,66.3,49.4,69.1,45.7z M98.5,97.5c-2.5-1.8-5.3-2.8-8.2-3.6c-0.6-0.2-1.1-0.1-1.3,0.6
		c-1.2,4.1-2.9,8-5.6,11.8C89.5,104.7,94.3,101.9,98.5,97.5z M83.4,45.9c2.6,3.5,4.3,7.1,5.4,10.9c0.2,0.8,0.6,1.1,1.5,0.8
		c2.3-0.7,4.6-1.5,6.7-2.7c0.8-0.4,1.2-0.7,0.3-1.5C93.4,49.8,88.9,47.2,83.4,45.9z"/>
	<path class="st1" d="M76,74.8c-3.5,0-6.9,0-10.4,0c-1.2,0-1.8-0.2-1.8-1.6c0.1-3.6,0.5-7.1,1.2-10.5c0.2-0.8,0.2-1.4,1.4-1.2
		c6.4,0.8,12.9,0.8,19.3-0.1c1.1-0.2,1.4,0.3,1.5,1.2c0.7,3.7,0.9,7.4,1.2,11.2c0.1,1.3-0.9,1-1.6,1C83.3,74.8,79.7,74.8,76,74.8z"
		/>
	<path class="st1" d="M76.2,77.4c3.5,0,7.1,0,10.6,0c1.2,0,1.7,0.1,1.6,1.6c-0.3,3.2-0.5,6.5-1,9.7c-0.2,1.3-0.7,1.5-1.8,1.3
		c-6.4-0.9-12.8-0.9-19.3,0c-0.9,0.1-1.3-0.2-1.5-1.1c-0.5-3.4-1-6.7-1-10.1c0-1.1,0.4-1.5,1.5-1.4C69,77.5,72.6,77.4,76.2,77.4z"/>
	<path class="st1" d="M52.7,74.8c-2.2,0-4.4-0.1-6.6,0c-1.2,0-1.5-0.4-1.4-1.5c0.6-5.8,2.6-11.1,6.1-15.8c0.5-0.7,0.9-0.9,1.7-0.4
		c2.6,1.6,5.4,2.7,8.4,3.3c1.2,0.2,1.4,0.9,1.2,2C61.4,66,61,69.6,61,73.3c0,1.1-0.4,1.5-1.5,1.4C57.3,74.7,55,74.8,52.7,74.8z"/>
	<path class="st1" d="M99.1,74.8c-2.1,0-4.1,0-6.2,0c-1.1,0-1.7-0.2-1.7-1.5c0-3.8-0.5-7.6-1.2-11.4c-0.2-0.9,0.1-1.3,1-1.5
		c2.9-0.6,5.5-1.8,8-3.3c0.9-0.5,1.3-0.3,1.9,0.5c3.5,4.7,5.4,9.9,6.1,15.7c0.2,1.4-0.4,1.7-1.7,1.6
		C103.2,74.7,101.2,74.8,99.1,74.8z"/>
	<path class="st1" d="M52.9,77.4c2.2,0,4.4,0,6.6,0c1,0,1.5,0.2,1.5,1.4c0,3.5,0.4,7.1,1.1,10.5c0.2,1,0,1.4-1,1.6
		c-3.1,0.7-6.1,1.9-8.8,3.6c-0.9,0.6-1.3,0.3-1.8-0.4c-3.1-4.5-5-9.5-5.6-14.9c-0.2-1.4,0.3-1.9,1.7-1.8
		C48.6,77.5,50.7,77.4,52.9,77.4z"/>
	<path class="st1" d="M99.2,77.4c2.1,0,4.1,0,6.2,0c1.1,0,1.7,0.2,1.6,1.5c-0.6,5.7-2.5,10.9-5.9,15.5c-0.5,0.7-0.9,0.7-1.6,0.3
		c-2.6-1.7-5.5-2.8-8.6-3.6c-0.8-0.2-1-0.5-0.8-1.3c0.7-3.6,1.2-7.3,1.1-11c0-1.2,0.6-1.4,1.6-1.4C95,77.5,97.1,77.4,99.2,77.4z"/>
	<path class="st1" d="M86.4,93.2c-1.1,4.2-2.6,8.1-5.4,11.3c-3.1,3.6-6.5,3.7-9.7,0.1c-2.6-3-4-6.6-5.2-10.4c-0.3-0.8,0-1.4,0.9-1.5
		C73.5,92.2,79.9,92,86.4,93.2z"/>
	<path class="st1" d="M76,59c-2.9,0.2-5.8-0.1-8.7-0.4c-0.8-0.1-1.4,0-1.1-1.2c1.2-3.7,2.6-7.2,5.2-10.1c3-3.3,6.2-3.3,9.3,0
		c2.6,2.8,4,6.3,5.2,9.9c0.4,1.2-0.4,1.3-1.2,1.4C81.8,58.8,79,59.2,76,59z"/>
	<path class="st1" d="M68.5,106.2c-5.7-1.2-10.6-3.9-14.7-8c-0.7-0.7-0.4-1,0.3-1.4c2.4-1.4,5-2.4,7.6-3.1c0.9-0.2,1.3,0,1.5,0.9
		C64.5,98.7,66.1,102.6,68.5,106.2z"/>
	<path class="st1" d="M69.1,45.7c-2.7,3.7-4.4,7.2-5.5,10.9c-0.3,1.1-0.8,1.4-1.8,1.1c-2.5-0.6-4.9-1.5-7.1-2.7
		c-0.5-0.3-1.3-0.6-0.5-1.4C58.3,49.8,63,47.1,69.1,45.7z"/>
	<path class="st1" d="M98.5,97.5c-4.2,4.4-9,7.2-15.1,8.9c2.8-3.8,4.5-7.7,5.6-11.8c0.2-0.8,0.7-0.8,1.3-0.6
		C93.2,94.7,95.9,95.7,98.5,97.5z"/>
	<path class="st1" d="M83.4,45.9c5.5,1.4,10,4,13.9,7.6c0.8,0.8,0.4,1-0.3,1.5c-2.1,1.2-4.4,2-6.7,2.7c-0.9,0.3-1.3,0-1.5-0.8
		C87.7,52.9,86,49.4,83.4,45.9z"/>
</g>
</svg>
