<?xml version="1.0" encoding="utf-8"?>
<!-- Generator: Adobe Illustrator 24.0.2, SVG Export Plug-In . SVG Version: 6.00 Build 0)  -->
<svg version="1.1" id="Capa_1" xmlns="http://www.w3.org/2000/svg" xmlns:xlink="http://www.w3.org/1999/xlink" x="0px" y="0px"
	 viewBox="0 0 152 152" style="enable-background:new 0 0 152 152;" xml:space="preserve">
<style type="text/css">
	.st0{fill:#E1E1E1;}
	.st1{fill:#FFFFFF;}
	.st2{fill:#557FBF;}
</style>
<g>
	<path class="st0" d="M76,150.8c-41.1,0.2-75.5-33.7-75-76.1c0.5-40,33.6-74.6,76.6-73.9c39.6,0.7,74.3,33.5,73.3,76.9
		C150.1,117.4,117.5,150.9,76,150.8z M76,7.7C38,8,8.7,37.9,7.9,74.2c-0.8,39.6,30.4,69.1,66.4,69.8c39.5,0.8,69.2-30.5,69.7-66.9
		C144.6,38.1,113.6,7.9,76,7.7z"/>
	<path class="st1" d="M76,7.7c37.6,0.2,68.6,30.4,68,69.3c-0.5,36.5-30.2,67.7-69.7,66.9c-36-0.7-67.2-30.1-66.4-69.8
		C8.7,37.9,38,8,76,7.7z M91.7,77.2c0,8.4,0,16.7,0,25.1c0,1.5,0.4,2.2,2,2.1c3-0.1,6-0.1,8.9,0c1.3,0,1.9-0.2,1.9-1.7
		c0-16.9,0-33.8,0-50.6c0-1.5-0.6-1.8-1.9-1.8c-3,0.1-6,0.1-8.9,0c-1.6-0.1-2,0.5-2,2.1C91.7,60.6,91.7,68.9,91.7,77.2z M83.2,87.5
		c0-5.1,0-10.2,0-15.3c0-1.3-0.3-1.9-1.8-1.9c-3.1,0.1-6.2,0.1-9.4,0c-1.3,0-1.7,0.5-1.7,1.7c0,10.2,0,20.4,0,30.6
		c0,1.5,0.6,1.8,1.9,1.8c3-0.1,6.1-0.1,9.1,0c1.4,0,1.8-0.5,1.8-1.8C83.2,97.6,83.2,92.5,83.2,87.5z M63.2,94.6c0-2.9,0-5.8,0-8.7
		c0-1.1-0.3-1.5-1.4-1.5c-3.3,0.1-6.7,0.1-10,0c-1.2,0-1.4,0.4-1.4,1.5c0,5.7,0.1,11.3,0,17c0,1.3,0.5,1.5,1.6,1.5
		c3.2-0.1,6.4-0.1,9.6,0c1.4,0,1.7-0.5,1.6-1.7C63.1,99.9,63.2,97.2,63.2,94.6z"/>
	<path class="st0" d="M91.7,77.2c0-8.3,0-16.6,0-24.9c0-1.6,0.4-2.1,2-2.1c3,0.1,6,0.1,8.9,0c1.3,0,1.9,0.3,1.9,1.8
		c0,16.9,0,33.8,0,50.6c0,1.5-0.6,1.8-1.9,1.7c-3-0.1-6-0.1-8.9,0c-1.7,0.1-2-0.6-2-2.1C91.7,94,91.7,85.6,91.7,77.2z"/>
	<path class="st0" d="M83.2,87.5c0,5,0,10.1,0,15.1c0,1.4-0.4,1.9-1.8,1.8c-3-0.1-6.1-0.1-9.1,0c-1.3,0-1.9-0.3-1.9-1.8
		c0.1-10.2,0-20.4,0-30.6c0-1.3,0.4-1.8,1.7-1.7c3.1,0.1,6.2,0.1,9.4,0c1.4,0,1.8,0.5,1.8,1.9C83.2,77.3,83.2,82.4,83.2,87.5z"/>
	<path class="st2" d="M63.2,94.6c0,2.7-0.1,5.4,0,8.1c0,1.2-0.3,1.8-1.6,1.7c-3.2-0.1-6.4-0.1-9.6,0c-1.1,0-1.7-0.2-1.6-1.5
		c0.1-5.7,0-11.3,0-17c0-1.1,0.2-1.5,1.4-1.5c3.3,0.1,6.7,0.1,10,0c1.1,0,1.5,0.4,1.4,1.5C63.1,88.7,63.2,91.6,63.2,94.6z"/>
</g>
</svg>
