<?xml version="1.0" encoding="utf-8"?>
<!-- Generator: Adobe Illustrator 24.0.2, SVG Export Plug-In . SVG Version: 6.00 Build 0)  -->
<svg version="1.1" id="Capa_1" xmlns="http://www.w3.org/2000/svg" xmlns:xlink="http://www.w3.org/1999/xlink" x="0px" y="0px"
	 viewBox="0 0 152 152" style="enable-background:new 0 0 152 152;" xml:space="preserve">
<style type="text/css">
	.st0{fill:#E1E1E1;}
	.st1{fill:#FFFFFF;}
	.st2{fill:#557FBF;}
</style>
<g>
	<path class="st0" d="M75.9,151.1c-41.1,0.2-75.5-33.7-75-76.1C1.4,35,34.4,0.4,77.5,1.2c39.5,0.7,74.3,33.5,73.3,76.9
		C150,117.7,117.4,151.2,75.9,151.1z M144,76.2c-0.3-38.1-30.1-67.3-66.5-68.1C37.8,7.3,8.5,38.4,7.8,74.6
		c-0.7,39.6,30.3,69.1,66.7,69.7C113.7,144.9,143.8,113.8,144,76.2z"/>
	<path class="st1" d="M144,76.2c-0.2,37.7-30.3,68.7-69.4,68.1c-36.4-0.6-67.5-30.1-66.7-69.7c0.7-36.2,30-67.3,69.7-66.5
		C113.9,8.8,143.7,38.1,144,76.2z M75.5,108.9c17.6,0.3,32.6-14.3,33-32.2c0.4-17.9-14.2-32.9-32.3-33.3
		c-17.7-0.4-32.7,14.2-33.1,32C42.8,93.6,57.3,108.6,75.5,108.9z"/>
	<path class="st2" d="M75.5,108.9c-18.2-0.3-32.7-15.3-32.4-33.4c0.3-17.8,15.4-32.4,33.1-32c18.1,0.4,32.7,15.4,32.3,33.3
		C108.1,94.6,93.2,109.2,75.5,108.9z M75.7,106c16.4,0.1,29.9-13.2,30-29.6c0.1-16.6-13.2-30.1-29.7-30.1c-16.5-0.1-30,13.1-30,29.5
		C46,92.6,59.1,106,75.7,106z"/>
	<path class="st1" d="M75.7,106C59.1,106,46,92.6,46,75.8c0-16.3,13.5-29.5,30-29.5c16.5,0.1,29.7,13.5,29.7,30.1
		C105.6,92.8,92.2,106.1,75.7,106z M73,65c0,4.1,0,8.2,0,12.3c0,1.3,0.4,1.7,1.7,1.7c5.3-0.1,10.6-0.1,15.9,0c1.9,0,1.6-1.1,1.6-2.2
		c0-1.1,0.2-2.1-1.5-2c-3.8,0.1-7.5,0-11.3,0.1c-1.7,0.1-2.3-0.4-2.3-2.2c0.1-6.4,0-12.9,0.1-19.3c0-1.6-0.7-1.9-2-1.8
		c-1.3,0.1-2.3-0.1-2.3,1.8C73.1,57.2,73,61.1,73,65z"/>
	<path class="st2" d="M73,65c0-3.9,0.1-7.8,0-11.7c-0.1-1.9,1-1.7,2.3-1.8c1.4-0.1,2,0.2,2,1.8c-0.1,6.4,0,12.9-0.1,19.3
		c0,1.8,0.6,2.3,2.3,2.2c3.8-0.1,7.5,0,11.3-0.1c1.7-0.1,1.6,0.9,1.5,2c0,1.1,0.3,2.3-1.6,2.2C85.3,79,80,79,74.7,79
		c-1.3,0-1.7-0.4-1.7-1.7C73,73.2,73,69.1,73,65z"/>
</g>
</svg>
