<?xml version="1.0" encoding="utf-8"?>
<!-- Generator: Adobe Illustrator 24.0.2, SVG Export Plug-In . SVG Version: 6.00 Build 0)  -->
<svg version="1.1" id="Capa_1" xmlns="http://www.w3.org/2000/svg" xmlns:xlink="http://www.w3.org/1999/xlink" x="0px" y="0px"
	 viewBox="0 0 152 152" style="enable-background:new 0 0 152 152;" xml:space="preserve">
<style type="text/css">
	.st0{fill:#E1E1E1;}
	.st1{fill:#FFFFFF;}
	.st2{fill:#557FBF;}
</style>
<g>
	<path class="st0" d="M1.2,76C0.9,34.9,34.8,0.2,77.6,1c39.6,0.7,74.2,33.5,73.4,76.6c-0.7,39.6-33.5,74.3-76.8,73.4
		C34.6,150.1,1.1,117.6,1.2,76z M76.1,144.2c38.1-0.3,67.2-30.1,68.1-66.3c0.9-39.9-30.4-69.3-66.4-70C38.2,7.2,8.4,38.4,8,75.1
		C7.6,113.8,38.4,144,76.1,144.2z"/>
	<path class="st1" d="M76.1,144.2C38.4,144,7.6,113.8,8,75.1C8.4,38.4,38.2,7.2,77.7,7.9c36.1,0.7,67.4,30.1,66.4,70
		C143.3,114,114.2,143.9,76.1,144.2z M42,110.1c7.3-6.1,14.2-11.8,21.1-17.7c1.2-1,2.3-1.4,3.8-1.4c9.6,0,19.2,0.4,28.7-0.2
		c7.8-0.4,14.3-7.4,14.5-15.2c0.1-6,0.1-11.9,0-17.9c-0.2-8.7-7-15.7-15.7-15.8c-12.2-0.1-24.4-0.1-36.6,0
		C48.8,42.1,42,49.2,42,58.1c0,16.5,0,33.1,0,49.6C42,108.4,42,109,42,110.1z"/>
	<path class="st2" d="M42,110.1c0-1.1,0-1.7,0-2.3c0-16.5,0-33.1,0-49.6c0-8.9,6.8-16.1,15.8-16.2c12.2-0.1,24.4-0.1,36.6,0
		c8.7,0.1,15.6,7.1,15.7,15.8c0.1,6,0.1,11.9,0,17.9c-0.1,7.8-6.7,14.8-14.5,15.2C86.1,91.4,76.5,91,66.9,91c-1.5,0-2.7,0.4-3.8,1.4
		C56.2,98.3,49.3,104,42,110.1z M45,103.7c5.9-5,11.5-9.6,17.1-14.4c1.1-0.9,2.2-1.4,3.6-1.4c9.7,0,19.4,0.1,29.1-0.1
		c6.6-0.1,12.1-5.8,12.2-12.4c0.1-6,0.1-11.9,0-17.9C107,51,101.6,45.1,95.2,45c-12.8-0.2-25.5-0.2-38.3,0
		c-6,0.1-11.8,5.9-11.8,11.9C44.9,72.3,45,87.8,45,103.7z"/>
	<path class="st1" d="M45,103.7c0-16-0.1-31.4,0-46.9c0-6,5.8-11.8,11.8-11.9c12.8-0.2,25.5-0.2,38.3,0c6.4,0.1,11.8,6,11.9,12.7
		c0.1,6,0.1,11.9,0,17.9c-0.1,6.6-5.6,12.3-12.2,12.4c-9.7,0.2-19.4,0.1-29.1,0.1c-1.4,0-2.5,0.4-3.6,1.4
		C56.6,94.1,51,98.8,45,103.7z M89.4,70.8c2.5,0,4.6-2,4.5-4.4c-0.1-2.3-2.1-4.3-4.5-4.3c-2.5,0-4.5,2-4.4,4.5
		C85.1,69.1,86.9,70.8,89.4,70.8z M67.2,66.6c0-2.5-2-4.5-4.5-4.4c-2.3,0-4.4,2.1-4.4,4.3c0,2.4,1.9,4.3,4.3,4.4
		C65.2,70.9,67.1,69.1,67.2,66.6z M75.8,70.8c2.6,0.1,4.6-1.7,4.7-4.1c0.1-2.4-1.8-4.4-4.2-4.5c-2.5-0.2-4.7,1.8-4.7,4.2
		C71.6,68.7,73.4,70.7,75.8,70.8z"/>
	<path class="st2" d="M89.4,70.8c-2.5,0-4.3-1.8-4.4-4.2c-0.1-2.5,1.9-4.5,4.4-4.5c2.3,0,4.4,2,4.5,4.3C94,68.8,91.9,70.8,89.4,70.8
		z"/>
	<path class="st2" d="M67.2,66.6c0,2.5-2,4.3-4.6,4.3c-2.4-0.1-4.3-2-4.3-4.4c0-2.3,2.1-4.3,4.4-4.3C65.2,62.1,67.2,64.1,67.2,66.6z
		"/>
	<path class="st2" d="M75.8,70.8c-2.4-0.1-4.2-2.1-4.2-4.5c0.1-2.4,2.3-4.3,4.7-4.2c2.4,0.2,4.2,2.2,4.2,4.5
		C80.4,69.2,78.4,71,75.8,70.8z"/>
</g>
</svg>
