<?xml version="1.0" encoding="utf-8"?>
<!-- Generator: Adobe Illustrator 24.0.2, SVG Export Plug-In . SVG Version: 6.00 Build 0)  -->
<svg version="1.1" id="Capa_1" xmlns="http://www.w3.org/2000/svg" xmlns:xlink="http://www.w3.org/1999/xlink" x="0px" y="0px"
	 viewBox="0 0 332.8 320.2" style="enable-background:new 0 0 332.8 320.2;" xml:space="preserve">
<style type="text/css">
	.st0{fill:#3C5475;stroke:#3C5475;stroke-width:6;stroke-miterlimit:10;}
</style>
<path class="st0" d="M74.5,305.8c-2.6,0-4.7-2.1-4.3-4.4c0.5-3.2,1-6.5,1.6-9.7c0.7-4,1.4-8,2.1-12c0.7-3.8,1.4-7.7,2-11.5
	c0.6-3.8,1.3-7.5,1.9-11.3c0.7-4,1.4-7.9,2.1-11.9c0.7-3.9,1.3-7.8,2-11.7c0.7-3.8,1.3-7.7,2-11.5c0.5-2.6,0.9-5.2,1.3-7.9
	c0.4-2.7,0.9-5.3,1.3-8c0.6-3.6-0.4-6.7-3.1-9.4c-7.2-6.9-14.3-14-21.5-21c-7.5-7.4-15.1-14.7-22.6-22.1c-8-7.8-16.1-15.6-24.1-23.4
	c-1.3-1.2-2.3-2.5-1.9-4.4c0.4-1.9,1.8-3.1,3.9-3.4c5.8-0.8,11.6-1.6,17.4-2.4c7.2-1,14.4-2.2,21.5-3.2c5.9-0.9,11.8-1.6,17.6-2.5
	c5.8-0.8,11.6-1.8,17.4-2.6c4.6-0.7,9.2-1.3,13.8-1.9c3-0.5,6.1-0.9,9.1-1.6c3.2-0.7,5-3.1,6.4-6c4.1-8.4,8.3-16.9,12.5-25.3
	c5.4-11,10.9-22.1,16.3-33.1c4.5-9,8.9-18,13.4-27.1c0.8-1.6,2-2.6,3.8-2.6c1.8,0,3,0.9,3.8,2.6c4.7,9.6,9.5,19.3,14.2,28.9
	c5,10.1,10,20.2,15,30.3c4.5,9.1,9,18.3,13.5,27.4c1.6,3.2,4.4,4.9,8,5.4c4.6,0.6,9.1,1.4,13.7,2c4.5,0.7,9,1.3,13.6,1.9
	c4.6,0.7,9.2,1.3,13.8,2c4.6,0.7,9.3,1.3,13.9,2c4.6,0.7,9.2,1.4,13.8,2.1c4.5,0.7,9,1.3,13.4,1.9c3.3,0.5,6.7,1,10,1.5
	c1.2,0.2,2.4,0.3,3.6,0.6c3.1,0.9,4,4.5,1.7,6.8c-2.9,2.9-5.9,5.8-8.9,8.7c-6.7,6.5-13.3,13-20,19.5c-9.4,9.2-18.9,18.4-28.3,27.6
	c-4,3.9-8.1,7.8-12.2,11.8c-2.3,2.2-3.2,5.1-2.8,8.2c0.4,3.3,1.1,6.6,1.6,10c0.7,3.9,1.4,7.8,2,11.7c0.7,4,1.4,8,2.1,12
	c0.6,3.7,1.2,7.4,1.9,11c0.7,4,1.4,8,2.1,12c0.7,3.9,1.3,7.8,2,11.7c0.7,3.8,1.3,7.7,2,11.5c0.7,3.9,1.3,7.8,2,11.7
	c0.2,1.4,0.5,2.9,0.7,4.3c0.3,1.6-0.2,3-1.5,4c-1.3,1-2.9,1.1-4.3,0.4c-4.8-2.5-9.5-5-14.3-7.5c-8.7-4.6-17.4-9.1-26.1-13.7
	c-11.5-6.1-23-12.1-34.5-18.2c-3.9-2.1-7.8-4.2-11.8-6c-2.7-1.3-5.6-0.9-8.3,0.5c-8.2,4.3-16.4,8.6-24.6,12.9
	c-8,4.2-15.9,8.4-23.9,12.6c-8.7,4.6-17.4,9.1-26.1,13.7c-3.7,1.9-7.3,3.9-11,5.8C75.5,305.5,74.9,305.7,74.5,305.8z"/>
</svg>
