<?xml version="1.0" encoding="utf-8"?>
<!-- Generator: Adobe Illustrator 24.0.2, SVG Export Plug-In . SVG Version: 6.00 Build 0)  -->
<svg version="1.1" id="Layer_4" xmlns="http://www.w3.org/2000/svg" xmlns:xlink="http://www.w3.org/1999/xlink" x="0px" y="0px"
	 viewBox="0 0 2400 1600" style="enable-background:new 0 0 2400 1600;" xml:space="preserve">
<style type="text/css">
	.st0{fill:#0C2134;}
	.st1{fill:#80D4FA;}
	.st2{fill:#4A45FB;}
	.st3{fill:#5254F7;}
	.st4{fill:#675CDB;}
	.st5{fill:#95C3D8;}
	.st6{fill:#FDBDA0;}
	.st7{fill:#F7F9FA;}
	.st8{fill:#F8D05D;}
	.st9{fill:#BA8767;}
	.st10{fill:#47458C;}
	.st11{fill:#F36E7C;}
	.st12{fill:#868EED;}
	.st13{fill:#243B54;}
	.st14{fill:#9FD9FE;}
	.st15{fill:#55C8FA;}
</style>
<path class="st0" d="M1210.4,434.9c0-23.5,0.1-47.1-0.1-70.6c0-4.1,0.6-5.8,5.4-5.8c132,0.2,263.9,0.2,395.9,0.2
	c0,9.7,0.3,19.5,0,29.2c-0.1,4.3,1.4,5.4,5.4,5.2c9-0.3,18.1-0.1,27.1-0.2c0.1,47.8,0.1,95.6,0.2,143.4c0,17.2-0.2,34.4,0.1,51.7
	c0.1,5.3-1.2,6.8-6.7,6.8c-38.8-0.2-77.5-0.1-116.3-0.1c-101.1,0-202.1-0.1-303.2,0.2c-6.6,0-8.2-1.7-8.1-8.2
	c0.3-35.6,0.1-71.2,0-106.7c0.8-0.8,1.4-1.9,2.3-2.4c18.7-8.8,14.3-27.4,3.3-37.1C1213.9,438.9,1210.8,438.1,1210.4,434.9z
	 M1604.9,425.1c0-0.5,0-1,0-1.5c-112.8,0-225.5,0-338.3,0c0,0.5,0,1,0,1.5C1379.3,425.1,1492.1,425.1,1604.9,425.1z M1375.2,406.3
	c-37.4,0-74.8,0-112.2,0c-1.6,0-3.2,0-4.8,0c-1.4,0.1-3,0.1-2.8,2c0.1,1.8,1.7,1.8,3.1,1.8c1.1,0,2.3,0,3.4,0
	c75.2,0,150.5,0,225.7,0c1.6,0,3.2,0.1,4.7-0.2c0.7-0.1,1.7-0.9,1.8-1.6c0.3-1.4-0.9-1.9-2.1-2c-1.8-0.1-3.6-0.1-5.4-0.1
	C1449.5,406.3,1412.3,406.3,1375.2,406.3z M1285.9,525.5c112.7,0,225.5,0,338.2,0C1618.9,522.7,1291.3,522.7,1285.9,525.5z
	 M1304.9,455.9c0,0.5,0,1,0,1.5c90.9,0,181.8,0,272.7,0c0-0.5,0-1,0-1.5C1486.7,455.9,1395.8,455.9,1304.9,455.9z M1528.1,542
	c-7.6-3.7-258.2-2.9-262.1,0C1353.8,542,1441,542,1528.1,542z M1286,439.7c0,0.5,0,1,0,1.5c87.1,0,174.2,0,261.3,0c0-0.5,0-1,0-1.5
	C1460.2,439.7,1373.1,439.7,1286,439.7z M1330.7,491.4c7.6,3.8,218.8,3,223.1,0C1478.9,491.4,1404.8,491.4,1330.7,491.4z
	 M1330.6,472.2c0,0.4,0,0.9,0,1.3c61.4,0,122.9,0,184.3,0c0-0.4,0-0.9,0-1.3C1453.4,472.2,1392,472.2,1330.6,472.2z M1304.9,507.5
	c7.5,3.9,180.9,3.1,184.5,0C1427.6,507.5,1366.3,507.5,1304.9,507.5z M1255.6,556.5c0,0.5,0,1,0,1.5c35.7,0,71.3,0,107,0
	c0-0.5,0-1,0-1.5C1326.9,556.5,1291.3,556.5,1255.6,556.5z M1229.5,371.3c-0.2-2.6-1.5-4.2-4.2-4.4c-3.1-0.2-4.8,1.6-4.9,4.4
	c-0.1,2.5,1.6,4.3,4.2,4.5C1227.5,375.9,1229.3,374.3,1229.5,371.3z M1266.4,372.1c-0.1-3.1-1.8-4.8-4.5-4.8c-2.8,0-4.6,1.9-4.5,4.7
	c0.1,2.4,1.6,4.2,4.2,4.3C1264.4,376.5,1266,374.8,1266.4,372.1z M1248.6,370.8c-0.4-2.4-1.8-3.9-4.4-3.9c-3,0-4.6,1.9-4.5,4.7
	c0.1,2.6,1.9,4.2,4.4,4.1C1246.9,375.7,1248.6,374,1248.6,370.8z M1232,462.9c0.3,1.4-0.8,3.5,1.7,3.6c2.8,0.1,2.1-2.3,2.1-3.9
	c0-1.5,0.4-3.5-1.8-3.6C1231,458.9,1232.4,461.4,1232,462.9z M1236.2,423.3c0-2,0.2-4.1-2.5-3.9c-2.8,0.2-1.9,2.6-1.9,4.1
	c0,1.6-0.7,4.1,2,4.1C1236.9,427.6,1236,424.9,1236.2,423.3z M1232,501.9c0.4,1.4-1.1,4,2.1,3.8c2.4-0.1,1.8-2.2,1.8-3.6
	c0-1.7,0.6-4.1-2.2-4C1231.3,498.3,1232.3,500.5,1232,501.9z M1235.9,482.5c-0.3-1.5,0.9-4-2.1-4c-2.6,0-1.8,2.2-1.7,3.5
	c0.1,1.5-1.2,4,1.6,4.3C1236.5,486.6,1235.7,484.1,1235.9,482.5z M1235.9,442.9c-0.2-1.7,0.5-4.2-2.4-3.7c-2.6,0.4-1.3,2.9-1.4,4.5
	c-0.1,1.3-0.8,3.5,1.8,3.4C1236.8,446.8,1235.5,444.4,1235.9,442.9z M1236,521.5c-0.4-1.3,0.7-3.7-2.3-3.6c-2.5,0.1-1.6,2.3-1.6,3.6
	c0.1,1.5-1.1,4,1.7,4.2C1236.5,525.7,1235.7,523.3,1236,521.5z M1235.9,541.5c-0.2-1.6,0.6-4-2.1-4.1c-2.4,0-1.8,2.2-1.7,3.6
	c0.1,1.5-1.1,4,1.9,4C1236.4,545.1,1235.7,543,1235.9,541.5z"/>
<path class="st1" d="M735.9,1345.9c-2-15.2-3.8-30.3-5.9-45.5c-2.9-21.2-6-42.3-9-63.4c-1.4-10.2-2.8-20.5-4.1-30.7
	c10,6.9,20,13.9,30.2,20.6c12,7.8,24.7,9.4,37.8,2.4c2.1,1.5,1.6,7.3,5.3,5.1c2.5-1.4-0.6-5-2.1-7.3c-0.1-0.2-0.3-0.3-0.5-0.5
	c3.3-3.9,6-8.9,5-13.5c-2-9.6,3.4-8.7,9.3-8.1c0.2,0,0.4,0,0.7,0c1.5,7.8,1.2,15.7,1.4,23.6c0,2.1-1.6,6.1,1.6,6.1
	c4.1,0.1,2.1-4.2,2.3-6.5c0.4-7.9-0.1-15.8-1.2-23.6c7.8-3,13-9.2,18.7-15.7c1.7,7.5,3.5,14.2,8.4,19.5c-2.9,7.3-4.5,15-6.2,22.6
	c-0.3,1.4-1.4,3.3,1,3.8c2.2,0.5,2.4-1.3,2.8-2.8c1.8-6.9,3.6-13.9,5.4-20.8c15.6,6.1,26,3.6,36.7-8.9c3.3-3.8,5.3-8.4,7-13.1
	c3.5-10.3,5.3-21,7.8-31.5c3-12.4,4.3-25.3,9.6-37.2c6.6-14.8,17.5-26.1,29.7-36.5c2.6-2.2,6.4-4.1,5-8.8c22.8,0,45.7,0,68.5,0
	c0.1,15.7,7,22.5,22.9,22.6c12,0,24,0.1,36-0.1c3.5,0,5.2,0.6,5.2,4.8c-0.2,40.3-0.3,80.6-0.3,120.9c-20.2,7.2-39.9,15.5-59.3,24.5
	c-9.7,4.5-15.4,12.6-18.4,23c-2.5,8.9,0.9,17.5,0.4,26.2c-12.6,0.1-25.2,0.1-37.9,0.4c-11.4,0.3-18.7,7.8-18.7,18.8
	c0,2.6,0.1,5.1,3.6,5.2c-4.9,8-4.6,15.6,1.3,23c-1.9,1.8-4.2,1.3-6.4,1.3c-23.7,0-47.4,0-71.2-0.1c3.6-15,7.2-30.1,10.7-45.2
	c2.5-11.1,4.7-22.3,7.1-33.5c2.5-5.1,2.9-10.8,4.3-16.3c2-8.1,1.7-8.4-6.7-8.4c-44.7,0-89.5,0-134.2,0c-1.1,0-2.3,0.1-3.4,0
	c-3.2-0.1-5,1.6-4.1,4.6c1.9,6.7,2.1,13.8,5.2,20.2c4.9,26.4,11.8,52.4,17.7,78.7C748.6,1345.9,742.2,1345.9,735.9,1345.9z"/>
<path class="st2" d="M1115.7,640.5c9.7,20.6,17.6,42,26.3,63.1c1,2.5,0.2,4.3-1.2,6.2c-11.2,7-11.5,7.1-8.4,18.8
	c1.1,4.3-1.3,5.1-3.8,6.5c-21.6,12.4-43,24.9-64.8,37c-4.7,2.6-4.8,4.5-1.6,8.4c8.2,10,15.8,20.3,23.9,30.4
	c6.1,7.6,13.3,14.1,22.6,17.9c-0.1,16.9-0.1,33.7-0.2,50.6c-2.7,3.1-5.4,6.3-8.2,9.4c-0.5,0.6-1,1.1-1.4,1.7l0.1-0.1
	c-9.5,10-18.8,20.2-28.6,29.8c-29.3,28.8-58.3,58.1-97.8,73.5c-2,0.2-4.1,0.3-6.1,0.5c-13.5,1.8-16.9-0.5-18.6-13.7
	c-5.6-43-5.7-86.2-6.3-129.4c11.9-8.2,24.6-14.9,37-22.1c19.1-11.1,38.2-22.3,57.3-33.3c3.9-2.3,4.7-4.6,2.5-8.7
	c-11.4-21.8-22.2-44-31.4-66.8c-5.4-13.4-12.2-26.2-15.6-40.3l0.2-0.1c3.5,2.7,5.6,6.6,7.5,10.3c4.2,8.3,10.7,10.5,19.4,10.3
	c22.4-0.4,44.8-0.1,67.2-0.1c9.3,0,18.6,0.1,27.8-0.1c4.7-0.1,8.9-1.4,8.3-7.3c-1.4-12.5-3.1-25-4.7-37.5
	C1116.7,650.3,1114.5,645.6,1115.7,640.5z"/>
<path class="st3" d="M1115.7,640.5c-1.2,5.1,1,9.8,1.6,14.7c1.6,12.5,3.3,25,4.7,37.5c0.7,5.9-3.6,7.3-8.3,7.3
	c-9.3,0.1-18.6,0.1-27.8,0.1c-22.4,0-44.8-0.3-67.2,0.1c-8.8,0.2-15.3-2-19.4-10.3c-1.9-3.7-4-7.6-7.5-10.3
	c-0.1-0.4-0.2-0.8-0.3-1.2c-0.2,0.1-0.4,0.3-0.6,0.4c0.3,0.3,0.5,0.6,0.8,1c3.3,14.2,10.2,27,15.6,40.3c9.2,22.8,20,45,31.4,66.8
	c2.2,4.2,1.4,6.5-2.5,8.7c-19.2,11-38.2,22.3-57.3,33.3c-12.5,7.2-25.2,13.9-37,22.1c-0.1-2.9-0.3-5.8-0.3-8.7
	c-0.1-23.4-0.2-46.7-0.3-70.1c0.4-20.5,0.8-41.1,3.1-61.5c4.7-41.8,12.2-82.8,36-118.7c10.8-16.3,24.2-29.9,44.3-34.6
	c21.6,8.5,43.3,17.1,64.9,25.6c11.7,14.3,17.1,31.7,23.4,48.6C1113.7,634.5,1114.7,637.5,1115.7,640.5z"/>
<path class="st4" d="M802.5,1204.9c-0.2,0-0.4,0-0.7,0c-5.9-0.6-11.3-1.4-9.3,8.1c1,4.6-1.7,9.6-5,13.5c-0.9,0.9-1.8,1.8-2.7,2.6
	c-13.1,7-25.7,5.5-37.8-2.4c-10.2-6.6-20.1-13.7-30.2-20.6c-17.3-14.3-37.3-19.3-59.4-16.8c-2.9,0.3-6.7,0.7-7.8-2.4
	c-1.2-3.4,2.5-4.9,4.8-6.5c16.8-11.5,35.8-15.7,55.7-16.9c13.7-0.2,27,2.5,39.8,7.2c2.9,1.1,5.7,3,9,2.4c0.2,0.2,0.3,0.4,0.5,0.6
	c-0.1-0.2-0.3-0.4-0.4-0.6c-6.4-16.6-12.5-33.4-17.6-50.5c-3-9.9-6-19.9-12.1-28.6c-7-13.2-17.4-23.6-28.2-33.6
	c-3.3-3-8.8-5.9-7.3-10.4c1.6-4.7,7.8-3.2,12.2-3.2c26.9,0.1,51.7,8,74.8,21.4c1.8,1,3.5,2,5.3,3c25,17.9,41.9,41.3,48.2,71.9
	c2.3-1.4,2.7-3.8,3.7-5.7c19.1-34.3,47.6-55.5,86.5-62.4c2.6,0.1,5.3,0.1,7.9,0.2c1.4,4.6-2.4,6.6-5,8.8
	c-12.1,10.4-23,21.7-29.7,36.5c-5.3,11.8-6.6,24.7-9.6,37.2c-2.5,10.5-4.3,21.2-7.8,31.5c-1.6,4.7-3.7,9.3-7,13.1
	c-10.7,12.5-21.1,15-36.7,8.9c-0.6-1.4-1.4-2.6-3.1-2.8c-4.9-5.3-6.7-12.1-8.4-19.5c-5.7,6.5-10.9,12.7-18.7,15.7
	C805.3,1204.7,803.9,1204.8,802.5,1204.9z"/>
<path class="st5" d="M735.9,1345.9c6.3,0,12.7,0,19,0c3.3,1,6.6,1.5,10,1.4c27.8-0.1,55.6-0.1,83.4,0c3.4,0,6.7-0.4,10-1.4
	c23.7,0,47.4,0.1,71.2,0.1c2.2,0,4.6,0.5,6.4-1.3c7.3,5.6,14.8,5.7,22.6,1.2c11.9,0,23.9,0,35.8,0c23.5,0,47,0.1,70.4,0.1
	c1,1.5,2.2,2.9,4.1,3.2c6.9,0.9,13.9,0.8,20.8,0c1.9-0.2,3.2-1.6,4.1-3.2c35.4-0.1,70.9-0.1,106.3-0.2c7.1,4.3,14.2,4.4,21.4,0.2
	c24.3,0,48.6,0,72.9,0.1c8.4,0,16.7,0,25.1,0c120,0,239.9,0,359.9,0c8.5,0,17-0.1,25.4-0.1c9.7,0,19.5,0.1,29.2,0.1
	c61.6,0,123.3,0,184.9,0.1c2.7,0,6.7-1.7,7.7,2.1c1.2,4.5,1.1,9.4-0.2,14.1c-0.4,1.4-2.2,1.3-3.6,1.4c-2.3,0-4.5,0-6.8,0
	c-417.8,0-835.6,0-1253.4,0c-10.7,0-14-4.6-11-14.9c1.2-3.9,4.3-2.7,6.7-2.7C684.2,1345.9,710.1,1345.9,735.9,1345.9z"/>
<path class="st6" d="M1108.7,828.7c-9.3-3.8-16.5-10.2-22.6-17.9c-8.1-10-15.8-20.4-23.9-30.4c-3.2-3.9-3.1-5.8,1.6-8.4
	c21.7-12.1,43.2-24.6,64.8-37c2.5-1.4,4.9-2.2,3.8-6.5c-3.1-11.8-2.8-11.9,8.4-18.8c4.9,9,10.8,17.2,17.1,25.2
	c2,2.5,4.5,4.3,7.4,5.7c10.1,5,20.2,10.1,30.3,15.1c21.4,12.2,43.4,23.1,65.5,34c10.9,5.4,22,8.1,34.3,8.7
	c23.5,1.1,45.5,7.3,62.1,25.9c1.2,1.3,2.8,2.4,4.4,3.1c9.9,4.6,16.8,11.9,21.1,21.9c0.9,3.9-0.8,5.5-4.6,6.4
	c-7.8,1.8-13.1-2.9-18.9-6.4c-12.1-8.3-16.6-8.3-28.9,0c-7.6,3.1-15.5,4.7-23.6,5c-7.3-1.5-14.5-3.6-21.8-4.3
	c-18.9-1.8-37.8-2.8-56.7-4.4C1188.2,842.4,1147.9,839.2,1108.7,828.7z"/>
<path class="st1" d="M1734,1345.9c-9.7,0-19.5-0.1-29.2-0.1c0-4.1,0-8.2,0.1-12.3c0.3-2.6,0.6-5.3,0.8-7.9c0.8-4.8,1.8-9.6,2.5-14.5
	c3.4-23.8,6.9-47.5,10.2-71.3c1.8-13.2-2.1-24.4-13.1-32.5c-0.2-2.5-0.6-4.9-0.6-7.4c0-23.1-0.1-46.1,0-69.2
	c0.2-38.4,0.4-76.8,0.7-115.3c18.6,4.8,38.7,6.3,52.7,22c11.2,12.7,16,27.2,13.3,44.4c-4.2,26.9-7.6,53.9-11.4,80.9
	c-3.9,27.4-7.9,54.8-11.8,82.2c-3.8,27-7.5,53.9-11.3,80.9C1735.8,1332.5,1734.9,1339.2,1734,1345.9z"/>
<path class="st1" d="M924.5,1075.2c-38.8,6.9-67.3,28.2-86.5,62.4c-1.1,1.9-1.4,4.3-3.7,5.7c-6.2-30.7-23.2-54-48.2-71.9
	c10.8-4.6,21.4-9.5,32.4-13.6c6.9-2.6,10.2-5.9,10-14.2c-0.7-26-0.3-52-0.3-78c0-26.9,20.7-49.5,47.5-51.9c4-0.4,8-0.9,12.1-1.4
	c3.2,20.1,6.4,40.2,9.7,60.2c3.2,19.6,6.5,39.2,9.7,58.8C901.2,1057.6,907,1070,924.5,1075.2z"/>
<path class="st7" d="M1603.8,859.5c2.8,1.4,5.8,0.9,8.7,0.9c36.6,0,73.2,0.2,109.8-0.1c6.3-0.1,8.4,1.9,7.9,8
	c-0.5,5.4-0.4,10.9,0,16.3c0.4,5.5-1.3,7.8-7.1,7.4c-6.1-0.3-12.2,0.3-18.3,0.4c-8.4-0.1-16.8-0.1-25.1-0.2
	c-24.1-0.6-48.1-0.7-72.2,0.1c-3.2-0.1-6.3-0.3-9.5-0.3c-85.4,0-170.8,0-256.2,0c-4.8,0-9.5,0.1-14.3,0.2c-2.7,0-5.4-0.1-8.1-0.1
	c-8.6,0.1-17.2,0.2-25.8,0.3c-4.3-0.1-8.6-0.6-12.9-0.1c-5,0.5-6.3-1.8-6.3-6c0.1-6.5,0.3-13.1,0.1-19.6c-0.2-4.6,1.2-6.4,6.1-6.3
	c8.8,0.2,17.6-0.1,26.4-0.2c0.7,0.1,1.3,0.2,2,0.2c67.3,0,134.6,0,202,0c1.8,0,3.6,0.2,5.2-1c2,1.6,4.3,1.1,6.5,1.1
	c24.6,0,49.2,0,73.8,0C1598.9,860.4,1601.3,859.8,1603.8,859.5z"/>
<path class="st8" d="M967.7,434.8c-22.4,0-44.8-0.2-67.3,0.1c-5.5,0.1-6.8-1.7-6.8-6.9c0.2-28.8,0.2-57.5,0-86.3
	c0-5.2,1.6-6.5,6.6-6.4c45.3,0.2,90.6,0.2,135.9,0c5.5,0,6.8,1.7,6.8,6.9c-0.2,28.8-0.2,57.5,0,86.3c0,5.2-1.6,6.5-6.6,6.4
	C1013.5,434.7,990.6,434.8,967.7,434.8z M962.3,354.7c-14.2,0-25.3,11.9-24.3,26c1.1,14.2,14.6,26.4,27.4,22.1
	c10.3-3.4,15.3,0.5,20.8,7c1,1.2,2.3,2.2,3.4,3.3c2.6,2.8,4.7,1.3,6.9-0.8c2.4-2.3,2-4.2-0.2-6.3c-3-2.8-5.6-5.9-8.7-8.6
	c-3.4-3-4.3-5.6-2.5-10.4C991.1,371.2,979.3,354.7,962.3,354.7z"/>
<path class="st1" d="M1382.9,849.4c-4.2-10-11.2-17.3-21.1-21.9c-1.6-0.7-3.2-1.8-4.4-3.1c-16.5-18.6-38.6-24.8-62.1-25.9
	c-12.4-0.6-23.5-3.3-34.3-8.7c-22.1-10.9-44.1-21.8-65.5-34c47.6,0,95.1,0,142.7,0c24.6,0,45.8,17.3,50,41.5c0.9,4.9,2.9,6.7,7,7.1
	c14.3,1.6,28.7,2.9,43,4.5c15.5,1.6,30.9,3.4,46.3,5c10.8,1.1,21.5,2.1,32.3,3.2c2.4,0.2,5.1-0.4,6.7,2.2
	c-4.4,8.3-9.1,16.6-13.2,25.1c-2,4.1-4.6,5.2-9,5.2C1462,849.3,1422.4,849.4,1382.9,849.4z"/>
<path class="st9" d="M1679.6,892.3c8.4,0.1,16.8,0.1,25.1,0.2c0.1,34.9,0.2,69.8,0.3,104.6c0,6.1,0.2,12.2,0.2,18.3
	c-0.2,38.4-0.5,76.8-0.7,115.3c-0.1,23.1,0,46.1,0,69.2c0,2.5,0.4,4.9,0.6,7.4c-0.1,4.1-0.4,8.1-0.4,12.2c0,35.3,0.1,70.6,0.1,105.9
	c-0.9,2.7-0.9,5.4-0.1,8.1c0,4.1,0,8.2-0.1,12.3c-8.5,0-17,0.1-25.4,0.1c0-47.3,0-94.6-0.1-141.9c0-2.9-0.3-5.8-0.5-8.8
	c0.2-2.2,0.5-4.5,0.5-6.7c0-58.5,0-117.1,0-175.6c0-2.2-0.3-4.5-0.5-6.7c0.2-3.1,0.5-6.3,0.5-9.4
	C1679.4,961.9,1679.5,927.1,1679.6,892.3z"/>
<path class="st10" d="M1210.4,434.9c0.4,3.2,3.5,3.9,5.4,5.6c11,9.7,15.4,28.3-3.3,37.1c-0.9,0.4-1.5,1.6-2.3,2.4
	c-9,0.9-18.1,2.7-27.1-0.4c-2.1-1.7-4-3.6-6.2-5.1c-7.1-4.8-12.1-12.2-19.9-16c-6.4-3.1-11.2-0.4-11.6,6.7c-0.2,3.2-0.3,6.3-0.2,9.5
	c0,5.1-1.9,8.1-7.5,8.1c-6.5,0-11.1,3-13.5,9.3c-0.9,2.3-2.1,4.5-3.4,6.6c-1.5,2.3-2.4,6.5-6,5.2c-2.8-1-1.8-4.7-1.4-7.3
	c0.4-2.7,1-5.3,1.5-8c1.1-6.3-3.7-14.3-9.7-16.1c-5.4-1.6-9.8,1.4-12.7,9.2c-1.1,2.9-1.9,6.1-2.2,9.2c-0.9,8.9-5.9,14.9-13.4,19.1
	c-8.4,4.7-17.4,6.1-26.8,5.5c1.1-16.5,5-32.4,8.5-48.5c2.7-12.4,6.2-24.5,11.8-36c3.6-7.3,8-14.2,14.4-19.5c6.1-5,12.9-7.8,20.7-5.1
	c3.8,1.3,7.3,1.2,11.1,0.1c10.6-3,20.7-1.9,28.9,6.3c2.1,2.1,4.3,2.1,6.8,1.5c12-2.5,22.4-0.1,30.5,9.7c0.6,0.7,1.2,1.6,2,1.8
	C1193.9,427.7,1201.8,432.3,1210.4,434.9z"/>
<path class="st11" d="M1198.2,239.1c19.9,0,39.9,0.1,59.8-0.1c4.8-0.1,6.8,0.9,6.7,6.3c-0.3,23.1-0.2,46.2,0,69.3
	c0,4.3-1.1,5.9-5.7,5.9c-40.1-0.2-80.2-0.1-120.3,0c-4.2,0-6-1-6-5.6c0.2-23.3,0.2-46.7,0-70c-0.1-5.1,2-5.9,6.4-5.8
	C1158.8,239.2,1178.5,239.1,1198.2,239.1z M1194.2,299.8c2-0.2,2.2-1.9,2.6-3.4c3.2-12,6.3-24.1,9.4-36.2c0.5-1.8,0.8-3.7-1.6-4.5
	c-2.3-0.7-3.2,0.6-3.8,2.6c-3.2,12.5-6.4,25-9.8,37.5C1190.2,298.9,1192.1,299.3,1194.2,299.8z M1227.6,279c-4,1.8-7.3,3.3-10.6,4.7
	c-1.9,0.8-3.2,1.8-2.1,4.1c0.9,2,2.4,1.6,4,0.8c4.5-2,9.2-3.7,13.5-6.2c3.8-2.2,3.8-5.6-0.1-7.8c-4.3-2.4-9-4.1-13.5-6.2
	c-1.6-0.7-3-1-3.9,1c-0.8,1.9,0.2,2.9,1.8,3.7C1220,274.9,1223.9,275.4,1227.6,279z M1169.7,278.6c5-2.3,8.6-3.9,12.1-5.6
	c1.8-0.8,2.1-2.3,1.2-3.9c-0.9-1.6-2.2-1.2-3.5-0.6c-4.5,2-9.2,3.8-13.6,6.2c-3.9,2.1-3.6,6,0.5,8.2c4,2.1,8.2,3.8,12.4,5.6
	c1.7,0.7,3.4,1.8,4.4-0.9c0.9-2.4-0.8-3.2-2.5-4C1177.5,282.1,1174.3,280.6,1169.7,278.6z"/>
<path class="st6" d="M1050.2,515.4c9.4,0.6,18.4-0.8,26.8-5.5c7.5-4.2,12.5-10.2,13.4-19.1c0.3-3.1,1.1-6.2,2.2-9.2
	c2.9-7.8,7.2-10.8,12.7-9.2c5.9,1.8,10.8,9.8,9.7,16.1c-0.5,2.7-1,5.3-1.5,8c-0.4,2.6-1.5,6.3,1.4,7.3c3.6,1.3,4.5-2.9,6-5.2
	c1.3-2.1,2.5-4.3,3.4-6.6c2.4-6.3,6.9-9.4,13.5-9.3c5.6,0,7.6-3,7.5-8.1c0-3.2,0.1-6.3,0.2-9.5c0.4-7.1,5.2-9.8,11.6-6.7
	c7.9,3.8,12.8,11.2,19.9,16c2.2,1.5,4.1,3.4,6.2,5.1c-3.9,34.9-25.2,59.1-49.9,81.3c-5.9,5.3-11.6,5.7-18.6,2.3
	c-12.8-6.2-13-6-19.4,6.9c-2.1,4.3-4.1,8.6-6.1,12.9c-21.6-8.5-43.3-17.1-64.9-25.6C1032.9,543.3,1041.6,529.4,1050.2,515.4z"/>
<path class="st12" d="M1644.1,392.9c-9,0-18.1-0.1-27.1,0.2c-4,0.1-5.6-0.9-5.4-5.2c0.3-9.7,0-19.4,0-29.2c0-13.8,0.2-27.6,0-41.4
	c-0.1-4.3,1.2-6,5.8-6c34.2,0.1,68.4,0.2,102.5,0c4.9,0,6.1,1.8,6.1,6.4c-0.2,22.9-0.3,45.7,0,68.6c0.1,5.7-2.1,6.7-7.2,6.7
	C1693.9,392.8,1669,392.9,1644.1,392.9z M1655.8,324.8c-2.9,0.5-5.9,1.2-7.1,4.3c-2.9,7.5,1.2,16.3-4.4,23.3
	c5.3,6.2,2.4,13.8,3.8,20.7c1,4.8,4.1,6.8,8.6,7.2c1.1,0.1,2.4,0.1,2.9-1.1c0.6-1.3,0.7-2.8-0.5-3.8c-8.7-6.5-1-17.2-6.3-24.6
	c3.5-4.1,1.9-9.1,2.2-13.7c0.2-2.9-0.4-6,3.5-7.2c1.6-0.5,1.7-2,1.4-3.4C1659.2,324.4,1657.4,325,1655.8,324.8z M1680.7,380.3
	c5.1-0.9,8.4-2.9,8.6-8.7c0.3-6.2-2.4-13.2,3.6-18.4c0.4-0.4,0.4-2.2,0-2.5c-6-4.7-3.2-11.3-3.5-17c-0.3-5.3-2.8-7.9-7.7-8.6
	c-1.3-0.2-2.8-0.2-3.3,1.5c-0.3,1.1-0.4,2.4,0.6,3.1c8.1,5.8-0.5,16.5,6.6,22.6c0.1,0.1-0.3,0.8-0.6,1.1c-3.5,3.3-2.2,7.6-2.5,11.5
	c-0.3,3.9,1.2,8.3-3.5,10.8c-1.1,0.6-0.9,2-0.7,3.1C1678.6,380.2,1679.7,380.3,1680.7,380.3z"/>
<path class="st1" d="M940.9,772.2c0.1,23.4,0.2,46.7,0.3,70.1c0,2.9,0.2,5.8,0.3,8.7c0.7,43.2,0.7,86.5,6.3,129.4
	c1.7,13.2,5.1,15.5,18.6,13.7c2-0.3,4.1-0.4,6.1-0.5c4.9,4.8,9.6,10,16.2,12.7c7.6,6.3,16.8,9.4,25.9,12.5
	c-28.6,1-57.1,0.7-85.7,0.2c-4.3-27.6-8.6-55.2-12.9-82.8c-3.5-22.9-6.9-45.9-10.4-68.8c5.5-12.6,8.1-26.1,12.3-39.1
	c4.3-13.5,8.1-27.1,12.5-40.6C932.4,781.6,935.7,776.2,940.9,772.2z"/>
<path class="st11" d="M877.1,839.7c-10.7-5.2-14.6-14.4-16-25.7c-3.5-29-7.5-57.8-11.4-86.8c-1.9-14.1,7.2-26.1,21.3-28.1
	c12.5-1.8,24.7,7.5,26.6,20.7c4.5,31.5,8.7,63,12.8,94.6c1.2,9.4-3.4,16.5-10.1,22.5C892.9,841,885.2,841.8,877.1,839.7z"/>
<path class="st0" d="M1382.9,849.4c39.5,0,79-0.1,118.5,0c4.4,0,7-1.1,9-5.2c4.1-8.5,8.8-16.7,13.2-25.1
	c15.7-28.5,31.5-57,47.2-85.5c9.9-18,19.8-36.1,29.7-54.1c1.9-3.5,2.5-7.9,9-4.4c6.1,3.3,3.7,6.1,1.6,9.8
	c-23.5,42.8-46.9,85.7-70.4,128.5c-1.1,2-2,4-3,6.1c-7.7,13-15.1,26.1-21.6,39.7c-1.6,1.2-3.4,1-5.2,1c-67.3,0-134.6,0-202,0
	c-0.7,0-1.3-0.1-2-0.2c0-1.9-0.1-3.9-0.1-5.8c8.2-0.3,16.1-1.9,23.6-5c9.6,0,19.3,0,28.9,0c5.8,3.5,11.1,8.2,18.9,6.4
	C1382.2,854.9,1383.8,853.2,1382.9,849.4z"/>
<path class="st13" d="M877.1,839.7c8.1,2,15.9,1.3,23.3-2.7c1.8,10.1,3.6,20.2,5.4,30.3c3.5,22.9,6.9,45.9,10.4,68.8
	c4.2,27.6,8.6,55.2,12.9,82.8c-9.4,0.2-16.6,4.4-21.7,12.2c-3.2-19.6-6.5-39.2-9.7-58.8c-3.3-20.1-6.5-40.2-9.7-60.2
	c-3.3-21.7-6.6-43.3-9.9-65C877.6,844.7,877.4,842.2,877.1,839.7z"/>
<path class="st1" d="M1516.2,859.3c6.5-13.6,13.9-26.7,21.6-39.7c16.8,1.3,33.9,1.1,48.1,12.4c9,7.2,16.3,15.5,17.9,27.5
	c-2.4,0.3-4.9,0.8-7.3,0.8c-24.6,0.1-49.2,0.1-73.8,0C1520.5,860.4,1518.1,860.9,1516.2,859.3z"/>
<path class="st1" d="M729.3,1094.2c6.1,8.6,9.1,18.6,12.1,28.6c5.2,17.1,11.2,33.9,17.6,50.5l-0.1,0.1c-3.4,0.6-6.1-1.3-9-2.4
	c-12.9-4.7-26.1-7.4-39.8-7.2c0.6-6.8-1.1-13.5-1.8-20.2c-1.9-17.8,4.4-32.2,17-44.3C726.9,1097.7,729,1096.7,729.3,1094.2z"/>
<path class="st8" d="M1604.9,425.1c-112.8,0-225.5,0-338.3,0c0-0.5,0-1,0-1.5c112.8,0,225.5,0,338.3,0
	C1604.8,424.1,1604.8,424.6,1604.9,425.1z"/>
<path class="st9" d="M1375.2,406.3c37.2,0,74.3,0,111.5,0c1.8,0,3.6,0,5.4,0.1c1.2,0.1,2.4,0.6,2.1,2c-0.1,0.7-1.1,1.5-1.8,1.6
	c-1.5,0.3-3.2,0.2-4.7,0.2c-75.2,0-150.5,0-225.7,0c-1.1,0-2.3,0-3.4,0c-1.4-0.1-2.9-0.1-3.1-1.8c-0.1-1.9,1.5-2,2.8-2
	c1.6-0.1,3.2,0,4.8,0C1300.4,406.3,1337.8,406.3,1375.2,406.3z"/>
<path class="st11" d="M1285.9,525.5c5.4-2.8,333-2.8,338.2,0C1511.4,525.5,1398.6,525.5,1285.9,525.5z"/>
<path class="st8" d="M1304.9,455.9c90.9,0,181.8,0,272.7,0c0,0.5,0,1,0,1.5c-90.9,0-181.8,0-272.7,0
	C1304.9,456.9,1304.9,456.4,1304.9,455.9z"/>
<path class="st11" d="M1528.1,542c-87.2,0-174.4,0-262.1,0C1270,539.1,1520.6,538.3,1528.1,542z"/>
<path class="st8" d="M1286,439.7c87.1,0,174.2,0,261.3,0c0,0.5,0,1,0,1.5c-87.1,0-174.2,0-261.3,0C1286,440.7,1286,440.2,1286,439.7
	z"/>
<path class="st11" d="M1330.7,491.4c74.1,0,148.2,0,223.1,0C1549.5,494.4,1338.3,495.1,1330.7,491.4z"/>
<path class="st8" d="M1330.6,472.2c61.4,0,122.8,0,184.3,0c0,0.4,0,0.9,0,1.3c-61.4,0-122.9,0-184.3,0
	C1330.6,473.1,1330.6,472.7,1330.6,472.2z"/>
<path class="st11" d="M1304.9,507.5c61.4,0,122.7,0,184.5,0C1485.8,510.6,1312.3,511.5,1304.9,507.5z"/>
<ellipse class="st11" cx="1309.1" cy="557.3" rx="75.6" ry="1.1"/>
<path class="st7" d="M1229.5,371.3c-0.3,3-2,4.6-4.9,4.5c-2.6-0.1-4.3-1.9-4.2-4.5c0.1-2.8,1.8-4.6,4.9-4.4
	C1228,367.1,1229.3,368.7,1229.5,371.3z"/>
<path class="st11" d="M1266.4,372.1c-0.3,2.7-1.9,4.4-4.8,4.3c-2.6-0.1-4.1-1.9-4.2-4.3c-0.1-2.8,1.7-4.7,4.5-4.7
	C1264.6,367.3,1266.3,369,1266.4,372.1z"/>
<path class="st8" d="M1248.6,370.8c0.1,3.2-1.7,4.9-4.5,5c-2.5,0.1-4.3-1.6-4.4-4.1c-0.1-2.8,1.4-4.7,4.5-4.7
	C1246.8,366.9,1248.2,368.4,1248.6,370.8z"/>
<path class="st7" d="M1232,462.9c0.4-1.5-1-4,2.1-3.9c2.3,0.1,1.9,2.1,1.8,3.6c0,1.6,0.7,3.9-2.1,3.9
	C1231.2,466.4,1232.3,464.2,1232,462.9z"/>
<path class="st5" d="M1236.2,423.3c-0.2,1.7,0.7,4.3-2.4,4.3c-2.7,0-2-2.5-2-4.1c0-1.6-0.9-3.9,1.9-4.1
	C1236.4,419.2,1236.2,421.3,1236.2,423.3z"/>
<path class="st7" d="M1232,501.9c0.3-1.4-0.7-3.7,1.7-3.8c2.8-0.1,2.2,2.3,2.2,4c0,1.4,0.7,3.5-1.8,3.6
	C1230.9,506,1232.4,503.4,1232,501.9z"/>
<path class="st7" d="M1235.9,482.5c-0.3,1.6,0.6,4.2-2.3,3.9c-2.8-0.3-1.4-2.8-1.6-4.3c-0.1-1.3-0.9-3.5,1.7-3.5
	C1236.8,478.5,1235.6,480.9,1235.9,482.5z"/>
<path class="st7" d="M1235.9,442.9c-0.4,1.5,0.9,3.9-2,4.1c-2.6,0.2-2-2-1.8-3.4c0.1-1.6-1.2-4,1.4-4.5
	C1236.4,438.7,1235.7,441.2,1235.9,442.9z"/>
<path class="st7" d="M1236,521.5c-0.3,1.8,0.6,4.3-2.2,4.2c-2.8-0.1-1.6-2.6-1.7-4.2c0-1.3-0.9-3.4,1.6-3.6
	C1236.6,517.7,1235.6,520.2,1236,521.5z"/>
<path class="st7" d="M1235.9,541.6c-0.2,1.4,0.5,3.5-1.9,3.5c-3,0-1.8-2.5-1.9-4c-0.1-1.4-0.7-3.6,1.7-3.6
	C1236.5,537.5,1235.7,539.9,1235.9,541.6z"/>
<path class="st11" d="M907.4,1031.2c5.1-7.8,12.2-12.1,21.7-12.2c28.6,0.5,57.1,0.8,85.7-0.2c2.5,0.2,5,0.4,7.4,0.4
	c70.9,0.1,141.9,0.1,212.8,0.1c5.4,1.2,10.1,3.8,13.6,8.2c5.3,6.5,5.1,14.1,5,21.8c-0.1,16.5-9,25.4-25.5,25.6
	c-8.6,0.1-17.1,0.2-25.7,0.4c-14.8,0-29.6,0-44.5,0c-52.3,0-104.7-0.1-157-0.1c-22.8,0-45.7,0-68.5,0c-2.7-0.1-5.3-0.1-7.9-0.2
	C907,1070,901.2,1057.6,907.4,1031.2z"/>
<path class="st0" d="M1001,1075.3c52.3,0,104.7,0.1,157,0.1c-1,16.5-7.3,22.5-23.8,22.5c-4.5,0-9,0.2-13.5,0.4
	c-7.6-0.1-15.3-0.2-22.9-0.4c-3.2-0.1-4.4,1-4.3,4.3c0.2,7.9,0.2,15.7,0.3,23.6c-0.1,41.9,0,83.7-0.4,125.6c-0.1,6.6,1.7,9.2,8.2,8
	c5.5-1,6.9,1.5,6.7,6.8c-0.4,10.4-0.1,20.8-0.1,31.2c-19.2,0.5-38.4,0.6-57.6,0c0-9.9,0.1-19.8-0.1-29.7c-0.1-4.5,0-7.6,6.2-7.4
	c6.3,0.2,9.4-2.9,8.5-10.3c-1-8.7-0.4-17.5-0.5-26.3c0.1-40.3,0.1-80.6,0.3-120.9c0-4.2-1.7-4.8-5.2-4.8c-12,0.2-24,0.1-36,0.1
	C1008,1097.8,1001,1091,1001,1075.3z"/>
<path class="st14" d="M858.3,1345.9c-3.3,1-6.6,1.5-10,1.4c-27.8-0.1-55.6-0.1-83.4,0c-3.4,0-6.7-0.4-10-1.4
	c-5.9-26.2-12.8-52.2-17.7-78.7c46.3,0,92.5,0,138.8,0c-2.3,11.2-4.5,22.4-7.1,33.5C865.5,1315.8,861.9,1330.8,858.3,1345.9z"/>
<path class="st11" d="M1050.6,1297.1c19.2,0.7,38.4,0.6,57.6,0c32.2,0.1,64.3,0.3,96.5,0.3c5.3,0,10.4,0.5,15.3,2.6
	c5,4.5,8.1,9.9,8.1,16.9c0,2.9-0.7,4.8-4,4.8c-8.8,0-17.6,0-26.3,0c-34.7,0-69.3,0-104,0c-9.6,0-19.2,0-28.8,0
	c-24.5,0-48.9,0-73.4,0c-10.1,0-20.3,0-30.4,0c-8.9,0-17.7,0-26.6,0c-3.5-0.1-3.6-2.6-3.6-5.2c0-11,7.3-18.5,18.7-18.8
	c12.6-0.3,25.2-0.3,37.8-0.4C1008.5,1297.8,1029.6,1297.9,1050.6,1297.1z"/>
<path class="st15" d="M1050.6,1297.1c-21,0.7-42.1,0.7-63.1,0.1c0.5-8.7-2.9-17.3-0.4-26.2c2.9-10.4,8.7-18.5,18.4-23
	c19.4-9.1,39.1-17.4,59.3-24.5c0.1,8.8-0.5,17.6,0.5,26.3c0.9,7.3-2.2,10.5-8.5,10.3c-6.2-0.2-6.3,2.8-6.2,7.4
	C1050.7,1277.3,1050.6,1287.2,1050.6,1297.1z"/>
<path class="st5" d="M876,1267.2c-46.3,0-92.5,0-138.8,0c-3.1-6.4-3.3-13.5-5.2-20.2c-0.8-3,0.9-4.7,4.1-4.6c1.1,0,2.3,0,3.4,0
	c44.7,0,89.5,0,134.2,0c8.4,0,8.7,0.4,6.7,8.4C879,1256.4,878.5,1262.1,876,1267.2z"/>
<path class="st0" d="M934.6,1321.6c8.9,0,17.7,0,26.6,0c5.3,8.7,4.4,16.8-2.6,24.2c-7.8,4.5-15.4,4.4-22.6-1.2
	C930,1337.3,929.6,1329.6,934.6,1321.6z"/>
<path class="st13" d="M802.5,1204.9c1.4-0.1,2.7-0.2,4.1-0.4c1.1,7.8,1.6,15.7,1.2,23.6c-0.1,2.3,1.8,6.5-2.3,6.5
	c-3.3,0-1.6-4-1.6-6.1C803.8,1220.6,804,1212.7,802.5,1204.9z"/>
<path class="st13" d="M833.7,1208.4c1.7,0.3,2.5,1.4,3.1,2.8c-1.8,6.9-3.7,13.9-5.4,20.8c-0.4,1.6-0.6,3.4-2.8,2.8
	c-2.4-0.6-1.3-2.5-1-3.8C829.3,1223.4,830.8,1215.7,833.7,1208.4z"/>
<path class="st13" d="M784.8,1229.2c0.9-0.9,1.8-1.8,2.7-2.6c0.2,0.2,0.3,0.3,0.5,0.5c1.6,2.3,4.6,5.8,2.1,7.3
	C786.4,1236.4,786.9,1230.7,784.8,1229.2z"/>
<path class="st13" d="M1235,1019.3c-70.9,0-141.9-0.1-212.8-0.1c-2.5,0-5-0.3-7.4-0.4c-9.2-3-18.3-6.2-25.9-12.5
	c0.2-2.3,1.9-2.6,3.7-3.2c19.6-6.3,36.2-17.5,50.6-31.8c17.6-17.5,31.7-37.7,44.2-59c4.2-7.1,10-13.5,11.6-22c0,0-0.1,0.1-0.1,0.1
	c0.5-0.6,1-1.1,1.4-1.7c2.7-3.1,5.4-6.3,8.2-9.4c5.7,0,11.3,0.1,17,0.1c49.8,0.2,99.5,1.8,149,6.8c-0.1,4.2,1.3,6.6,6.3,6
	c4.2-0.5,8.6,0,12.8,0.1c0.1,13.8,0.3,27.5,0.3,41.3c0,37.3-0.2,74.5-0.3,111.8c-5-6.5-7.7-14.2-11.4-21.3c-1.8-3.4-4-5.5-8-6.4
	c-7.6-1.7-15.2-0.6-22.9-0.8C1245.8,1016.8,1240,1015.9,1235,1019.3z"/>
<path class="st1" d="M1274.4,886.3c-49.5-4.9-99.2-6.6-149-6.8c-5.7,0-11.3-0.1-17-0.1c0.1-16.9,0.1-33.7,0.2-50.6
	c39.2,10.5,79.5,13.7,119.8,16.9c18.9,1.5,37.8,2.6,56.7,4.4c7.3,0.7,14.5,2.8,21.8,4.3c0,1.9,0.1,3.9,0.1,5.8
	c-8.8,0.1-17.6,0.5-26.4,0.2c-4.9-0.1-6.3,1.7-6.1,6.3C1274.8,873.2,1274.5,879.7,1274.4,886.3z"/>
<path class="st0" d="M1098.9,890.3c-1.6,8.5-7.4,14.8-11.6,22c-12.5,21.3-26.6,41.5-44.2,59c-14.4,14.3-31.1,25.5-50.6,31.8
	c-1.8,0.6-3.5,0.9-3.7,3.2c-6.6-2.7-11.3-7.8-16.2-12.7c39.5-15.3,68.5-44.6,97.8-73.5C1080.1,910.5,1089.4,900.3,1098.9,890.3z"/>
<path class="st0" d="M1100.3,888.8c-0.5,0.6-1,1.1-1.4,1.7C1099.3,889.9,1099.8,889.3,1100.3,888.8z"/>
<path class="st2" d="M991.5,679.7c-0.3-0.3-0.5-0.6-0.8-1c0.2-0.1,0.4-0.3,0.6-0.4c0.1,0.4,0.2,0.8,0.3,1.2
	C991.6,679.6,991.5,679.7,991.5,679.7z"/>
<path class="st1" d="M759,1173.2c0.1,0.2,0.3,0.4,0.4,0.6C759.3,1173.7,759.1,1173.5,759,1173.2C759,1173.3,759,1173.2,759,1173.2z"
	/>
<path class="st15" d="M1678.8,1195.2c0.2,2.9,0.5,5.8,0.5,8.8c0.1,47.3,0.1,94.6,0.1,141.9c-120,0-239.9,0-359.9,0
	c0.1-1.8,0.3-3.7,0.4-5.5c12.8,0,25.7,0.1,38.5,0c13-0.1,11.1,2.1,11.4-11.5c0.1-3.7,0.6-7.5-4.9-7.4c-12.7-7.4-25.4-14.8-38.1-22.3
	c-1.9-1.1-3.9-1-5.9-1c-1.2-3.4-1.4-7-1.4-10.6c0-59,0-118,0-177c0-4.1,0.2-8.1,0.3-12.2c25.5,51,49.6,102.7,74,154.3
	c6.4,13.5,6.3,13.5,20.7,10.3c1.8,6.7,3.6,13.4,5.4,20.2c-2.7,0-5,0.6-5.3,3.9c-1.2,13-4,25.7-4.1,38.8c-0.7,3.9,0.9,7.6,1.1,11.4
	c0.3,5.7,3.2,6.5,8.1,5.6c46.8-8.5,93.7-16.8,140.5-25.3c2.5-0.5,7.3,0.6,6.3-3.9c-1.2-5.1,2-12.1-5.5-15c-1.5-0.5-3-0.9-4.5-1.4
	c-14.5-4.2-28.2-11-42.9-14.5c-1.4-1.7-3.3-2.3-5.5-2.3c-2.8-1.9-6-3-9.2-3.8c-1.6-1.3-3.4-1.7-5.4-1.7c-2.2-2.1-5-2.7-7.9-2.8
	c-1.4-1.9-3.3-2.6-5.6-2.4c-3.8-3.3-7.5-4-11.1,0.2c-1.6-6.9-3.1-13.8-4.7-20.8c9.6-3.6,9.7-3.6,7.3-14.1
	c-3.8-16.5-7.6-33-11.6-49.4c-13.7-57.3-29-114.1-46.6-170.4c18.6-1.2,37.3,8.7,41.1,29.4c0.5,2.5,1.6,4.3,4.8,4.6
	c16.3,1.6,32.7,3.6,49,5.3c22.2,2.4,44.4,4.4,66.5,7c15.5,1.8,29.1,16.8,30,32.4c1.5,25.4,2.9,50.9,4,76.3c0.2,4.4,1.7,6.6,5.9,7.6
	c5.9,1.5,11.7,3.4,17.6,4.8C1647.9,1186.7,1662.9,1192.7,1678.8,1195.2z"/>
<path class="st9" d="M1319.8,1098.6c-0.1,4.1-0.3,8.1-0.3,12.2c0,59,0,118,0,177c0,3.6,0.2,7.2,1.4,10.6c-2.8,7.7-1.1,15.7-1.1,23.6
	c0,6.2,0.1,12.3,0.1,18.5c-0.1,1.8-0.3,3.7-0.4,5.5c-8.4,0-16.7,0-25.1,0c-0.2-1.8-0.5-3.7-0.7-5.5c0-5.9,0-11.8,0-17.8
	c0.1-0.4,0.1-0.7,0.1-1.1c1.5-4.2,0-8.6,0.9-12.7c0.8-3.6-3.1-6.1-1.5-9.5c1.9-4.3,1.6-8.8,0.8-13.2c0.6-2.3,0.8-4.5-0.1-6.8
	c1.3-8.6,0.5-17.2,0.4-25.7c-0.1-1.1-0.2-2.3-0.2-3.4c0.1-65.1,0.1-130.2,0.2-195.3c0-3.2-0.3-6.3-0.4-9.5
	c0.1-37.3,0.2-74.5,0.3-111.8c0-13.8-0.2-27.5-0.3-41.3c8.6-0.1,17.2-0.2,25.8-0.3c0.1,0.4,0.3,0.7,0.5,1.1c-0.1,1.3-0.3,2.7-0.3,4
	c0,65.6,0,131.1,0,196.7C1319.5,1095.4,1319.7,1097,1319.8,1098.6z"/>
<path class="st15" d="M1093.7,1321.7c34.7,0,69.3,0,104,0c-5.6,8.7-4.4,16.6,2.4,24c-35.4,0.1-70.9,0.1-106.3,0.2
	C1093.8,1337.8,1093.8,1329.8,1093.7,1321.7z"/>
<path class="st15" d="M991.6,1321.7c24.5,0,48.9,0,73.4,0c0,8.1-0.1,16.2-0.1,24.3c-23.5,0-47-0.1-70.4-0.1
	C993.4,1337.8,992.5,1329.7,991.6,1321.7z"/>
<path class="st0" d="M1064.8,1345.9c0.1-8.1,0.1-16.2,0.1-24.3c9.6,0,19.2,0,28.8,0c0,8.1,0,16.2,0,24.2c-0.9,1.7-2.2,3-4.1,3.2
	c-6.9,0.8-13.9,0.8-20.8,0C1067,1348.9,1065.9,1347.4,1064.8,1345.9z"/>
<path class="st0" d="M1200.1,1345.7c-6.8-7.4-8-15.4-2.4-24c8.8,0,17.6,0,26.3,0c0.4,0.4,0.7,0.8,1.1,1.1c2.6,5.4,3.5,10.9,1.2,16.6
	c-1.6,2.1-3.2,4.3-4.8,6.4C1214.3,1350.2,1207.2,1350,1200.1,1345.7z"/>
<path class="st1" d="M991.6,1321.7c0.9,8.1,1.9,16.1,2.8,24.2c-11.9,0-23.9,0-35.8,0c7-7.4,7.9-15.5,2.6-24.2
	C971.3,1321.7,981.4,1321.7,991.6,1321.7z"/>
<path class="st15" d="M1221.5,1345.9c1.6-2.1,3.2-4.3,4.8-6.4c2.3,1.5,4.8,0.9,7.2,0.9c20,0,40.1,0,60.1,0c0.2,1.8,0.5,3.7,0.7,5.5
	C1270.1,1345.9,1245.8,1345.9,1221.5,1345.9z"/>
<path class="st5" d="M1359.5,849.3c-9.6,0-19.3,0-28.9,0C1342.8,841,1347.4,841,1359.5,849.3z"/>
<path class="st15" d="M1704.9,1325.4c-0.1-35.3-0.1-70.6-0.1-105.9c0-4.1,0.3-8.1,0.4-12.2c11.1,8.1,14.9,19.3,13.1,32.5
	c-3.2,23.8-6.7,47.5-10.2,71.3c-0.7,4.8-1.6,9.7-2.5,14.5C1705.4,1325.5,1705.2,1325.4,1704.9,1325.4z"/>
<path class="st5" d="M1704.9,1325.4c0.3,0,0.5,0.1,0.8,0.2c-0.3,2.6-0.6,5.3-0.8,7.9C1704,1330.8,1704,1328.1,1704.9,1325.4z"/>
<path class="st1" d="M1678.8,1195.2c-15.9-2.5-30.9-8.5-46.4-12.2c-5.9-1.4-11.7-3.4-17.6-4.8c-4.1-1-5.7-3.2-5.9-7.6
	c-1.1-25.4-2.5-50.9-4-76.3c-0.9-15.6-14.5-30.5-30-32.4c-22.1-2.6-44.3-4.6-66.5-7c-16.3-1.7-32.7-3.7-49-5.3
	c-3.3-0.3-4.4-2.1-4.8-4.6c-3.8-20.7-22.6-30.6-41.1-29.4c-3.3-9.4-6.4-18.8-9.8-28.2c-8.2-22.5-16.7-44.9-29.1-65.6
	c-6.6-11-15.4-18.8-27.9-22.3c-7-1.9-13.8-4-20.8-6.1c0.6-0.4,1.1-0.8,1.7-1.1c4.8-0.1,9.5-0.2,14.3-0.2c85.4,0,170.8,0,256.2,0
	c3.2,0,6.3,0.2,9.5,0.3c0.5,3.8,1.2,7.6,1.4,11.4c1.4,26.3,2.9,52.7,4,79c0.2,4.9,2.2,6.8,6.4,7.9c8.3,2.2,16.5,4.9,24.8,6.8
	c11.6,2.6,22.6,8,34.7,8.6c0.2,2.2,0.5,4.5,0.5,6.7c0,58.5,0,117.1,0,175.6C1679.3,1190.7,1678.9,1193,1678.8,1195.2z"/>
<path class="st14" d="M1678.8,1006.1c-12.1-0.7-23.1-6-34.7-8.6c-8.4-1.9-16.5-4.6-24.8-6.8c-4.2-1.1-6.2-3.1-6.4-7.9
	c-1.1-26.4-2.6-52.7-4-79c-0.2-3.8-1-7.6-1.4-11.4c24.1-0.7,48.1-0.6,72.2-0.1c-0.1,34.8-0.2,69.6-0.3,104.4
	C1679.3,999.8,1679,1003,1678.8,1006.1z"/>
<path class="st14" d="M1327.4,892.2c-0.6,0.4-1.1,0.8-1.7,1.1c-2-0.1-4-0.2-5.9-0.2c-0.2-0.4-0.3-0.7-0.5-1.1
	C1322,892.1,1324.7,892.2,1327.4,892.2z"/>
<path class="st7" d="M962.3,354.7c17,0,28.8,16.5,22.8,32.5c-1.8,4.8-0.9,7.4,2.5,10.4c3.1,2.7,5.7,5.8,8.7,8.6
	c2.2,2.1,2.6,4,0.2,6.3c-2.2,2.1-4.2,3.5-6.9,0.8c-1.1-1.1-2.3-2.1-3.4-3.3c-5.5-6.5-10.5-10.5-20.8-7c-12.8,4.3-26.3-7.9-27.4-22.1
	C937,366.6,948.1,354.7,962.3,354.7z M962.4,395.9c9.9,0,17.1-7.3,17-17.1c-0.1-9.3-7.6-16.8-16.8-17c-9.3-0.2-17.3,7.6-17.4,17.1
	C945.1,388.6,952.5,395.9,962.4,395.9z"/>
<path class="st7" d="M1194.2,299.8c-2.2-0.5-4-0.9-3.2-3.9c3.4-12.5,6.6-25,9.8-37.5c0.5-2.1,1.4-3.4,3.8-2.6
	c2.4,0.8,2.1,2.7,1.6,4.5c-3.1,12.1-6.2,24.1-9.4,36.2C1196.4,297.8,1196.2,299.6,1194.2,299.8z"/>
<path class="st7" d="M1227.6,279c-3.7-3.6-7.7-4.1-11-5.9c-1.6-0.8-2.6-1.8-1.8-3.7c0.8-2,2.3-1.8,3.9-1c4.5,2,9.2,3.8,13.5,6.2
	c3.9,2.2,4,5.6,0.1,7.8c-4.2,2.5-9,4.1-13.5,6.2c-1.6,0.7-3,1.1-4-0.8c-1-2.2,0.2-3.3,2.1-4.1C1220.3,282.3,1223.6,280.8,1227.6,279
	z"/>
<path class="st7" d="M1169.7,278.6c4.6,2.1,7.8,3.5,11,4.9c1.7,0.8,3.4,1.6,2.5,4c-1,2.6-2.7,1.6-4.4,0.9c-4.1-1.8-8.3-3.5-12.4-5.6
	c-4.1-2.1-4.4-6.1-0.5-8.2c4.4-2.4,9-4.1,13.6-6.2c1.3-0.6,2.6-0.9,3.5,0.6c0.9,1.7,0.6,3.1-1.2,3.9
	C1178.2,274.6,1174.6,276.3,1169.7,278.6z"/>
<path class="st7" d="M1655.8,324.8c1.6,0.1,3.5-0.4,4,1.8c0.3,1.4,0.2,2.9-1.4,3.4c-3.9,1.2-3.3,4.3-3.5,7.2
	c-0.3,4.6,1.3,9.6-2.2,13.7c5.3,7.4-2.4,18,6.3,24.6c1.2,0.9,1.1,2.5,0.5,3.8c-0.5,1.2-1.8,1.2-2.9,1.1c-4.5-0.4-7.6-2.4-8.6-7.2
	c-1.4-6.9,1.6-14.6-3.8-20.7c5.7-7,1.6-15.8,4.4-23.3C1649.9,326,1652.9,325.3,1655.8,324.8z"/>
<path class="st7" d="M1680.7,380.3c-1,0-2.1-0.1-2.4-1.5c-0.3-1.1-0.4-2.6,0.7-3.1c4.8-2.5,3.3-6.9,3.5-10.8c0.3-4-1-8.3,2.5-11.5
	c0.3-0.3,0.7-1,0.6-1.1c-7.1-6.1,1.5-16.8-6.6-22.6c-1-0.7-0.9-2-0.6-3.1c0.5-1.7,2-1.7,3.3-1.5c4.9,0.7,7.4,3.3,7.7,8.6
	c0.3,5.8-2.4,12.3,3.5,17c0.4,0.4,0.5,2.2,0,2.5c-6,5.2-3.3,12.2-3.6,18.4C1689.1,377.4,1685.8,379.4,1680.7,380.3z"/>
<path class="st15" d="M1219.9,1300c-4.9-2.1-10-2.6-15.3-2.6c-32.2,0-64.3-0.2-96.5-0.3c0-10.4-0.3-20.8,0.1-31.2
	c0.2-5.2-1.1-7.8-6.7-6.8c-6.5,1.2-8.2-1.4-8.2-8c0.4-41.8,0.3-83.7,0.4-125.6c5.1-0.5,10.3-1,15.4-1.6c3-0.4,4.9-2.1,5.8-5
	c2-6.9,3.8-13.9,5.7-20.8c4.5-0.1,9-0.4,13.5-0.4c16.4-0.1,22.7-6,23.8-22.5c14.8,0,29.6,0,44.5,0c0.9,13.8,1.7,27.6,2.6,41.4
	c2.6,42,5.1,84.1,7.7,126.1c0.3,4.7-1.6,10.7,1.7,13.7c3.3,3,9.1,0.1,13.8,0.9c-0.1,7.8-0.2,15.7-0.2,23.5
	C1222,1285.8,1222.9,1293.8,1219.9,1300z"/>
<path class="st0" d="M1228.3,1257.4c-4.7-0.8-10.5,2.1-13.8-0.9c-3.3-3-1.4-9-1.7-13.7c-2.7-42-5.2-84.1-7.7-126.1
	c-0.8-13.8-1.7-27.6-2.6-41.4c8.6-0.1,17.1-0.2,25.7-0.4c16.5-0.2,25.3-9.1,25.5-25.6c0.1-7.7,0.3-15.4-5-21.8
	c-3.6-4.4-8.2-6.9-13.6-8.2c5.1-3.4,10.8-2.6,16.4-2.4c7.6,0.3,15.2-0.9,22.9,0.8c4,0.9,6.2,2.9,8,6.4c3.7,7.1,6.4,14.8,11.4,21.3
	c0.1,3.2,0.4,6.3,0.4,9.5c0,65.1-0.1,130.2-0.2,195.3c0,1.1,0.1,2.3,0.2,3.4c-3.9,3.9-9.1,0.9-13.5,2.4c-1.2,0-2.3,0-3.5,0l0.1-0.1
	l0,0.1C1260.9,1256.2,1244.6,1256.1,1228.3,1257.4z"/>
<path class="st1" d="M1120.8,1098.3c-1.9,6.9-3.8,13.9-5.7,20.8c-0.8,2.9-2.8,4.7-5.8,5c-5.1,0.6-10.3,1.1-15.4,1.6
	c-0.1-7.9,0-15.7-0.3-23.6c-0.1-3.3,1.1-4.4,4.3-4.3C1105.5,1098.1,1113.1,1098.1,1120.8,1098.3z"/>
<path class="st4" d="M1219.9,1300c3-6.3,2.1-14.2,8.1-19.2c5.2,1.6,10.2,3.7,15.5,4.7c13.7,2.7,27,2.9,37.6-8.4
	c4.5-3.6,7.9-1.4,11.1,2c-3.8,3.8-7.7,7.5-11.4,11.3c-1.3,1.3-3.4,3-1.1,5c2,1.8,3.7,0.2,5.2-1.2c2.9-2.7,5.9-5.5,8.8-8.2
	c0.9,4.5,1.2,8.9-0.8,13.2c-1.5,3.4,2.3,5.9,1.5,9.5c-0.9,4.1,0.6,8.5-0.9,12.7c-12.4,0.3-24.8-1-37.1,0.9
	c-10.5,0.1-21,0.3-31.4,0.4c-0.4-0.4-0.7-0.8-1.1-1.1c3.3,0,3.9-1.9,4-4.8C1228.1,1309.9,1225,1304.5,1219.9,1300z"/>
<path class="st13" d="M1319.8,893.1c2,0.1,4,0.2,5.9,0.2c6.9,2,13.8,4.2,20.8,6.1c12.5,3.5,21.3,11.3,27.9,22.3
	c12.4,20.7,20.9,43.1,29.1,65.6c3.4,9.3,6.6,18.8,9.8,28.2c17.5,56.2,32.9,113.1,46.6,170.4c3.9,16.5,7.8,32.9,11.6,49.4
	c2.4,10.4,2.3,10.5-7.3,14.1c-16.7,3.9-33.2,8.7-49.6,13.7c-14.4,3.2-14.4,3.1-20.7-10.3c-24.4-51.6-48.5-103.2-74-154.3
	c-0.1-1.6-0.3-3.2-0.3-4.7c0-65.6,0-131.1,0-196.7C1319.5,895.8,1319.7,894.5,1319.8,893.1z"/>
<path class="st4" d="M1410.5,1326c0.1-13.1,2.9-25.9,4.1-38.8c0.3-3.3,2.7-3.8,5.3-3.9c6.6,1.6,13.4,2,20.1,1.4
	c11.4-1.1,22.1-4,28.9-14.5c3.6-4.2,7.4-3.5,11.1-0.2c-3.1,4.5-6.2,8.9-9.2,13.4c-1.1,1.6-1.8,3.4,0,4.8c2,1.5,3.4,0,4.5-1.5
	c3.5-4.7,6.9-9.5,10.3-14.3c2.9,0.1,5.7,0.7,7.9,2.8c-3.2,4.6-6.5,9.2-9.7,13.9c-1,1.5-2.2,3.3-0.2,4.7c1.8,1.3,3.4,0.3,4.6-1.4
	c3.6-5.2,7.2-10.4,10.8-15.6c3.3,0.8,6.4,1.9,9.2,3.8c-3.2,4.5-6.5,9.1-9.7,13.6c-1.1,1.6-1.8,3.4,0,4.8c1.9,1.5,3.3,0,4.4-1.5
	c3.6-4.8,7.2-9.7,10.8-14.5c14.7,3.5,28.4,10.3,42.9,14.5c1.5,0.4,3,0.9,4.5,1.3c-0.8,0.3-1.6,0.8-2.5,0.9
	c-27.9,5-55.8,9.9-83.8,14.9C1453.4,1318.4,1432,1322.2,1410.5,1326z"/>
<path class="st7" d="M1410.5,1326c21.4-3.8,42.9-7.6,64.3-11.4c27.9-5,55.9-9.9,83.8-14.9c0.9-0.2,1.7-0.6,2.5-0.9
	c7.5,2.9,4.3,9.9,5.5,15c1,4.5-3.8,3.5-6.3,3.9c-46.8,8.5-93.7,16.9-140.5,25.3c-4.9,0.9-7.8,0-8.1-5.6
	C1411.5,1333.6,1409.8,1329.9,1410.5,1326z"/>
<path class="st6" d="M1468.9,1270.2c-6.8,10.5-17.4,13.4-28.9,14.5c-6.7,0.6-13.4,0.2-20.1-1.4c-1.8-6.7-3.6-13.4-5.4-20.2
	c16.4-5,32.9-9.9,49.6-13.7C1465.8,1256.3,1467.3,1263.3,1468.9,1270.2z"/>
<path class="st7" d="M1319.9,1340.4c0-6.2-0.1-12.3-0.1-18.5c15-0.1,30-0.2,45-0.3c5.5-0.1,5,3.7,4.9,7.4
	c-0.2,13.5,1.6,11.3-11.4,11.5C1345.6,1340.5,1332.7,1340.4,1319.9,1340.4z"/>
<path class="st4" d="M1364.8,1321.6c-15,0.1-30,0.2-45,0.3c-0.1-7.9-1.8-15.8,1.1-23.6c2-0.1,4-0.2,5.9,1
	C1339.5,1306.8,1352.2,1314.2,1364.8,1321.6z"/>
<path class="st7" d="M1499,1276.8c-3.6,5.2-7.2,10.4-10.8,15.6c-1.2,1.7-2.7,2.7-4.6,1.4c-2-1.5-0.8-3.2,0.2-4.7
	c3.2-4.6,6.5-9.3,9.7-13.9C1495.5,1275.1,1497.4,1275.6,1499,1276.8z"/>
<path class="st7" d="M1485.6,1272.3c-3.4,4.8-6.8,9.6-10.3,14.3c-1.1,1.5-2.6,2.9-4.5,1.5c-1.9-1.4-1.2-3.2,0-4.8
	c3.1-4.5,6.2-8.9,9.2-13.4C1482.3,1269.7,1484.2,1270.5,1485.6,1272.3z"/>
<path class="st7" d="M1513.7,1282.9c-3.6,4.8-7.2,9.7-10.8,14.5c-1.1,1.5-2.5,3-4.4,1.5c-1.8-1.4-1.1-3.2,0-4.8
	c3.2-4.6,6.5-9.1,9.7-13.6C1510.4,1280.6,1512.2,1281.3,1513.7,1282.9z"/>
<path class="st7" d="M1225.2,1322.9c10.5-0.1,21-0.3,31.4-0.4c12.3,0.1,24.7,0.2,37,0.2c0,5.9,0,11.8,0,17.8c-20,0-40.1,0-60.1,0
	c-2.4,0-5,0.6-7.2-0.9C1228.6,1333.8,1227.7,1328.3,1225.2,1322.9z"/>
<path class="st15" d="M1292.3,1279.2c-3.2-3.4-6.7-5.6-11.1-2c-0.2-7.1-0.4-14.1-0.6-21.2c4.4-1.5,9.5,1.5,13.5-2.4
	c0.2,8.6,0.9,17.2-0.4,25.8C1293.2,1279.3,1292.7,1279.3,1292.3,1279.2z"/>
<path class="st7" d="M1292.3,1279.2c0.5,0.1,0.9,0.1,1.4,0.2c0.9,2.2,0.7,4.5,0.1,6.8c-2.9,2.7-5.9,5.5-8.8,8.2
	c-1.5,1.4-3.2,3-5.2,1.2c-2.3-2-0.2-3.7,1.1-5C1284.6,1286.7,1288.5,1283,1292.3,1279.2z"/>
<path class="st5" d="M1293.6,1322.7c-12.3-0.1-24.7-0.2-37-0.2c12.3-1.9,24.7-0.6,37.1-0.9
	C1293.8,1321.9,1293.8,1322.3,1293.6,1322.7z"/>
<path class="st8" d="M962.4,395.9c-9.9,0-17.2-7.3-17.1-17c0.1-9.5,8-17.3,17.4-17.1c9.2,0.2,16.6,7.8,16.8,17
	C979.5,388.5,972.2,395.8,962.4,395.9z"/>
<path class="st6" d="M1280.5,1256c0.2,7.1,0.4,14.1,0.6,21.2c-10.6,11.3-23.9,11.1-37.6,8.4c-5.3-1-10.3-3.1-15.5-4.7
	c0.1-7.8,0.2-15.7,0.2-23.5c16.3-1.3,32.6-1.2,48.9-1.4c0,0-0.1,0-0.1,0C1278.2,1256,1279.4,1256,1280.5,1256z"/>
<polygon class="st15" points="1277.1,1256 1277.2,1256 1277.1,1255.9 "/>
</svg>
