<?xml version="1.0" encoding="utf-8"?>
<!-- Generator: Adobe Illustrator 24.0.2, SVG Export Plug-In . SVG Version: 6.00 Build 0)  -->
<svg version="1.1" id="Layer_1" xmlns="http://www.w3.org/2000/svg" xmlns:xlink="http://www.w3.org/1999/xlink" x="0px" y="0px"
	 viewBox="0 0 2400 1600" style="enable-background:new 0 0 2400 1600;" xml:space="preserve">
<style type="text/css">
	.st0{opacity:0.3;}
	.st1{opacity:0;fill:#262A35;}
	.st2{opacity:3.448276e-02;fill:#262A35;}
	.st3{opacity:6.896552e-02;fill:#262A35;}
	.st4{opacity:0.1034;fill:#262A35;}
	.st5{opacity:0.1379;fill:#262A35;}
	.st6{opacity:0.1724;fill:#262A35;}
	.st7{opacity:0.2069;fill:#262A35;}
	.st8{opacity:0.2414;fill:#262A35;}
	.st9{opacity:0.2759;fill:#262A35;}
	.st10{opacity:0.3103;fill:#262A35;}
	.st11{opacity:0.3448;fill:#262A35;}
	.st12{opacity:0.3793;fill:#262A35;}
	.st13{opacity:0.4138;fill:#262A35;}
	.st14{opacity:0.4483;fill:#262A35;}
	.st15{opacity:0.4828;fill:#262A35;}
	.st16{opacity:0.5172;fill:#262A35;}
	.st17{opacity:0.5517;fill:#262A35;}
	.st18{opacity:0.5862;fill:#262A35;}
	.st19{opacity:0.6207;fill:#262A35;}
	.st20{opacity:0.6552;fill:#262A35;}
	.st21{opacity:0.6897;fill:#262A35;}
	.st22{opacity:0.7241;fill:#262A35;}
	.st23{opacity:0.7586;fill:#262A35;}
	.st24{opacity:0.7931;fill:#262A35;}
	.st25{opacity:0.8276;fill:#262A35;}
	.st26{opacity:0.8621;fill:#262A35;}
	.st27{opacity:0.8966;fill:#262A35;}
	.st28{opacity:0.931;fill:#262A35;}
	.st29{opacity:0.9655;fill:#262A35;}
	.st30{fill:#262A35;}
	.st31{fill:url(#SVGID_1_);}
	.st32{fill:url(#SVGID_2_);}
	.st33{fill:url(#SVGID_3_);}
	.st34{fill:url(#SVGID_4_);}
	.st35{fill:url(#SVGID_5_);}
	.st36{fill:url(#SVGID_6_);}
	.st37{fill:url(#SVGID_7_);}
	.st38{fill:url(#SVGID_8_);}
	.st39{fill:url(#SVGID_9_);}
	.st40{fill:url(#SVGID_10_);}
	.st41{fill:url(#SVGID_11_);}
	.st42{fill:#FF378F;}
	.st43{fill:url(#SVGID_12_);}
	.st44{fill:url(#SVGID_13_);}
	.st45{fill:url(#SVGID_14_);}
	.st46{fill:url(#SVGID_15_);}
	.st47{fill:url(#SVGID_16_);}
	.st48{fill:url(#SVGID_17_);}
	.st49{fill:#FFFFFF;}
	.st50{filter:url(#Adobe_OpacityMaskFilter);}
	.st51{filter:url(#Adobe_OpacityMaskFilter_1_);}
	.st52{mask:url(#SVGID_18_);fill:url(#SVGID_19_);}
	.st53{opacity:0.25;fill:url(#SVGID_20_);}
	.st54{fill:url(#SVGID_21_);}
	.st55{fill:url(#SVGID_22_);}
	.st56{fill:#FDFFFC;}
	.st57{filter:url(#Adobe_OpacityMaskFilter_2_);}
	.st58{filter:url(#Adobe_OpacityMaskFilter_3_);}
	.st59{mask:url(#SVGID_23_);fill:url(#SVGID_24_);}
	.st60{opacity:0.25;fill:url(#SVGID_25_);}
	.st61{fill:#FEFEFE;}
	.st62{fill:url(#SVGID_26_);}
	.st63{fill:url(#SVGID_27_);}
	.st64{fill:url(#SVGID_28_);}
	.st65{fill:url(#SVGID_29_);}
	.st66{fill:#CFD1D3;}
	.st67{fill:url(#SVGID_30_);}
	.st68{fill:url(#SVGID_31_);}
	.st69{fill:url(#SVGID_32_);}
	.st70{fill:#ED9E9A;}
	.st71{fill:url(#SVGID_33_);}
	.st72{fill:#DD7C12;}
	.st73{fill:url(#SVGID_34_);}
	.st74{fill:url(#SVGID_35_);}
	.st75{fill:url(#SVGID_36_);}
	.st76{fill:url(#SVGID_37_);}
	.st77{fill:url(#SVGID_38_);}
	.st78{fill:url(#SVGID_39_);}
	.st79{fill:url(#SVGID_40_);}
	.st80{fill:url(#SVGID_41_);}
	.st81{fill:url(#SVGID_42_);}
	.st82{fill:url(#SVGID_43_);}
	.st83{fill:url(#SVGID_44_);}
	.st84{fill:url(#SVGID_45_);}
	.st85{fill:url(#SVGID_46_);}
	.st86{fill:url(#SVGID_47_);}
	.st87{fill:url(#SVGID_48_);}
	.st88{fill:url(#SVGID_49_);}
	.st89{fill:url(#SVGID_50_);}
	.st90{fill:url(#SVGID_51_);}
	.st91{fill:url(#SVGID_52_);}
	.st92{fill:#EDEBE6;}
	.st93{fill:url(#SVGID_53_);}
	.st94{fill:url(#SVGID_54_);}
	.st95{fill:url(#SVGID_55_);}
	.st96{fill:url(#SVGID_56_);}
	.st97{fill:url(#SVGID_57_);}
	.st98{fill:url(#SVGID_58_);}
	.st99{fill:url(#SVGID_59_);}
	.st100{fill:url(#SVGID_60_);}
	.st101{fill:url(#SVGID_61_);}
	.st102{fill:url(#SVGID_62_);}
	.st103{fill:url(#SVGID_63_);}
	.st104{fill:url(#SVGID_64_);}
	.st105{fill:url(#SVGID_65_);}
	.st106{fill:url(#SVGID_66_);}
	.st107{fill:url(#SVGID_67_);}
	.st108{fill:url(#SVGID_68_);}
	.st109{fill:url(#SVGID_69_);}
	.st110{fill:#FFFEFF;}
	.st111{fill:url(#SVGID_70_);}
	.st112{fill:url(#SVGID_71_);}
	.st113{fill:url(#SVGID_72_);}
	.st114{fill:url(#SVGID_73_);}
	.st115{fill:url(#SVGID_74_);}
	.st116{fill:url(#SVGID_75_);}
	.st117{fill:url(#SVGID_76_);}
	.st118{fill:url(#SVGID_77_);}
	.st119{fill:url(#SVGID_78_);}
	.st120{fill:url(#SVGID_79_);}
	.st121{fill:url(#SVGID_80_);}
	.st122{fill:url(#SVGID_81_);}
	.st123{fill:url(#SVGID_82_);}
	.st124{fill:url(#SVGID_83_);}
	.st125{fill:url(#SVGID_84_);}
	.st126{fill:#A5A5A0;}
</style>
<g>
	<g class="st0">
		<ellipse class="st1" cx="1693.7" cy="1134.7" rx="348.7" ry="57"/>
		<ellipse class="st2" cx="1693.7" cy="1134.7" rx="342.7" ry="56"/>
		<ellipse class="st3" cx="1693.7" cy="1134.7" rx="336.6" ry="55"/>
		<ellipse class="st4" cx="1693.7" cy="1134.7" rx="330.6" ry="54"/>
		<ellipse class="st5" cx="1693.7" cy="1134.7" rx="324.5" ry="53"/>
		<ellipse class="st6" cx="1693.7" cy="1134.7" rx="318.4" ry="52"/>
		<ellipse class="st7" cx="1693.7" cy="1134.7" rx="312.4" ry="51"/>
		<ellipse class="st8" cx="1693.7" cy="1134.7" rx="306.3" ry="50.1"/>
		<ellipse class="st9" cx="1693.7" cy="1134.7" rx="300.2" ry="49.1"/>
		<ellipse class="st10" cx="1693.7" cy="1134.7" rx="294.2" ry="48.1"/>
		<ellipse class="st11" cx="1693.7" cy="1134.7" rx="288.1" ry="47.1"/>
		<ellipse class="st12" cx="1693.7" cy="1134.7" rx="282.1" ry="46.1"/>
		<ellipse class="st13" cx="1693.7" cy="1134.7" rx="276" ry="45.1"/>
		<ellipse class="st14" cx="1693.7" cy="1134.7" rx="269.9" ry="44.1"/>
		<ellipse class="st15" cx="1693.7" cy="1134.7" rx="263.9" ry="43.1"/>
		<ellipse class="st16" cx="1693.7" cy="1134.7" rx="257.8" ry="42.1"/>
		<ellipse class="st17" cx="1693.7" cy="1134.7" rx="251.7" ry="41.1"/>
		<ellipse class="st18" cx="1693.7" cy="1134.7" rx="245.7" ry="40.1"/>
		<ellipse class="st19" cx="1693.7" cy="1134.7" rx="239.6" ry="39.2"/>
		<ellipse class="st20" cx="1693.7" cy="1134.7" rx="233.5" ry="38.2"/>
		<ellipse class="st21" cx="1693.7" cy="1134.7" rx="227.5" ry="37.2"/>
		<ellipse class="st22" cx="1693.7" cy="1134.7" rx="221.4" ry="36.2"/>
		<ellipse class="st23" cx="1693.7" cy="1134.7" rx="215.4" ry="35.2"/>
		<ellipse class="st24" cx="1693.7" cy="1134.7" rx="209.3" ry="34.2"/>
		<ellipse class="st25" cx="1693.7" cy="1134.7" rx="203.2" ry="33.2"/>
		<ellipse class="st26" cx="1693.7" cy="1134.7" rx="197.2" ry="32.2"/>
		<ellipse class="st27" cx="1693.7" cy="1134.7" rx="191.1" ry="31.2"/>
		<ellipse class="st28" cx="1693.7" cy="1134.7" rx="185" ry="30.2"/>
		<ellipse class="st29" cx="1693.7" cy="1134.7" rx="179" ry="29.2"/>
		<ellipse class="st30" cx="1693.7" cy="1134.7" rx="172.9" ry="28.3"/>
	</g>
	<g class="st0">
		<ellipse class="st1" cx="1311.9" cy="1016.1" rx="348.7" ry="57"/>
		<ellipse class="st2" cx="1311.9" cy="1016.1" rx="342.7" ry="56"/>
		<ellipse class="st3" cx="1311.9" cy="1016.1" rx="336.6" ry="55"/>
		<ellipse class="st4" cx="1311.9" cy="1016.1" rx="330.6" ry="54"/>
		<ellipse class="st5" cx="1311.9" cy="1016.1" rx="324.5" ry="53"/>
		<ellipse class="st6" cx="1311.9" cy="1016.1" rx="318.4" ry="52"/>
		<ellipse class="st7" cx="1311.9" cy="1016.1" rx="312.4" ry="51"/>
		<ellipse class="st8" cx="1311.9" cy="1016.1" rx="306.3" ry="50.1"/>
		<ellipse class="st9" cx="1311.9" cy="1016.1" rx="300.2" ry="49.1"/>
		<ellipse class="st10" cx="1311.9" cy="1016.1" rx="294.2" ry="48.1"/>
		<ellipse class="st11" cx="1311.9" cy="1016.1" rx="288.1" ry="47.1"/>
		<ellipse class="st12" cx="1311.9" cy="1016.1" rx="282.1" ry="46.1"/>
		<ellipse class="st13" cx="1311.9" cy="1016.1" rx="276" ry="45.1"/>
		<ellipse class="st14" cx="1311.9" cy="1016.1" rx="269.9" ry="44.1"/>
		<ellipse class="st15" cx="1311.9" cy="1016.1" rx="263.9" ry="43.1"/>
		<ellipse class="st16" cx="1311.9" cy="1016.1" rx="257.8" ry="42.1"/>
		<ellipse class="st17" cx="1311.9" cy="1016.1" rx="251.7" ry="41.1"/>
		<ellipse class="st18" cx="1311.9" cy="1016.1" rx="245.7" ry="40.1"/>
		<ellipse class="st19" cx="1311.9" cy="1016.1" rx="239.6" ry="39.2"/>
		<ellipse class="st20" cx="1311.9" cy="1016.1" rx="233.5" ry="38.2"/>
		<ellipse class="st21" cx="1311.9" cy="1016.1" rx="227.5" ry="37.2"/>
		<ellipse class="st22" cx="1311.9" cy="1016.1" rx="221.4" ry="36.2"/>
		<ellipse class="st23" cx="1311.9" cy="1016.1" rx="215.4" ry="35.2"/>
		<ellipse class="st24" cx="1311.9" cy="1016.1" rx="209.3" ry="34.2"/>
		<ellipse class="st25" cx="1311.9" cy="1016.1" rx="203.2" ry="33.2"/>
		<ellipse class="st26" cx="1311.9" cy="1016.1" rx="197.2" ry="32.2"/>
		<ellipse class="st27" cx="1311.9" cy="1016.1" rx="191.1" ry="31.2"/>
		<ellipse class="st28" cx="1311.9" cy="1016.1" rx="185" ry="30.2"/>
		<ellipse class="st29" cx="1311.9" cy="1016.1" rx="179" ry="29.2"/>
		<ellipse class="st30" cx="1311.9" cy="1016.1" rx="172.9" ry="28.3"/>
	</g>
	<g class="st0">
		<ellipse class="st1" cx="1622.7" cy="1335.4" rx="348.7" ry="57"/>
		<ellipse class="st2" cx="1622.7" cy="1335.4" rx="342.7" ry="56"/>
		<ellipse class="st3" cx="1622.7" cy="1335.4" rx="336.6" ry="55"/>
		<ellipse class="st4" cx="1622.7" cy="1335.4" rx="330.6" ry="54"/>
		<ellipse class="st5" cx="1622.7" cy="1335.4" rx="324.5" ry="53"/>
		<ellipse class="st6" cx="1622.7" cy="1335.4" rx="318.4" ry="52"/>
		<ellipse class="st7" cx="1622.7" cy="1335.4" rx="312.4" ry="51"/>
		<ellipse class="st8" cx="1622.7" cy="1335.4" rx="306.3" ry="50.1"/>
		<ellipse class="st9" cx="1622.7" cy="1335.4" rx="300.2" ry="49.1"/>
		<ellipse class="st10" cx="1622.7" cy="1335.4" rx="294.2" ry="48.1"/>
		<ellipse class="st11" cx="1622.7" cy="1335.4" rx="288.1" ry="47.1"/>
		<ellipse class="st12" cx="1622.7" cy="1335.4" rx="282.1" ry="46.1"/>
		<ellipse class="st13" cx="1622.7" cy="1335.4" rx="276" ry="45.1"/>
		<ellipse class="st14" cx="1622.7" cy="1335.4" rx="269.9" ry="44.1"/>
		<ellipse class="st15" cx="1622.7" cy="1335.4" rx="263.9" ry="43.1"/>
		<ellipse class="st16" cx="1622.7" cy="1335.4" rx="257.8" ry="42.1"/>
		<ellipse class="st17" cx="1622.7" cy="1335.4" rx="251.7" ry="41.1"/>
		<ellipse class="st18" cx="1622.7" cy="1335.4" rx="245.7" ry="40.1"/>
		<ellipse class="st19" cx="1622.7" cy="1335.4" rx="239.6" ry="39.2"/>
		<ellipse class="st20" cx="1622.7" cy="1335.4" rx="233.5" ry="38.2"/>
		<ellipse class="st21" cx="1622.7" cy="1335.4" rx="227.5" ry="37.2"/>
		<ellipse class="st22" cx="1622.7" cy="1335.4" rx="221.4" ry="36.2"/>
		<ellipse class="st23" cx="1622.7" cy="1335.4" rx="215.4" ry="35.2"/>
		<ellipse class="st24" cx="1622.7" cy="1335.4" rx="209.3" ry="34.2"/>
		<ellipse class="st25" cx="1622.7" cy="1335.4" rx="203.2" ry="33.2"/>
		<ellipse class="st26" cx="1622.7" cy="1335.4" rx="197.2" ry="32.2"/>
		<ellipse class="st27" cx="1622.7" cy="1335.4" rx="191.1" ry="31.2"/>
		<ellipse class="st28" cx="1622.7" cy="1335.4" rx="185" ry="30.2"/>
		<ellipse class="st29" cx="1622.7" cy="1335.4" rx="179" ry="29.2"/>
		<ellipse class="st30" cx="1622.7" cy="1335.4" rx="172.9" ry="28.3"/>
	</g>
	<g class="st0">
		<ellipse class="st1" cx="1040.5" cy="1392.4" rx="348.7" ry="57"/>
		<ellipse class="st2" cx="1040.5" cy="1392.4" rx="342.7" ry="56"/>
		<ellipse class="st3" cx="1040.5" cy="1392.4" rx="336.6" ry="55"/>
		<ellipse class="st4" cx="1040.5" cy="1392.4" rx="330.6" ry="54"/>
		<ellipse class="st5" cx="1040.5" cy="1392.4" rx="324.5" ry="53"/>
		<ellipse class="st6" cx="1040.5" cy="1392.4" rx="318.4" ry="52"/>
		<ellipse class="st7" cx="1040.5" cy="1392.4" rx="312.4" ry="51"/>
		<ellipse class="st8" cx="1040.5" cy="1392.4" rx="306.3" ry="50.1"/>
		<ellipse class="st9" cx="1040.5" cy="1392.4" rx="300.2" ry="49.1"/>
		<ellipse class="st10" cx="1040.5" cy="1392.4" rx="294.2" ry="48.1"/>
		<ellipse class="st11" cx="1040.5" cy="1392.4" rx="288.1" ry="47.1"/>
		<ellipse class="st12" cx="1040.5" cy="1392.4" rx="282.1" ry="46.1"/>
		<ellipse class="st13" cx="1040.5" cy="1392.4" rx="276" ry="45.1"/>
		<ellipse class="st14" cx="1040.5" cy="1392.4" rx="269.9" ry="44.1"/>
		<ellipse class="st15" cx="1040.5" cy="1392.4" rx="263.9" ry="43.1"/>
		<ellipse class="st16" cx="1040.5" cy="1392.4" rx="257.8" ry="42.1"/>
		<ellipse class="st17" cx="1040.5" cy="1392.4" rx="251.7" ry="41.1"/>
		<ellipse class="st18" cx="1040.5" cy="1392.4" rx="245.7" ry="40.1"/>
		<ellipse class="st19" cx="1040.5" cy="1392.4" rx="239.6" ry="39.2"/>
		<ellipse class="st20" cx="1040.5" cy="1392.4" rx="233.5" ry="38.2"/>
		<ellipse class="st21" cx="1040.5" cy="1392.4" rx="227.5" ry="37.2"/>
		<ellipse class="st22" cx="1040.5" cy="1392.4" rx="221.4" ry="36.2"/>
		<ellipse class="st23" cx="1040.5" cy="1392.4" rx="215.4" ry="35.2"/>
		<ellipse class="st24" cx="1040.5" cy="1392.4" rx="209.3" ry="34.2"/>
		<ellipse class="st25" cx="1040.5" cy="1392.4" rx="203.2" ry="33.2"/>
		<ellipse class="st26" cx="1040.5" cy="1392.4" rx="197.2" ry="32.2"/>
		<ellipse class="st27" cx="1040.5" cy="1392.4" rx="191.1" ry="31.2"/>
		<ellipse class="st28" cx="1040.5" cy="1392.4" rx="185" ry="30.2"/>
		<ellipse class="st29" cx="1040.5" cy="1392.4" rx="179" ry="29.2"/>
		<ellipse class="st30" cx="1040.5" cy="1392.4" rx="172.9" ry="28.3"/>
	</g>
	<g class="st0">
		<ellipse class="st1" cx="629.6" cy="1347.2" rx="230.2" ry="57"/>
		<ellipse class="st2" cx="629.6" cy="1347.2" rx="226.2" ry="56"/>
		<ellipse class="st3" cx="629.6" cy="1347.2" rx="222.2" ry="55"/>
		<ellipse class="st4" cx="629.6" cy="1347.2" rx="218.2" ry="54"/>
		<ellipse class="st5" cx="629.6" cy="1347.2" rx="214.2" ry="53"/>
		<ellipse class="st6" cx="629.6" cy="1347.2" rx="210.2" ry="52"/>
		<ellipse class="st7" cx="629.6" cy="1347.2" rx="206.1" ry="51"/>
		<ellipse class="st8" cx="629.6" cy="1347.2" rx="202.1" ry="50.1"/>
		<ellipse class="st9" cx="629.6" cy="1347.2" rx="198.1" ry="49.1"/>
		<ellipse class="st10" cx="629.6" cy="1347.2" rx="194.1" ry="48.1"/>
		<ellipse class="st11" cx="629.6" cy="1347.2" rx="190.1" ry="47.1"/>
		<ellipse class="st12" cx="629.6" cy="1347.2" rx="186.1" ry="46.1"/>
		<ellipse class="st13" cx="629.6" cy="1347.2" rx="182.1" ry="45.1"/>
		<ellipse class="st14" cx="629.6" cy="1347.2" rx="178.1" ry="44.1"/>
		<ellipse class="st15" cx="629.6" cy="1347.2" rx="174.1" ry="43.1"/>
		<ellipse class="st16" cx="629.6" cy="1347.2" rx="170.1" ry="42.1"/>
		<ellipse class="st17" cx="629.6" cy="1347.2" rx="166.1" ry="41.1"/>
		<ellipse class="st18" cx="629.6" cy="1347.2" rx="162.1" ry="40.1"/>
		<ellipse class="st19" cx="629.6" cy="1347.2" rx="158.1" ry="39.2"/>
		<ellipse class="st20" cx="629.6" cy="1347.2" rx="154.1" ry="38.2"/>
		<ellipse class="st21" cx="629.6" cy="1347.2" rx="150.1" ry="37.2"/>
		<ellipse class="st22" cx="629.6" cy="1347.2" rx="146.1" ry="36.2"/>
		<ellipse class="st23" cx="629.6" cy="1347.2" rx="142.1" ry="35.2"/>
		<ellipse class="st24" cx="629.6" cy="1347.2" rx="138.1" ry="34.2"/>
		<ellipse class="st25" cx="629.6" cy="1347.2" rx="134.1" ry="33.2"/>
		<ellipse class="st26" cx="629.6" cy="1347.2" rx="130.1" ry="32.2"/>
		<ellipse class="st27" cx="629.6" cy="1347.2" rx="126.1" ry="31.2"/>
		<ellipse class="st28" cx="629.6" cy="1347.2" rx="122.1" ry="30.2"/>
		<ellipse class="st29" cx="629.6" cy="1347.2" rx="118.1" ry="29.2"/>
		<ellipse class="st30" cx="629.6" cy="1347.2" rx="114.1" ry="28.3"/>
	</g>
	<g class="st0">
		<ellipse class="st1" cx="660.6" cy="1219.9" rx="230.2" ry="57"/>
		<ellipse class="st2" cx="660.6" cy="1219.9" rx="226.2" ry="56"/>
		<ellipse class="st3" cx="660.6" cy="1219.9" rx="222.2" ry="55"/>
		<ellipse class="st4" cx="660.6" cy="1219.9" rx="218.2" ry="54"/>
		<ellipse class="st5" cx="660.6" cy="1219.9" rx="214.2" ry="53"/>
		<ellipse class="st6" cx="660.6" cy="1219.9" rx="210.2" ry="52"/>
		<ellipse class="st7" cx="660.6" cy="1219.9" rx="206.1" ry="51"/>
		<ellipse class="st8" cx="660.6" cy="1219.9" rx="202.1" ry="50.1"/>
		<ellipse class="st9" cx="660.6" cy="1219.9" rx="198.1" ry="49.1"/>
		<ellipse class="st10" cx="660.6" cy="1219.9" rx="194.1" ry="48.1"/>
		<ellipse class="st11" cx="660.6" cy="1219.9" rx="190.1" ry="47.1"/>
		<ellipse class="st12" cx="660.6" cy="1219.9" rx="186.1" ry="46.1"/>
		<ellipse class="st13" cx="660.6" cy="1219.9" rx="182.1" ry="45.1"/>
		<ellipse class="st14" cx="660.6" cy="1219.9" rx="178.1" ry="44.1"/>
		<ellipse class="st15" cx="660.6" cy="1219.9" rx="174.1" ry="43.1"/>
		<ellipse class="st16" cx="660.6" cy="1219.9" rx="170.1" ry="42.1"/>
		<ellipse class="st17" cx="660.6" cy="1219.9" rx="166.1" ry="41.1"/>
		<ellipse class="st18" cx="660.6" cy="1219.9" rx="162.1" ry="40.1"/>
		<ellipse class="st19" cx="660.6" cy="1219.9" rx="158.1" ry="39.2"/>
		<ellipse class="st20" cx="660.6" cy="1219.9" rx="154.1" ry="38.2"/>
		<ellipse class="st21" cx="660.6" cy="1219.9" rx="150.1" ry="37.2"/>
		<ellipse class="st22" cx="660.6" cy="1219.9" rx="146.1" ry="36.2"/>
		<ellipse class="st23" cx="660.6" cy="1219.9" rx="142.1" ry="35.2"/>
		<ellipse class="st24" cx="660.6" cy="1219.9" rx="138.1" ry="34.2"/>
		<ellipse class="st25" cx="660.6" cy="1219.9" rx="134.1" ry="33.2"/>
		<ellipse class="st26" cx="660.6" cy="1219.9" rx="130.1" ry="32.2"/>
		<ellipse class="st27" cx="660.6" cy="1219.9" rx="126.1" ry="31.2"/>
		<ellipse class="st28" cx="660.6" cy="1219.9" rx="122.1" ry="30.2"/>
		<ellipse class="st29" cx="660.6" cy="1219.9" rx="118.1" ry="29.2"/>
		<ellipse class="st30" cx="660.6" cy="1219.9" rx="114.1" ry="28.3"/>
	</g>
	<g class="st0">
		<ellipse class="st1" cx="671.7" cy="929.3" rx="230.2" ry="57"/>
		<ellipse class="st2" cx="671.7" cy="929.3" rx="226.2" ry="56"/>
		<ellipse class="st3" cx="671.7" cy="929.3" rx="222.2" ry="55"/>
		<ellipse class="st4" cx="671.7" cy="929.3" rx="218.2" ry="54"/>
		<ellipse class="st5" cx="671.7" cy="929.3" rx="214.2" ry="53"/>
		<ellipse class="st6" cx="671.7" cy="929.3" rx="210.2" ry="52"/>
		<ellipse class="st7" cx="671.7" cy="929.3" rx="206.1" ry="51"/>
		<ellipse class="st8" cx="671.7" cy="929.3" rx="202.1" ry="50.1"/>
		<ellipse class="st9" cx="671.7" cy="929.3" rx="198.1" ry="49.1"/>
		<ellipse class="st10" cx="671.7" cy="929.3" rx="194.1" ry="48.1"/>
		<ellipse class="st11" cx="671.7" cy="929.3" rx="190.1" ry="47.1"/>
		<ellipse class="st12" cx="671.7" cy="929.3" rx="186.1" ry="46.1"/>
		<ellipse class="st13" cx="671.7" cy="929.3" rx="182.1" ry="45.1"/>
		<ellipse class="st14" cx="671.7" cy="929.3" rx="178.1" ry="44.1"/>
		<ellipse class="st15" cx="671.7" cy="929.3" rx="174.1" ry="43.1"/>
		<ellipse class="st16" cx="671.7" cy="929.3" rx="170.1" ry="42.1"/>
		<ellipse class="st17" cx="671.7" cy="929.3" rx="166.1" ry="41.1"/>
		<ellipse class="st18" cx="671.7" cy="929.3" rx="162.1" ry="40.1"/>
		<ellipse class="st19" cx="671.7" cy="929.3" rx="158.1" ry="39.2"/>
		<ellipse class="st20" cx="671.7" cy="929.3" rx="154.1" ry="38.2"/>
		<ellipse class="st21" cx="671.7" cy="929.3" rx="150.1" ry="37.2"/>
		<ellipse class="st22" cx="671.7" cy="929.3" rx="146.1" ry="36.2"/>
		<ellipse class="st23" cx="671.7" cy="929.3" rx="142.1" ry="35.2"/>
		<ellipse class="st24" cx="671.7" cy="929.3" rx="138.1" ry="34.2"/>
		<ellipse class="st25" cx="671.7" cy="929.3" rx="134.1" ry="33.2"/>
		<ellipse class="st26" cx="671.7" cy="929.3" rx="130.1" ry="32.2"/>
		<ellipse class="st27" cx="671.7" cy="929.3" rx="126.1" ry="31.2"/>
		<ellipse class="st28" cx="671.7" cy="929.3" rx="122.1" ry="30.2"/>
		<ellipse class="st29" cx="671.7" cy="929.3" rx="118.1" ry="29.2"/>
		<ellipse class="st30" cx="671.7" cy="929.3" rx="114.1" ry="28.3"/>
	</g>
	<g>
		<linearGradient id="SVGID_1_" gradientUnits="userSpaceOnUse" x1="828.1164" y1="1152.3988" x2="1311.8958" y2="1152.3988">
			<stop  offset="0" style="stop-color:#587082"/>
			<stop  offset="1" style="stop-color:#1A1E28"/>
		</linearGradient>
		<path class="st31" d="M844.9,1211.5c-5.6,0-10.9-2.8-14-7.5c-3.1-4.7-3.7-10.6-1.6-15.8l20.8-82.1c3.2-7.8,10.8-12.8,19.2-12.8
			h388.9c9.2,0,17.8,4.9,22.5,12.9l28.6,78.4c3.3,5.6,3.3,12.3,0.1,17.9c-3.2,5.6-9,9-15.5,9H844.9z"/>
		<g>
			<linearGradient id="SVGID_2_" gradientUnits="userSpaceOnUse" x1="562.1742" y1="845.7836" x2="659.1328" y2="845.7836">
				<stop  offset="0" style="stop-color:#F6F2ED"/>
				<stop  offset="0.9953" style="stop-color:#D3D1CD"/>
			</linearGradient>
			<path class="st32" d="M550.8,772.5l22.3,140.8c0,3.1,18.1,5.7,40.4,5.7c22.3,0,40.4-2.5,40.4-5.7l22.3-140.8H550.8z"/>
			<linearGradient id="SVGID_3_" gradientUnits="userSpaceOnUse" x1="550.756" y1="772.5369" x2="676.2455" y2="772.5369">
				<stop  offset="0" style="stop-color:#587082"/>
				<stop  offset="1" style="stop-color:#1A1E28"/>
			</linearGradient>
			<ellipse class="st33" cx="613.5" cy="772.5" rx="62.7" ry="8.8"/>
			<linearGradient id="SVGID_4_" gradientUnits="userSpaceOnUse" x1="726.9271" y1="648.9937" x2="658.6248" y2="754.0178">
				<stop  offset="0" style="stop-color:#38ACA8"/>
				<stop  offset="1" style="stop-color:#5F637A"/>
			</linearGradient>
			<path class="st34" d="M763.4,659.2c0,0-54.7-0.1-84.1,45.6c-30.6,47.4-30,75-30,75l-21,1.5c0,0-15-14.1,0-45.5
				C643.3,704.5,702.8,638,763.4,659.2z"/>
			<linearGradient id="SVGID_5_" gradientUnits="userSpaceOnUse" x1="627.1377" y1="715.6177" x2="742.9384" y2="715.6177">
				<stop  offset="0" style="stop-color:#82D7DB"/>
				<stop  offset="1" style="stop-color:#5DC9A5"/>
			</linearGradient>
			<path class="st35" d="M613.5,781.3c0,0,0.8-73.4,48.4-111.2c47.6-37.8,101.5-10.9,101.5-10.9s-52.1-7.2-88.9,23.8
				c-36.7,30.9-46.2,98.3-46.2,98.3H613.5z"/>
			<linearGradient id="SVGID_6_" gradientUnits="userSpaceOnUse" x1="582.8161" y1="696.934" x2="554.6846" y2="740.1901">
				<stop  offset="0" style="stop-color:#38ACA8"/>
				<stop  offset="1" style="stop-color:#5F637A"/>
			</linearGradient>
			<path class="st36" d="M618.1,781.3l-16.1-0.4l-15.1-0.4c0,0-2.3-29.2-20.2-59.3c-17.9-30.1-51.6-58.8-51.6-58.8s32-3.2,69.2,33.6
				C621.5,732.8,618.1,781.3,618.1,781.3z"/>
			<linearGradient id="SVGID_7_" gradientUnits="userSpaceOnUse" x1="615.1475" y1="764.4818" x2="546.0481" y2="681.4894">
				<stop  offset="0" style="stop-color:#82D7DB"/>
				<stop  offset="1" style="stop-color:#5DC9A5"/>
			</linearGradient>
			<path class="st37" d="M618.1,781.3l-16.1-0.4c-2.5-14.9-8.6-37.3-23-62.7c-25.7-45.6-63.9-55.9-63.9-55.9s32-3.2,69.2,33.6
				C621.5,732.8,618.1,781.3,618.1,781.3z"/>
			<linearGradient id="SVGID_8_" gradientUnits="userSpaceOnUse" x1="642.9578" y1="750.853" x2="553.1566" y2="642.9963">
				<stop  offset="0" style="stop-color:#38ACA8"/>
				<stop  offset="1" style="stop-color:#5F637A"/>
			</linearGradient>
			<path class="st38" d="M637.3,780.7l-10.2,0.2l-21.6,0.4c0,0-3.2-71-21.9-126.1c-18.8-55.1-39-63.2-39-63.2s0.2,0,0.5,0
				c5.1,0,46.2,1.9,73.1,63.3C647,720.6,637.3,780.7,637.3,780.7z"/>
			<linearGradient id="SVGID_9_" gradientUnits="userSpaceOnUse" x1="581.416" y1="621.1273" x2="634.087" y2="780.2854">
				<stop  offset="0" style="stop-color:#82D7DB"/>
				<stop  offset="1" style="stop-color:#5DC9A5"/>
			</linearGradient>
			<path class="st39" d="M637.3,780.7l-10.2,0.2c-0.4-27.2-4.4-72.6-23.9-118.5c-28.3-66.7-54.1-70.3-58.1-70.5
				c5.1,0,46.2,1.9,73.1,63.3C647,720.6,637.3,780.7,637.3,780.7z"/>
			<linearGradient id="SVGID_10_" gradientUnits="userSpaceOnUse" x1="678.5322" y1="726.1844" x2="692.2023" y2="767.4921">
				<stop  offset="0" style="stop-color:#82D7DB"/>
				<stop  offset="1" style="stop-color:#5DC9A5"/>
			</linearGradient>
			<path class="st40" d="M630.7,781.2c0,0,6.9-55.2,53-67.3c46.1-12,66,28.1,66,28.1s-29.4-12-55.9-3.6c-26.5,8.4-33.4,40-33.4,40
				L630.7,781.2z"/>
			<linearGradient id="SVGID_11_" gradientUnits="userSpaceOnUse" x1="557.2533" y1="738.9554" x2="574.0452" y2="789.696">
				<stop  offset="0" style="stop-color:#82D7DB"/>
				<stop  offset="1" style="stop-color:#5DC9A5"/>
			</linearGradient>
			<path class="st41" d="M602,780.9c0,0-7.6-31.4-32.2-43.9c-24.6-12.4-44.2,0-44.2,0s20.3,0.4,36.2,13.6
				c16,13.2,19.9,30.2,19.9,30.2L602,780.9z"/>
		</g>
		<path class="st42" d="M821.6,561.3l46.6-8.9l3.6,17.2c0,0-60.6,21.8-65.6,21.4c-5-0.4-22.4-23.6-22.4-23.6L821.6,561.3z"/>
		<linearGradient id="SVGID_12_" gradientUnits="userSpaceOnUse" x1="729.0154" y1="927.9015" x2="772.014" y2="921.2595">
			<stop  offset="0" style="stop-color:#587082"/>
			<stop  offset="1" style="stop-color:#1A1E28"/>
		</linearGradient>
		<path class="st43" d="M729.7,912.6c0,0-4.8,16.1-1,21.1c3.7,4.9,18.2,2.8,29,0.9c10.8-1.9,21.7,0.1,30.6-0.6
			c9-0.7,15.4-11.4,3.7-13.2c-11.7-1.8-31.3-6.2-33.8-8.2s-3.4-3.9-3.4-3.9L729.7,912.6z"/>
		<linearGradient id="SVGID_13_" gradientUnits="userSpaceOnUse" x1="774.9132" y1="933.5439" x2="817.9117" y2="926.9019">
			<stop  offset="0" style="stop-color:#587082"/>
			<stop  offset="1" style="stop-color:#1A1E28"/>
		</linearGradient>
		<path class="st44" d="M775.6,918.2c0,0-4.8,16.1-1,21.1c3.7,4.9,18.2,2.8,29,0.9c10.8-1.9,21.7,0.1,30.6-0.6
			c9-0.7,15.4-11.4,3.7-13.2c-11.7-1.8-31.3-6.2-33.8-8.2c-2.5-2.1-3.4-3.9-3.4-3.9L775.6,918.2z"/>
		<linearGradient id="SVGID_14_" gradientUnits="userSpaceOnUse" x1="711.2337" y1="791.6621" x2="759.6968" y2="784.176">
			<stop  offset="0" style="stop-color:#587082"/>
			<stop  offset="1" style="stop-color:#1A1E28"/>
		</linearGradient>
		<path class="st45" d="M691.7,664.8c0,0-3.8,23.7,13.5,58.3c17.3,34.7,37.9,73.1,37.9,73.1s-11.9,19-14.1,55.8
			c-2.2,36.8-0.5,60.1-0.5,60.1s5.4,4.9,14.6,4.3c9.2-0.5,13-7,13-7s-1.6-61.7,15.2-90.4c16.8-28.7,18.4-47.1,10.3-69.9
			C773.5,726.4,691.7,664.8,691.7,664.8z"/>
		<linearGradient id="SVGID_15_" gradientUnits="userSpaceOnUse" x1="767.8279" y1="783.7192" x2="831.2634" y2="753.3805">
			<stop  offset="0" style="stop-color:#587082"/>
			<stop  offset="1" style="stop-color:#1A1E28"/>
		</linearGradient>
		<path class="st46" d="M696.6,667.7c0,0-3.2,21.3,23.8,46.8c27.1,25.5,57.9,77.7,57.9,77.7s-4.9,32.3-4.9,63.1
			c0,30.9,1.1,61.7,1.1,61.7s4.9,7,14.6,5.4c9.7-1.6,13.5-7.6,13.5-7.6s19-126.2,17.9-144.6S777.8,658,777.8,658L696.6,667.7z"/>
		<linearGradient id="SVGID_16_" gradientUnits="userSpaceOnUse" x1="733.0418" y1="480.5493" x2="790.7968" y2="480.5493">
			<stop  offset="0" style="stop-color:#FFD9D9"/>
			<stop  offset="1" style="stop-color:#EFB4B4"/>
		</linearGradient>
		<path class="st47" d="M783.6,447.5c0,0,6.7,12.8,4.7,15.6c-2,2.8-3.2,3.6-2.1,5.9c1.1,2.3,5.7,8.4,4.5,13.7
			c-1.2,5.3-3.3,20-7,20.7c-3.7,0.8-6.2-1.6-8.6,0.8s-3.6,9.5-3.6,9.5s-8-1.6-20.1-2.5c-12.2-0.9-18.2-1.9-18.2-1.9
			s6.1-16.7,5.5-21.7c-0.6-5,6.9-29,16.5-35.2C764.7,446.2,783.6,447.5,783.6,447.5z"/>
		<g>
			<linearGradient id="SVGID_17_" gradientUnits="userSpaceOnUse" x1="1427.679" y1="347.1798" x2="1123.3544" y2="919.9146">
				<stop  offset="0" style="stop-color:#587082"/>
				<stop  offset="1" style="stop-color:#1A1E28"/>
			</linearGradient>
			<path class="st48" d="M933.7,888.5V383.4c0-29.7,24.1-53.8,53.8-53.8h573.4c29.7,0,53.8,24.1,53.8,53.8v505.1
				c0,29.7-24.1,53.8-53.8,53.8H987.5C957.8,942.3,933.7,918.2,933.7,888.5z"/>
			<path class="st49" d="M1553.5,925.5H995c-26.6,0-48.2-21.6-48.2-48.2V394.6c0-26.6,21.6-48.2,48.2-48.2h558.5
				c26.6,0,48.2,21.6,48.2,48.2v482.7C1601.6,903.9,1580.1,925.5,1553.5,925.5z"/>
		</g>
		<g>
			<defs>
				<filter id="Adobe_OpacityMaskFilter" filterUnits="userSpaceOnUse" x="798.4" y="369.8" width="644.7" height="422.8">
					<feFlood  style="flood-color:white;flood-opacity:1" result="back"/>
					<feBlend  in="SourceGraphic" in2="back" mode="normal"/>
				</filter>
			</defs>
			<mask maskUnits="userSpaceOnUse" x="798.4" y="369.8" width="644.7" height="422.8" id="SVGID_18_">
				<g class="st50">
					<defs>
						<filter id="Adobe_OpacityMaskFilter_1_" filterUnits="userSpaceOnUse" x="798.4" y="369.8" width="644.7" height="422.8">
							<feFlood  style="flood-color:white;flood-opacity:1" result="back"/>
							<feBlend  in="SourceGraphic" in2="back" mode="normal"/>
						</filter>
					</defs>
					<mask maskUnits="userSpaceOnUse" x="798.4" y="369.8" width="644.7" height="422.8" id="SVGID_18_">
						<g class="st51">
						</g>
					</mask>
					<linearGradient id="SVGID_19_" gradientUnits="userSpaceOnUse" x1="1243.5923" y1="349.9712" x2="999.9585" y2="808.4865">
						<stop  offset="0" style="stop-color:#FFFFFF"/>
						<stop  offset="1" style="stop-color:#1A1A1A"/>
					</linearGradient>
					<path class="st52" d="M1443.1,394.2v374c0,13.5-11,24.4-24.4,24.4H822.8c-13.4,0-24.4-10.9-24.4-24.4v-374
						c0-13.4,11-24.4,24.4-24.4h595.9C1432.1,369.8,1443.1,380.7,1443.1,394.2z"/>
				</g>
			</mask>
			<linearGradient id="SVGID_20_" gradientUnits="userSpaceOnUse" x1="1243.5923" y1="349.9712" x2="999.9585" y2="808.4865">
				<stop  offset="0" style="stop-color:#0C5C93"/>
				<stop  offset="1" style="stop-color:#0C5C93"/>
			</linearGradient>
			<path class="st53" d="M1443.1,394.2v374c0,13.5-11,24.4-24.4,24.4H822.8c-13.4,0-24.4-10.9-24.4-24.4v-374
				c0-13.4,11-24.4,24.4-24.4h595.9C1432.1,369.8,1443.1,380.7,1443.1,394.2z"/>
			<linearGradient id="SVGID_21_" gradientUnits="userSpaceOnUse" x1="1255.2446" y1="338.9449" x2="1011.611" y2="797.4603">
				<stop  offset="0" style="stop-color:#38ACA8"/>
				<stop  offset="1" style="stop-color:#5F637A"/>
			</linearGradient>
			<path class="st54" d="M1454.8,383.2v374c0,13.5-11,24.4-24.4,24.4H834.4c-13.4,0-24.4-10.9-24.4-24.4v-374
				c0-13.4,11-24.4,24.4-24.4h595.9C1443.8,358.8,1454.8,369.7,1454.8,383.2z"/>
			<linearGradient id="SVGID_22_" gradientUnits="userSpaceOnUse" x1="1198.7628" y1="272.6765" x2="1070.6682" y2="513.7486">
				<stop  offset="0" style="stop-color:#587082"/>
				<stop  offset="1" style="stop-color:#1A1E28"/>
			</linearGradient>
			<path class="st55" d="M1454.8,383.2v34.9H810v-34.9c0-13.4,11-24.4,24.4-24.4h595.9C1443.8,358.8,1454.8,369.7,1454.8,383.2z"/>
			<path class="st49" d="M1432.4,762.8h-286.6c-1.8,0-3.2-1.4-3.2-3.2v-328c0-1.8,1.4-3.2,3.2-3.2h286.6c1.8,0,3.2,1.4,3.2,3.2v328
				C1435.6,761.4,1434.2,762.8,1432.4,762.8z"/>
			
				<ellipse transform="matrix(0.9891 -0.1472 0.1472 0.9891 -47.8256 129.9695)" class="st56" cx="854" cy="388" rx="7.1" ry="7.1"/>
			
				<ellipse transform="matrix(0.9894 -0.1451 0.1451 0.9894 -46.9839 132.0086)" class="st56" cx="881.3" cy="388" rx="7.1" ry="7.1"/>
			<circle class="st56" cx="908.6" cy="388" r="7.1"/>
			<g>
				<path class="st49" d="M957.8,575.3c0.6-3.2,0.9-6.6,0.9-10c0-3.4-0.3-6.8-0.9-10l-13.9,0c-1-4.6-2.8-8.9-5.3-12.8l9.8-9.7
					c-3.8-5.6-8.7-10.4-14.2-14.3l-9.8,9.8c-3.9-2.5-8.2-4.3-12.7-5.4l0-13.9c-3.2-0.6-6.6-0.9-10-0.9c-3.4,0-6.8,0.3-10,0.9l0,13.9
					c-4.6,1-8.9,2.8-12.8,5.3l-9.8-9.8c-5.6,3.8-10.4,8.7-14.3,14.2l9.8,9.8c-2.5,3.9-4.3,8.2-5.4,12.8l-13.9,0
					c-0.6,3.2-0.9,6.6-0.9,10c0,3.4,0.3,6.8,0.9,10l13.9,0c1,4.6,2.8,8.9,5.3,12.8l-9.8,9.8c3.8,5.6,8.6,10.4,14.1,14.3l9.8-9.8
					c3.9,2.5,8.2,4.3,12.8,5.4l0,13.9c3.2,0.6,6.6,0.9,10,0.9c3.4,0,6.8-0.3,10-0.9l0-13.9c4.6-1,8.9-2.8,12.8-5.3l9.8,9.8
					c5.6-3.9,10.4-8.7,14.2-14.2l-9.8-9.8c2.5-3.9,4.3-8.2,5.4-12.7L957.8,575.3z M901.6,590.1c-13.8,0-25-11.3-25-25.1
					s11.3-25,25.1-25c13.8,0,25,11.3,25,25.1C926.6,579,915.4,590.2,901.6,590.1z"/>
				<path class="st49" d="M1131.7,545.5c1-5.2,1.5-10.6,1.5-16.1c0-5.5-0.5-10.9-1.4-16.1l-22.2,0c-1.7-7.3-4.5-14.3-8.5-20.5
					l15.8-15.6c-6.1-8.9-13.9-16.7-22.7-22.9l-15.8,15.7c-6.2-4-13.1-6.9-20.4-8.6l0-22.2c-5.2-1-10.6-1.5-16.1-1.5
					c-5.5,0-10.9,0.5-16.1,1.4l0,22.2c-7.3,1.7-14.2,4.5-20.4,8.5l-15.7-15.8c-8.9,6.1-16.7,13.9-22.9,22.7l15.7,15.6
					c-4,6.2-6.9,13.2-8.6,20.5l-22.2,0c-1,5.2-1.5,10.6-1.5,16.1c0,5.5,0.5,10.9,1.4,16.1l22.2,0c1.7,7.3,4.5,14.2,8.5,20.4
					l-15.8,15.7c6.1,8.9,13.8,16.6,22.6,22.8l15.8-15.7c6.2,4,13.2,6.9,20.5,8.6l0,22.2c5.2,1,10.6,1.5,16.1,1.5
					c5.5,0,10.9-0.5,16.1-1.4l0-22.2c7.3-1.7,14.3-4.5,20.5-8.5l15.7,15.8c8.9-6.2,16.6-13.9,22.7-22.7l-15.7-15.8
					c4-6.2,6.9-13.1,8.6-20.4L1131.7,545.5z M1041.7,569.3c-22.1,0-40.1-18-40-40.2c0-22.1,18-40.1,40.2-40c22.1,0,40,18,40,40.2
					C1081.8,551.4,1063.8,569.3,1041.7,569.3z"/>
			</g>
			<g>
				<defs>
					<filter id="Adobe_OpacityMaskFilter_2_" filterUnits="userSpaceOnUse" x="1142.6" y="510.6" width="458.7" height="397">
						<feFlood  style="flood-color:white;flood-opacity:1" result="back"/>
						<feBlend  in="SourceGraphic" in2="back" mode="normal"/>
					</filter>
				</defs>
				<mask maskUnits="userSpaceOnUse" x="1142.6" y="510.6" width="458.7" height="397" id="SVGID_23_">
					<g class="st57">
						<defs>
							<filter id="Adobe_OpacityMaskFilter_3_" filterUnits="userSpaceOnUse" x="1142.6" y="510.6" width="458.7" height="397">
								<feFlood  style="flood-color:white;flood-opacity:1" result="back"/>
								<feBlend  in="SourceGraphic" in2="back" mode="normal"/>
							</filter>
						</defs>
						<mask maskUnits="userSpaceOnUse" x="1142.6" y="510.6" width="458.7" height="397" id="SVGID_23_">
							<g class="st58">
							</g>
						</mask>
						<linearGradient id="SVGID_24_" gradientUnits="userSpaceOnUse" x1="1142.5786" y1="709.1466" x2="1601.2858" y2="709.1466">
							<stop  offset="0" style="stop-color:#FFFFFF"/>
							<stop  offset="1" style="stop-color:#1A1A1A"/>
						</linearGradient>
						<path class="st59" d="M1601.3,529.3V889c0,10.2-8.4,18.7-18.7,18.7h-421.3c-10.2,0-18.7-8.4-18.7-18.7V529.3
							c0-10.3,8.4-18.7,18.7-18.7h421.3C1592.9,510.6,1601.3,519,1601.3,529.3z"/>
					</g>
				</mask>
				<linearGradient id="SVGID_25_" gradientUnits="userSpaceOnUse" x1="1142.5786" y1="709.1466" x2="1601.2858" y2="709.1466">
					<stop  offset="0" style="stop-color:#0C5C93"/>
					<stop  offset="1" style="stop-color:#0C5C93"/>
				</linearGradient>
				<path class="st60" d="M1601.3,529.3V889c0,10.2-8.4,18.7-18.7,18.7h-421.3c-10.2,0-18.7-8.4-18.7-18.7V529.3
					c0-10.3,8.4-18.7,18.7-18.7h421.3C1592.9,510.6,1601.3,519,1601.3,529.3z"/>
				<path class="st61" d="M1618.9,518.8v359.7c0,10.2-8.4,18.7-18.7,18.7h-421.3c-10.2,0-18.7-8.4-18.7-18.7V518.8
					c0-10.3,8.4-18.7,18.7-18.7h421.3C1610.5,500.1,1618.9,508.4,1618.9,518.8z"/>
				<linearGradient id="SVGID_26_" gradientUnits="userSpaceOnUse" x1="1165.4934" y1="541.9789" x2="1601.5835" y2="541.9789">
					<stop  offset="0" style="stop-color:#38ACA8"/>
					<stop  offset="1" style="stop-color:#5F637A"/>
				</linearGradient>
				<path class="st62" d="M1618.9,518.8v65.1h-458.7v-65.1c0-10.3,8.4-18.7,18.7-18.7h421.3C1610.5,500.1,1618.9,508.4,1618.9,518.8
					z"/>
				<g>
					<linearGradient id="SVGID_27_" gradientUnits="userSpaceOnUse" x1="1301.6698" y1="839.3442" x2="1228.0657" y2="391.8299">
						<stop  offset="0" style="stop-color:#FFAC06"/>
						<stop  offset="1" style="stop-color:#F87C18"/>
					</linearGradient>
					<path class="st63" d="M1357.7,833.8H1206c-13.6,0-24.7-11-24.7-24.7V628c0-13.6,11-24.7,24.7-24.7h151.7
						c13.6,0,24.7,11,24.7,24.7v181.1C1382.3,822.7,1371.3,833.8,1357.7,833.8z"/>
					<linearGradient id="SVGID_28_" gradientUnits="userSpaceOnUse" x1="1512.2991" y1="804.2839" x2="1438.6941" y2="356.764">
						<stop  offset="0" style="stop-color:#38ACA8"/>
						<stop  offset="1" style="stop-color:#5F637A"/>
					</linearGradient>
					<path class="st64" d="M1573.1,833.8h-149.7c-13.6,0-24.7-11-24.7-24.7V628c0-13.6,11-24.7,24.7-24.7h149.7
						c13.6,0,24.7,11,24.7,24.7v181.1C1597.7,822.7,1586.7,833.8,1573.1,833.8z"/>
				</g>
				<g>
					<g>
						<path class="st61" d="M1306.1,647.9h-95c-0.3,0-0.6-0.3-0.6-0.6v-9.9c0-0.3,0.3-0.6,0.6-0.6h95c0.3,0,0.6,0.3,0.6,0.6v9.9
							C1306.7,647.7,1306.5,647.9,1306.1,647.9z"/>
						<path class="st61" d="M1345.2,672h-134.1c-0.3,0-0.6-0.3-0.6-0.6v-9.9c0-0.3,0.3-0.6,0.6-0.6h134.1c0.3,0,0.6,0.3,0.6,0.6v9.9
							C1345.8,671.8,1345.6,672,1345.2,672z"/>
						<path class="st61" d="M1345.2,696.1h-134.1c-0.3,0-0.6-0.3-0.6-0.6v-9.9c0-0.3,0.3-0.6,0.6-0.6h134.1c0.3,0,0.6,0.3,0.6,0.6
							v9.9C1345.8,695.8,1345.6,696.1,1345.2,696.1z"/>
						<path class="st61" d="M1345.2,720.2h-134.1c-0.3,0-0.6-0.3-0.6-0.6v-9.9c0-0.3,0.3-0.6,0.6-0.6h134.1c0.3,0,0.6,0.3,0.6,0.6
							v9.9C1345.8,719.9,1345.6,720.2,1345.2,720.2z"/>
						<path class="st61" d="M1345.2,744.3h-134.1c-0.3,0-0.6-0.3-0.6-0.6v-9.9c0-0.3,0.3-0.6,0.6-0.6h134.1c0.3,0,0.6,0.3,0.6,0.6
							v9.9C1345.8,744,1345.6,744.3,1345.2,744.3z"/>
						<path class="st61" d="M1345.2,768.3h-134.1c-0.3,0-0.6-0.3-0.6-0.6v-9.9c0-0.3,0.3-0.6,0.6-0.6h134.1c0.3,0,0.6,0.3,0.6,0.6
							v9.9C1345.8,768.1,1345.6,768.3,1345.2,768.3z"/>
						<path class="st61" d="M1306.1,792.4h-95c-0.3,0-0.6-0.3-0.6-0.6v-9.9c0-0.3,0.3-0.6,0.6-0.6h95c0.3,0,0.6,0.3,0.6,0.6v9.9
							C1306.7,792.1,1306.5,792.4,1306.1,792.4z"/>
					</g>
				</g>
				<g>
					<g>
						<path class="st61" d="M1518.6,647.9h-95c-0.3,0-0.6-0.3-0.6-0.6v-9.9c0-0.3,0.3-0.6,0.6-0.6h95c0.3,0,0.6,0.3,0.6,0.6v9.9
							C1519.2,647.7,1518.9,647.9,1518.6,647.9z"/>
						<path class="st61" d="M1557.7,672h-134.1c-0.3,0-0.6-0.3-0.6-0.6v-9.9c0-0.3,0.3-0.6,0.6-0.6h134.1c0.3,0,0.6,0.3,0.6,0.6v9.9
							C1558.3,671.8,1558,672,1557.7,672z"/>
						<path class="st61" d="M1557.7,696.1h-134.1c-0.3,0-0.6-0.3-0.6-0.6v-9.9c0-0.3,0.3-0.6,0.6-0.6h134.1c0.3,0,0.6,0.3,0.6,0.6
							v9.9C1558.3,695.8,1558,696.1,1557.7,696.1z"/>
						<path class="st61" d="M1557.7,720.2h-134.1c-0.3,0-0.6-0.3-0.6-0.6v-9.9c0-0.3,0.3-0.6,0.6-0.6h134.1c0.3,0,0.6,0.3,0.6,0.6
							v9.9C1558.3,719.9,1558,720.2,1557.7,720.2z"/>
						<path class="st61" d="M1557.7,744.3h-134.1c-0.3,0-0.6-0.3-0.6-0.6v-9.9c0-0.3,0.3-0.6,0.6-0.6h134.1c0.3,0,0.6,0.3,0.6,0.6
							v9.9C1558.3,744,1558,744.3,1557.7,744.3z"/>
						<path class="st61" d="M1557.7,768.3h-134.1c-0.3,0-0.6-0.3-0.6-0.6v-9.9c0-0.3,0.3-0.6,0.6-0.6h134.1c0.3,0,0.6,0.3,0.6,0.6
							v9.9C1558.3,768.1,1558,768.3,1557.7,768.3z"/>
						<path class="st61" d="M1518.6,792.4h-95c-0.3,0-0.6-0.3-0.6-0.6v-9.9c0-0.3,0.3-0.6,0.6-0.6h95c0.3,0,0.6,0.3,0.6,0.6v9.9
							C1519.2,792.1,1518.9,792.4,1518.6,792.4z"/>
					</g>
				</g>
				<linearGradient id="SVGID_29_" gradientUnits="userSpaceOnUse" x1="1184.1595" y1="540.3257" x2="1228.9188" y2="540.3257">
					<stop  offset="0" style="stop-color:#FFAC06"/>
					<stop  offset="1" style="stop-color:#F87C18"/>
				</linearGradient>
				<circle class="st65" cx="1206.5" cy="540.3" r="22.4"/>
				<path class="st61" d="M1421.8,537.8h-171c-0.7,0-1.2-0.5-1.2-1.2v-17.5c0-0.7,0.5-1.2,1.2-1.2l171,0c0.7,0,1.2,0.5,1.2,1.2v17.5
					C1423,537.3,1422.4,537.8,1421.8,537.8z"/>
				<path class="st61" d="M1345.2,559.9h-95c-0.3,0-0.6-0.3-0.6-0.6v-9.9c0-0.3,0.3-0.6,0.6-0.6h95c0.3,0,0.6,0.3,0.6,0.6v9.9
					C1345.8,559.6,1345.6,559.9,1345.2,559.9z"/>
			</g>
			<g>
				<g>
					<path class="st61" d="M914.5,695.2h-62.7c-0.3,0-0.6-0.3-0.6-0.6v-6.2c0-0.3,0.3-0.6,0.6-0.6h62.7c0.3,0,0.6,0.3,0.6,0.6v6.2
						C915.1,695,914.8,695.2,914.5,695.2z"/>
					<path class="st61" d="M1114.2,711.2H851.8c-0.3,0-0.6-0.3-0.6-0.6v-6.2c0-0.3,0.3-0.6,0.6-0.6h262.4c0.3,0,0.6,0.3,0.6,0.6v6.2
						C1114.7,711,1114.5,711.2,1114.2,711.2z"/>
					<path class="st61" d="M1114.2,727.2H851.8c-0.3,0-0.6-0.3-0.6-0.6v-6.2c0-0.3,0.3-0.6,0.6-0.6h262.4c0.3,0,0.6,0.3,0.6,0.6v6.2
						C1114.7,726.9,1114.5,727.2,1114.2,727.2z"/>
					<path class="st61" d="M1114.2,743.2H851.8c-0.3,0-0.6-0.3-0.6-0.6v-6.2c0-0.3,0.3-0.6,0.6-0.6h262.4c0.3,0,0.6,0.3,0.6,0.6v6.2
						C1114.7,742.9,1114.5,743.2,1114.2,743.2z"/>
				</g>
			</g>
			<g>
				<g>
					<path class="st66" d="M1221.8,446.6h-55.3c-0.3,0-0.6-0.3-0.6-0.6v-5.7c0-0.3,0.3-0.6,0.6-0.6h55.3c0.3,0,0.6,0.3,0.6,0.6v5.7
						C1222.4,446.3,1222.1,446.6,1221.8,446.6z"/>
					<path class="st66" d="M1398.1,461.5h-231.6c-0.3,0-0.6-0.3-0.6-0.6v-5.7c0-0.3,0.3-0.6,0.6-0.6h231.6c0.3,0,0.6,0.3,0.6,0.6
						v5.7C1398.7,461.2,1398.4,461.5,1398.1,461.5z"/>
					<path class="st66" d="M1398.1,476.4h-231.6c-0.3,0-0.6-0.3-0.6-0.6v-5.7c0-0.3,0.3-0.6,0.6-0.6h231.6c0.3,0,0.6,0.3,0.6,0.6
						v5.7C1398.7,476.2,1398.4,476.4,1398.1,476.4z"/>
					<path class="st66" d="M1398.1,491.3h-231.6c-0.3,0-0.6-0.3-0.6-0.6v-5.7c0-0.3,0.3-0.6,0.6-0.6h231.6c0.3,0,0.6,0.3,0.6,0.6
						v5.7C1398.7,491.1,1398.4,491.3,1398.1,491.3z"/>
				</g>
			</g>
		</g>
		<linearGradient id="SVGID_30_" gradientUnits="userSpaceOnUse" x1="1069.8611" y1="399.2274" x2="1307.5098" y2="399.2274">
			<stop  offset="0" style="stop-color:#F6F2ED"/>
			<stop  offset="0.9953" style="stop-color:#D3D1CD"/>
		</linearGradient>
		<path class="st67" d="M1236.5,344.7l2.2-21.7c0.8-8.1,5-15.6,11.6-20.5c0,0,29.1-10.7,36.4-1.7l0,0l-27.2,20.7l-1.9,20.9l21.8,4.4
			l26.9-19.9l0,0c6.3,7-11.2,29.9-11.2,29.9c-9.9,7.3-22.2,10.7-34.4,9.5l-6.7-0.6l-98.9,83.5V468c0,6.7-15.5,42.4-57.3,30.9l26-21
			l-1.1-21.5l-23.2-7.1l-26.9,17.8l0,0c-11-18.1,17.4-39.8,17.4-39.8c7.9-6,19.5-7.6,29.2-5.6l17.5,3.7L1236.5,344.7z"/>
		<g>
			<linearGradient id="SVGID_31_" gradientUnits="userSpaceOnUse" x1="1161.1332" y1="266.2924" x2="994.796" y2="428.2902">
				<stop  offset="0" style="stop-color:#FFAC06"/>
				<stop  offset="1" style="stop-color:#F87C18"/>
			</linearGradient>
			<path class="st68" d="M999.8,269.1c0,0,48.5-25,90.2-20.2c24.8,2.9,59.2,20,83,33.4c17.3,9.8,29.4,26.8,33,46.3l7,37.6
				c0,0-2.9,10.7-11.2,12.1c-8.3,1.5-16.5,0-16.5,0s-1.5-53.8-14.2-58.1c-12.7-4.4-37.2-4.3-37.2-4.3v13.7h-121.4l-12.6,13.1
				l25.3,73c0,0-5.3,6.9-15.5,9.8c-10.2,2.9-14.6,2.9-14.6,2.9s-30.9-84-31.7-92.7C962.4,326.9,999.8,269.1,999.8,269.1z"/>
			<g>
				
					<linearGradient id="SVGID_32_" gradientUnits="userSpaceOnUse" x1="376.8242" y1="184.2687" x2="320.016" y2="239.5948" gradientTransform="matrix(-1 0 0 1 1420.6544 0)">
					<stop  offset="0" style="stop-color:#FFD9D9"/>
					<stop  offset="1" style="stop-color:#EFB4B4"/>
				</linearGradient>
				<path class="st69" d="M1036.8,205.1c0,0-3-8-6.9-6.1c-3.9,1.9,7,18.5,8.5,20.9c1.5,2.4,3.5,33.2,32.6,35.4
					c29.1,2.2,32.4-31.5,33.9-34.1c1.5-2.6,9.6-20.8,5.6-23.3c-4.1-2.6-6.1,5.4-7,5.2c-0.9-0.2,0.2-22.1-11.5-25.8
					c-11.7-3.7-28.5-0.6-30.8,0c-2.2,0.6-25,14.8-25,14.8L1036.8,205.1z"/>
				<path class="st70" d="M1094.7,250v11.4c0,0-9,7.8-22.7,6.5c-13.7-1.3-20.5-7.4-20.5-7.4v-18.2L1094.7,250z"/>
				
					<linearGradient id="SVGID_33_" gradientUnits="userSpaceOnUse" x1="385.8805" y1="166.015" x2="312.7162" y2="237.2705" gradientTransform="matrix(-1 0 0 1 1420.6544 0)">
					<stop  offset="0" style="stop-color:#587082"/>
					<stop  offset="1" style="stop-color:#1A1E28"/>
				</linearGradient>
				<path class="st71" d="M1097.3,183.8c0,0-6.7,14.5-30,15.4c-23.3,0.9-27.8-3.5-27.8-3.5s0.9,14.3,0.9,17.4
					c0,3.2,4.4,21.9,10,23.2c5.6,1.3,2.9-6.9,10.1-8.2c7.2-1.3,25.9-2.3,26.6,0.6c0.7,3,2.3,6.7,7.5,6.7s8.4-35.2,8-37.7
					s1.7-3.4,1.7-3.4l1.7,3.3c0,0-2.2,24.9-1.4,29.2s-6.7,33.2-27.9,32.7c-21.7-0.5-27.2-7.6-32-18.5c-4.8-10.9-7.5-17.7-7.5-22.8
					c0.1-5.2-0.9-14-0.9-14l-4.1-5c0,0-6.4-31.2,12.1-41.4c18.5-10.2,40.2-4.5,48.2-1.5c8,3,17,12.2,18.2,22.8
					c1.1,10.6-0.2,19.1-0.2,19.1l-5.2,2.2c0,0-3.7-3.2-5-7.8C1099,187.7,1097.3,183.8,1097.3,183.8z"/>
			</g>
			<path class="st72" d="M1012.4,329.6c0,0,7.3-15.4,7.7-32.2c0.4-16.8-12.8-29.4-12.8-29.4s16,11.8,17.2,25
				c1.2,13.2-6.8,36.6-6.8,36.6H1012.4z"/>
			<path class="st72" d="M1133.8,315.9c0,0-2.2-37.3-6.4-47c-4.2-9.8-5.7-12.2-5.7-12.2s4.6,27.7,6,42.1c1.4,14.4,1.2,30.8,1.2,30.8
				h4.8V315.9z"/>
		</g>
		<linearGradient id="SVGID_34_" gradientUnits="userSpaceOnUse" x1="1182.8306" y1="388.6497" x2="1223.2811" y2="388.6497">
			<stop  offset="0" style="stop-color:#FFD9D9"/>
			<stop  offset="1" style="stop-color:#EFB4B4"/>
		</linearGradient>
		<path class="st73" d="M1186.6,378.6c0,0-4,7.3-3.7,8.2c0.3,0.9,7.1-2,9.2,0c2.1,2,7.8,22.9,12.4,20.5c4.7-2.4,19.7-11.2,18.8-17.6
			c-0.9-6.4-11.7-19.9-11.7-19.9S1199.5,379.4,1186.6,378.6z"/>
		<linearGradient id="SVGID_35_" gradientUnits="userSpaceOnUse" x1="999.685" y1="447.7153" x2="1041.5029" y2="447.7153">
			<stop  offset="0" style="stop-color:#FFD9D9"/>
			<stop  offset="1" style="stop-color:#EFB4B4"/>
		</linearGradient>
		<path class="st74" d="M1023.1,417.7c0,0,14.3,5.9,15.9,12c1.6,6.1,2.5,16.2,2.5,16.2s-3.8,4.8-6.8-2c-3-6.8-3-6.8-3-6.8
			s-4.6,11.2-2.7,22.3c1.8,11.2-2.3,18.7-9.1,18.4c-6.8-0.2-15.3-13.5-16.8-26c-1.6-12.4-3.3-24-3.3-24S1016.8,422.3,1023.1,417.7z"
			/>
		<linearGradient id="SVGID_36_" gradientUnits="userSpaceOnUse" x1="715.9885" y1="462.077" x2="789.3394" y2="462.077">
			<stop  offset="0" style="stop-color:#587082"/>
			<stop  offset="1" style="stop-color:#1A1E28"/>
		</linearGradient>
		<path class="st75" d="M789.3,436.5c0,10.3-1.1,14.5-10.3,16.1c-9.2,1.6-5.6,10.1-8,13.3c-2.3,3.1,2.2,12.6-0.8,12.6
			c-3,0-3.3-14.7-9.7-14.2c-6.4,0.5-4.4,10-1.7,14.2c2.7,4.2-0.9,12.9-15.3,15.1c-14.3,2.2-22.1-17.8-26.5-26.2
			c-4.4-8.4,5.1-15.1,5.1-15.1s-13.6-16.8,17.9-20.9S789.3,436.5,789.3,436.5z"/>
		<linearGradient id="SVGID_37_" gradientUnits="userSpaceOnUse" x1="689.0024" y1="590.9998" x2="911.0699" y2="590.9998">
			<stop  offset="0" style="stop-color:#FFAC06"/>
			<stop  offset="1" style="stop-color:#F87C18"/>
		</linearGradient>
		<path class="st76" d="M729.4,507.6c0,0,43.8,2.7,48,6.9c4.1,4.1,0,5.5,4.8,7.2c4.8,1.7,10.6,4.5,14.7,8.6c4.1,4.1,47.6,62,51.7,62
			s53.4-4.5,53.4-4.5s7.5,2.4,8.6,9.9c1,7.5,0,13,0,13s-55.8,10.6-67.8,9.2c-12-1.4-55.5-35.6-55.5-35.6v75.4
			c0,0-13.1,15.1-52.8,14.7c-39.7-0.3-45.5-9.6-45.5-9.6S708.2,541,714.3,527C720.5,513.1,729.4,507.6,729.4,507.6z"/>
		<linearGradient id="SVGID_38_" gradientUnits="userSpaceOnUse" x1="906.1619" y1="592.0604" x2="953.6895" y2="592.0604">
			<stop  offset="0" style="stop-color:#FFD9D9"/>
			<stop  offset="1" style="stop-color:#EFB4B4"/>
		</linearGradient>
		<path class="st77" d="M906.2,590.1c0,0,3.1-11,10.8-12.2c7.6-1.1,14.6-1.5,14.6-1.5s1.2,3.6-4.7,4.6c-5.9,1-6.1,5.5,1.9,4.2
			c8-1.3,22.8-7,24.7-2.9c1.9,4.2-8.6,13.7-16.7,18.2c-8.2,4.5-25.8,7.4-25.8,7.4S911,595.2,906.2,590.1z"/>
		<g>
			<linearGradient id="SVGID_39_" gradientUnits="userSpaceOnUse" x1="1585.6918" y1="708.9612" x2="1659.757" y2="708.9612">
				<stop  offset="0" style="stop-color:#587082"/>
				<stop  offset="1" style="stop-color:#1A1E28"/>
			</linearGradient>
			<polygon class="st78" points="1619.4,778.7 1585.7,639.3 1641.4,645 1659.8,770.9 			"/>
			<g>
				<linearGradient id="SVGID_40_" gradientUnits="userSpaceOnUse" x1="1595.4799" y1="801.2571" x2="1668.5339" y2="801.2571">
					<stop  offset="0" style="stop-color:#587082"/>
					<stop  offset="1" style="stop-color:#1A1E28"/>
				</linearGradient>
				<path class="st79" d="M1619.1,781.6c0,0,0.2,5.2-3.1,7.3c-3.3,2.1-23.8,26.5-20.2,39.7c3.6,13.2,28.2,1.7,31.8,0
					c3.6-1.7,40.3-32.1,40.3-32.1s2.2-9.2-2.4-17.6c-4.6-8.4-8.7-10.1-8.7-10.1S1633,761.5,1619.1,781.6z"/>
				<path class="st61" d="M1664.1,788.6c-9.4-8.7-48.8,19.6-60.1,33.2c-11.3,13.6-0.6,17.7,22.5,7.5
					C1649.5,819.1,1678.7,802.2,1664.1,788.6z"/>
			</g>
			<g>
				<linearGradient id="SVGID_41_" gradientUnits="userSpaceOnUse" x1="1806.9725" y1="906.62" x2="1932.5156" y2="906.62">
					<stop  offset="0" style="stop-color:#587082"/>
					<stop  offset="1" style="stop-color:#1A1E28"/>
				</linearGradient>
				<polygon class="st80" points="1814.6,678.8 1932.5,1134.5 1922.5,1134.5 1807,678.8 				"/>
				<linearGradient id="SVGID_42_" gradientUnits="userSpaceOnUse" x1="1663.2544" y1="624.7105" x2="1536.4939" y2="1121.1139">
					<stop  offset="0" style="stop-color:#587082"/>
					<stop  offset="1" style="stop-color:#1A1E28"/>
				</linearGradient>
				<path class="st81" d="M1703.1,678.8l-27.3,104.9h-107.9l27.3-104.9H1579l-115.7,455.5h16.2l29.8-126h107.9l-29.8,126h16.2
					l115.7-455.5H1703.1z M1672.9,794.6l-25,95.8H1540l25-95.8H1672.9z M1512.2,997.3l25-95.8h107.9l-25,95.8H1512.2z"/>
				<linearGradient id="SVGID_43_" gradientUnits="userSpaceOnUse" x1="1690.5203" y1="906.6201" x2="1948.6902" y2="906.6201">
					<stop  offset="0" style="stop-color:#F6F2ED"/>
					<stop  offset="0.9953" style="stop-color:#D3D1CD"/>
				</linearGradient>
				<path class="st82" d="M1932.5,1134.5h16.2l-117.9-455.7h-16.2l27.3,104.9H1734l-27.3-104.9h-16.2l117.9,455.7h16.2l-32.1-126.2
					h107.9L1932.5,1134.5z M1844.8,794.6l25,95.8h-107.9l-25-95.8H1844.8z M1789.7,997.3l-25-95.8h107.9l25,95.8H1789.7z"/>
				<linearGradient id="SVGID_44_" gradientUnits="userSpaceOnUse" x1="1579.0107" y1="668.1042" x2="1706.3425" y2="668.1042">
					<stop  offset="0" style="stop-color:#38ACA8"/>
					<stop  offset="1" style="stop-color:#5F637A"/>
				</linearGradient>
				<rect x="1579" y="657.4" class="st83" width="127.3" height="21.3"/>
				<linearGradient id="SVGID_45_" gradientUnits="userSpaceOnUse" x1="1833.6743" y1="668.1042" x2="1706.3425" y2="668.1042">
					<stop  offset="0" style="stop-color:#F6F2ED"/>
					<stop  offset="0.9953" style="stop-color:#D3D1CD"/>
				</linearGradient>
				<rect x="1706.3" y="657.4" class="st84" width="127.3" height="21.3"/>
				<linearGradient id="SVGID_46_" gradientUnits="userSpaceOnUse" x1="1463.3232" y1="906.7124" x2="1808.4438" y2="906.7124">
					<stop  offset="0" style="stop-color:#38ACA8"/>
					<stop  offset="1" style="stop-color:#5F637A"/>
				</linearGradient>
				<polygon class="st85" points="1463.3,1134.3 1579,678.8 1690.5,678.8 1808.4,1134.5 1798.4,1134.5 1682.8,688.1 1584.8,688.1 
					1470.7,1134.7 				"/>
			</g>
			<g>
				<g>
					<linearGradient id="SVGID_47_" gradientUnits="userSpaceOnUse" x1="1485.1731" y1="471.1981" x2="1725.4614" y2="471.1981">
						<stop  offset="0" style="stop-color:#38ACA8"/>
						<stop  offset="1" style="stop-color:#5F637A"/>
					</linearGradient>
					<path class="st86" d="M1725.5,377v188.4c0,5.4-4.4,9.8-9.8,9.8H1495c-5.4,0-9.8-4.4-9.8-9.8V377c0-5.4,4.4-9.8,9.8-9.8h220.7
						C1721.1,367.2,1725.5,371.6,1725.5,377z"/>
					<linearGradient id="SVGID_48_" gradientUnits="userSpaceOnUse" x1="1725.4614" y1="389.1378" x2="1503.7579" y2="389.1378">
						<stop  offset="0" style="stop-color:#38ACA8"/>
						<stop  offset="1" style="stop-color:#5F637A"/>
					</linearGradient>
					<path class="st87" d="M1725.5,377v34.1h-240.3V377c0-5.4,4.4-9.8,9.8-9.8h220.7C1721.1,367.2,1725.5,371.6,1725.5,377z"/>
					<g>
						<rect x="1496.2" y="421.3" class="st49" width="105.3" height="120.7"/>
						<rect x="1610.1" y="421.3" class="st49" width="104.3" height="120.7"/>
					</g>
					<g>
						<path class="st66" d="M1561.4,444.6h-49.2c-0.3,0-0.6-0.3-0.6-0.6v-4.6c0-0.3,0.3-0.6,0.6-0.6h49.2c0.3,0,0.6,0.3,0.6,0.6v4.6
							C1561.9,444.4,1561.7,444.6,1561.4,444.6z"/>
						<path class="st66" d="M1581.8,457.3h-69.7c-0.3,0-0.6-0.3-0.6-0.6v-4.6c0-0.3,0.3-0.6,0.6-0.6h69.7c0.3,0,0.6,0.3,0.6,0.6v4.6
							C1582.4,457,1582.2,457.3,1581.8,457.3z"/>
						<path class="st66" d="M1581.8,469.9h-69.7c-0.3,0-0.6-0.3-0.6-0.6v-4.6c0-0.3,0.3-0.6,0.6-0.6h69.7c0.3,0,0.6,0.3,0.6,0.6v4.6
							C1582.4,469.6,1582.2,469.9,1581.8,469.9z"/>
						<path class="st66" d="M1581.8,482.5h-69.7c-0.3,0-0.6-0.3-0.6-0.6v-4.6c0-0.3,0.3-0.6,0.6-0.6h69.7c0.3,0,0.6,0.3,0.6,0.6v4.6
							C1582.4,482.2,1582.2,482.5,1581.8,482.5z"/>
						<path class="st66" d="M1581.8,495.1h-69.7c-0.3,0-0.6-0.3-0.6-0.6v-4.6c0-0.3,0.3-0.6,0.6-0.6h69.7c0.3,0,0.6,0.3,0.6,0.6v4.6
							C1582.4,494.8,1582.2,495.1,1581.8,495.1z"/>
						<path class="st66" d="M1581.8,507.7h-69.7c-0.3,0-0.6-0.3-0.6-0.6v-4.6c0-0.3,0.3-0.6,0.6-0.6h69.7c0.3,0,0.6,0.3,0.6,0.6v4.6
							C1582.4,507.4,1582.2,507.7,1581.8,507.7z"/>
						<path class="st66" d="M1561.4,520.3h-49.2c-0.3,0-0.6-0.3-0.6-0.6v-4.6c0-0.3,0.3-0.6,0.6-0.6h49.2c0.3,0,0.6,0.3,0.6,0.6v4.6
							C1561.9,520.1,1561.7,520.3,1561.4,520.3z"/>
					</g>
					<g>
						<path class="st66" d="M1672.7,444.6h-49.2c-0.3,0-0.6-0.3-0.6-0.6v-4.6c0-0.3,0.3-0.6,0.6-0.6h49.2c0.3,0,0.6,0.3,0.6,0.6v4.6
							C1673.2,444.4,1673,444.6,1672.7,444.6z"/>
						<path class="st66" d="M1693.1,457.3h-69.7c-0.3,0-0.6-0.3-0.6-0.6v-4.6c0-0.3,0.3-0.6,0.6-0.6h69.7c0.3,0,0.6,0.3,0.6,0.6v4.6
							C1693.7,457,1693.5,457.3,1693.1,457.3z"/>
						<path class="st66" d="M1693.1,469.9h-69.7c-0.3,0-0.6-0.3-0.6-0.6v-4.6c0-0.3,0.3-0.6,0.6-0.6h69.7c0.3,0,0.6,0.3,0.6,0.6v4.6
							C1693.7,469.6,1693.5,469.9,1693.1,469.9z"/>
						<path class="st66" d="M1693.1,482.5h-69.7c-0.3,0-0.6-0.3-0.6-0.6v-4.6c0-0.3,0.3-0.6,0.6-0.6h69.7c0.3,0,0.6,0.3,0.6,0.6v4.6
							C1693.7,482.2,1693.5,482.5,1693.1,482.5z"/>
						<path class="st66" d="M1693.1,495.1h-69.7c-0.3,0-0.6-0.3-0.6-0.6v-4.6c0-0.3,0.3-0.6,0.6-0.6h69.7c0.3,0,0.6,0.3,0.6,0.6v4.6
							C1693.7,494.8,1693.5,495.1,1693.1,495.1z"/>
						<path class="st66" d="M1693.1,507.7h-69.7c-0.3,0-0.6-0.3-0.6-0.6v-4.6c0-0.3,0.3-0.6,0.6-0.6h69.7c0.3,0,0.6,0.3,0.6,0.6v4.6
							C1693.7,507.4,1693.5,507.7,1693.1,507.7z"/>
						<path class="st66" d="M1672.7,520.3h-49.2c-0.3,0-0.6-0.3-0.6-0.6v-4.6c0-0.3,0.3-0.6,0.6-0.6h49.2c0.3,0,0.6,0.3,0.6,0.6v4.6
							C1673.2,520.1,1673,520.3,1672.7,520.3z"/>
					</g>
					<circle class="st61" cx="1509.5" cy="388.3" r="11.7"/>
					<path class="st61" d="M1621.6,387h-88.4c-0.7,0-1.2-0.5-1.2-1.2v-8c0-0.7,0.5-1.2,1.2-1.2h88.4c0.7,0,1.2,0.5,1.2,1.2v8
						C1622.8,386.4,1622.3,387,1621.6,387z"/>
					<path class="st61" d="M1581.8,398.5h-49.2c-0.3,0-0.6-0.3-0.6-0.6v-4.6c0-0.3,0.3-0.6,0.6-0.6h49.2c0.3,0,0.6,0.3,0.6,0.6v4.6
						C1582.4,398.3,1582.2,398.5,1581.8,398.5z"/>
				</g>
				<linearGradient id="SVGID_49_" gradientUnits="userSpaceOnUse" x1="1491.2035" y1="701.599" x2="1719.431" y2="701.599">
					<stop  offset="0" style="stop-color:#587082"/>
					<stop  offset="1" style="stop-color:#1A1E28"/>
				</linearGradient>
				<path class="st88" d="M1608,597.5c0,0-99.8,16.2-111.8,25s0.8,64.6,6.5,101.2c5.7,36.6,7.8,82,7.8,82s8.7-11.6,23.3-12.2
					c14.5-0.6,14.5-0.6,14.5-0.6s-5.5-136.7,4.9-136.1c10.4,0.6,90.7,9.9,137.8-1.7c47.1-11.6,21.5-56.3,21.5-56.3
					S1651,611.5,1608,597.5z"/>
				<linearGradient id="SVGID_50_" gradientUnits="userSpaceOnUse" x1="1485.9968" y1="572.2467" x2="1611.0117" y2="572.2467">
					<stop  offset="0" style="stop-color:#FFD9D9"/>
					<stop  offset="1" style="stop-color:#EFB4B4"/>
				</linearGradient>
				<path class="st89" d="M1579.4,570.9c0,0-69.9-0.9-76.8-8.1c-6.9-7.2,0.3-19.6-8.3-20.7c-8.6-1,1.2,22.6-3.2,21.4
					c-4.4-1.2-16.1,13.4,21.4,25.2c37.5,11.8,78.5,15.5,83.9,12.6c5.4-2.9,14.5-25.2,14.5-25.2S1599.8,581.1,1579.4,570.9z"/>
				<linearGradient id="SVGID_51_" gradientUnits="userSpaceOnUse" x1="1621.6888" y1="402.9988" x2="1656.4141" y2="402.9988">
					<stop  offset="0" style="stop-color:#FFD9D9"/>
					<stop  offset="1" style="stop-color:#EFB4B4"/>
				</linearGradient>
				<path class="st90" d="M1629,369.9c0,0-9.4,11.4-7.4,14.2c2,2.8,3.6,5,2.6,7.3c-1.1,2.3-3.5,8.4-2.2,13.7c1.2,5.3,3.3,20,7,20.7
					c3.7,0.8,6.2-1.6,8.6,0.8c2.3,2.3,3.6,9.5,3.6,9.5s8-1.6,20.1-2.5s18.2-1.9,18.2-1.9s-6.1-16.7-5.5-21.7c0.6-5-6.9-29-16.5-35.2
					C1647.9,368.7,1629,369.9,1629,369.9z"/>
				<path class="st61" d="M1722.9,447.2c-9.5-3.3-38.6-10.3-43.4-13.7c-4.8-3.4-32,0.3-37.2,2.5c-5.2,2.1-3.6,5.9-10.8,8.4
					c-7.2,2.5-30.3,2.4-37.5,13.8c-7.2,11.4-16.5,106.2-16.5,106.2s1.3,10.2,16.5,13.2c15.3,3,17-3,17-3v24.7c0,0,12.2,10.9,50,9.2
					s51.5-10.1,51.5-10.1s-1.6-24.9,3.2-27.4c4.8-2.5,17.5,1.8,19.9-16C1738,537.2,1730.9,450,1722.9,447.2z"/>
				<linearGradient id="SVGID_52_" gradientUnits="userSpaceOnUse" x1="1618.1222" y1="406.9326" x2="1744.3903" y2="406.9326">
					<stop  offset="0" style="stop-color:#587082"/>
					<stop  offset="1" style="stop-color:#1A1E28"/>
				</linearGradient>
				<path class="st91" d="M1621,361.8c-7.1,10.7-1.5,25.8,20.2,27.3c21.7,1.5,7.4,12,8.6,22.9c1.3,10.8,14.1,14,9.3,23.8
					c-4.8,9.8-6.3,31.3,29.7,29.6c35.9-1.7,57.2-16.2,55.5-35c-1.7-18.8-43.4-12.5-43.1-35.2c0.3-22.7-0.3-45.6-37.4-46.6
					C1626.7,347.5,1624.8,356.1,1621,361.8z"/>
				<path class="st92" d="M1611,574.6c0,0,11.8-63.4,11.8-85.3s0-22,0-22s7.9,19.1,3.8,37.3c-4.1,18.2-8.5,98.5-8.5,98.5l-7.1-3.9
					V574.6z"/>
				<path class="st92" d="M1713.4,575.2c0,0,2.2-62.6,0.9-78.6c-1.3-16.1-5.9-19.9-5.9-19.9s1.3,13.1,1.3,28.1
					c0,15-1.3,96.6-1.3,96.6l4.1-3.1L1713.4,575.2z"/>
				<g>
					<linearGradient id="SVGID_53_" gradientUnits="userSpaceOnUse" x1="1486.8229" y1="825.2814" x2="1559.8771" y2="825.2814">
						<stop  offset="0" style="stop-color:#587082"/>
						<stop  offset="1" style="stop-color:#1A1E28"/>
					</linearGradient>
					<path class="st93" d="M1510.5,805.7c0,0,0.2,5.2-3.1,7.3c-3.3,2.1-23.8,26.5-20.2,39.7c3.6,13.2,28.2,1.7,31.8,0
						c3.6-1.7,40.3-32.1,40.3-32.1s2.2-9.2-2.4-17.6c-4.6-8.4-8.7-10.1-8.7-10.1S1524.4,785.5,1510.5,805.7z"/>
					<path class="st61" d="M1555.4,812.6c-9.4-8.7-48.8,19.6-60.1,33.2c-11.3,13.6-0.6,17.7,22.5,7.5
						C1540.8,843.1,1570,826.2,1555.4,812.6z"/>
				</g>
			</g>
		</g>
		<g>
			<linearGradient id="SVGID_54_" gradientUnits="userSpaceOnUse" x1="430.5224" y1="1283.3582" x2="605.9378" y2="1283.3582">
				<stop  offset="0" style="stop-color:#38ACA8"/>
				<stop  offset="1" style="stop-color:#5F637A"/>
			</linearGradient>
			<polygon class="st94" points="605.9,1291.7 430.5,1300.2 430.5,1275 605.9,1266.5 			"/>
			<linearGradient id="SVGID_55_" gradientUnits="userSpaceOnUse" x1="424.2894" y1="1287.6086" x2="436.7554" y2="1287.6086">
				<stop  offset="0" style="stop-color:#587082"/>
				<stop  offset="1" style="stop-color:#1A1E28"/>
			</linearGradient>
			<ellipse class="st95" cx="430.5" cy="1287.6" rx="6.2" ry="12.6"/>
			<linearGradient id="SVGID_56_" gradientUnits="userSpaceOnUse" x1="711.728" y1="1236.1204" x2="669.1481" y2="1316.2552">
				<stop  offset="0" style="stop-color:#38ACA8"/>
				<stop  offset="1" style="stop-color:#5F637A"/>
			</linearGradient>
			<path class="st96" d="M780.8,1272.5c0.1-0.7,0.2-1.3,0.2-2c0-18.9-40.6-34.3-90.7-34.3s-90.7,15.4-90.7,34.3c0,0.7,0.1,1.3,0.2,2
				c-0.1,0.7-0.2,1.3-0.2,2c0,0.7,0.1,1.3,0.2,2c-0.1,0.7-0.2,1.3-0.2,2c0,0.7,0.1,1.3,0.2,2c-0.1,0.7-0.2,1.3-0.2,2
				c0,18.9,40.6,34.3,90.7,34.3s90.7-15.4,90.7-34.3c0-0.7-0.1-1.3-0.2-2c0.1-0.7,0.2-1.3,0.2-2c0-0.7-0.1-1.3-0.2-2
				c0.1-0.7,0.2-1.3,0.2-2C780.9,1273.8,780.9,1273.2,780.8,1272.5z M690.3,1299.7c-37.2,0-68.3-10-75.6-23.2
				c7.3-13.3,38.4-23.2,75.6-23.2s68.3,10,75.6,23.2C758.5,1289.8,727.5,1299.7,690.3,1299.7z"/>
			<linearGradient id="SVGID_57_" gradientUnits="userSpaceOnUse" x1="599.5862" y1="1266.4788" x2="780.9288" y2="1266.4788">
				<stop  offset="0" style="stop-color:#587082"/>
				<stop  offset="1" style="stop-color:#1A1E28"/>
			</linearGradient>
			<path class="st97" d="M690.3,1232.2c-50.1,0-90.7,15.4-90.7,34.3c0,18.9,40.6,34.3,90.7,34.3s90.7-15.4,90.7-34.3
				C780.9,1247.5,740.3,1232.2,690.3,1232.2z M690.3,1295.7c-42.7,0-77.3-13.1-77.3-29.2c0-16.1,34.6-29.2,77.3-29.2
				s77.3,13.1,77.3,29.2C767.5,1282.6,732.9,1295.7,690.3,1295.7z"/>
		</g>
		<linearGradient id="SVGID_58_" gradientUnits="userSpaceOnUse" x1="1246.8083" y1="811.7711" x2="1076.4956" y2="897.754">
			<stop  offset="0" style="stop-color:#38ACA8"/>
			<stop  offset="1" style="stop-color:#5F637A"/>
		</linearGradient>
		<path class="st98" d="M954.5,928.3c0,0,5.8,7.8,22.7,8.4c16.9,0.5,19,0,19,0l7.4,46c0,0,24,18.6,68.6,12.8
			c44.6-5.8,48.5-8.7,48.5-8.7l3.2-75.6l13.6,35.5c0,0,6,4.5,22.6-2.1c16.6-6.6,16.6-6.6,16.6-6.6s-37.6-106-51.2-115.9
			c-13.6-9.9-72.3-10.1-101.7-4.7s-33.2,14.7-37.8,23.8C981.6,850.3,954.5,928.3,954.5,928.3z"/>
		<linearGradient id="SVGID_59_" gradientUnits="userSpaceOnUse" x1="1143.7783" y1="989.7199" x2="1041.4817" y2="1041.3647">
			<stop  offset="0" style="stop-color:#587082"/>
			<stop  offset="1" style="stop-color:#1A1E28"/>
		</linearGradient>
		<path class="st99" d="M1072.3,995.5c0,0-11.9,106.9-16,114.5c-4.1,7.6-42,18.5-54.1,10.2c-12.1-8.3-30.2-60.9-30.2-60.9
			s1.9-11.7,15.3-13.6c13.4-1.9,9.9-1.6,9.9-1.6l6.6-61.4C1003.7,982.6,1029.7,997.1,1072.3,995.5z"/>
		
			<linearGradient id="SVGID_60_" gradientUnits="userSpaceOnUse" x1="1280.6871" y1="973.824" x2="1170.7352" y2="1029.3337" gradientTransform="matrix(0.9991 -4.170000e-02 4.170000e-02 0.9991 -105.5159 32.0248)">
			<stop  offset="0" style="stop-color:#587082"/>
			<stop  offset="1" style="stop-color:#1A1E28"/>
		</linearGradient>
		<path class="st100" d="M1126.9,942.1c-3.6-11.6-15.3-18.8-27.3-17.1c-20.7,2.9-31.6,16.9-32.6,55.4c-1.2,47.8-0.6,119.8-0.6,120.9
			s9.9,7.1,24,6.1c14-0.9,22.7-5.2,22.7-5.2s16.7-106.7,16.8-137.6C1130,955.2,1128.7,947.8,1126.9,942.1z"/>
		<linearGradient id="SVGID_61_" gradientUnits="userSpaceOnUse" x1="1311.8026" y1="1125.9907" x2="886.4236" y2="1158.4717">
			<stop  offset="0" style="stop-color:#587082"/>
			<stop  offset="1" style="stop-color:#1A1E28"/>
		</linearGradient>
		<path class="st101" d="M844.9,1202.7c-5.6,0-10.9-2.8-14-7.5c-3.1-4.7-3.7-10.6-1.6-15.8l20.8-82.1c3.2-7.8,10.8-12.8,19.2-12.8
			h388.9c9.2,0,17.8,4.9,22.5,12.9l28.6,78.4c3.3,5.6,3.3,12.3,0.1,17.9c-3.2,5.6-9,9-15.5,9H844.9z"/>
		<linearGradient id="SVGID_62_" gradientUnits="userSpaceOnUse" x1="1330.5941" y1="1143.5663" x2="779.6805" y2="1143.5663">
			<stop  offset="0" style="stop-color:#38ACA8"/>
			<stop  offset="1" style="stop-color:#5F637A"/>
		</linearGradient>
		<path class="st102" d="M1294,1193.9H844.9c-5.8,0-9.7-5.8-7.5-11.2l20.8-82.1c1.8-4.5,6.2-7.5,11.1-7.5h388.9
			c6.2,0,11.9,3.3,15,8.6l5.7,15.6l-7.5,1.6l7.6,27.5l10.9,1.1l11.9,32.6C1305.5,1186.3,1301.1,1193.9,1294,1193.9z"/>
		<g>
			<path class="st70" d="M1083.6,809.9v11.4c0,0-9,7.8-22.7,6.5c-13.7-1.3-20.5-7.4-20.5-7.4v-18.2L1083.6,809.9z"/>
			<linearGradient id="SVGID_63_" gradientUnits="userSpaceOnUse" x1="1089.2197" y1="782.1962" x2="1044.1836" y2="778.4432">
				<stop  offset="0" style="stop-color:#FFD9D9"/>
				<stop  offset="1" style="stop-color:#EFB4B4"/>
			</linearGradient>
			<path class="st103" d="M1025.7,769.9c0,0-3-8-6.9-6.1c-3.9,1.9,7,18.5,8.5,20.9s3.5,33.2,32.6,35.4c29.1,2.2,32.4-31.5,33.9-34.1
				c1.5-2.6,9.6-20.8,5.6-23.3s-6.1,5.4-7,5.2c-0.9-0.2,0.2-22.1-11.5-25.8c-11.7-3.7-28.5-0.6-30.8,0c-2.2,0.6-25,14.8-25,14.8
				L1025.7,769.9z"/>
			<linearGradient id="SVGID_64_" gradientUnits="userSpaceOnUse" x1="1089.4865" y1="725.4324" x2="1029.601" y2="783.7555">
				<stop  offset="0" style="stop-color:#587082"/>
				<stop  offset="1" style="stop-color:#1A1E28"/>
			</linearGradient>
			<path class="st104" d="M1025.3,768.8c0,0,0.7,6.4,0.9,11.4h3.6c-0.2-1.1-0.3-1.9-0.3-2.4c0-3.2-0.9-17.4-0.9-17.4
				s4.4,4.4,27.8,3.5c23.3-0.9,30-15.4,30-15.4s1.7,3.9,3,8.5c0.5,1.9,1.5,3.6,2.4,4.9c0,0.1,0,0.2,0,0.4c0.2,1.2-0.5,9.4-1.7,17.9
				h3.7c0.3-5.8,0.8-12.2,1.1-15.6l4.6-2c0,0,1.3-8.5,0.2-19.1c-1.1-10.6-10.2-19.8-18.2-22.8c-8-3-29.6-8.6-48.2,1.5
				c-18.5,10.2-12.1,41.4-12.1,41.4L1025.3,768.8z"/>
		</g>
		<g>
			<path class="st49" d="M1041.3,1151.8c0.6-1.2,0.9-2.5,0.9-3.8c0-1.3-0.3-2.6-0.9-3.8l-13.9,0c-1-1.7-2.8-3.4-5.3-4.9l9.8-3.7
				c-3.8-2.1-8.7-4-14.2-5.4l-9.8,3.7c-3.9-0.9-8.2-1.6-12.7-2l0-5.3c-3.2-0.2-6.6-0.4-10-0.4c-3.4,0-6.8,0.1-10,0.3l0,5.3
				c-4.6,0.4-8.9,1.1-12.8,2l-9.8-3.7c-5.6,1.4-10.4,3.3-14.3,5.4l9.8,3.7c-2.5,1.5-4.3,3.1-5.3,4.8l-13.9,0
				c-0.6,1.2-0.9,2.5-0.9,3.8c0,1.3,0.3,2.6,0.9,3.8l13.9,0c1,1.7,2.8,3.4,5.3,4.8l-9.8,3.7c3.8,2.1,8.6,3.9,14.2,5.4l9.8-3.7
				c3.9,0.9,8.2,1.6,12.8,2l0,5.3c3.2,0.2,6.6,0.4,10,0.4c3.4,0,6.8-0.1,10-0.3l0-5.3c4.6-0.4,8.9-1.1,12.8-2l9.8,3.7
				c5.6-1.5,10.4-3.3,14.2-5.4l-9.8-3.7c2.5-1.5,4.3-3.1,5.3-4.8L1041.3,1151.8z M985,1157.4c-13.8,0-25-4.3-25-9.5
				s11.2-9.5,25.1-9.4c13.8,0,25,4.3,25,9.5C1010.1,1153.2,998.9,1157.4,985,1157.4z"/>
			<path class="st49" d="M1215.1,1140.8c1-2,1.4-4,1.5-6.1c0-2.1-0.5-4.1-1.4-6.1l-22.2,0c-1.7-2.8-4.5-5.4-8.5-7.8l15.7-5.9
				c-6.1-3.4-13.9-6.3-22.8-8.7l-15.7,5.9c-6.2-1.5-13.1-2.6-20.4-3.3l0-8.4c-5.2-0.4-10.6-0.6-16.1-0.6c-5.5,0-10.9,0.2-16.1,0.5
				l0,8.4c-7.3,0.6-14.2,1.7-20.4,3.2l-15.7-6c-8.9,2.3-16.7,5.2-22.8,8.6l15.7,5.9c-4,2.4-6.9,5-8.5,7.8l-22.2,0
				c-1,2-1.4,4-1.5,6.1c0,2.1,0.5,4.1,1.4,6.1l22.2,0c1.7,2.8,4.5,5.4,8.5,7.7l-15.7,5.9c6.1,3.4,13.8,6.3,22.7,8.7l15.7-5.9
				c6.2,1.5,13.2,2.6,20.5,3.3l0,8.4c5.2,0.4,10.6,0.6,16.1,0.6c5.5,0,10.9-0.2,16.1-0.5l0-8.4c7.3-0.6,14.3-1.7,20.5-3.2l15.7,6
				c8.9-2.3,16.6-5.2,22.7-8.6l-15.7-6c4-2.4,6.9-4.9,8.5-7.7L1215.1,1140.8z M1125.1,1149.7c-22.1,0-40.1-6.9-40.1-15.3
				s18-15.1,40.1-15.1s40.1,6.9,40.1,15.3C1165.2,1142.9,1147.3,1149.7,1125.1,1149.7z"/>
		</g>
		<linearGradient id="SVGID_65_" gradientUnits="userSpaceOnUse" x1="1061.6772" y1="994.7536" x2="1012.0294" y2="1019.8185">
			<stop  offset="0" style="stop-color:#FFD9D9"/>
			<stop  offset="1" style="stop-color:#EFB4B4"/>
		</linearGradient>
		<path class="st105" d="M959,932c0,0-7,42.1-7,47.4c0,5.3,58.9,101.2,63.4,107.3c4.5,6.1,0.3,29.2,8.9,31.7
			c8.6,2.5,20.7,4.5,20.7-4.9c0-9.3-8.5-23.6-1.6-19.5c6.9,4.1,15.4,11,13,3.3s-19.5-19.5-20.7-22.3c-1.2-2.8-48.4-95.9-48.4-100
			c0-4.1,8.9-38.2,8.9-38.2S969.3,934.6,959,932z"/>
		<linearGradient id="SVGID_66_" gradientUnits="userSpaceOnUse" x1="1259.2975" y1="981.4656" x2="1173.3032" y2="1024.8801">
			<stop  offset="0" style="stop-color:#FFD9D9"/>
			<stop  offset="1" style="stop-color:#EFB4B4"/>
		</linearGradient>
		<path class="st106" d="M1139.5,947.6c0,0,6.8,14.7,7.2,22.3c0.4,7.6-4.7,107.7-7.2,114.4s0.5,12.7,3,16.9c2.5,4.2,8.8,10.1,8.8,0
			c0-10.1,1.9-4,8.8,5.6c6.9,9.6,16.6,10.9,23.8,7.1c7.2-3.8-17.3-26.6-14.8-39.7c2.5-13.1,11.4-110.6,11.4-119.1
			s-6.8-18.4-6.8-18.4S1156.9,942.7,1139.5,947.6z"/>
		<g>
			<g>
				
					<linearGradient id="SVGID_67_" gradientUnits="userSpaceOnUse" x1="462.5068" y1="1082.6577" x2="451.5013" y2="1168.8674" gradientTransform="matrix(-1 0 0 1 1237.4854 0)">
					<stop  offset="0" style="stop-color:#38ACA8"/>
					<stop  offset="1" style="stop-color:#5F637A"/>
				</linearGradient>
				<path class="st107" d="M767.7,1122v50.6c0,2.2-0.6,4.4-1.7,6.1l28.2-40.6c1.2-1.9,1.9-4.1,1.9-6.4v-49.1c0-3.5-3.8-5.3-6-2.6
					l-27.4,32.6C765.7,1114.3,767.7,1117.9,767.7,1122z"/>
				
					<linearGradient id="SVGID_68_" gradientUnits="userSpaceOnUse" x1="444.9905" y1="1098.0483" x2="676.548" y2="1098.0483" gradientTransform="matrix(-1 0 0 1 1237.4854 0)">
					<stop  offset="0" style="stop-color:#38ACA8"/>
					<stop  offset="1" style="stop-color:#5F637A"/>
				</linearGradient>
				<path class="st108" d="M560.9,1112.7l0.2,4.7c1.7-3.2,1.4-6.4,4.9-6.4h192c1.7,0,3.3,0.5,4.7,1.5l29.8-33.9H604.4L560.9,1112.7z
					"/>
				
					<linearGradient id="SVGID_69_" gradientUnits="userSpaceOnUse" x1="685.956" y1="1147.2722" x2="444.5608" y2="1147.2722" gradientTransform="matrix(-1 0 0 1 1237.4854 0)">
					<stop  offset="0" style="stop-color:#38ACA8"/>
					<stop  offset="1" style="stop-color:#5F637A"/>
				</linearGradient>
				<path class="st109" d="M556.4,1122v50.6c0,1.3,0.2,2.5,0.6,3.7c1.3,4.2,4.9,7.2,9.1,7.2h192c3.1,0,5.9-1.7,7.7-4.3l0.3-0.5
					c1-1.8,1.7-3.9,1.7-6.1V1122c0-4.1-2-7.7-5-9.4c-1.4-1-3-1.5-4.7-1.5H566c-3.6,0-6.6,2.1-8.3,5.4c-0.3,0.6-0.6,1.2-0.8,1.9
					C556.5,1119.5,556.4,1120.7,556.4,1122z"/>
				<path class="st110" d="M556.4,1122v50.6c0,1.3,0.2,2.5,0.6,3.7H752c3.4,0,6.1-3.1,6.1-6.8v-44.3c0-3.8-2.7-6.8-6.1-6.8H557
					C556.5,1119.5,556.4,1120.7,556.4,1122z"/>
			</g>
			<g>
				
					<linearGradient id="SVGID_70_" gradientUnits="userSpaceOnUse" x1="484.8862" y1="1044.3857" x2="477.5801" y2="1101.6168" gradientTransform="matrix(-1 0 0 1 1237.4854 0)">
					<stop  offset="0" style="stop-color:#FFAC06"/>
					<stop  offset="1" style="stop-color:#F87C18"/>
				</linearGradient>
				<path class="st111" d="M745.8,1070.5v33.8c0,1.5-0.5,2.9-1.3,4.1l22.7-27.2c1-1.2,1.5-2.7,1.5-4.3v-32.8c0-2.3-3.1-3.5-4.8-1.8
					l-22.1,21.8C744.2,1065.4,745.8,1067.8,745.8,1070.5z"/>
				
					<linearGradient id="SVGID_71_" gradientUnits="userSpaceOnUse" x1="471.6214" y1="1054.4913" x2="658.3897" y2="1054.4913" gradientTransform="matrix(-1 0 0 1 1237.4854 0)">
					<stop  offset="0" style="stop-color:#FFAC06"/>
					<stop  offset="1" style="stop-color:#F87C18"/>
				</linearGradient>
				<path class="st112" d="M579.1,1064.3l0.1,3.2c1.3-2.1,1.1-4.3,4-4.3h154.9c1.4,0,2.7,0.3,3.8,1l24-22.7H614.2L579.1,1064.3z"/>
				
					<linearGradient id="SVGID_72_" gradientUnits="userSpaceOnUse" x1="665.978" y1="1087.4041" x2="471.2747" y2="1087.4041" gradientTransform="matrix(-1 0 0 1 1237.4854 0)">
					<stop  offset="0" style="stop-color:#FFAC06"/>
					<stop  offset="1" style="stop-color:#F87C18"/>
				</linearGradient>
				<path class="st113" d="M575.4,1070.5v33.8c0,0.8,0.1,1.7,0.5,2.5c1.1,2.8,3.9,4.8,7.3,4.8h154.9c2.5,0,4.8-1.1,6.2-2.9l0.3-0.3
					c0.8-1.2,1.3-2.6,1.3-4.1v-33.8c0-2.7-1.6-5.1-4-6.3c-1.1-0.7-2.4-1-3.8-1H583.2c-2.9,0-5.3,1.4-6.7,3.6
					c-0.3,0.4-0.5,0.8-0.6,1.2C575.5,1068.8,575.4,1069.7,575.4,1070.5z"/>
				<path class="st110" d="M575.4,1070.5v33.8c0,0.8,0.1,1.7,0.5,2.5h157.3c2.7,0,4.9-2,4.9-4.6v-29.6c0-2.5-2.2-4.6-4.9-4.6H575.9
					C575.5,1068.8,575.4,1069.7,575.4,1070.5z"/>
			</g>
			<g>
				
					<linearGradient id="SVGID_73_" gradientUnits="userSpaceOnUse" x1="496.15" y1="1018.2838" x2="491.1953" y2="1057.0953" gradientTransform="matrix(-1 0 0 1 1237.4854 0)">
					<stop  offset="0" style="stop-color:#38ACA8"/>
					<stop  offset="1" style="stop-color:#5F637A"/>
				</linearGradient>
				<path class="st114" d="M735.5,1036v23.1c0,1-0.4,2-1.1,2.8l18.1-18.6c0.8-0.8,1.2-1.9,1.2-2.9V1018c0-1.6-2.5-2.4-3.9-1.2
					l-17.6,14.9C734.2,1032.5,735.5,1034.1,735.5,1036z"/>
				
					<linearGradient id="SVGID_74_" gradientUnits="userSpaceOnUse" x1="486.0573" y1="1025.0629" x2="634.8763" y2="1025.0629" gradientTransform="matrix(-1 0 0 1 1237.4854 0)">
					<stop  offset="0" style="stop-color:#38ACA8"/>
					<stop  offset="1" style="stop-color:#5F637A"/>
				</linearGradient>
				<path class="st115" d="M602.6,1031.8l0.1,2.2c1.1-1.5,0.9-2.9,3.2-2.9h123.4c1.1,0,2.1,0.2,3,0.7l19.1-15.5H630.5L602.6,1031.8z
					"/>
				
					<linearGradient id="SVGID_75_" gradientUnits="userSpaceOnUse" x1="640.9227" y1="1047.5399" x2="485.7811" y2="1047.5399" gradientTransform="matrix(-1 0 0 1 1237.4854 0)">
					<stop  offset="0" style="stop-color:#38ACA8"/>
					<stop  offset="1" style="stop-color:#5F637A"/>
				</linearGradient>
				<path class="st116" d="M599.7,1036v23.1c0,0.6,0.1,1.2,0.4,1.7c0.8,1.9,3.1,3.3,5.8,3.3h123.4c2,0,3.8-0.8,4.9-2l0.2-0.2
					c0.7-0.8,1.1-1.8,1.1-2.8V1036c0-1.9-1.3-3.5-3.2-4.3c-0.9-0.4-1.9-0.7-3-0.7H605.9c-2.3,0-4.3,1-5.3,2.4
					c-0.2,0.3-0.4,0.5-0.5,0.8C599.8,1034.8,599.7,1035.4,599.7,1036z"/>
				<path class="st110" d="M599.7,1036v23.1c0,0.6,0.1,1.2,0.4,1.7h125.4c2.2,0,3.9-1.4,3.9-3.1v-20.2c0-1.7-1.8-3.1-3.9-3.1H600.1
					C599.8,1034.8,599.7,1035.4,599.7,1036z"/>
			</g>
		</g>
		<g>
			<linearGradient id="SVGID_76_" gradientUnits="userSpaceOnUse" x1="769.7703" y1="1288.714" x2="1374.0658" y2="1288.714">
				<stop  offset="0" style="stop-color:#FFAC06"/>
				<stop  offset="1" style="stop-color:#F87C18"/>
			</linearGradient>
			<path class="st117" d="M1362.3,1353.5H780.2c-7.4,0-12.5-7.5-9.6-14.4l31.7-105.5c2.4-5.8,8-9.6,14.3-9.6h499.9
				c7.9,0,15.3,4.2,19.2,11.1l7.3,20.1l-9.6,2l9.8,35.3l14,1.5l15.3,41.9C1377.1,1343.6,1371.4,1353.5,1362.3,1353.5z"/>
			<polygon class="st49" points="1138,1236.4 1138,1341.4 1338.3,1341.4 1305.3,1236.4 			"/>
			<polygon class="st49" points="987.9,1236.4 958.9,1341.4 794.8,1341.4 825.2,1236.4 			"/>
			<linearGradient id="SVGID_77_" gradientUnits="userSpaceOnUse" x1="987.886" y1="1261.0582" x2="1120.5718" y2="1261.0582">
				<stop  offset="0" style="stop-color:#38ACA8"/>
				<stop  offset="1" style="stop-color:#5F637A"/>
			</linearGradient>
			<polygon class="st118" points="987.9,1285.7 1120.6,1285.7 1120.6,1236.4 1000.3,1236.4 			"/>
			<polygon class="st49" points="993.5,1281.3 1003.7,1240.8 1116.2,1240.8 1116.2,1281.3 			"/>
			<linearGradient id="SVGID_78_" gradientUnits="userSpaceOnUse" x1="975.4804" y1="1316.7507" x2="1120.5718" y2="1316.7507">
				<stop  offset="0" style="stop-color:#38ACA8"/>
				<stop  offset="1" style="stop-color:#5F637A"/>
			</linearGradient>
			<polygon class="st119" points="975.5,1341.4 1120.6,1341.4 1120.6,1292.1 987.9,1292.1 			"/>
			<g>
				<path class="st66" d="M1157.8,1335.4L1157.8,1335.4c-1.9,0-3.6-1.6-3.6-3.5l-2.5-79.7c-0.1-1.9,1.5-3.5,3.4-3.5l0,0
					c1.9,0,3.6,1.6,3.6,3.5l2.5,79.7C1161.2,1333.8,1159.7,1335.4,1157.8,1335.4z"/>
				<path class="st66" d="M1173.9,1335.4L1173.9,1335.4c-1.9,0-3.6-1.6-3.6-3.5l-2.5-79.7c-0.1-1.9,1.5-3.5,3.4-3.5l0,0
					c1.9,0,3.6,1.6,3.6,3.5l2.5,79.7C1177.4,1333.8,1175.9,1335.4,1173.9,1335.4z"/>
				<path class="st66" d="M1190.1,1335.4L1190.1,1335.4c-1.9,0-3.6-1.6-3.6-3.5l-2.5-79.7c-0.1-1.9,1.5-3.5,3.4-3.5l0,0
					c1.9,0,3.6,1.6,3.6,3.5l2.5,79.7C1193.6,1333.8,1192,1335.4,1190.1,1335.4z"/>
				<path class="st66" d="M1206.3,1335.4L1206.3,1335.4c-1.9,0-3.6-1.6-3.6-3.5l-2.5-79.7c-0.1-1.9,1.5-3.5,3.4-3.5h0
					c1.9,0,3.6,1.6,3.6,3.5l2.5,79.7C1209.8,1333.8,1208.2,1335.4,1206.3,1335.4z"/>
				<path class="st66" d="M1224.6,1335.4L1224.6,1335.4c-1.9,0-3.6-1.6-3.7-3.5l-4.5-79.7c-0.1-1.9,1.4-3.5,3.3-3.5h0
					c1.9,0,3.6,1.6,3.7,3.5l4.5,79.7C1228,1333.8,1226.5,1335.4,1224.6,1335.4z"/>
				<path class="st66" d="M1245.2,1335.4L1245.2,1335.4c-1.9,0-3.7-1.6-3.9-3.5l-8.6-79.7c-0.2-1.9,1.2-3.5,3.1-3.5l0,0
					c1.9,0,3.7,1.6,3.9,3.5l8.6,79.7C1248.6,1333.8,1247.2,1335.4,1245.2,1335.4z"/>
				<path class="st66" d="M1262.8,1335.4L1262.8,1335.4c-1.9,0-3.7-1.6-4-3.5l-9.9-79.7c-0.2-1.9,1.1-3.5,3.1-3.5l0,0
					c1.9,0,3.7,1.6,4,3.5l9.9,79.7C1266.1,1333.8,1264.8,1335.4,1262.8,1335.4z"/>
				<path class="st66" d="M1284.3,1335.4L1284.3,1335.4c-1.9,0-3.8-1.6-4.2-3.5l-14.8-79.7c-0.4-1.9,0.9-3.5,2.9-3.5l0,0
					c1.9,0,3.8,1.6,4.2,3.5l14.8,79.7C1287.5,1333.8,1286.2,1335.4,1284.3,1335.4z"/>
				<path class="st66" d="M1305.2,1335.4L1305.2,1335.4c-1.9,0-3.9-1.6-4.4-3.5l-19.1-79.7c-0.5-1.9,0.7-3.5,2.7-3.5l0,0
					c1.9,0,3.9,1.6,4.4,3.5l19.1,79.7C1308.3,1333.8,1307.1,1335.4,1305.2,1335.4z"/>
			</g>
			<g>
				<path class="st66" d="M812.4,1332.7L812.4,1332.7c-1.9,0-3-1.5-2.4-3.3l24.5-75.3c0.6-1.8,2.7-3.3,4.6-3.3l0,0
					c1.9,0,3,1.5,2.4,3.3l-24.5,75.3C816.4,1331.2,814.3,1332.7,812.4,1332.7z"/>
				<path class="st66" d="M828.6,1332.7L828.6,1332.7c-1.9,0-3-1.5-2.4-3.3l24.5-75.3c0.6-1.8,2.7-3.3,4.6-3.3l0,0
					c1.9,0,3,1.5,2.4,3.3l-24.5,75.3C832.6,1331.2,830.5,1332.7,828.6,1332.7z"/>
				<path class="st66" d="M844.8,1332.7L844.8,1332.7c-1.9,0-3-1.5-2.4-3.3l24.5-75.3c0.6-1.8,2.7-3.3,4.6-3.3l0,0
					c1.9,0,3,1.5,2.4,3.3l-24.5,75.3C848.8,1331.2,846.7,1332.7,844.8,1332.7z"/>
				<path class="st66" d="M860.9,1332.7L860.9,1332.7c-1.9,0-3-1.5-2.4-3.3l24.5-75.3c0.6-1.8,2.7-3.3,4.6-3.3l0,0
					c1.9,0,3,1.5,2.4,3.3l-24.5,75.3C864.9,1331.2,862.9,1332.7,860.9,1332.7z"/>
				<path class="st66" d="M877.4,1332.1L877.4,1332.1c-1.9-0.1-3-1.6-2.4-3.4l25.8-74.2c0.6-1.8,2.7-3.2,4.7-3.1l0,0
					c1.9,0.1,3,1.6,2.4,3.4l-25.8,74.2C881.5,1330.8,879.4,1332.2,877.4,1332.1z"/>
				<path class="st66" d="M898,1332.2L898,1332.2c-1.9-0.1-3.1-1.6-2.5-3.5l21.8-74.4c0.5-1.8,2.5-3.2,4.5-3.1l0,0
					c1.9,0.1,3.1,1.6,2.5,3.5l-21.8,74.4C902,1330.9,900,1332.3,898,1332.2z"/>
				<path class="st66" d="M915.1,1332.1L915.1,1332.1c-1.9-0.1-3.1-1.7-2.6-3.5l21.4-74.2c0.5-1.8,2.5-3.2,4.5-3.1l0,0
					c1.9,0.1,3.1,1.7,2.6,3.5l-21.4,74.2C919.1,1330.8,917.1,1332.2,915.1,1332.1z"/>
				<path class="st66" d="M935.2,1331.9L935.2,1331.9c-1.9-0.2-3.1-1.8-2.7-3.6l19.1-73.9c0.5-1.8,2.4-3.1,4.3-3l0,0
					c1.9,0.2,3.1,1.8,2.7,3.6l-19.1,73.9C939.1,1330.8,937.1,1332.1,935.2,1331.9z"/>
				<path class="st66" d="M953.8,1331.6L953.8,1331.6c-1.9-0.3-3.1-2-2.6-3.8l19-73.3c0.5-1.8,2.4-3,4.3-2.7l0,0
					c1.9,0.3,3.1,2,2.6,3.8l-19,73.3C957.6,1330.7,955.7,1331.9,953.8,1331.6z"/>
			</g>
			<linearGradient id="SVGID_79_" gradientUnits="userSpaceOnUse" x1="993.488" y1="1259.9642" x2="1097.3615" y2="1259.9642">
				<stop  offset="0" style="stop-color:#38ACA8"/>
				<stop  offset="1" style="stop-color:#5F637A"/>
			</linearGradient>
			<polygon class="st120" points="1046.2,1238.6 1097.4,1254.3 1051.1,1262.8 1066.1,1270.6 1046.2,1281.3 993.5,1281.3 
				1003.7,1240.8 			"/>
			<linearGradient id="SVGID_80_" gradientUnits="userSpaceOnUse" x1="1086.9508" y1="1269.8812" x2="1104.1235" y2="1269.8812">
				<stop  offset="0" style="stop-color:#38ACA8"/>
				<stop  offset="1" style="stop-color:#5F637A"/>
			</linearGradient>
			<ellipse class="st121" cx="1095.5" cy="1269.9" rx="8.6" ry="4.6"/>
			<polygon class="st49" points="1033.7,1308.3 1062.7,1308.3 1047.1,1327.1 			"/>
		</g>
		<g>
			<linearGradient id="SVGID_81_" gradientUnits="userSpaceOnUse" x1="1533.9304" y1="1338.4124" x2="1456.3058" y2="1242.0697">
				<stop  offset="0" style="stop-color:#E5E5E5"/>
				<stop  offset="1" style="stop-color:#F9F9F8"/>
			</linearGradient>
			<path class="st122" d="M1500.5,1373l-110.4-105.4c-3.6-3.4-4-14.2,0.9-15.3l139-26.8L1500.5,1373z"/>
			<linearGradient id="SVGID_82_" gradientUnits="userSpaceOnUse" x1="1501.437" y1="1246.2384" x2="1788.884" y2="1246.2384">
				<stop  offset="0" style="stop-color:#E5E5E5"/>
				<stop  offset="1" style="stop-color:#F9F9F8"/>
			</linearGradient>
			<path class="st123" d="M1743.1,1308.6l-235.3,64.5l-6.4-5.7l34.8-180.3c1-5.2,5-9.4,10.1-10.6l233.2-56.8
				c5.3-1.3,10.2,3.4,9.2,8.8l-32,165.7C1755.4,1301.2,1750.1,1306.9,1743.1,1308.6z"/>
			<linearGradient id="SVGID_83_" gradientUnits="userSpaceOnUse" x1="1651.5242" y1="1347.2272" x2="1651.5242" y2="1193.7959">
				<stop  offset="0" style="stop-color:#E5E5E5"/>
				<stop  offset="1" style="stop-color:#F9F9F8"/>
			</linearGradient>
			<path class="st124" d="M1749.4,1314.2l-241.6,58.8l34.8-180.3c1-5.2,5-9.4,10.1-10.6l233.2-56.8c5.3-1.3,10.2,3.4,9.2,8.8
				l-32,165.7C1761.8,1306.9,1756.4,1312.5,1749.4,1314.2z"/>
			<linearGradient id="SVGID_84_" gradientUnits="userSpaceOnUse" x1="1388.1222" y1="1293.6368" x2="1529.8771" y2="1293.6368">
				<stop  offset="0" style="stop-color:#E5E5E5"/>
				<stop  offset="1" style="stop-color:#F9F9F8"/>
			</linearGradient>
			<path class="st125" d="M1501.4,1367.4L1390.1,1262c-3.6-3.4-1.9-9.4,2.9-10.5l136.9-31.5L1501.4,1367.4z"/>
			<polygon class="st126" points="1518.8,1274.4 1456.4,1289.2 1507,1338.5 			"/>
		</g>
	</g>
</g>
</svg>
