<?xml version="1.0" encoding="utf-8"?>
<!-- Generator: Adobe Illustrator 24.0.2, SVG Export Plug-In . SVG Version: 6.00 Build 0)  -->
<svg version="1.1" id="Capa_1" xmlns="http://www.w3.org/2000/svg" xmlns:xlink="http://www.w3.org/1999/xlink" x="0px" y="0px"
	 viewBox="0 0 2400 1600" style="enable-background:new 0 0 2400 1600;" xml:space="preserve">
<style type="text/css">
	.st0{fill:#D9EAF8;}
	.st1{fill:#E9F4FC;}
	.st2{fill:#D2E3F6;}
	.st3{fill:#56B367;}
	.st4{fill:#3767AF;}
	.st5{fill:#5590CC;}
	.st6{fill:#CEE5F8;}
	.st7{fill:#294D9C;}
	.st8{fill:#BFDEF5;}
	.st9{fill:#A3D1F2;}
	.st10{fill:#283065;}
	.st11{fill:#F5ABA5;}
	.st12{fill:#2A347D;}
	.st13{fill:#82CCF2;}
	.st14{fill:#FDFEFE;}
	.st15{fill:#F6AB19;}
</style>
<path class="st0" d="M1540.9,982.6c-0.2,10.4-0.3,20.7-0.5,31.1c-8.2,12.4-20.5,12.2-33.6,12.2c-108.1-0.3-216.2-0.2-324.3-0.2
	c-3.4,0-6.9,0.3-10.2-0.1c-9.9-1.1-16.4-8.5-16.6-18.4c-0.1-5.5-0.1-10.9-0.1-16.4c2.2-1.5,2.1-2.9-0.2-4.2c0-1.3,0-2.6,0-3.9
	c0-1.5,0.1-2.9,0.1-4.4c0-1.2-0.1-2.4-0.1-3.7c0.1-24.6,0.2-49.3,0.3-73.9c10-0.8,3.5-11.4,10.5-15c0,23.6,0,47.2,0,70.9
	c4.7-2.6,3.7-6,3.7-9.1c0.1-17.6,0-35.3,0.1-52.9c0-3.1-2-7.8,2.1-9c3.4-1,7,0.8,8.8,5c1.1,2.6,4.1,1.7,6.4,1.8
	c1.9,27.3,1.1,54.6,1,82c-2,2.4,0.5,1.7,1.5,2.1c6.6,2.3,13.5,0.5,20.2,1.1c8.8,0.8,11.5-2.8,11.4-11.8c-0.5-24.4,0.1-48.8,0.3-73.2
	c2.3-0.2,5.2,0.2,5.2-3.1c0-3.3-2.9-2.9-5.2-3.2c0-1.3,0-2.7,0-4c0.2-0.2,0.6-0.4,0.6-0.6c-0.1-0.5-0.4-0.9-0.6-1.4
	c-0.8-2.7-0.9-5.5,0.1-8.2c2.8,1.1,13.5-0.2,16.8-1.8c1.4-0.6,3.3-0.3,4.9-0.3c0.1,28.3,0.3,56.6,0.3,84.9
	c0.1,22.8,0,22.4,22.9,22.9c7.7,0.2,9.9-1.9,9.8-9.6c-0.3-27.3,0.1-54.5,0.2-81.8c3.2-0.1,4.9,0.3,4.2,4.5
	c-0.7,4.2-1.7,8.9,1.7,13.2c4.1-4.8-0.4-10.8,4-15c6.3,4.4,0.7,15.6,10.3,17.6c0,20.1,0,40.1,0.2,60.2c0,3.4-1.8,7.8,3.3,9.6
	l0.6,0.6l0.7,0.7l0.9-0.1c9.2-0.1,18.4-0.2,27.6-0.3c2.9,1.1,3.7,0.2,2.5-2.6c-0.3-24.8-0.6-49.6-0.8-74.5c-0.1-1.2-0.2-2.4-0.3-3.6
	c-0.2-1-0.2-2.1-0.7-2.9c-1.7-2.5-8-0.2-6.6-5.6c1.4-5.3,6.4-3.5,10.2-4c6.6-0.9,13.2,2.7,19.8,0c0,4.1,0,8.2,0,12.3
	c-3.9,0.4-7-0.9-10.1-3.3c-1.7-1.4-4.8-1.2-5.7,1.8c-1,3.1,0.3,5.3,3.8,5.5c4,0.2,8,0.1,12,0.1c0.1,22.4,0.2,44.7,0.4,67.1
	c0,2.8-1.2,6.2,2,8.4c3.9,2.7,26.4,1.3,30.8-1.9c2.3-2.6,2.3-5.3,0.1-8c0-1.4,0-2.8,0-4.2c2.3-0.5,3.5-1.9,3.5-4.3
	c0-9.5,0-18.9,0-28.4c0-2.4-1.2-3.7-3.5-4.2c0-1.4,0-2.7,0-4.1c15.1,0.1,19.9,4.8,19.9,19.4c0,9.2-0.1,18.4,0,27.6
	c0,3.2-1.3,7.2,3.6,8.3c7.2,2.4,14.7,0.3,22,1.2c8.8,1.1,10.9-3,10.8-11c-0.3-21.3,0.1-42.6,0.3-63.9c1.7-2.5,1.4,10.3,5.1,0.4
	c2.1-5.6,3.3-11.4,5.2-17c1.5-4.2,3.4-5.4,5.9-1.1c1.2,2,2.3,3.2,4.5,3.3c0.1,28.6,0.2,57.3,0.2,85.9c-1.4,0.4-4,0.2-3.2,2.4
	c1,2.9,3.8,1.3,5.9,1.3c5.5,0,11,0.1,16.5,0.1c1.3,0,2.6,0,3.8,0c2.8,0,5.7,0,8.5,0c5.4,0.3,5-3.5,4.8-6.9c-0.2-2.7-1.3-5.4-1.2-8
	c1.8-25,2.5-50.1-0.5-75.1c-0.4-3,0.1-5.5,3.8-5.8c2.9-0.2,5.5,0,6,3.7c0.3,1.8-0.7,4.2,2.7,5.4c1.4-4.1,2.8-8.2,4.2-12.1
	c-3.3-3-9.9,1.6-10.9-5.4c5.8,1.4,12.2-3.4,17.4,0.3c9.4,6.7,13,2,15.5-6.5c17.9,1.3,36-1.3,53.9,1.6c7.8,1.3,16-6.1,15.5-12.2
	c-0.7-9.7-6.9-12-15.5-11.9c-17.4,0.2-34.7,0-52.1,0c0.1-9.5,0.1-19.1,0.2-28.6c18.4,0,36.7,0.2,55.1,0c6.6-0.1,12.2-2.3,12.4-10.4
	c0.1-8.2-4.9-10.2-12.1-10.1c-10.5,0.2-21.1-0.1-31.6,0.1c-6.7,0.2-14.2-2.3-20,1.3c-4.8,3,0.4,10.5-3.5,15.1l-0.9-0.2
	c-0.3-14.9,3.7-30.8-10-42.5c2.9-3.5,6.9-2.2,10.5-2.2c17.4-0.1,34.8,0.1,52.2-0.1c7.6-0.1,14.8-1.9,15.2-11.3
	c0.4-8.2-5.8-13.1-15.7-13.1c-148.4,0-296.9,0-445.3,0c-3.7,0-7.4,0.2-11.1,1.3c-6.3,2-8.4,7.1-8.6,12.5c-0.2,5.5,3.3,7.9,9.4,9.5
	c8.3,2.2,17.2-1.4,24.9,3.1c-11.2,4.6-15,13.5-14.6,24.9c-3,0-6.2-0.5-9.1,0.2c-6.8,1.5-11.9,4.8-11.2,13.1
	c0.7,7.7,6.3,8.7,12.3,9.1c2.7,0.2,5.4,0,8.1,0c1.2,9-2,17.9-0.2,26.9c-13.7,0.7-22.5,5.9-21.4,14c1.6,11.7,11.8,11.2,20.5,12.3
	c0.3,0,0.7,0,1,0c0.1,24.1-0.3,48.1,0.4,72.1c0.2,8.5-3,10.9-10.5,10c-54.6-0.1-109.1-0.1-163.7-0.2c7.6-0.4,15.4-2.9,22.1-4.9
	c6.8-2,13.4-3,20.1-3.1c22.1-0.3,44.3-0.1,66.5-0.2c3.1,0,7.7,1.2,7.6-4.1c-0.1-5.3-4.6-4-7.7-4c-14-0.1-27.9-0.2-41.9,0
	c-5.5,0.1-7.3-1.3-5.5-7.1c4.1-13.1,2.9-26.8,2.8-40.2c0-8.3,2.1-10.3,9.3-10.2c5.1,0.1,9.4,1.5,12.5,5.6c3.1,4.1,6.5,2.6,9.9,0.6
	c3.4-2,2.9-5.1,1.6-8c-0.9-2.2-2.1-4.3-3.1-6.4c5.3-4.7,12.5-8.4,8.3-17.8c-3.9-8.8-11.6-6.6-18.3-6.6c-32.7-0.1-65.5,0-98.2,0.1
	c-1.3-9.7-2.6-19.4-3.9-29.1c36.1,0.1,72.3,0.1,108.4,0.3c7.6,0.1,13.2-2.4,13.1-10.5c-0.1-8.2-5.9-10.2-13.4-10.2
	c-35.4,0.1-70.9,0.1-106.3-0.3c-4.5-0.1-4.2,1.9-4.4,4.6c-4.3-11.2-3-23.8-8-34.9c3.3,0.7,6.6,2,9.9,2c36.1,0.1,72.3,0.1,108.4,0.1
	c7.8,0,13.5-3.2,14.3-11.4c0.5-5.5-8.7-13-15-13c-18.8-0.1-37.5,0-56.3-0.1c1-5.7,5.6-4.2,8.9-4c14.9,1.1,29.6-2.2,44.5-2.2
	c2.3,0,5.4,0.3,5.4-3c0-3.4-3.4-3.7-5.3-2.8c-6.8,3.2-13.3-0.7-19.9-0.1c-9.2,0.7-14.1-3.2-15.1-12.2c12.6-0.1,25.2-0.8,37.8-0.2
	c9.2,0.5,14.8-3,15.8-11.7c0.9-8.4-4.6-12.9-12.7-14.3c-0.5-0.7-0.9-1.9-1.6-2.1c-1.6-0.4-2.2,0.8-2.4,2.2
	c-17.8,1.6-35.6,0.2-53.3-0.4c3.6-14.2,3.6-14.2,18.3-11.7c0.7,0.1,1.3,0.5,1.9,0.6c3.6,0.6,6.1-1.4,7.3-4.3c1.6-3.8-2.5-3-4.2-4.2
	c-2.6-1.8-4.8-3.8-5-7.3c13.6-0.1,27.3-0.2,40.9-0.2c5.5,0,9.9-2,10-7.8c0.1-5.9-1.7-11.7-9.2-12.5c-3-0.3-6.1-0.2-9.2-0.2
	c-45,0-90-0.1-134.9-0.1c0.8-5,4.8-3.9,8-4c6.5-0.1,12.9-0.1,19.4,0c23.8,0.4,47.7-3.4,71.5-0.1c2,0.3,4.1,0.1,6.1,0
	c2,0,4.4,0,5-2.5c0.5-2-1.3-2.6-2.6-3.7c-4.9-4-0.6-5.8,2.2-8.1c4-3.2,9.3-6.9-1.2-8.2c-2.4-0.3-4.1-1.3-2.6-4
	c5.5-10,1.6-20.7,2.6-31c0.6-5.5-2.4-8.1-8-8c-12.9,0.2-25.6-3.3-38.6-2.1c-1.9,0.2-5.1,1.2-5.2-4c12.6,0,25.1-0.3,37.6,0.1
	c6.3,0.2,8.9-2,8.1-8.2c13.2,0,26.3,0.1,39.5-0.2c7.1-0.1,11.3-4.2,11.6-11.3c0.3-7.6-4.4-9.8-11.3-9.1c-2.3,0.2-4.7-0.1-7.1-0.2
	c0-5.4,0-10.7,0.1-16.1c4.9,0,9.2-1.8,13.8-3.7c-2.1-3.4-5.9-4.6-5.6-8.6c5.5-2,10.9-4.2,10.1-11.5c-0.7-6.3-2.8-11.7-10.1-13.1
	c2.2-6.9,4.7-10,8.9-1.1c1.7,3.6,4.8,5.8,9.1,4.9c2.1-0.5,4.2-1.8,3.6-4.1c-1-3.8-4-6.3-7.7-7.5c-2.9-0.9-6-1.1-8.9-1.9
	c-1.8-0.5-4.6-0.5-4.1-3.4c0.4-2.2,2.5-3,4.7-3.2c1.7-0.1,3.4-0.2,5.1-0.1c5.7,0.4,7.8-3.5,9.2-7.8c0.7-2.2,1.1-5-2-6
	c-4.7-1.5-6.9,2.5-9.1,5.1c-6.6,7.7-11.8,3.8-17.1-1.5c1.7,0,3.4-0.1,5.1,0c8.7,0.5,12.7-4.9,13-12.3c0.2-7.6-5.5-10.2-12.5-10.1
	c-6.1,0-12.3,0.3-18.3-0.1c-12.1-0.8-24.4,2.2-36.3-1.9c0.1-2.3-0.3-5.8,2.7-5.8c12,0.3,21.7-10,34.3-6.7c2.1,0.6,4.8,0,7-0.7
	c2.6-0.8,5.1-2.1,4.9-5.6c-0.3-3.9-3.3-3.5-6-3.9c-3.6-0.6-8.6,2.3-10.2-3.8c7.8-0.1,15.6-0.9,23.3,0c8.8,1,10.8-4.5,11-10.6
	c0.1-6.5-3.2-11.7-10.8-12.1c-3-0.2-6.1-0.1-9.1-0.2c2.1-5.7,1.3-8.5-6-8.3c-9.2,0.3-18.6,1.4-28.2-1c5-7.8,15.6-4.3,19.6-12.2
	c0.6-1.2,3-0.4,4.1,1.4c3.6,5.8,10.2,4.8,16,7.8c-1.8-9.4-6-13-14.8-12.2c-19.1,1.6-38.2,0.6-57.3,0.3c-37.9-0.5-75.8-0.1-113.6-0.1
	c-18.2,0-36.4,0.1-54.7-0.1c-3.4,0-7.9,1.6-8.8-4c81.7,0,163.4,0,245.2,0c2.7,0,5.5,0.2,8.2-0.1c6.2-0.5,10.8-3.3,10.4-10
	c-0.5-6.3-2.4-11.1-11.1-10.8c-11.1,0.4-22.4,2.4-33.4-1.6c-0.8-5.7-6.1-5.7-9.7-7.8c-1.9-1.1-6.1-2.5-2.9-4.4
	c10.6-6.4,7.6-15.8,7.9-25.1c0.2-5.2-1.7-5.8-5.6-5.8c-10.2,0-20.4,0-30.6,0c0-2,0-3.9,0-5.9c2.4-0.1,4.8-0.3,7.1-0.3
	c208.4,0,416.8,0,625.2,0c24.8,0,45,20.1,45.6,45c-74.4,0.1-148.7,0.1-223.1,0.2c-6.8-1.6-12.3,2.6-18.4,4.1
	c-97.6,0-195.2,0-292.8,0c-13.2,0-14.6,1.4-14.6,14.8c0,65.1,0,130.2,0,195.4c0,15.5,3.5,19,19.4,19c92.5,0,184.9,0,277.4,0
	c0.1,26.6,0.1,53.3,0.2,79.9c-91.7,0-183.5,0.1-275.2-0.1c-8.6,0-15.1,2.8-15,11.2c0,8.5,7.4,9.5,14.9,9.5
	c91.7-0.2,183.5-0.1,275.2-0.1c3.6,0,7.6,1.2,10.6-2.1c11,5.5,22.7,4.5,34.6,4.4c48.7-0.4,97.5-0.2,146.2-0.2
	c20.3,0,40.6,0.2,60.8,0.4c0,3.7,0,7.5,0,11.2c0,75.3,0.1,150.5,0,225.8c0,31.4-17.5,48.7-48.6,48.8c-17.7,0.1-35.4,0-53.2,0
	C1539.3,953.6,1539.3,953.6,1540.9,982.6z M1366.7,718.6c20.8,0,41.6,0,62.4,0c54.9,0,109.9-0.1,164.8,0.1c9.1,0,13.6-4.3,14.3-12.4
	c0.8-9-6-11.2-13.2-12.2c-2.3-0.3-4.8-0.1-7.2-0.1c-131.4,0-262.8,0-394.1,0c-17.7,0-35.5-0.1-53.2,0.1c-11.1,0.1-15,6.6-11.7,16.8
	c2.6,7.8,8.3,7.7,14.7,7.7C1217.9,718.5,1292.3,718.5,1366.7,718.6z M1509.8,990c0-0.7,0-1.4,0-2.1c-110.7,0-221.5,0-332.2,0
	c0,0.7,0,1.4,0,2.1C1288.3,990,1399,990,1509.8,990z M1053.6,679.9c2.1-1.2,7,1.4,7-2.8c0.1-5.8-5.5-3.1-8.5-3.4
	c-2.6-0.2-7.5-1.7-7.6,2.1C1044.4,681.1,1049.8,679.1,1053.6,679.9z M1040.8,949.4c0-0.3,0-0.7,0-1c-10.1,0-20.1,0-30.2,0
	c0,0.3,0,0.7,0,1C1020.6,949.4,1030.7,949.4,1040.8,949.4z M1139,949.5c0-0.3-0.1-0.7-0.1-1c-3.8,0-7.6,0-11.5,0c0,0.3,0,0.7,0.1,1
	C1131.4,949.5,1135.2,949.5,1139,949.5z M1090.8,948.7c-4.1-1.3-7.5-1.5-11.5,0.2C1083.4,950.2,1086.8,950.4,1090.8,948.7z
	 M1112.4,948.7c2.3,1.6,4.3,1.5,6.9,0C1116.6,947.5,1114.6,947.4,1112.4,948.7z M1183.5,965.6c-0.3,0.6-0.8,1.1-0.8,1.6
	c0,0.5,0.5,1,0.7,1.6c0.3-0.5,0.8-1,0.8-1.5C1184.2,966.8,1183.7,966.2,1183.5,965.6z"/>
<path class="st0" d="M1913.5,460.6c0,61.5,0,122.9,0,184.4c-2.5-0.2-4.4,0.4-6.4,2.3c-8.1,8.4-18.2,10.1-29.7,10
	c-140.6-0.3-281.3-0.2-421.9-0.2c-18.1,0-27.3-9.3-27.3-27.6c0-52.9,0-105.7,0-158.6c8,0.2,4.2-8.7,8.5-11.7c1,1.2,2,1.9,2.2,2.7
	c1.7,7.7,4,13.6,14.2,9.7c3.6-1.4,3.5,2.9,3.8,5.5c0.7,5.7-1.6,11.8,1.1,16.5c12.5-5.2,0.7-14.4,3.9-21.9c6.2,2.1,8.2,6.8,8.6,11.8
	c0.5,5.9,4.3,4.3,5.9,2.3c6.9-8.9,12.3-7.6,17,1.7c1.2,2.3,2.2,4.4,5.2,3.2c3.3-1.4,3.5-4,1.7-6.7c-2.8-4.1-2.1-8,1-11.6
	c-4.3-2.5-8.1-1.1-11.7-1.6c-1.8-0.3-3.4-1-3.4-3c0-0.8,0.8-1.9,1.5-2.4c5.3-3.7,17.9,0.4,20.9,6.3c1.8,3.6,1.5,7.2,1.7,10.9
	c0.1,2.2,0.7,4,3.3,4.4c2.9,0.4,4.5-0.9,4.8-3.8c17.7-0.1,35.5-0.1,53.2-0.3c3,0,8,1.5,7.7-3.8c-0.2-4.5-4.8-3.8-8.1-3.8
	c-18.1,0-36.2,0-54.2,0c-4.9-6.7-3.9-10.6,5.1-10.5c17,0,34,0.1,51.1-0.1c5.5-0.1,9.4,0.6,8.9,7.5c-0.2,3.1,1.6,7.9,4.7,5.7
	c6.2-4.4,12.5-1.4,18.6-2.4c-1,4.3-0.5,7.6,4.9,7.6c28.6,0,57.2,0,85.7,0c2,0,4.3,0,4.4-2.9c0.1-2.8-1.6-4.5-4.2-4.9
	c-2.7-0.4-5.4-0.3-8.1-0.3c-26.5-0.1-53.1-0.2-79.6-0.2c-0.3-3-2.2-3.7-4.9-4c-2.6-0.3-7.6,1.3-6.5-3.6c1-4.3,5.7-2.3,8.8-2
	c12,1.1,23.3,6.1,35.5,5.7c2.3-0.1,5.6,0.8,6.7-1.4c3-6.3,8.4-4.5,13.2-4.7c42.2-2.3,84.6,4.1,126.8-3.6c10.4-1.9,8.7-6.8,8.5-13
	l-0.1,0.1c3.9,0.4,8.4-0.6,8.6,5.8c0.2,5.3,3.7,6.4,8.6,5.5c4-0.7,8.1-0.8,12.1-0.9C1855.2,458.4,1884.4,458.5,1913.5,460.6z
	 M1854.3,599.9c-3.1,0.1-6.2,0.2-9.3,0.4l0,0.1c-4.1-2-1.7-5-1.2-9.8c3.6,9.5,8.7,4.6,14,4.4c-2.8-7.7-12.7-6.8-13.4-12.8
	c-10.2,5-18.6,11.7-19.1,25.1c-4.1-6.4,0.9-11.5-0.6-16.4c-4-1.4-2.8,5.5-6.2,3.3c-2.1-1.3-1-4.4-1.1-6.7c1.3-0.2,2.8-0.2,3-1.9
	c0-0.3-0.8-1.2-1.1-1.1c-1.7,0.2-1.7,1.7-1.9,3c-4.1,1.4-10.2-3.3-12.3,4.1l0,0c-6.3-1.1-10.1,4.1-15.4,5.3c1.4,4.7,6.2,1.1,7.9,4.9
	c-5.1,2.4-5.1,7.1-4.8,12c-0.2,0.5-0.5,0.7-0.9,0.8c-6-1-9,0.7-5.6,7c0.8,1.6,2.1,2.7,0.1,4.1c-1.8,1.2-6.7,0.4-3.3,4.8
	c3.4,4.4,8.9,6.5,13.8,7.4c5.4,1,1.2-3.1,1.4-5.2c0.2-2.9,3.2-2.9,4.6-1.8c3.5,2.7,10,3.8,6.6,11c-0.7,1.5-0.9,4.2,1.3,5.4
	c7.4,4.2,15.4-0.2,16.8-9c1.8-6.8,3.6-13.6,5.4-20.3c9,3.6,8.8-4.5,11.4-9c3.5,1.4,6.9,2.7,10.4,4.2c2.1,0.9,5.2,1.3,5,4.3
	c-0.2,2.9-3.5,2.8-5.5,3.9c-4.2,2.3-9.7,2.6-12.8,8.7c10.8,1.5,17.2-7.5,26.1-8.2c9.5,1.6,6.9-7,11-11.4c-6.2-0.5-6.4,3.9-8.3,6.3
	c-1.3-1.4-2.6-2.8-3.9-4.2c1.4-1.8,2.9-3.6,4.3-5.5c2.2-3.1,4.6-5.4-0.6-9.2c-4.7-3.4-5.9-1.5-8.6,1.4c-2,2.1-5,3.4-7.5,5.1l0-0.1
	C1854,602.9,1854.1,601.4,1854.3,599.9c0.2-0.3,0.3-0.6,0.5-0.8C1854.6,599.3,1854.4,599.6,1854.3,599.9z M1643.4,550
	c0,0.1,0,0.1,0,0.2c26.3,0,52.6,0,78.8,0c2.9,0,7.2,0.9,7.4-3.3c0.2-5-4.3-4.2-7.5-4.2c-51.9,0-103.7,0-155.6,0
	c-3.6,0-8.8-0.9-8.3,4.7c0.5,5,5.5,2.5,8.4,2.6C1592.2,550.1,1617.8,550,1643.4,550z M1799.9,550.1c15.6,0,31.3,0.1,46.9-0.1
	c2.8,0,7.1,0.6,6.9-3.8c-0.2-4.1-4.2-3.6-7.2-3.6c-30.6,0-61.2-0.1-91.8,0c-2.9,0-6.9-0.7-6.8,3.9c0.1,4.6,4.3,3.5,7.1,3.5
	C1770,550.2,1784.9,550.2,1799.9,550.1z M1654.4,610c-20.8,0-41.6-0.1-62.5,0.1c-2.9,0-8-1.8-7.6,3.7c0.3,4.3,4.7,3,7.5,3
	c41.3,0.1,82.6,0.1,123.9,0c2.9,0,8,1.7,7.6-3.8c-0.3-4.2-4.7-3-7.5-3C1695.4,609.9,1674.9,610,1654.4,610z M1668.1,583.7
	c0,0,0-0.1,0-0.1c13.6,0,27.3,0,40.9,0c2.5,0,5.9,0.9,6-3.4c0.2-4.6-3.1-4.4-6.3-4.4c-26.9,0-53.9,0-80.8,0c-3,0-6.8-0.1-6.7,4.2
	c0.1,4.7,4.3,3.6,7,3.6C1641.5,583.7,1654.8,583.7,1668.1,583.7z M1560.6,583.5c14,0,28,0,42,0c2.6,0,5.9,0.4,5.8-3.7
	c0-3.3-2.6-3.6-5.1-3.6c-27.6-0.1-55.3-0.1-82.9-0.1c-2.8,0-5.9,0.5-5.9,4.1c0,4.2,3.7,3.2,6.2,3.3
	C1534,583.6,1547.3,583.5,1560.6,583.5z M1710.1,516.2c13.7,0,27.3,0.1,41-0.1c2.8,0,7,1,6.7-3.8c-0.3-4-4.2-2.8-6.6-2.8
	c-27-0.1-53.9-0.1-80.9,0c-2.6,0-6.3-0.6-6.4,3.2c0,3.7,3.6,3.4,6.3,3.4C1683.5,516.3,1696.8,516.2,1710.1,516.2z M1605.3,516.2
	c7.8,0,15.7,0,23.5,0c2.6,0,5.2-0.6,5.2-3.6c0-3.2-3-3.1-5.4-3.1c-15.7,0-31.3,0-47,0c-2.4,0-5.3,0.1-5.2,3.4c0.1,3.2,3,3.2,5.4,3.3
	C1589.7,516.3,1597.5,516.3,1605.3,516.2z M1744.3,483c5.1,0,10.1,0.1,15.2,0c2.5,0,4.8-0.6,4.7-3.9c-0.1-2.5-1.9-3.6-4-3.6
	c-10.1-0.1-20.2-0.2-30.4-0.1c-2.2,0-4,1.2-4.3,3.5c-0.3,3.1,2.1,4,4.6,4.1C1734.8,483.1,1739.6,483,1744.3,483z"/>
<path class="st0" d="M1415.9,1156.5c3.8-2.7,0.8-7.2,2.9-10.6c7,0.3,12.4,4.7,18.5,7.3c5,2.1,9.4,5.7,9.4,12.2c0,6.9-4.9,10.7-10,13
	c-20.5,9.2-42.6,13.3-64.6,16.7c-36.2,5.7-73.1,5.7-109.4,9.5c-35.7,3.8-71.4,4.5-106.4,1.7c-27.4-2.2-55.2-0.5-82.6-6
	c-13.3-2.7-27.5-3.9-41.2-5.8c-16.9-2.2-34.3-5.3-50.1-12.5c-7.8-3.6-9.7-1.7-8.8,5.9c3,25.6-7.5,47.1-24.4,64.4
	c-14.8,15.1-31.7,28.9-51.7,36.9c-23.5,9.3-46.3,20.6-71,26.6c-49.1,12-99,16.3-149.5,14.5c-4.8-0.2-9.6-0.1-14.3,0
	c-2.9,0.1-5,1.3-2.8,4.4c5.4,7.6,8.6,15.7,3.8,24.4c-5.1,9.4-14.8,13.6-23.7,18.5c-36.1,19.5-73.9,17.6-111.5,6.9
	c-10.7-3.1-21.7-8.8-30.5-16.9c-10.4-9.7-10.4-25.1-0.8-35.2c10.1-10.6,23-15.1,36.6-18.4c1.9-0.5,4.4,0.1,5-2.5
	c0.7-3.5-2.4-3.7-4.5-4.2c-20.3-5.7-40-13.4-58-24.4c-27.4-16.7-52.5-35.7-62.7-68.5c-4.4-14.4-3.3-28,1.5-41.8
	c0.3-0.9,2.2-1.3,3.3-1.9c8.2,14.7,11.9,31.6,22.2,45.3c6,12.5,16.4,21.2,26.4,30c12.7,11.1,28.5,17.4,44.4,21.8
	c14.9,4.1,28.1,13.7,44.3,13.4c1.6,7.1,5.1,12.7,12.7,14.6c-2.1,11.6-4.8,23-14.8,30.7c-7.4,5.7-15.1,10.9-22.8,16.2
	c-8.5,5.9-14.3,17-11.1,23.6c4.6,9.4,12.9,12.2,22.9,11c9.5-1.1,18.3-4.6,26.9-8.3c13.8-6,28.4-10.3,41.3-18.1
	c15.6-9.4,17.2-17.3,7.8-32.8c-4.8-8.1-9.5-16.5-10.3-26.3c2.4-0.1,4.8-0.3,7.1-0.2c32,1.5,63.9-0.9,95.7-4.5
	c24.7-2.8,48.9-9,72.6-16.4c4.2-1.3,8.7-1.3,12.9-2.6c33.2-9.8,61.2-28.7,85.4-52.6c24.9-24.6,44.2-53.7,58.5-85.8
	c2.8,10.4,11.9,15.6,18.4,23.1c4.3,5,5.9,4.2,11.4,1.4c6.4-3.2,12.6-11.5,21.7-5.8c0.2,2.7,0.9,5.5,0.6,8.1c-0.8,7,2.3,8.3,8.8,8.3
	c135.1-0.2,270.3-0.1,405.4,0.1C1413.3,1164.9,1416.2,1163.1,1415.9,1156.5z"/>
<path class="st1" d="M1788.6,700.2c93.5,0,187,0,280.5-0.2c7.7,0,10.6,1.6,10.6,10.1c-0.3,133.3-0.3,266.6,0,399.9
	c0,8.8-2.6,11.9-11.6,11.9c-93.2-0.3-186.3-0.2-279.5-0.3C1788.6,981.2,1788.6,840.7,1788.6,700.2z M1930.3,951.9
	c-39.6,0-79.1,0-118.7,0c-14.4,0-14.3,0-12.8,14.6c0.3,2.7,0.1,5.4,0.1,8.2c0,22.2,0.2,44.3-0.1,66.5c-0.1,6.2,1.2,9.2,8.4,9.2
	c81.5-0.2,163-0.2,244.6,0c8.9,0,11.8-3.6,11.6-12.3c-0.5-24.9-0.5-49.8,0-74.6c0.2-8.8-2.1-11.7-11.3-11.6
	C2011.5,952.2,1970.9,951.9,1930.3,951.9z M1929.5,833.2c-17,0-34.1,0-51.1,0c-24.5,0-49.1,0-73.6,0c-4,0-7.7-0.8-7,6.3
	c2.7,27.8,1.3,55.8,0.7,83.6c-0.2,7.6,1.3,8.3,7.6,8.3c82.2-0.1,164.3-0.2,246.5,0.1c8.9,0,11-3.5,10.8-11.6
	c-0.4-24.9-0.5-49.7,0.1-74.6c0.2-9.3-2.6-12.5-12.2-12.4C2010.7,833.5,1970.1,833.2,1929.5,833.2z M1929.1,814.8
	c41,0,81.9-0.2,122.9,0.1c8.4,0.1,11.5-2.6,11.3-11.1c-0.4-24.5-0.6-49.1,0.1-73.7c0.3-9.8-3.1-11.8-12.2-11.7
	c-75.8,0.3-151.6,0.2-227.3,0.2c-25,0-25,0-25,25.1c-0.1,19.8,0.5,39.6-0.7,59.3c-0.7,11.9-2,11.8,10.1,11.8
	C1848.6,814.8,1888.9,814.8,1929.1,814.8z"/>
<path class="st2" d="M1788.6,700.2c0,140.5,0,280.9,0,421.4c-20.8,0-41.6-0.2-62.5,0.2c-7.2,0.2-9.3-2.3-9.3-9.3
	c-0.1-25.6-0.4-25.6-26.3-25.6c-126.3,0-252.6,0.1-378.8,0.1c0-4.1,0-8.3,0-12.4c131.8,0,263.5,0,395.3,0.3c9.5,0,10.2-4,10.2-11.6
	c-0.2-116.6-0.1-233.3-0.1-349.9c0-13.3,0-13.3,13.3-13.3C1749.7,700.2,1769.2,700.2,1788.6,700.2z"/>
<path class="st3" d="M342.7,1068c-5.4-9.8-11.7-19.2-16-29.4c-9.2-21.9-2.3-31.4,21.5-31c3.9,0.1,8,2,12.4-0.4
	c-5.2-13.3-13.5-24.9-19.7-37.5c-3.3-6.7-6-13.7-6.4-21.3c-1.1-17.8,10.2-26,26.9-19.4c8.5,3.4,16.6,7.5,27.2,12.4
	c-3-9.2-5.3-16.4-7.8-23.5c-8.8-25.1-14.1-50.5-5.3-76.8c1.5-4.4,3.7-8.9,6.4-12.6c9.3-12.7,12.4-13.6,25.1-5.1
	c7.4,4.9,7.8,2.4,9.7-4.7c6.6-25.4,4.2-24.2,24-10.7c25.9,17.7,44.4,42.2,57.5,70.6c0.9,2,1.2,3.8,3.8,3.6
	c7.7,22.5,8.1,46.4,12.2,69.6c-5.3,3-5.7,9.3-9,13.8c-10.6,14.3-25.8,23.5-38.5,35.3c-33.6,31.2-56.1,67.2-55.2,114.7
	c0.1,5.9-2.5,7-7.5,5.9c-17.6-8.1-31.1-21.4-44.6-34.6C353.8,1080.5,348.3,1074.2,342.7,1068z"/>
<path class="st4" d="M1669.8,331.6c-0.6-24.8-20.8-45-45.6-45c-208.4-0.1-416.8,0-625.2,0c-2.4,0-4.8,0.2-7.1,0.3
	c-64.9,0-129.7,0-194.6,0.1c-30.5-5.1-48.9,11.7-57,30.3c-4.8,3.5-9.8-0.4-14.8,0.4c-19.7,3.1-19.7,3-20.3-16.7
	c5.5-27.6,21.9-41.3,49.8-41.3c299.6,0,599.2,0,898.8,0c29.1,0,48.3,18.5,49.2,47.2c0,0.9,0.1,1.8,0.1,2.7c0,1.2,0,2.3,0,3.5
	c0,3,0,6,0.1,9c0.2,3.1,0.5,6.3,0.7,9.4C1692.5,331.5,1681.1,331.6,1669.8,331.6z"/>
<path class="st5" d="M1669.8,331.6c11.3-0.1,22.7-0.1,34-0.2c60.5,0,121.1,0.1,181.6,0.2c14.8,0,22.6,5.6,26.6,18.6
	c-0.3,0.7-0.2,1.3,0.3,1.9c0.2,3.5-1.2,7.2,1.4,10.3c0,0,0.2,0,0.2,0c-0.1,2.7-0.2,5.4-0.3,8.1c-4,16.8-4,16.9-23,16.9
	c-146.4,0-292.8,0-439.2,0c-23.5,0-22.9,0-23.7-23.5c-0.6-15.5,4.3-26.4,19.1-32.1C1521.1,331.7,1595.4,331.7,1669.8,331.6z
	 M1806.3,361.2c-0.8-7-3.8-11.4-11-10.9c-6.7,0.5-9.5,5.3-9.5,11c0,6.6,4.1,10.9,11,10.4C1803.1,371.3,1806,366.9,1806.3,361.2z
	 M1865.7,360.4c0.6,7.1,3.8,11.4,10.3,11.3c7.2-0.1,10.1-5.5,10-11.7c-0.1-6.2-4.1-10-10.6-9.7
	C1868.6,350.6,1866.3,355.3,1865.7,360.4z M1836.6,350.1c-7.2,0.2-10.4,4.2-10.7,10.3c-0.4,6.9,3.8,11.2,10.4,11.2
	c6.3,0,9.8-4.6,9.7-10.8C1845.9,354.7,1842.7,350.6,1836.6,350.1z"/>
<path class="st6" d="M1913.5,460.6c-29.1-2.1-58.3-2.2-87.5-2c-4.1,0-8.2,0.1-12.1,0.9c-4.9,0.9-8.4-0.2-8.6-5.5
	c-0.2-6.4-4.7-5.4-8.6-5.8c0.4-7.2-4.9-6.1-9.1-6.1c-46.7,0-93.5,0-140.2,0c-3.1,0-8.1-1.5-8.1,3.4c0,5,5.2,3.3,8.2,3.3
	c38.2,0.1,76.4,0.2,114.6,0c11.6-0.1,23.2,1,34.7-0.7c0.1,6.2,1.9,11.1-8.5,13c-42.2,7.7-84.6,1.3-126.8,3.6
	c-4.8,0.3-10.2-1.6-13.2,4.7c-1,2.2-4.3,1.3-6.7,1.4c-12.2,0.4-23.6-4.6-35.5-5.7c-3.2-0.3-7.8-2.2-8.8,2c-1.1,4.9,3.8,3.4,6.5,3.6
	c2.7,0.3,4.6,1,4.9,4c-1,0.2-2.1,0.4-3.1,0.6c-6.1,1-12.4-1.9-18.6,2.4c-3.1,2.2-5-2.6-4.7-5.7c0.5-6.9-3.4-7.6-8.9-7.5
	c-17,0.2-34,0.1-51.1,0.1c-9,0-10.1,3.8-5.1,10.5c-2.1,3.1-2.1,5.8,1.5,7.9c-0.3,2.9-1.9,4.2-4.8,3.8c-2.6-0.4-3.2-2.2-3.3-4.4
	c-0.2-3.7,0.1-7.4-1.7-10.9c-2.9-5.9-15.6-9.9-20.9-6.3c-0.7,0.5-1.5,1.6-1.5,2.4c0,2,1.6,2.7,3.4,3c3.6,0.5,7.4-0.9,11.7,1.6
	c-3.1,3.6-3.8,7.5-1,11.6c1.8,2.6,1.7,5.3-1.7,6.7c-3,1.3-4-0.9-5.2-3.2c-4.7-9.3-10-10.6-17-1.7c-1.6,2-5.4,3.6-5.9-2.3
	c-0.4-5-2.4-9.7-8.6-11.8c-3.2,7.5,8.7,16.7-3.9,21.9c-2.7-4.7-0.5-10.8-1.1-16.5c-0.3-2.7-0.2-6.9-3.8-5.5c-10.2,4-12.5-2-14.2-9.7
	c-0.2-0.9-1.2-1.5-2.2-2.7c-4.3,3-0.5,12-8.5,11.7c0-19,0.4-38-0.2-57c-0.3-7.7,2.4-11.8,9.7-11.9c10.7-0.1,23.1-5.2,28.9,10.4
	c1.8,4.7,9.9,5.1,13.6,2.9c4.7-2.8-3.4-5.7-3.1-9.6c4.2-0.4,7.7-1.5,11.2-2.6c14.2-4.2,27.8-2.2,40.2,6.1c-0.4,0.3-0.9,0.4-1.5,0.4
	c-2.5,0-5.1,0.4-4.1,3.6c0.7,2.3,2.7,0.2,4.1,0c1.2,0.9,2.4,1.7,3.6,2.6c1.5,1.7,3.5,1.8,5.6,1.8c26.7,0,53.4,0,80.1,0
	c2.4,0,4.8,0.2,6.4-2.2l0,0c1.8,0.5,3.8,2.9,5.3,0.6c1.3-1.9,2.8-5-2.4-4.5c-0.9,0.1-0.7-2.6,0.3-3.3c6.7-4.4,15.2,7.3,21.5-2.3
	c0.6,1.1,1.3,2.2,1.9,3.2c0,2,0.1,4,0.1,6.1c12.7,5,25.9,1.2,38.8,2.1c4.1,0.3,8.9,2,12.3-2.2c0-0.6,0.1-1.2,0.3-1.7
	c2.4-0.8,18.3,1.5,21.2,2.3c1.7,0.5,3.9-0.4,5.9-0.7c14.6,0.2,29.1,0.3,43.7,0.5c4.4,0.1,7.4-1,6.7-6.2c1-1.3,1.8-2.8,3-3.9
	c2.5-2.3-3.2-7.1,2.6-8.3c4.9-1,7.7,2.4,10.1,5.5c3.6,4.8,8.1,6.7,14,6.7c34.5,0.2,69.1-1.2,103.5,2c0.5,3.4-1.3,7.3,2,10.2
	c0,6.1,0,12.3,0,18.4c-3,5.4-3,10.9,0,16.3C1913.5,457.9,1913.5,459.3,1913.5,460.6z M1514.2,448.7c0.7,4.3,4.1,3.8,7.1,3.8
	c26.7,0,53.4,0,80.2,0c3,0,6.3,0.4,7-3.9c1.8-4.6,0-7.5-4.7-7.5c-28.4-0.2-56.9-0.2-85.3,0C1513.6,441.1,1510.3,443.3,1514.2,448.7z
	"/>
<path class="st7" d="M1415.9,1156.5c0.4,6.5-2.5,8.4-9.1,8.4c-135.1-0.2-270.3-0.2-405.4-0.1c-6.5,0-9.6-1.3-8.8-8.3
	c0.3-2.6-0.4-5.4-0.6-8.1c0.5-13,1-26,1.5-39c31.1,0,62.1,0.1,93.2,0c3.1,0,7,1.6,9.2-2.3c-0.1-0.6,0.1-1.2,0.6-1.6
	c0.6,0,1.1,0,1.7,0c0.7,0,1.5,0,2.2,0c69,0,138.1,0,207.1-0.1c0.7-0.1,1.4-0.1,2-0.2c3.3,0.7,6.6,1.5,9.9,2.2
	c-1,0.9-3.7-0.7-3.3,2.1c0,0.1,1.9,0.1,2.9,0.1c27.2,0,54.3-0.1,81.5,0c3.3,0,7.4-0.5,9.8,1.1c6.1,4.3,2.2-2.2,3.5-2.8
	c3.4,12.4,0.7,25.1,1.6,37.7C1415.7,1149.2,1415.7,1152.9,1415.9,1156.5z"/>
<path class="st4" d="M514.1,951.8c-4-23.2-4.4-47-12.2-69.6c1.1-8.8,0.3-17.6-1.7-26.2c-1.8-7.8-0.1-11.8,9.4-10.8
	c12.4,1.4,25,1.4,37.6,1.9c25.9,2,51.9,4.5,77.9,4.3c1.3,0.2,2.6,0.3,3.9,0.5c0.4,3.1,2.8,3.8,5.3,4.4c9.8,1.8,19.7,1.3,29.6,1.1
	c0.7-0.5,1.4-1,2.2-1.5c2.6,1.2,5.3,1.4,8.1,0.9c3.5,0.4,6.9,0.7,10.4,1.1c0.7,20,4.5,39.6,7.2,59.3c3.7,26.4,7.4,52.8,11,79.2
	c-17,2.6-33.1-4.1-50-4.5c-35.9-0.7-71.6-5.1-107.5-5.5c-1.3-2.2-3.5-1.6-5.4-1.7c-21-1.4-21-1.4-24.6-22.1
	C514.6,959.2,514.5,955.5,514.1,951.8z M594.6,882.9c-3.2,0-6.1,1-8.5,3c-10.5,9-9,33.4,2.7,40.7c5.3,3.3,11.6,4.1,15.8-1
	c5.3-6.3,8.6-13.8,7-22.5C609.7,892.6,601.7,883.1,594.6,882.9z"/>
<path class="st8" d="M813.6,358.4c0.9,5.7,5.5,4,8.8,4c18.2,0.1,36.4,0.1,54.7,0.1c-0.2,3-1.4,5.7-4.5,5.8
	c-9.3,0.3-10.5,5.1-8.4,12.8c0.5,1.7-0.9,3.9-1.4,5.8c-10.9,0-21.8,0-32.7,0c-1.1-5.6-5.7-3.6-9-4c-4.3-0.5-9.2,1.4-12.6-2.4
	c-7.2-8.1-19-3.3-26.7-9.8c-0.8-0.6-3.2-0.5-3.9,0.2c-9.3,9.3-20.6,3.7-30.7,3.6c-21.8-0.2-43.4,1.7-65.2,2.3
	c-6.1,0.2-12,0.1-17.9,2.9c-4.4,2.1-10.2,3.3-14.1-1.3c-4.2-4.8-8.9-3.5-14-2.7c-9.7,1.4-19.4,4.7-29.2,3c-17.5-3-35.2-1-52.7-3.7
	c-3-0.5-7.6-1.9-9.2,1.7c-1.5,3.4,2.9,4.7,5,6.7c2.1,1.9,2.6,4.6,0.7,6.3c-3.4,3-4.4-0.3-5.5-2.9c-1.2-3-3.7-3.5-6.6-3.8
	c-18.9-1.7-37.6-5.9-56.7-4.1c-8.7,0.8-17.2,1.1-17.3-13.2c-6.1,14.3-8.1,26.8-7,39.9c0,42.3-0.1,84.6-0.1,126.8
	c0,14.7,9.7,24.5,24.3,24.5c100.3,0,200.7-0.1,301,0.2c9.1,0,17.5-0.8,25-6.3c-4.2,9.3,0.4,10.5,8.6,10.4c37.4-0.3,74.8,0,112.2,0
	c0.9,6.4-2,8.3-8.2,8.1c-9.2-0.4-18.4-0.1-29.4-0.1c3.8,5,6.4,7.9,9.7,7.9c8.9-0.1,11.2,5.5,9.1,11.9c-3.8,11.6,8.5,22.3,0.9,33.6
	c-0.1,0.1,0.2,0.7,0.5,0.8c6.4,4.6-0.5,6.8-2.3,9.1c2.3,4,9.7-0.1,8.5,5.8c-1,4.6-6.4,2.3-9.9,2.4c-16,0.2-32,0-48,0.2
	c-3.4,0-7.9-1.5-8.9,4.2c-12.9-8.7-27.4-10.4-42.4-10.4c0.1-0.8,0.1-1.5,0.2-2.3c1.9-2.5,1.9-5,0.1-7.5c-1.2-2-2-4.8-3.8-5.9
	c-7-4.2-10.1-10.1-10.7-18.2c-0.5-8.1-6.4-11.5-13.5-13.1c-5.3-1.2-10.5-2.2-14.3-6.8c-7.3-8.8-16.4-10-26.5-5.3
	c-0.8-10.1-5.6-13.1-16.1-12.5c-20,1.1-20.1,0.3-17.8,21.1c-0.6,1.3-0.8,3-2.6,3.3c-0.3-22.5-0.3-22.5-22.5-22.5
	c-68.6,0-137.2,0-205.8,0c-17.1,0-25.6-8.5-25.6-25.5c0-64.8,0-129.6,0-194.3c0-13.4,4.8-21.2,14.1-23.7c-5,8.4-6.9,17.3-6.4,27.2
	c0.6,13.8,0.2,13.8,13.7,13.8c97.9,0,195.9-0.3,293.8,0.2c12.7,0.1,25.5,0.3,38.2-0.3c3.5-0.2,7.9,1.5,9-4
	C812.2,358.3,812.9,358.4,813.6,358.4z"/>
<path class="st8" d="M1528.5,409.4c-12.4-8.3-26-10.3-40.2-6.1c-3.6,1.1-7,2.2-11.2,2.6c-0.2,3.9,7.8,6.7,3.1,9.6
	c-3.7,2.2-11.8,1.8-13.6-2.9c-5.8-15.6-18.2-10.5-28.9-10.4c-7.3,0.1-10,4.2-9.7,11.9c0.6,19,0.2,38,0.2,57c0,52.9,0,105.7,0,158.6
	c0,18.3,9.2,27.6,27.3,27.6c140.6,0,281.3-0.1,421.9,0.2c11.5,0,21.6-1.7,29.7-10c1.9-2,3.9-2.5,6.4-2.3
	c-4.3,16.3-12.3,22.4-29.1,22.5c-55.6,0-111.1,0-166.7,0c-4.8,0-9.5,0-14,2.1c-11-4.8-22.4-1.7-33.6-1.8
	c-20.3-0.1-40.6-0.3-60.8-0.4c-48.7-0.1-97.5-0.3-146.2,0.2c-11.9,0.1-23.6,1.1-34.6-4.4c-4.7-5.4-9.9-10.6-10.5-18.4
	c-0.1-26.6-0.1-53.3-0.2-79.9c0-4,0.1-8.1,0.1-12.1c0-36.2,0-72.4,0-108.6c-0.1-18.4-0.3-36.8-0.4-55.1c1.5-1.4,1.6-2.7-0.1-4.1
	c0.2-4.1,0.6-8.2,0.4-12.2c-0.8-13.6,0.5-26.5,10.5-37c6.1-1.4,11.6-5.6,18.4-4.1c-14.8,5.7-19.7,16.6-19.1,32.1
	c0.9,23.4,0.2,23.5,23.7,23.5c146.4,0,292.8,0,439.2,0c19.1,0,19.1,0,23-16.9c0.2,0.7,0.4,1.4,0.7,2.1c-0.2,5.5-0.3,11-0.5,16.5
	c-3.1,2.1-1.8,5.3-2,8.1c0,4.8-0.1,9.6-0.1,14.4c-34.5-3.2-69-1.8-103.5-2c-5.8,0-10.3-1.9-14-6.7c-2.3-3.1-5.1-6.5-10.1-5.5
	c-5.9,1.2-0.2,6-2.6,8.3c-1.2,1.1-2,2.6-3,3.9c-15.1-2.1-30.3-1.3-45.5-1.1c-4.3,0.1-6.1,2.5-4.9,6.8c-2,0.3-4.1,1.2-5.9,0.7
	c-2.9-0.8-18.8-3.1-21.2-2.3c-1-4.2-4.1-4.7-7.8-4.7c-14.6,0.2-29.2,0.3-43.7,0.4c-0.6-1.1-1.3-2.2-1.9-3.2
	c-6.3,9.5-14.8-2.2-21.5,2.3c-1,0.7-1.2,3.4-0.3,3.3c5.2-0.6,3.7,2.6,2.4,4.5c-1.6,2.3-3.6-0.1-5.3-0.6c1.3-6-2.3-6.6-7-6.6
	C1586.7,409.2,1557.6,409.3,1528.5,409.4z"/>
<path class="st8" d="M625.1,851.5c-26.1,0.2-52-2.3-77.9-4.3c2.8-20.1,8.9-39.4,15.4-58.6c9.9-28.9,23.8-55.7,42.6-79.9
	c17.8-22.9,40.4-39.9,67-51.1c8.5-3.6,16.5-9.3,26.5-8.6c0.1,16.3,0,32.5,0.3,48.8c0.2,12.8,7.5,21.6,20.1,24.8
	c2.6,0.6,4.7,1.3,4.6,4.2c-0.2,8.9,1.9,18.1-3.9,26.2c-8.2,0.2-16.3,0-24.5,0.6c-17.7,1.4-33.1,7.7-42,24.3
	c-5.2,9.5-10.2,19.3-14,29.4C633.8,821.6,627.2,835.8,625.1,851.5z"/>
<path class="st5" d="M811.5,358.3c-1.1,5.5-5.6,3.9-9,4c-12.7,0.6-25.4,0.4-38.2,0.3c-97.9-0.5-195.9-0.3-293.8-0.2
	c-13.5,0-13.1,0-13.7-13.8c-0.4-9.9,1.4-18.8,6.4-27.2c5.5-3.3,11.6-3.4,17.8-3.4c69.5,0.1,138.9-0.2,208.4,0.3
	c10.4,0.1,16.5-1.4,14.5-13.3c-0.2-1.2,0.8-2.5,1.2-3.8c0.6,19.6,0.7,19.8,20.3,16.7c5-0.8,10,3.1,14.8-0.4
	c14.6,0.1,29.3,0.3,43.9,0.4c16.7,0.1,20.2,2.5,26.5,18.3c-0.1,4-0.2,8-0.3,12c-0.7,3-1.2,6,0.9,8.7
	C811.2,357.2,811.3,357.8,811.5,358.3z M761.7,340.9c-0.8-4.2-3.3-6.7-7.6-6.7c-4.5,0-7,2.8-6.8,7.1c0.2,4.1,2.7,7,7.2,6.8
	C758.9,347.9,761,345,761.7,340.9z M725.4,334.1c-4.3,0.4-7.4,2.6-7.4,6.9c0,4.1,2.6,7,7,7.1c4.4,0.1,6.9-2.3,7-6.8
	C732.1,336.8,729.6,334.5,725.4,334.1z M790.5,341.4c-0.4-4.3-2.7-7.1-7-7c-4.1,0.1-7.2,2.1-7,6.8c0.1,4.3,2.4,6.9,6.8,7.1
	C788,348.4,789.7,345.3,790.5,341.4z"/>
<path class="st8" d="M514.1,951.8c0.4,3.7,0.5,7.4,1.1,11.1c3.6,20.7,3.6,20.7,24.6,22.1c1.9,0.1,4.1-0.5,5.4,1.7
	c-16.6,11.2-25.4,26.9-26.1,46.6c-0.7,18.3,1.5,36.6,5.3,54.5c0.9,9.1,1.7,18.2,2.6,27.4c-23.3,18.6-49.7,27.3-79.7,25.2
	c-11.8-0.8-23.4-3.6-35.1-4.3c-1.6-5.5-4.6-10.3-8.2-14.6c4.9,1.2,7.6,0.1,7.5-5.9c-0.9-47.5,21.6-83.5,55.2-114.7
	c12.8-11.8,27.9-21,38.5-35.3C508.4,961.1,508.8,954.8,514.1,951.8z"/>
<path class="st4" d="M1670.1,667.8c11.2,0.1,22.7-3,33.6,1.8c0,4,0,8.1,0,12.1c0,0.7-0.1,1.4-0.1,2.2c-0.1,48.9-0.3,97.8-0.4,146.8
	c0,32.3,0.2,64.5,0.3,96.8c-0.2,4.8-0.5,9.5-0.7,14.3c-8.5,30.2-23.1,41-54.7,40.9c-35.8-0.1-71.6,0-107.3,0c-1.6-29-1.6-29,27.4-29
	c17.7,0,35.4,0.1,53.2,0c31.1-0.1,48.6-17.4,48.6-48.8c0.1-75.3,0-150.5,0-225.8C1670.1,675.3,1670.1,671.5,1670.1,667.8z"/>
<path class="st9" d="M412.2,1136.1c11.8,0.7,23.3,3.5,35.1,4.3c30.1,2.1,56.4-6.5,79.7-25.2c7,41.1,14,82.1,21,123.2
	c-3.9-3.8-7.1-8.9-13.8-8.1c-8.9,1-17.6-1.5-26.4-2.1c-12.7-0.9-25.6-3.9-37.1-7.8c-8.3-2.8-17.4-1.8-25-6.3c-1.7-1-4,0.1-5.3,2.1
	c-10.3-13.7-14-30.6-22.2-45.3c-0.1-3.4-0.2-6.7-0.3-10.1c-0.5-0.8-1-1.5-1.6-2.3c-0.7-3.4-1.5-6.8-2.2-10.1c2.1-1.4,2.2-2.7-0.1-4
	c0,0,0,0,0,0c-0.5-0.7-1.1-1.5-1.6-2.2C412.4,1140.2,412.3,1138.1,412.2,1136.1z"/>
<path class="st10" d="M739.5,575.6c10.1-4.7,19.2-3.5,26.5,5.3c3.8,4.6,9,5.7,14.3,6.8c7.1,1.6,13,5,13.5,13.1
	c0.5,8,3.7,14,10.7,18.2c1.8,1.1,2.6,3.9,3.8,5.9c0,2.5-0.1,5-0.1,7.5c-0.1,0.8-0.1,1.5-0.2,2.3c-4.1,7-5.2,13.8-2.7,22.2
	c4.2,13.8-1.4,23.2-14.6,28.2c-6.2,2.4-12.2,6-13.7,12.6c-2.6,11.2-11.4,13.9-20.3,17c-9-9-7.4-18.5,3.9-23.3
	c5.7-2.4,9.3-6.7,10.5-12.8c1.1-5.9-1.7-9.7-7-12.1c-3.4-1.5-4.2-6.5-6.3-7.3c-9.9-3.8-16.5-10.8-22.7-18.9
	c-1.4-1.8-4.4-1.1-6.8-0.3c-7.3,2.4-13.1,0.6-17.8-5.7c-3.7-5.1-6-4-8.1,1.8c-1.2,3.3,1.5,9-5,9.5c-10.2-9.6-16.8-20.6-14.4-35.4
	c1.2-7.1,5.2-12.2,11.3-15.8c3.2-1.9,6.5-3.5,8.6-6.8c1.8-0.3,2-2,2.6-3.3c9.1-4,17.8-9.9,28.8-6
	C735.6,578.7,737.8,576.5,739.5,575.6z"/>
<path class="st11" d="M697.5,645.5c6.5-0.5,3.8-6.3,5-9.5c2.1-5.7,4.4-6.9,8.1-1.8c4.6,6.3,10.5,8.1,17.8,5.7
	c2.4-0.8,5.4-1.5,6.8,0.3c6.2,8,12.8,15.1,22.7,18.9c2.1,0.8,2.9,5.8,6.3,7.3c5.3,2.3,8.1,6.2,7,12.1c-1.1,6.1-4.8,10.5-10.5,12.8
	c-11.3,4.7-12.9,14.2-3.9,23.3c-2.7,13.1,2.8,25.5,3.6,38.3c-18.8,12.4-23.6,12.4-40.5-0.1c5.8-8,3.7-17.3,3.9-26.2
	c0.1-2.9-2-3.6-4.6-4.2c-12.7-3.1-19.9-12-20.1-24.8c-0.3-16.3-0.2-32.5-0.3-48.8C698.3,647.8,697.9,646.6,697.5,645.5z"/>
<path class="st1" d="M481.8,700.2c11.6,4.2,23.6,1.7,35.4,1.8c7.7,0.1,10.2,2.3,9.8,9.9c-0.6,11.2-0.5,22.5,0,33.7
	c0.2,6.7-2.9,7.9-8.6,7.9c-30.7-0.2-61.3-0.2-92,0c-6.3,0.1-8.3-2.2-8.2-8.3c0.3-14.3,0.1-28.6,0.1-42.9c13.2,0,26.4,0.2,39.6-0.1
	C465.8,701.9,474.1,704,481.8,700.2z"/>
<path class="st1" d="M2048.8,563c9.6,0,19.1,2.2,28.7,0.4c12.4-2.4,14.4-0.7,14.4,11.7c0,10.2-0.2,20.5,0.1,30.7
	c0.2,5.9-1.5,8.6-8,8.5c-31-0.3-62.1-0.2-93.1-0.1c-5.7,0-7.4-1-6.3-7.7c2.2-13.8,1-27.7-1.2-41.6c5-4.9,10.3,0.9,15.2-0.2
	C2015.2,561.1,2032.1,564,2048.8,563z"/>
<path class="st0" d="M2048.8,563c-16.7,0.9-33.6-1.9-50.2,1.8c-5,1.1-10.2-4.7-15.2,0.2c-11.7-1.2-23.4-3.2-35.3-0.1
	c-5.4,1.4-8-1.3-7.8-7.3c0.3-12.2,0.3-24.5,0-36.7c-0.1-5.4,2.1-7.1,7.3-7c30.6,0.1,61.3,0.3,91.9-0.1c8.8-0.1,9.1,6,9.3,11.5
	C2049.1,537.9,2048.8,550.5,2048.8,563z"/>
<path class="st0" d="M481.8,700.2c-7.7,3.9-16,1.7-24,2c-13.2,0.4-26.4,0.1-39.6,0.1c-11.6,0-23.2-0.3-34.7,0.1
	c-6,0.2-8.6-1.7-8.4-8.1c0.4-11.2,0.3-22.4,0-33.7c-0.2-5.9,2.2-7.6,7.8-7.6c30.3,0.2,60.6,0.2,90.9,0c6.5-0.1,8.2,2.5,8,8.4
	C481.6,674.3,481.8,687.2,481.8,700.2z"/>
<path class="st9" d="M1155.6,990.8c0,5.5,0,10.9,0.1,16.4c0.2,9.9,6.7,17.3,16.6,18.4c3.4,0.4,6.8,0.1,10.2,0.1
	c108.1,0,216.2-0.1,324.3,0.2c13,0,25.4,0.2,33.6-12.2c-2.3,16.6-8.3,22.1-24.2,22.1c-63.9,0-127.9,0-191.8,0
	c-4.6,0-9.7-1.1-12.9,3.9c-0.9-0.9-0.2-2.9-2.2-3c-44.2-0.2-88.4-0.5-132.7-0.5c-7.9,0-15.5-0.5-22.4-4.7
	c-4.9-9.3-7.5-18.9-6.5-29.6c0.5-5.6-0.1-11.4-0.3-17c0.2-0.8,0.5-1.5,0.7-2.3c3.4,10.7-0.2,22,2.7,32.8c0.7-5.5,0.6-11,0.7-16.6
	C1151.7,995.5,1150.6,991.6,1155.6,990.8z"/>
<path class="st10" d="M1309.3,1036.7c2,0.1,1.3,2.1,2.2,3c0,11.6,0.1,23.3,0.1,34.9c0,4.1,0,8.3,0,12.4c-1.4,5.9,1.3,12.4-2.2,18.1
	c-0.7,0.1-1.4,0.1-2,0.2c0-18.3-0.5-36.5,0.1-54.8c0.3-8.5-2.1-11.1-10.7-11c-40.2,0.4-80.4,0.2-120.6,0.2c-3.2,0-6.5,0-9.7,0
	c44-1.8,87.9-1.8,131.8-1.8C1302,1038,1305.9,1038.9,1309.3,1036.7z"/>
<path class="st0" d="M342.7,1043c5.6,6.3,11.1,12.6,16.7,18.9C337.9,1062.1,337.9,1062.1,342.7,1043z"/>
<path class="st12" d="M1413.9,1107.8c-1.3,0.6,2.6,7.1-3.5,2.8c-2.4-1.7-6.5-1.1-9.8-1.1c-27.2,0-54.3,0-81.5,0
	c-1,0-2.9,0.1-2.9-0.1c-0.4-2.8,2.3-1.2,3.3-2.1C1350.9,1107,1382.4,1106,1413.9,1107.8z"/>
<path class="st0" d="M1911.6,411.6c0-4.8,0.1-9.6,0.1-14.4c0.7,0,1.3,0,2,0c0,8.2-0.1,16.4-0.1,24.6
	C1910.3,418.9,1912.1,415,1911.6,411.6z"/>
<path class="st1" d="M1913.7,397.3c-0.7,0-1.3,0-2,0c0.2-2.8-1.1-6,2-8.1C1916.5,391.8,1916.5,394.5,1913.7,397.3z"/>
<path class="st0" d="M1913.5,456.6c-2.9-5.5-3-10.9,0-16.3C1913.6,445.7,1913.5,451.1,1913.5,456.6z"/>
<path class="st8" d="M1702.9,941.7c0.2-4.8,0.5-9.5,0.7-14.3C1705.6,932.3,1705.8,937.1,1702.9,941.7z"/>
<path class="st8" d="M1913.6,362.4c-2.6-3.2-1.1-6.9-1.4-10.3c0.5,0,1,0,1.4-0.1C1913.7,355.5,1913.7,359,1913.6,362.4z"/>
<path class="st1" d="M1914.2,372.6c-0.2-0.7-0.4-1.4-0.7-2.1c0.1-2.7,0.2-5.4,0.3-8.1C1916.7,365.7,1916.4,369.2,1914.2,372.6z"/>
<path class="st5" d="M1703.1,322c0-3,0-6-0.1-9C1704.4,316,1704.7,319,1703.1,322z"/>
<path class="st8" d="M414,1144.4c2.3,1.3,2.2,2.6,0.1,4C414.1,1147,414.1,1145.7,414,1144.4z"/>
<path class="st8" d="M1703.7,683.8c0-0.7,0.1-1.4,0.1-2.2c0.2,0.5,0.4,1,0.5,1.5C1704.3,683.4,1703.9,683.6,1703.7,683.8z"/>
<path class="st1" d="M1913.7,352.1c-0.5,0-1,0.1-1.4,0.1c-0.4-0.6-0.5-1.2-0.3-1.9C1912.5,350.8,1913.1,351.4,1913.7,352.1z"/>
<path class="st5" d="M1703,309.6c0-0.9-0.1-1.8-0.1-2.7C1703.8,307.8,1703.9,308.6,1703,309.6z"/>
<path class="st8" d="M412.4,1142.2c0.5,0.7,1.1,1.5,1.6,2.2C413.5,1143.7,413,1142.9,412.4,1142.2z"/>
<path class="st0" d="M416.3,1158.5c0.5,0.8,1,1.5,1.6,2.3C417.4,1160,416.8,1159.3,416.3,1158.5z"/>
<path class="st13" d="M760.3,752.9c-0.8-12.8-6.3-25.1-3.6-38.3c8.9-3.1,17.7-5.7,20.3-17c1.5-6.6,7.5-10.2,13.7-12.6
	c13.2-5,18.8-14.5,14.6-28.2c-2.5-8.3-1.4-15.2,2.7-22.2c15,0,29.6,1.7,42.4,10.4c0.1,0.6,0.1,1.3,0.2,1.9c0,5.1-0.5,10.3,0,15.3
	c2.2,21.6-3.6,40.2-18.2,56.8c-4.9,5.5-3.7,13.5,1.1,20.6c11.4,16.7,26.8,30.2,36.4,48.7c9.7,18.7,16.2,38.2,21.5,58.2
	c3.9,14.6,5.6,30.1,9.9,44.3c7.5,25-0.9,56.2-22.9,70.9c-9.1,6.1-17.8,12.7-28.3,20.2c7.5-0.2,12.6,2.2,17.4,5
	c13.4,8,23.3,17.7,24.6,35.4c1.4,20.2-9.4,33.4-22.4,44.5c-17.4,14.8-35.4,29.1-55.8,40c-26.8,14.4-52.6,30.7-80.7,42.7
	c-6.3,2.7-14.6,5.2-16.7,12.2c-5.5,18.4-10.8,37-4.1,56.7c2.5,7.4,7.1,9.4,13.1,7.2c12.1-4.4,25-5.1,37.2-9.6
	c9.6-3.5,18.6-8.4,27.8-11.7c28.2-9.9,49.9-27,67.5-50.5c14.8-19.8,25.3-42.2,36.3-64.1c3.2-6.5,7.3-12.7,10-19.6
	c6-15.5,15.2-29.5,17.5-46.6c1.8-13.2,5.7-26.2,6.9-39.6c2.6-29.9-4.3-59.2-4.2-88.9c0-9.5-0.7-18.7-3-28.2
	c-2.2-9.2-4.5-19.2-4.6-28.4c-0.6-34.9-6.3-69-13.4-102.8c-2.9-13.9-6.5-28-10.7-41.9c-2.3-7.7-9.4-15.2-5-24.4
	c4,0.7,5.8,3.9,8.2,6.8c6.2,7.5,11,17.4,23.3,16.4c-2.1,1.9-9.3,1.7-5.8,5.3c6.2,6.4,5.8,17.1,14.9,21c4.2,11.5,8.3,23,12.5,34.5
	c1.4,4.1,2.8,8.2,4.2,12.3c5,11.1,3.7,23.6,8,34.9c0.2,2.6,0.5,5.3,0.7,7.9c-0.6,1.8-0.3,3.3,1.4,4.4c0.2,1.3,0.3,2.6,0.5,3.8
	c1.3,9.7,2.6,19.4,3.9,29.1c0,1.3,0,2.6,0,3.9c-0.5,2.3-0.6,4.6,1.3,6.4c0.2,4.6,0.4,9.2,0.7,13.8c-0.6,25.6,4.6,50.9,3.7,76.4
	c-0.2,6.4,4.2,5.7,8.3,5.6c54.6,0.1,109.1,0.1,163.7,0.2c0.1,0.5,0.2,1,0.2,1.5c-48.8,0.1-97.5,0.2-146.3,0.4
	c-28,0.1-28,0.1-27.5,28.5c-0.4,28.8-3.5,57.4-6.8,86c-1.2,0.8-1.2,1.6-0.1,2.4c0.1,2,0.1,3.9,0.2,5.9c-2.7,2.9-3.5,6.6-4,10.3
	c-4,14.3-7,28.9-12.6,42.7c-14.3,32.2-33.7,61.2-58.5,85.8c-24.1,23.9-52.2,42.8-85.4,52.6c-4.2,1.2-8.8,1.3-12.9,2.6
	c-23.8,7.4-48,13.5-72.6,16.4c-31.7,3.6-63.6,6.1-95.7,4.5c-2.4-0.1-4.8,0.1-7.1,0.2c-0.5,0.1-0.9,0-1.2-0.4
	c8.2-3.5,10.4-9.3,9.7-18.4c-4.5-55.3-8.2-110.7-12.4-166.1c-1.3-16.6-3.5-33-5.3-49.5c0.7-5.5,5.3-4.3,8.7-4.8
	c29.6-4.1,59.3-8,89-12c18.2-2.5,36.2-3.1,54,6.9c-10.1,7.7-22,11.1-29.7,20.4l0,0.1c-8.6,3.4-16,8.8-23.9,13.5
	c-9.1,6.6-24.5,7.2-22.6,24.1c-8,1.3-15.7,4.2-23.9,5c-4,0.4-10.6,1.7-13.3,7.2c-4.1-7-1.2-15.6-6.4-25.1c0.4,18.1-5.8,33.1-5.7,49
	c0,6.1-0.5,12.1-1.1,18.2c-2.5,24-0.1,48,2.8,71.9c0.3,2.5,0.1,6.3,3.8,6.3c14.9-0.3,30.2,3,46.2-3.1
	c-12.6-11.7-23.7-22.6-22.7-40.1c5,3.4,5.6,9.4,8.3,14.1c4.3,7.6,10.7,13.1,20,12.3c7.8-0.6,12.2-8.4,12.6-18.4
	c0.4-9.6-1.8-18.7-3.9-27.9c-2.4-10.6,2.6-20.4,4.3-30.6c5,3.6,9.5,4.2,15.6,0.9c15.7-8.5,31.9-16.4,48.2-23.7
	c24.5-10.9,48.6-22.5,72.3-34.8c15.6-8.1,29.3-18.4,37.3-34.7c11.3-20,6.8-37.5-11.1-51.4c-12.6-9.8-26.7-16.5-40.8-23.3
	c-0.6-0.7-1.2-1.5-1.8-2.2c16.3-5.3,29.8-16.1,44.9-23.7c16.7-8.3,26.2-20.7,22.9-40c-4-23.4-7.7-46.8-17-69.2
	c-6.9-16.6-11-34.3-19.4-50.4c-9.1-17.3-20.6-30.1-40.9-34.9C790.3,753.6,775.4,754,760.3,752.9z"/>
<path class="st14" d="M1417.9,552.8c0,4-0.1,8.1-0.1,12.1c-92.5,0-184.9,0.1-277.4,0c-16,0-19.4-3.5-19.4-19c0-65.1,0-130.2,0-195.4
	c0-13.3,1.4-14.8,14.6-14.8c97.6,0,195.2,0,292.8,0c-10,10.5-11.3,23.4-10.5,37c0.2,4.1-0.3,8.1-0.4,12.2c-0.8-0.2-1.6-0.4-2.4-0.6
	c-1.5-0.8-2.6-0.3-3.3,1.1c-4.6,1.9-9.2,3.8-13.9,5.7c-8.9,2-15.5-4.3-23.1-6.6c-13.4-4.1-28.6,0.8-38,11.5
	c-17.5,20-24.4,44.6-32.4,69c-3.8,11.5-7.8,24.2-20.9,29.8l-0.2-0.5c0.3-1.1,0.6-2.2,0.9-3.3c-1.2,0-2.3,0.1-3.5,0.1
	c-10-19.3-18.3-39.4-28.4-58.7c-10.5-20-26.1-33-45.7-42.4c0.1-2.3,0.5-4.6-1.4-6.7c-17.3-19.1-38.9-29.3-64.6-31
	c-2.6-0.2-6.9-0.7-6.8,2.6c0.2,12.1-4.6,24.8,3.2,36.3c-3.8,1-4.7,3.5-3.4,7c-0.2,46.3-0.4,92.6-0.6,139
	c-0.1,14.6,1.1,15.7,15.7,15.7C1238.5,552.8,1328.2,552.8,1417.9,552.8z"/>
<path class="st8" d="M1137.4,953.5c-0.1-0.5-0.1-1-0.2-1.5c7.5,0.8,10.8-1.5,10.5-10c-0.6-24-0.3-48.1-0.4-72.1c0-8.7,0-17.5,0-26.2
	c-1.9-9,1.4-17.9,0.2-26.9c0-7.4-0.1-14.9-0.1-22.3c-0.5-11.4,3.4-20.3,14.6-24.9c1.2,0,2.5,0,3.7,0c-8.6,8-10.8,18.1-10.4,29.5
	c0.6,13.9,0.1,14,13.6,14c102.3,0,204.7,0.1,307,0c21.5,0,42.9-0.4,64.4-0.6c0,0,0.9,0.2,0.9,0.3c-0.1,1.3-0.2,2.7-0.3,4
	c-0.1,9.5-0.1,19.1-0.2,28.6c-1.5,7.4-2.4,14.9-1.9,22.5c-2.5,8.5-6.1,13.2-15.5,6.5c-5.2-3.7-11.6,1.2-17.4-0.3c0,0,0,0,0,0
	c0.4-7.3,9.4-1.3,11.9-8.2c-7.4,0-13.8,0-20.1,0c-1-7-1-7.1-4-6.1c-9.3,2.8-18.5,0.7-27.7-0.4c-2.5,2.6,0.7,7.5-3.2,9.6
	c-3.7-2.7,0.2-7.8-4-10c-4,2.3,0,7.5-4.7,10.3c-1.1-7.7-6.5-7.5-12.4-7.6c-13.6-0.2-27.2,1.6-40.7-1.7c-3.5-0.9-8-1.1-10.8,1.6
	c-5.3,5.2-7.3,1.6-8.7-3.2c-4.1,2.5-5.7,15-11.4,1.9c-1.8-4.2-5.9-3.6-7.3,0.9c-2,6.2-5,5.5-8.9,2.2c-2.4-2-5.1-1.4-7.8-1.6
	c-21.7-1.2-43.5,2.6-65.1-2.7c-6.7-1.6-3.5,4.7-4.7,7.4c-8.2-0.1-16.4-0.3-24.5-0.2c-3.2,0-7.1-1.1-8.1,3.8
	c-1.7,0.1-3.5-0.3-4.9,0.3c-3.3,1.5-14,2.9-16.8,1.8c-0.2-5-0.4-10.1-0.6-15.1c-0.1-2.7,0.5-6-2.5-7.2c-8.4-3.3-17.4-1.7-26-1.1
	c-6,0.4-2.5,7.6-5,10.9c-1.2-0.7-2.3-1.5-3.5-2.1c-3-1.6-1.9-8.8-8.5-5.6c-5.1,2.5-5.9,6.2-5.9,11.4c-0.1,5.2,2,11-2,16.5
	c-3-4.5-1.2-8.7-1.9-12.6c-0.6-3,2.6-8.3-3.8-8.2c-4.8,0.1-6.6,3.3-6.5,8.3c0.3,11.2,0.1,22.3,0.1,33.5c-0.1,24.6-0.2,49.3-0.3,73.9
	c-2,1.3-1.8,2.5,0.1,3.7c0,1.5-0.1,2.9-0.1,4.4c-1.3,0.1-2.9,0.2-2.9,1.9c0,1.7,1.6,1.8,2.9,2c2.2,1.3,2.4,2.7,0.2,4.2
	c-5,0.8-3.9,4.7-3.9,7.9c-0.1,5.5,0,11.1-0.7,16.6c-2.9-10.8,0.7-22.1-2.7-32.8c0,0-0.6,0.1-0.6,0.1c0.1-6.1-0.5-12.3,0.4-18.3
	C1149.4,955.3,1145.3,952.8,1137.4,953.5z"/>
<path class="st5" d="M1540.4,812.5c-21.5,0.2-42.9,0.6-64.4,0.6c-102.3,0-204.7,0-307,0c-13.5,0-13.1,0-13.6-14
	c-0.5-11.4,1.8-21.5,10.4-29.5c0,0,0.1-0.2,0.1-0.2c6.4-0.4,12.9-1.3,19.3-1.3c81.8-0.1,163.6,0,245.3,0c30,0,60-0.2,89.9-0.4
	c3.3,0.8,6.7,1.6,10,2.3C1544.1,781.7,1540,797.6,1540.4,812.5z M1478.7,784.8c-4.4,0.8-7.3,3.3-7.3,8.1c-0.1,5,2.7,7.5,7.7,7.5
	c5,0,7.8-3,7.7-7.6C1486.7,788.1,1483.6,785.4,1478.7,784.8z M1510.3,784.8c-4.9,0.9-7.8,3.9-7.5,8.4c0.3,4.6,3.5,7.3,8.4,7.1
	c4.9-0.2,7.4-3,7.2-8C1518,787.2,1514.2,785.9,1510.3,784.8z M1448.6,800.6c3.9-0.6,6.5-3.2,6.1-8.2c-0.3-5-3.5-7.5-8.1-7.2
	c-4.7,0.2-7.6,3.7-7.3,8.2C1439.7,798,1443,800.4,1448.6,800.6z"/>
<path class="st14" d="M1366.7,718.6c-74.4,0-148.8,0-223.2,0c-6.4,0-12.1,0.1-14.7-7.7c-3.4-10.2,0.6-16.7,11.7-16.8
	c17.7-0.2,35.5-0.1,53.2-0.1c131.4,0,262.8,0,394.1,0c2.4,0,4.8-0.2,7.2,0.1c7.2,1,14,3.2,13.2,12.2c-0.7,8.1-5.2,12.4-14.3,12.4
	c-54.9-0.3-109.9-0.1-164.8-0.1C1408.3,718.6,1387.5,718.6,1366.7,718.6z"/>
<path class="st14" d="M1530.4,770c-3.3-0.8-6.7-1.6-10-2.3c-2-2.5-4.9-2-7.6-2c-112.9,0-225.7,0-338.6,0c-3.2,0-7.1-1.1-8.4,3.7
	c0,0-0.1,0.2-0.1,0.2c-1.2,0-2.5,0-3.7,0c-7.8-4.5-16.6-1-24.9-3.1c-6.1-1.6-9.6-4-9.4-9.5c0.2-5.3,2.3-10.4,8.6-12.5
	c3.7-1.2,7.3-1.3,11.1-1.3c148.4,0,296.9,0,445.3,0c9.9,0,16.1,4.9,15.7,13.1c-0.4,9.4-7.6,11.3-15.2,11.3
	c-17.4,0.2-34.8,0-52.2,0.1C1537.3,767.8,1533.3,766.4,1530.4,770z"/>
<path class="st6" d="M850.6,646.9c0-0.6-0.1-1.3-0.2-1.9c1-5.6,5.4-4.1,8.9-4.2c16-0.1,32,0.1,48-0.2c3.4,0,8.9,2.2,9.9-2.4
	c1.2-5.9-6.1-1.8-8.5-5.8c1.8-2.3,8.7-4.5,2.3-9.1c-0.2-0.2-0.6-0.7-0.5-0.8c7.6-11.3-4.7-22.1-0.9-33.6c2.1-6.4-0.2-12-9.1-11.9
	c-3.3,0-5.9-2.8-9.7-7.9c10.9,0,20.2-0.3,29.4,0.1c6.1,0.3,9.1-1.7,8.2-8.1c32.8,0,65.6-0.1,98.4-0.1c0.9,6.2-1.8,8.4-8.1,8.2
	c-12.5-0.4-25-0.1-37.6-0.1c0.1,5.2,3.3,4.2,5.2,4c13-1.1,25.7,2.3,38.6,2.1c5.6-0.1,8.5,2.4,8,8c-1,10.3,2.8,21-2.6,31
	c-1.4,2.6,0.2,3.7,2.6,4c10.5,1.3,5.1,5,1.2,8.2c-2.8,2.3-7.1,4.1-2.2,8.1c1.4,1.1,3.1,1.8,2.6,3.7c-0.6,2.5-2.9,2.4-5,2.5
	c-2,0-4.1,0.3-6.1,0c-23.8-3.3-47.7,0.4-71.5,0.1c-6.5-0.1-12.9-0.1-19.4,0c-3.2,0.1-7.2-1.1-8,4c-19.7,0-39.4,0-59,0.2
	c-3.6,0-7.6-1.4-10.6,2C853.3,646.9,851.9,646.9,850.6,646.9z"/>
<path class="st6" d="M973.5,951.8c-4.1,0.1-8.5,0.8-8.3-5.6c0.9-25.6-4.3-50.9-3.7-76.4c14.4-0.5,28.8-1.5,43.2-1.4
	c21,0.1,42.1-2.4,63,1.5c1,2.1,2.2,4.2,3.1,6.4c1.3,3,1.8,6-1.6,8c-3.4,2-6.8,3.4-9.9-0.6c-3.1-4.1-7.5-5.5-12.5-5.6
	c-7.2-0.2-9.4,1.9-9.3,10.2c0.1,13.3,1.3,27.1-2.8,40.2c-1.8,5.7,0,7.2,5.5,7.1c14-0.2,27.9-0.1,41.9,0c3.1,0,7.7-1.3,7.7,4
	c0.1,5.3-4.5,4.1-7.6,4.1c-22.2,0.1-44.3-0.2-66.5,0.2c-6.7,0.1-13.3,1.2-20.1,3.1C988.9,948.9,981.1,951.5,973.5,951.8z"/>
<path class="st14" d="M1067.6,487.3c7.3,1.3,9.5,6.8,10.1,13.1c0.8,7.3-4.6,9.6-10.1,11.5c-3.4,0-6.8,0-10.2,0c-4.1,0-8.2,0-12.3,0
	c-38.9,0-77.9,0.1-116.8,0.1c-38.9,0-77.8,1.4-116.7-0.2c0-8.1,0.1-16.2,0.1-24.3c44.3-0.1,88.7-0.1,133-0.2
	C985.7,487.3,1026.7,487.3,1067.6,487.3z"/>
<path class="st6" d="M1276.3,866.5c1.2-2.7-1.9-9,4.7-7.4c21.6,5.3,43.4,1.6,65.1,2.7c2.7,0.1,5.4-0.4,7.8,1.6
	c3.9,3.2,7,3.9,8.9-2.2c1.4-4.5,5.5-5,7.3-0.9c5.7,13.1,7.3,0.6,11.4-1.9c1.4,4.8,3.4,8.4,8.7,3.2c2.8-2.8,7.3-2.5,10.8-1.6
	c13.5,3.3,27.1,1.5,40.7,1.7c5.9,0.1,11.3-0.1,12.4,7.6c4.7-2.9,0.7-8,4.7-10.3c4.2,2.2,0.3,7.3,4,10c4-2.1,0.8-7,3.2-9.6
	c9.2,1.1,18.4,3.2,27.7,0.4c3.1-0.9,3.1-0.8,4,6.1c0.3,2.9-0.5,5.5-2,8c-5.1,0.1-10.1,0.3-15.2,0.4c-14.3,0.1-14.3,0.1-15.4,14.2
	c-2.2-0.1-3.4-1.4-4.5-3.3c-2.5-4.3-4.4-3.1-5.9,1.1c-2,5.6-3.1,11.4-5.2,17c-3.7,9.9-3.5-2.9-5.1-0.4c-7.1-7.3-16.1-1.8-24-3.4
	c-7.3-1.4-9.3,2-9.2,9c0.3,22.7,0.1,45.4,0.2,68.1c-4.9-1.1-3.6-5.1-3.6-8.3c-0.1-9.2,0-18.4,0-27.6c0-14.6-4.9-19.3-19.9-19.4
	c-0.2-8.5-0.4-17-0.5-25.5c-0.3-21.6-0.3-21.2-21.8-21.8c-8.4-0.2-11.9,2.1-11.1,10.4c-6.6,2.7-13.2-0.9-19.8,0
	c-3.8,0.5-8.8-1.3-10.2,4c-1.4,5.4,5,3.1,6.6,5.6c0.5,0.8,0.5,1.9,0.7,2.9c-7.8,0-15.6,0.3-23.3-0.2c-7.8-0.6-11.4,2.5-11.3,10.2
	c-9.7-2.1-4-13.2-10.3-17.6c-4.3,4.1,0.1,10.2-4,15c-3.5-4.3-2.4-9.1-1.7-13.2c0.7-4.2-1-4.7-4.2-4.5c0-1.4,0-2.7,0-4.1
	c4.3,0.2,8.7,0.1,7.8-6.1c-0.9-6.7-5.2-1.3-7.8-2.1C1276.7,871.6,1276.5,869,1276.3,866.5z M1401.4,891
	c-4.1,10.2,3.6,22.7-13.2,23.8c5.5,2.9,8.9,2,12.1,2.3c7.9,0.7,9.1-4.8,6.6-9.6C1404.6,903.1,1404.2,898.2,1401.4,891z
	 M1393.4,891.7c-2.6,5.5-3,8.7,0,13C1396.1,900.4,1395.7,897.1,1393.4,891.7z M1484,869.3c0.2-0.6,0.8-1.3,0.6-1.7
	c-0.2-0.4-1-0.5-1.6-0.8c-0.2,0.6-0.8,1.3-0.6,1.7C1482.5,868.9,1483.4,869,1484,869.3z"/>
<path class="st6" d="M991.9,292.9c10.2,0,20.4,0,30.6,0c3.9,0,5.8,0.6,5.6,5.8c-0.3,9.3,2.7,18.7-7.9,25.1c-3.1,1.9,1,3.2,2.9,4.4
	c3.6,2.1,9,2.1,9.7,7.8c-16.6,0-33.2,1.5-49.6,1.3c-15.5-0.1-30.8-1.3-46.4,0.2c-8.8,0.9-18.2,2.6-26.9-1.5c-3.6-8.8-10.4-6.4-17-5
	c-10.1,2.1-15.3-2.9-12.8-12.8c1-4.1,1.3-7.8-0.1-11.9c-2.5-7.3,0.8-9.7,8-9.4c10.8,0.4,21.7,0.1,32.5,0.1c3.2,0,7.2,1,7.9-4.1
	C949.5,292.9,970.7,292.9,991.9,292.9z"/>
<path class="st14" d="M1418,644.8c0.6,7.8,5.7,13,10.5,18.4c-3,3.4-7,2.1-10.6,2.1c-91.7,0.1-183.5,0-275.2,0.1
	c-7.6,0-14.9-1-14.9-9.5c0-8.4,6.5-11.3,15-11.2C1234.5,645,1326.2,644.9,1418,644.8z"/>
<path class="st14" d="M1010.3,436.3c11.9,4.1,24.2,1.1,36.3,1.9c6.1,0.4,12.2,0.1,18.3,0.1c7,0,12.7,2.5,12.5,10.1
	c-0.2,7.5-4.2,12.8-13,12.3c-1.7-0.1-3.4,0-5.1,0c-38.9,0-77.9,0-116.8,0.1c-43.7-0.1-87.3-0.2-131-0.2c0-7.4,0-14.8-0.1-22.3
	c38.2-0.1,76.4-0.2,114.6-0.3C954.3,437.5,982.4,440.2,1010.3,436.3z"/>
<path class="st14" d="M830,386.9c10.9,0,21.8,0,32.7,0c54.6,0,109.3,0,163.9,0c6.2,0,12.3,0,18.5,0c4.1,0,8.2,0,12.2,0
	c3,0,6.1,0,9.1,0.2c7.6,0.4,10.9,5.6,10.8,12.1c-0.1,6.2-2.2,11.6-11,10.6c-7.7-0.9-15.5-0.1-23.3,0c-38.3,0.1-76.5,0.1-114.8,0.2
	c-38.9-0.1-77.8-0.2-116.7-0.2c-0.1-2.1-0.1-4.2-0.2-6.3c0-2.1,0-4.2,0-6.3c-1.1-8.4,2.7-11.3,10.7-10.2
	C824.7,387.4,827.4,387,830,386.9z"/>
<path class="st14" d="M909.9,336c8.7,4.1,18.1,2.4,26.9,1.5c15.6-1.6,30.9-0.4,46.4-0.2c16.5,0.1,33.1-1.3,49.6-1.3
	c10.9,4.1,22.3,2,33.4,1.6c8.8-0.3,10.7,4.5,11.1,10.8c0.5,6.7-4.2,9.5-10.4,10c-2.7,0.2-5.4,0.1-8.2,0.1c-81.7,0-163.4,0-245.2,0
	c-0.7,0-1.4,0-2.1,0c-0.2-0.5-0.3-1.1-0.2-1.7c0.2-2.8,0.4-5.6,0.6-8.5c3.5-2.6-1-9.7,5.8-10.5c1.3,0,2.7,0,4,0c2.9,0,6,1,8.3-1.7
	c16.6,0.1,33.2-0.5,49.7,0.7C890,337.5,899.9,338.4,909.9,336z"/>
<path class="st14" d="M1026.6,561.1c-32.8,0-65.6,0.1-98.4,0.1c-37.4-0.1-74.8-0.3-112.2,0c-8.2,0.1-12.8-1.1-8.6-10.4
	c6.7-1.4,3.1-6.8,4-10.4c32.8-0.1,65.5-0.2,98.3-0.2c49.9,0,99.7,0.1,149.6,0.1c2.4,0.1,4.7,0.4,7.1,0.2c6.8-0.6,11.6,1.5,11.3,9.1
	c-0.3,7.1-4.5,11.2-11.6,11.3C1053,561.2,1039.8,561,1026.6,561.1z"/>
<path class="st6" d="M1057.4,386.9c-4.1,0-8.2,0-12.2,0c-5.5-5.7-13-5.7-18.5,0c-54.6,0-109.3,0-163.9,0c0.5-1.9,1.8-4.1,1.4-5.8
	c-2.1-7.7-0.8-12.6,8.4-12.8c3.1-0.1,4.4-2.8,4.5-5.8c37.9,0,75.8-0.4,113.6,0.1c19.1,0.3,38.2,1.3,57.3-0.3
	c8.8-0.7,13,2.9,14.8,12.2c-5.8-2.9-12.4-1.9-16-7.8c-1.1-1.8-3.5-2.6-4.1-1.4c-4,8-14.6,4.5-19.6,12.2c9.6,2.4,19,1.3,28.2,1
	C1058.7,378.4,1059.5,381.2,1057.4,386.9z"/>
<path class="st3" d="M1187.8,859.6c2.6-3.3-1-10.4,5-10.9c8.6-0.6,17.6-2.2,26,1.1c3,1.2,2.4,4.5,2.5,7.2c0.2,5,0.4,10.1,0.6,15.1
	c-1,2.7-0.9,5.4-0.1,8.2c0,0.7,0,1.3,0,2c0,1.3,0,2.7,0,4c-0.9,2.1-0.9,4.2-0.1,6.3c-0.2,24.4-0.8,48.8-0.3,73.2
	c0.2,9-2.6,12.6-11.4,11.8c-6.7-0.6-13.6,1.2-20.2-1.1c-0.5-0.7-1-1.4-1.5-2.1c0-27.3,0.8-54.7-1-82
	C1188.2,881.5,1189.5,870.6,1187.8,859.6z"/>
<path class="st14" d="M854.6,646.9c3-3.4,7-1.9,10.6-2c19.7-0.2,39.4-0.1,59-0.2c45,0,90,0.1,134.9,0.1c3.1,0,6.2-0.2,9.2,0.2
	c7.4,0.9,9.3,6.6,9.2,12.5c-0.1,5.7-4.6,7.8-10,7.8c-13.6,0-27.3,0.1-40.9,0.2c-42.3,0-84.7-0.1-127-0.1c-4,0-8,1.1-12.1,1.7
	C876.6,660.5,866.4,652.4,854.6,646.9z"/>
<path class="st3" d="M928.2,718.8c-9.1-3.9-8.8-14.6-14.9-21c-3.5-3.6,3.7-3.4,5.8-5.3c3.2,1.3,6.3,1.4,9.6,0.4
	c0.7-0.1,1.4-0.2,2.1-0.3c25.8-0.1,51.6-0.1,77.4-0.2c17.8,0.6,35.5,2,53.3,0.4c1.4,0.8,2.7,0.8,4-0.1c8.1,1.4,13.6,5.8,12.7,14.3
	c-1,8.6-6.6,12.1-15.8,11.7c-12.6-0.6-25.2,0.1-37.8,0.2c-10.9,0-21.9,0-32.8,0c-11.6,0-23.2,0-34.7,0
	C947.5,718.8,937.8,718.8,928.2,718.8z"/>
<path class="st6" d="M942.7,460.8c38.9,0,77.9,0,116.8-0.1c5.2,5.3,10.4,9.2,17.1,1.5c2.2-2.6,4.4-6.6,9.1-5.1c3.1,1,2.7,3.8,2,6
	c-1.4,4.4-3.5,8.3-9.2,7.8c-1.7-0.1-3.4,0-5.1,0.1c-2.2,0.1-4.3,0.9-4.7,3.2c-0.5,2.8,2.3,2.9,4.1,3.4c2.9,0.8,6,0.9,8.9,1.9
	c3.7,1.2,6.6,3.8,7.7,7.5c0.6,2.3-1.5,3.6-3.6,4.1c-4.4,0.9-7.4-1.2-9.1-4.9c-4.3-8.9-6.8-5.8-8.9,1.1c-41,0-82,0-122.9,0
	c-0.9-6.3-5.1-8.3-10.9-8.2c-2.5,0-4.9-0.3-5.2-3.5c-0.3-3.8,2.2-4.8,5.2-4.5C941.4,471.5,943.3,467.2,942.7,460.8z"/>
<path class="st6" d="M1059.4,540.3c-49.9,0-99.7-0.1-149.6-0.1c-0.1-4.4,2.2-6.4,6.3-5.7c11.3,2.1,13.4-3.9,12.3-13.3
	c-0.4-3-0.1-6.1-0.1-9.2c38.9,0,77.9-0.1,116.8-0.1c-1.7,11.7,8,9.9,14.4,12.2C1059.4,529.5,1059.4,534.9,1059.4,540.3z"/>
<path class="st3" d="M1276.3,866.5c0.2,2.5,0.4,5.1,0.6,7.6c0,2.7,0,5.5-0.1,8.2c0,1.4,0,2.7,0,4.1c-0.1,27.3-0.6,54.5-0.2,81.8
	c0.1,7.7-2.1,9.8-9.8,9.6c-22.9-0.5-22.8-0.1-22.9-22.9c-0.1-28.3-0.2-56.6-0.3-84.9c1-4.9,5-3.8,8.1-3.8
	C1259.9,866.2,1268.1,866.4,1276.3,866.5z"/>
<path class="st3" d="M1465.2,888.5c1.1-14.1,1.1-14.1,15.4-14.2c5.1,0,10.1-0.2,15.2-0.4c0.6,0.3,1.2,0.4,1.9,0.4
	c0.2,23.5,0.6,46.9,0.5,70.4c-0.1,11.2,1.5,22.4-1.1,33.5c-2.8,0-5.7,0-8.5,0c-1.3-1.1-2.6-1.1-3.8,0c-5.5,0-11-0.1-16.5-0.1
	c-0.9-1.2-1.8-2.5-2.7-3.7C1465.4,945.7,1465.3,917.1,1465.2,888.5z"/>
<path class="st3" d="M1354.3,884.4c-0.8-8.3,2.7-10.7,11.1-10.4c21.6,0.6,21.6,0.2,21.8,21.8c0.1,8.5,0.3,17,0.5,25.5
	c0,1.4,0,2.7,0,4.1c0,12.3,0,24.6,0,36.8c0,1.4,0,2.8,0,4.2c0,2.7-0.1,5.3-0.1,8c-4.4,3.2-26.9,4.6-30.8,1.9c-3.2-2.2-1.9-5.6-2-8.4
	c-0.2-22.4-0.3-44.7-0.4-67.1c0-1.4,0-2.7,0-4.1C1354.4,892.6,1354.4,888.5,1354.3,884.4z"/>
<path class="st6" d="M1008.2,692.4c-25.8,0.1-51.6,0.1-77.4,0.2c-0.7,0.1-1.4,0.2-2.1,0.3c-3.2,1-6.4,0.9-9.6-0.4
	c-12.3,1-17.2-8.9-23.3-16.4c-2.4-2.9-4.2-6.1-8.2-6.8c-0.1-0.7,0-1.3,0.1-2c4-0.6,8-1.7,12.1-1.7c42.3-0.1,84.7,0,127,0.1
	c0.2,3.4,2.4,5.4,5,7.3c1.6,1.1,5.7,0.4,4.2,4.2c-1.2,2.9-3.7,4.9-7.3,4.3c-0.7-0.1-1.3-0.5-1.9-0.6
	C1011.8,678.2,1011.8,678.2,1008.2,692.4z"/>
<path class="st14" d="M944.9,765.6c-1.4-4.1-2.8-8.2-4.2-12.3c-1.2-7.7,1.6-10.6,9.9-10.3c18.5,0.6,37.1,0.2,55.6,0.1
	c18.8,0,37.5,0,56.3,0.1c6.4,0,15.6,7.6,15,13c-0.8,8.2-6.5,11.4-14.3,11.4c-36.1,0-72.3,0.1-108.4-0.1
	C951.5,767.6,948.2,766.3,944.9,765.6z"/>
<path class="st6" d="M928.2,410c38.3-0.1,76.5-0.1,114.8-0.2c1.6,6.1,6.6,3.3,10.2,3.8c2.7,0.4,5.7,0,6,3.9c0.3,3.5-2.2,4.8-4.9,5.6
	c-2.2,0.6-4.9,1.2-7,0.7c-12.5-3.3-22.3,7-34.3,6.7c-3-0.1-2.5,3.4-2.7,5.8c-28,3.9-56.1,1.3-84.1,1.8c-0.6-5.1,5.2-13.8-7-12.4
	c-1.5,0.2-2.6-1.1-2.6-2.6c-0.1-2,1.3-3,3.2-3.2C925.6,419.2,929.3,416.6,928.2,410z"/>
<path class="st14" d="M1067.6,869.9c-20.9-3.9-42-1.5-63-1.5c-14.4-0.1-28.8,0.9-43.2,1.4c-0.2-4.6-0.4-9.2-0.7-13.8
	c0.4-2.3,0.7-4.6-1.3-6.4c0-1.3,0-2.6,0-3.9c32.7-0.1,65.5-0.3,98.2-0.1c6.7,0,14.4-2.2,18.3,6.6
	C1080.2,861.6,1073,865.2,1067.6,869.9z"/>
<path class="st3" d="M1411.4,976.5c0-22.7,0.2-45.4-0.2-68.1c-0.1-7,2-10.4,9.2-9c7.9,1.6,16.9-3.9,24,3.4
	c-0.1,21.3-0.6,42.6-0.3,63.9c0.1,8.1-2,12.1-10.8,11C1426.1,976.8,1418.6,978.9,1411.4,976.5z"/>
<path class="st14" d="M953.6,808.4c-0.2-2.6-0.5-5.3-0.7-7.9c0.2-2.7-0.1-4.6,4.4-4.6c35.4,0.4,70.9,0.5,106.3,0.3
	c7.5,0,13.3,2,13.4,10.2c0.1,8.1-5.5,10.5-13.1,10.5c-36.1-0.3-72.3-0.2-108.4-0.3c-0.2-1.3-0.3-2.6-0.5-3.9
	C958,810.2,956,809.2,953.6,808.4z"/>
<path class="st3" d="M1332,900.4c0.3,24.8,0.6,49.6,0.8,74.5c-0.8,0.9-1.7,1.7-2.5,2.6c-9.2,0.1-18.4,0.2-27.6,0.3
	c-0.4-0.5-1-0.7-1.7-0.5c0,0-0.6-0.6-0.6-0.6c0-22.8,0.2-45.6-0.1-68.4c-0.1-6,1.5-8.7,8.1-8.2
	C1316.3,900.6,1324.2,900.3,1332,900.4z"/>
<path class="st6" d="M1006.2,743.1c-18.5,0-37.1,0.5-55.6-0.1c-8.3-0.3-11.1,2.6-9.9,10.3c-4.2-11.5-8.3-23-12.5-34.5
	c9.6,0,19.3,0,28.9,0c10.7,7,22.2,3.6,33.5,2.6c0.5,0,0.8-1.7,1.2-2.6c10.9,0,21.9,0,32.8,0c1.1,9,5.9,12.9,15.1,12.2
	c6.6-0.5,13.1,3.3,19.9,0.1c1.9-0.9,5.3-0.6,5.3,2.8c0,3.3-3.1,3-5.4,3c-14.9,0-29.6,3.3-44.5,2.2
	C1011.7,738.9,1007.2,737.5,1006.2,743.1z"/>
<path class="st14" d="M1538.9,867.9c-0.5-7.6,0.4-15.1,1.9-22.5c17.4,0,34.7,0.2,52.1,0c8.6-0.1,14.9,2.3,15.5,11.9
	c0.4,6.2-7.8,13.5-15.5,12.2C1574.9,866.5,1556.9,869.1,1538.9,867.9z"/>
<path class="st3" d="M1509.8,990c-110.7,0-221.5,0-332.2,0c0-0.7,0-1.4,0-2.1c110.7,0,221.5,0,332.2,0
	C1509.8,988.6,1509.8,989.3,1509.8,990z"/>
<path class="st14" d="M1540.9,816.7c0.1-1.3,0.2-2.7,0.3-4c3.9-4.5-1.4-12.1,3.5-15.1c5.8-3.5,13.3-1.1,20-1.3
	c10.5-0.3,21.1,0.1,31.6-0.1c7.1-0.1,12.2,1.9,12.1,10.1c-0.1,8-5.8,10.3-12.4,10.4C1577.7,816.9,1559.3,816.8,1540.9,816.7z"/>
<path class="st6" d="M1187.8,859.6c1.7,10.9,0.4,21.9-0.4,32.8c-2.3-0.1-5.3,0.9-6.4-1.8c-1.7-4.2-5.4-6-8.8-5c-4.1,1.2-2,5.9-2.1,9
	c-0.2,17.6,0,35.3-0.1,52.9c0,3.1,1,6.5-3.7,9.1c0-23.6,0-47.2,0-70.9c-7,3.6-0.6,14.2-10.5,15c0-11.2,0.2-22.3-0.1-33.5
	c-0.2-5,1.7-8.2,6.5-8.3c6.4-0.1,3.2,5.2,3.8,8.2c0.8,3.8-1.1,8,1.9,12.6c4-5.5,2-11.3,2-16.5c0.1-5.1,0.8-8.9,5.9-11.4
	c6.6-3.2,5.5,4,8.5,5.6C1185.5,858.2,1186.6,858.9,1187.8,859.6z"/>
<path class="st2" d="M991.9,292.9c-21.2,0-42.3,0-63.5,0c-40.6,0-81.2,0-121.8-0.1c-4.1,0-9.6,1.6-9.3-5.8c64.9,0,129.7,0,194.6-0.1
	C991.9,288.9,991.9,290.9,991.9,292.9z"/>
<path class="st8" d="M1497,978.1c2.6-11.1,1.1-22.4,1.1-33.5c0.2-23.5-0.3-46.9-0.5-70.4c2.8,0,5.6-0.1,8.3-0.1c0,0,0,0,0,0
	c1,7,7.6,2.3,10.9,5.4c-1.4,3.9-2.8,8-4.2,12.1c-3.4-1.2-2.4-3.6-2.7-5.4c-0.6-3.8-3.2-3.9-6-3.7c-3.8,0.2-4.2,2.7-3.8,5.8
	c3,25,2.3,50,0.5,75.1c-0.2,2.6,1,5.3,1.2,8C1502,974.7,1502.3,978.5,1497,978.1z"/>
<path class="st14" d="M1147.3,843.6c0,8.7,0,17.5,0,26.2c-0.3,0-0.7,0.1-1,0c-8.7-1.1-18.9-0.6-20.5-12.3
	C1124.8,849.6,1133.6,844.3,1147.3,843.6z"/>
<path class="st9" d="M1332,900.4c-7.8-0.1-15.7,0.2-23.5-0.4c-6.5-0.5-8.1,2.2-8.1,8.2c0.3,22.8,0.1,45.6,0.1,68.4
	c-5.1-1.8-3.3-6.2-3.3-9.6c-0.2-20.1-0.1-40.1-0.2-60.2c-0.1-7.7,3.5-10.8,11.3-10.2c7.7,0.6,15.5,0.2,23.3,0.2
	C1331.8,898,1331.9,899.2,1332,900.4z"/>
<path class="st14" d="M1147.4,794.5c0,7.4,0.1,14.9,0.1,22.3c-2.7,0-5.4,0.2-8.1,0c-6-0.4-11.6-1.4-12.3-9.1
	c-0.7-8.2,4.4-11.6,11.2-13.1C1141.2,794,1144.3,794.5,1147.4,794.5z"/>
<path class="st6" d="M1387.8,962.1c0-12.3,0-24.6,0-36.8c2.3,0.5,3.5,1.9,3.5,4.2c0,9.5,0,18.9,0,28.4
	C1391.2,960.2,1390.1,961.6,1387.8,962.1z"/>
<path class="st6" d="M1057.4,511.9c3.4,0,6.8,0,10.2,0c-0.3,3.9,3.5,5.2,5.6,8.6c-4.6,1.9-8.9,3.7-13.8,3.7
	C1058.8,520.1,1056.7,516.2,1057.4,511.9z"/>
<path class="st6" d="M1053.6,679.9c-3.8-0.8-9.2,1.2-9.1-4.1c0.1-3.7,5-2.3,7.6-2.1c3.1,0.2,8.6-2.5,8.5,3.4
	C1060.5,681.3,1055.6,678.7,1053.6,679.9z"/>
<path class="st6" d="M1354.4,896.7c0,1.4,0,2.7,0,4.1c-4,0-8,0.1-12-0.1c-3.5-0.2-4.8-2.3-3.8-5.5c0.9-3,4-3.2,5.7-1.8
	C1347.4,895.8,1350.5,897.1,1354.4,896.7z"/>
<ellipse class="st6" cx="1025.7" cy="948.9" rx="21.4" ry="0.7"/>
<path class="st8" d="M1221.8,892.6c-0.8-2.1-0.8-4.2,0.1-6.3c2.3,0.2,5.2-0.1,5.2,3.2C1227,892.8,1224,892.4,1221.8,892.6z"/>
<path class="st6" d="M1139,949.5c-3.8,0-7.7,0-11.5,0c0-0.3,0-0.7-0.1-1c3.8,0,7.6,0,11.5,0C1138.9,948.8,1139,949.2,1139,949.5z"/>
<path class="st6" d="M1090.8,948.7c-4,1.7-7.4,1.5-11.5,0.2C1083.3,947.2,1086.7,947.5,1090.8,948.7z"/>
<path class="st8" d="M1465.5,974.3c0.9,1.2,1.8,2.5,2.7,3.7c-2.1,0-4.9,1.6-5.9-1.3C1461.5,974.6,1464.1,974.7,1465.5,974.3z"/>
<path class="st6" d="M1112.4,948.7c2.2-1.3,4.3-1.3,6.9,0C1116.7,950.2,1114.6,950.4,1112.4,948.7z"/>
<path class="st9" d="M1330.4,977.5c0.8-0.9,1.7-1.7,2.5-2.6C1334.1,977.7,1333.3,978.6,1330.4,977.5z"/>
<path class="st9" d="M1155.5,986.6c-1.3-0.2-2.9-0.3-2.9-2c0-1.7,1.6-1.8,2.9-1.9C1155.5,984,1155.5,985.3,1155.5,986.6z"/>
<path class="st13" d="M1065.6,692.7c-1.3,0.9-2.7,1-4,0.1c0.2-1.4,0.8-2.6,2.4-2.2C1064.6,690.8,1065,692,1065.6,692.7z"/>
<path class="st6" d="M1387.6,974.3c0-2.7,0.1-5.3,0.1-8C1389.9,969,1389.9,971.7,1387.6,974.3z"/>
<path class="st8" d="M1183.5,965.6c0.3,0.6,0.7,1.1,0.7,1.6c0,0.5-0.5,1-0.8,1.5c-0.3-0.5-0.7-1-0.7-1.6
	C1182.6,966.7,1183.1,966.2,1183.5,965.6z"/>
<path class="st9" d="M1155.6,978.3c-1.9-1.2-2.1-2.4-0.1-3.7C1155.5,975.9,1155.6,977.1,1155.6,978.3z"/>
<path class="st8" d="M1188.5,974.4c0.5,0.7,1,1.4,1.5,2.1C1188.9,976.1,1186.4,976.8,1188.5,974.4z"/>
<path class="st8" d="M1221.8,882.3c0-0.7,0-1.3,0-2c0.2,0.5,0.5,0.9,0.6,1.4C1222.4,881.8,1222,882.1,1221.8,882.3z"/>
<path class="st8" d="M1484.6,978.1c1.3-1.1,2.5-1.1,3.8,0C1487.2,978.1,1485.9,978.1,1484.6,978.1z"/>
<path class="st9" d="M1301.1,977.2c0.7-0.2,1.2,0,1.7,0.5c0,0-1,0.1-1,0.1L1301.1,977.2z"/>
<path class="st6" d="M1844.4,609.2c-2.6,4.5-2.4,12.6-11.4,9c0.6-8.4,5.3-16.4,2.8-25.2c-4.8,14.1-8.5,28.3-11.9,42.7
	c-0.7,2.9,1.5,3.3,3.8,2.9c-1.4,8.9-9.4,13.2-16.8,9c-2.2-1.2-2-3.9-1.3-5.4c3.4-7.2-3.1-8.3-6.6-11c-1.4-1.1-4.4-1.1-4.6,1.8
	c-0.2,2,4,6.2-1.4,5.2c-4.9-0.9-10.4-3-13.8-7.4c-3.4-4.3,1.5-3.6,3.3-4.8c2.1-1.4,0.8-2.6-0.1-4.1c-3.3-6.4-0.4-8,5.6-7
	c-1.2,4.2,1.3,6,4.6,7.4c7,3.1,13.8,6.4,20.7,9.6c0.6,2.8-4.6,4.3-1.3,8.2c3.1-2.6,9.2-3.3,3.6-9.4c-0.2-1.3-0.3-2.5-0.5-3.8
	c3.4-2.1,2.3-5.5,2.5-8.5c2.1-0.3,4.1-0.8,3.6-3.5c-0.1-0.6-1.5-1.7-1.8-1.6c-2.4,0.9-1.5,3.2-1.8,5c-3.3,1.1-4.6-5.9-8.9-2
	c1,3.4,4.8,5.6,4.8,9.5c-5.9-2-11.8-4.1-16.7-8.8c4.8-4.3,10.6-5.5,15.7-8.1c2.5-1.3,3.6-3.6,2.5-5.9c-1.5-3.3-3.9-1.2-5.9,0
	c-6.6,3.9-12.7,8.6-20.2,10.9c-0.3-4.8-0.2-9.5,4.8-12c-1.8-3.9-6.5-0.3-7.9-4.9c5.3-1.2,9.1-6.5,15.4-5.3c0.4,2.3-0.9,6,3.7,5.1
	c1.5-0.3,3.9-1.2,3.3-3.1c-1.2-3.5-4.6-1.4-7-2c2.1-7.4,8.2-2.7,12.3-4.1l0,0c0.2,2.3-1,5.4,1.1,6.7c3.4,2.1,2.2-4.7,6.2-3.3
	c1.5,4.9-3.6,10,0.6,16.4c0.4-13.5,8.9-20.2,19.1-25.1c0.7,6,10.6,5,13.4,12.8c-5.3,0.2-10.5,5.1-14-4.4c-0.5,4.8-2.9,7.8,1.2,9.8
	c-1.1,1.2-2.2,2.4-3.2,3.6c-1,0.6-2.8,1.1-2.8,1.8c-0.2,2.2,1.8,2,3.3,2.2C1842.9,608.4,1843.6,608.8,1844.4,609.2z"/>
<path class="st4" d="M1643.4,550c-25.6,0-51.2,0.1-76.8-0.1c-2.9,0-8,2.4-8.4-2.6c-0.5-5.5,4.7-4.7,8.3-4.7c51.9,0,103.7,0,155.6,0
	c3.3,0,7.8-0.9,7.5,4.2c-0.2,4.2-4.4,3.3-7.4,3.3c-26.3,0-52.6,0-78.8,0C1643.4,550.2,1643.4,550.1,1643.4,550z"/>
<path class="st4" d="M1799.9,550.2c-15,0-29.9,0.1-44.9-0.1c-2.7,0-6.9,1.1-7.1-3.5c-0.1-4.6,3.9-3.9,6.8-3.9c30.6,0,61.2,0,91.8,0
	c3,0,7-0.6,7.2,3.6c0.2,4.4-4.1,3.8-6.9,3.8C1831.2,550.2,1815.5,550.1,1799.9,550.2z"/>
<path class="st4" d="M1654.4,610c20.5,0,41,0,61.4,0.1c2.8,0,7.2-1.3,7.5,3c0.4,5.5-4.7,3.8-7.6,3.8c-41.3,0.1-82.6,0.1-123.9,0
	c-2.8,0-7.2,1.3-7.5-3c-0.4-5.5,4.7-3.7,7.6-3.7C1612.8,609.9,1633.6,610,1654.4,610z"/>
<path class="st3" d="M1605.3,475.5c1-0.2,2.1-0.4,3.1-0.6c26.5,0.1,53.1,0.2,79.6,0.2c2.7,0,5.5-0.1,8.1,0.3c2.6,0.4,4.3,2,4.2,4.9
	c-0.1,2.9-2.5,2.9-4.4,2.9c-28.6,0-57.2,0-85.7,0C1604.8,483.1,1604.3,479.8,1605.3,475.5z"/>
<path class="st3" d="M1668.1,583.7c-13.3,0-26.6,0.1-39.9-0.1c-2.7,0-6.9,1.1-7-3.6c-0.1-4.4,3.7-4.2,6.7-4.2
	c26.9-0.1,53.9,0,80.8,0c3.1,0,6.5-0.2,6.3,4.4c-0.2,4.3-3.5,3.4-6,3.4c-13.6,0.1-27.3,0-40.9,0
	C1668.1,583.6,1668.1,583.6,1668.1,583.7z"/>
<path class="st4" d="M1560.6,583.5c-13.3,0-26.6,0.1-39.9-0.1c-2.5,0-6.1,0.9-6.2-3.3c0-3.6,3.1-4.1,5.9-4.1c27.6,0,55.3,0,82.9,0.1
	c2.5,0,5,0.3,5.1,3.6c0.1,4.1-3.2,3.7-5.8,3.7C1588.6,583.6,1574.6,583.5,1560.6,583.5z"/>
<path class="st4" d="M1710.1,516.2c-13.3,0-26.6,0-39.9,0c-2.7,0-6.3,0.3-6.3-3.4c0-3.8,3.8-3.2,6.4-3.2c27-0.1,53.9-0.1,80.9,0
	c2.4,0,6.3-1.2,6.6,2.8c0.4,4.8-3.9,3.8-6.7,3.8C1737.4,516.3,1723.7,516.2,1710.1,516.2z"/>
<path class="st4" d="M1518.3,483.3c-3.6-2.1-3.6-4.8-1.5-7.9c18.1,0,36.2,0,54.2,0c3.4,0,7.9-0.6,8.1,3.8c0.3,5.3-4.7,3.7-7.7,3.8
	C1553.8,483.2,1536,483.2,1518.3,483.3z"/>
<path class="st4" d="M1605.3,516.3c-7.8,0-15.7,0-23.5,0c-2.4,0-5.3-0.1-5.4-3.3c-0.1-3.3,2.8-3.4,5.2-3.4c15.7,0,31.3,0,47,0
	c2.4,0,5.3-0.1,5.4,3.1c0,2.9-2.5,3.6-5.2,3.6C1621,516.2,1613.2,516.2,1605.3,516.3z"/>
<path class="st4" d="M1844.4,609.2c-0.7-0.4-1.5-0.8-2.2-1.2c-0.2-1.3-0.3-2.7-0.5-4c1.1-1.2,2.2-2.4,3.2-3.6c0,0,0-0.1,0-0.1
	c2.5,2.4,5.4,3.8,8.9,4.2c0,0,0,0.1,0,0.1c1.7,6.4,8.2,5.6,12.4,8.2c1.3,1.4,2.6,2.8,3.9,4.2c-0.9,1.7-1.8,3.4-2.7,5.1
	c-8.9,0.8-15.3,9.7-26.1,8.2c3.1-6,8.6-6.3,12.8-8.7c1.9-1.1,5.3-1,5.5-3.9c0.2-2.9-2.9-3.4-5-4.3
	C1851.3,611.9,1847.8,610.6,1844.4,609.2z"/>
<path class="st4" d="M1817.2,631.8c-6.9-3.2-13.8-6.5-20.7-9.6c-3.3-1.5-5.9-3.2-4.6-7.4c0.5-0.1,0.8-0.4,0.9-0.8
	c7.4-2.3,13.6-7,20.2-10.9c1.9-1.2,4.3-3.2,5.9,0c1.1,2.3,0,4.6-2.5,5.9c-5,2.6-10.8,3.7-15.7,8.1c4.9,4.7,10.8,6.8,16.7,8.8
	c0.4,0.6,0.9,0.9,1.5,1c0.2,1.3,0.3,2.5,0.5,3.8C1818.7,631,1817.9,631.4,1817.2,631.8z"/>
<path class="st4" d="M1744.3,483c-4.7,0-9.5,0.1-14.2,0c-2.5-0.1-4.9-1-4.6-4.1c0.2-2.3,2.1-3.5,4.3-3.5c10.1,0,20.2,0,30.4,0.1
	c2.1,0,3.9,1,4,3.6c0.1,3.3-2.2,3.9-4.7,3.9C1754.4,483.1,1749.3,483,1744.3,483z"/>
<path class="st4" d="M1827.5,638.6c-2.3,0.4-4.4,0-3.8-2.9c3.5-14.3,7.1-28.6,11.9-42.7c2.5,8.8-2.2,16.8-2.8,25.2
	C1831.1,625,1829.3,631.8,1827.5,638.6z"/>
<path class="st6" d="M1866.2,612.7c-4.2-2.6-10.7-1.8-12.4-8.2c2.5-1.7,5.5-2.9,7.5-5.1c2.7-2.9,4-4.8,8.6-1.4
	c5.1,3.8,2.8,6,0.6,9.2C1869.2,609.1,1867.7,610.9,1866.2,612.7z"/>
<path class="st6" d="M1867.5,622c0.9-1.7,1.8-3.4,2.7-5.1c1.9-2.4,2.1-6.8,8.3-6.3C1874.4,615,1877,623.6,1867.5,622z"/>
<path class="st6" d="M1853.8,604.4c-3.4-0.4-6.4-1.8-8.9-4.2c3.1-0.1,6.2-0.2,9.3-0.4l0,0C1854.1,601.4,1854,602.9,1853.8,604.4z"/>
<path class="st6" d="M1817.4,587.6c0.2-1.3,0.2-2.8,1.9-3c0.3,0,1.2,0.8,1.1,1.1C1820.2,587.4,1818.7,587.4,1817.4,587.6
	C1817.4,587.6,1817.4,587.6,1817.4,587.6z"/>
<path class="st6" d="M1854.3,599.9c0.2-0.3,0.3-0.6,0.5-0.8C1854.6,599.3,1854.4,599.6,1854.3,599.9
	C1854.3,599.9,1854.3,599.9,1854.3,599.9z"/>
<path class="st12" d="M599,1057.5c1.8,16.5,4,33,5.3,49.5c4.3,55.3,7.9,110.7,12.4,166.1c0.7,9.1-1.5,14.8-9.7,18.4
	c-12.5,5-25.5,5.4-38.7,4.5c-7.6-2-11.1-7.5-12.7-14.6c-0.7-14.6-4.9-28.6-7.5-42.9c-7-41.1-14-82.1-21-123.2
	c-0.9-9.1-1.7-18.2-2.6-27.3c0.6-3.9,2.1-8,1.6-11.8c-3.2-22.9-9.2-45.5,5.2-67.8c4.1-6.3,6.6-8.3,12.8-6.6
	c17.9,5,28.1,18.2,36,33.9c5.1,10.2,10.2,20.4,18.1,30.1C598.5,1062.2,598.7,1059.8,599,1057.5z"/>
<path class="st14" d="M957,1076.7c-0.1-2-0.1-3.9-0.2-5.9c0-0.8,0-1.6,0.1-2.4c3.3-28.6,6.4-57.2,6.8-86c40.8,0.1,81.7,0.3,122.5,0
	c7.7-0.1,10.3,1.6,10.2,9.9c-0.4,37.7,0,75.5,0,113.2c-0.5,0.4-0.7,0.9-0.6,1.6c-31.5,0-63.1-0.1-94.6,0c-2.7,0-6.3-1.8-7.8,2.4
	c-0.5,13-1,26-1.5,39c-9.1-5.7-15.3,2.6-21.7,5.8c-5.5,2.8-7.1,3.6-11.4-1.4c-6.4-7.5-15.6-12.7-18.4-23.1
	c5.6-13.8,8.5-28.4,12.6-42.7c3.1,0,5.6-1.9,8.9-1.6c41.1,3.4,82.3,0.7,123.5,1.4c4,0.1,9-0.8,8.4-6.4c-0.6-5.6-5.8-3.6-9.1-3.6
	C1042.2,1076.6,999.6,1076.7,957,1076.7z"/>
<path class="st15" d="M568.3,1295.9c13.2,0.9,26.2,0.5,38.7-4.5c0.3,0.4,0.7,0.5,1.2,0.4c0.8,9.8,5.5,18.1,10.3,26.3
	c9.3,15.6,7.8,23.4-7.8,32.8c-13,7.8-27.5,12.1-41.3,18.1c-8.6,3.7-17.4,7.1-26.9,8.3c-10,1.2-18.3-1.6-22.9-11
	c-3.2-6.5,2.6-17.7,11.1-23.6c7.7-5.3,15.4-10.5,22.8-16.2C563.5,1318.9,566.2,1307.5,568.3,1295.9z"/>
<path class="st13" d="M548.1,1238.4c2.6,14.3,6.8,28.3,7.5,42.9c-16.2,0.4-29.4-9.3-44.3-13.4c-15.9-4.3-31.7-10.7-44.4-21.8
	c-10-8.8-20.5-17.5-26.4-30c1.3-1.9,3.6-3.1,5.3-2.1c7.7,4.5,16.7,3.4,25,6.3c11.5,3.9,24.4,6.9,37.1,7.8c8.8,0.6,17.4,3.1,26.4,2.1
	C541,1229.5,544.1,1234.5,548.1,1238.4z"/>
<path class="st2" d="M1930.3,951.9c40.6,0,81.2,0.3,121.8-0.2c9.3-0.1,11.5,2.7,11.3,11.6c-0.6,24.9-0.5,49.8,0,74.6
	c0.2,8.8-2.8,12.4-11.6,12.3c-81.5-0.1-163-0.2-244.6,0c-7.2,0-8.5-3-8.4-9.2c0.3-22.1,0.1-44.3,0.1-66.5c0-2.7,0.2-5.5-0.1-8.2
	c-1.5-14.6-1.5-14.6,12.8-14.6C1851.2,951.9,1890.8,951.9,1930.3,951.9z M1931,962.1c-5.9-0.8-9.2,2.6-8.8,8.1
	c0.4,5.1,1.4,12,8.3,11.9c4.9-0.1,9.8-3,9.7-9.5C1940.2,966.6,1938.9,961.6,1931,962.1z"/>
<path class="st2" d="M1929.5,833.2c40.6,0,81.1,0.3,121.7-0.2c9.6-0.1,12.4,3.1,12.2,12.4c-0.5,24.9-0.4,49.7-0.1,74.6
	c0.1,8.1-1.9,11.6-10.8,11.6c-82.2-0.3-164.3-0.2-246.5-0.1c-6.3,0-7.8-0.7-7.6-8.3c0.7-27.9,2-55.8-0.7-83.6
	c-0.7-7.2,2.9-6.3,7-6.3c24.5-0.1,49.1,0,73.6,0C1895.4,833.2,1912.5,833.2,1929.5,833.2z M1940.3,855.5c0.3-7.1-1.9-11.9-9.4-12
	c-5.6,0-9,3.1-8.9,8.7c0.1,6,1.7,11.4,9.4,11.7C1937.9,864.2,1940.9,861.5,1940.3,855.5z"/>
<path class="st2" d="M1929.1,814.8c-40.3,0-80.6,0-120.8,0c-12.1,0-10.9,0-10.1-11.8c1.2-19.7,0.7-39.5,0.7-59.3
	c0.1-25.1,0-25.1,25-25.1c75.8,0,151.6,0.1,227.3-0.2c9.1,0,12.5,1.9,12.2,11.7c-0.7,24.5-0.5,49.1-0.1,73.7
	c0.1,8.6-2.9,11.2-11.3,11.1C2011.1,814.6,1970.1,814.8,1929.1,814.8z M1921.8,739.8c0.5,6.2,3.1,11.3,8.9,10.9
	c6.5-0.5,8.9-6.8,9.4-12.5c0.5-6.1-3.3-9.5-9.4-9.3C1923.4,729.1,1922.8,734.9,1921.8,739.8z"/>
<path class="st8" d="M797.3,287c-0.3,7.4,5.1,5.8,9.3,5.8c40.6,0.1,81.2,0.1,121.8,0.1c-0.7,5-4.6,4-7.9,4.1
	c-10.8,0.1-21.7,0.3-32.5-0.1c-7.2-0.3-10.5,2.1-8,9.4c1.4,4,1.1,7.7,0.1,11.9c-2.4,9.9,2.7,14.9,12.8,12.8c6.6-1.4,13.4-3.7,17,5
	c-10,2.4-19.9,1.5-30.1,0.7c-16.5-1.2-33.1-0.6-49.7-0.7c-2.9,0-6-1.1-8.3,1.7c-1.3,0-2.7,0-4,0c-1.9-2.5-4.6-1.7-7.1-1.7
	c-6.3-15.8-9.8-18.2-26.5-18.3c-14.6-0.1-29.3-0.2-43.9-0.4C748.4,298.7,766.7,282,797.3,287z"/>
<path class="st1" d="M1806.3,361.2c-0.3,5.7-3.2,10.1-9.5,10.5c-6.9,0.5-11-3.9-11-10.4c0-5.7,2.7-10.6,9.5-11
	C1802.5,349.8,1805.4,354.2,1806.3,361.2z"/>
<path class="st1" d="M1865.7,360.4c0.6-5.2,2.9-9.8,9.7-10.1c6.5-0.3,10.5,3.5,10.6,9.7c0.1,6.2-2.8,11.6-10,11.7
	C1869.5,371.9,1866.3,367.5,1865.7,360.4z"/>
<path class="st1" d="M1836.6,350.1c6.1,0.5,9.3,4.6,9.4,10.7c0.1,6.3-3.3,10.8-9.7,10.8c-6.6,0-10.8-4.3-10.4-11.2
	C1826.2,354.4,1829.4,350.3,1836.6,350.1z"/>
<path class="st4" d="M1796.7,448.2c-11.5,1.8-23.2,0.7-34.7,0.7c-38.2,0.2-76.4,0.1-114.6,0c-3,0-8.1,1.7-8.2-3.3
	c0-4.9,5-3.4,8.1-3.4c46.7-0.1,93.5-0.1,140.2,0C1791.7,442.1,1797.1,441,1796.7,448.2C1796.6,448.2,1796.7,448.2,1796.7,448.2z"/>
<path class="st3" d="M1514.2,448.7c-3.9-5.4-0.6-7.6,4.2-7.7c28.4-0.2,56.9-0.2,85.3,0c4.7,0,6.5,2.9,4.7,7.5
	C1577,448.6,1545.6,448.7,1514.2,448.7z"/>
<path class="st4" d="M1528.5,409.4c29.1-0.1,58.1-0.2,87.2-0.4c4.7,0,8.2,0.6,7,6.6c0,0,0,0,0,0c-30.7,0.1-61.4,0.3-92.1,0.4
	c-1.2-0.9-2.4-1.7-3.6-2.6c0-1.2,0-2.4,0.1-3.6C1527.6,409.8,1528.1,409.7,1528.5,409.4z"/>
<path class="st4" d="M1728,415.3c-1.2-4.3,0.6-6.7,4.9-6.8c15.2-0.2,30.4-1,45.5,1.1c0.7,5.2-2.3,6.3-6.7,6.2
	C1757.1,415.6,1742.6,415.5,1728,415.3z"/>
<path class="st8" d="M1514.2,448.7c31.4-0.1,62.8-0.1,94.2-0.2c-0.6,4.3-3.9,3.9-7,3.9c-26.7,0-53.4,0-80.2,0
	C1518.3,452.5,1514.9,453,1514.2,448.7z"/>
<path class="st4" d="M1649.4,409.4c14.6-0.1,29.2-0.2,43.7-0.4c3.7-0.1,6.8,0.5,7.8,4.7c-0.2,0.6-0.3,1.1-0.3,1.7
	c-17,0-34.1,0-51.1,0C1649.4,413.4,1649.4,411.4,1649.4,409.4z"/>
<path class="st8" d="M1530.6,416c30.7-0.1,61.4-0.3,92.1-0.4c-1.6,2.4-4,2.2-6.4,2.2c-26.7,0-53.4,0-80.1,0
	C1534.2,417.7,1532.2,417.7,1530.6,416z"/>
<path class="st8" d="M1649.4,415.5c17,0,34.1,0,51.1,0c-3.5,4.2-8.3,2.5-12.3,2.2C1675.3,416.7,1662.1,420.5,1649.4,415.5z"/>
<path class="st8" d="M1527.1,409.8c0,1.2,0,2.4-0.1,3.6c-1.4,0.1-3.4,2.3-4.1,0C1522,410.1,1524.6,409.7,1527.1,409.8z"/>
<path class="st12" d="M1309.3,1036.7c-3.4,2.3-7.3,1.3-11,1.3c-43.9,0.1-87.8,0-131.8,1.8c3.2,0,6.5,0,9.7,0
	c40.2,0,80.4,0.2,120.6-0.2c8.6-0.1,11,2.5,10.7,11c-0.7,18.2-0.2,36.5-0.1,54.8c-69,0-138.1,0-207.1,0.1c0-36.7,0.2-73.4-0.2-110.1
	c-0.1-6.8,1.7-10.7,8.1-12.4c13.1-0.1,26.2-0.2,39.3-0.3c0,0,0.6-0.1,0.6-0.1c-0.2,0.8-0.5,1.5-0.7,2.3c-3.1,13.4-3.8,26.9,0.8,40.1
	c1,2.7,0.8,7.3,6,6.6c6.9,4.3,14.5,4.7,22.4,4.7C1220.9,1036.2,1265.1,1036.5,1309.3,1036.7z"/>
<path class="st4" d="M1147.6,982.5c-13.1,0.1-26.2,0.2-39.3,0.3c-7.9-1.5-10.4,1.3-10.3,9.7c0.5,37.6,0.2,75.3,0.2,112.9
	c-0.6,0-1.1,0-1.7,0c-0.1-37.7-0.4-75.5,0-113.2c0.1-8.3-2.5-9.9-10.2-9.9c-40.8,0.3-81.7,0.1-122.5,0c-0.4-28.4-0.4-28.4,27.5-28.5
	c48.8-0.1,97.5-0.2,146.3-0.4c7.9-0.8,12,1.8,10.6,10.7C1147.2,970.2,1147.7,976.4,1147.6,982.5z"/>
<path class="st10" d="M1098.2,1105.4c0-37.6,0.3-75.3-0.2-112.9c-0.1-8.3,2.4-11.2,10.3-9.7c-6.4,1.7-8.2,5.6-8.1,12.4
	c0.4,36.7,0.2,73.4,0.2,110.1C1099.6,1105.4,1098.9,1105.4,1098.2,1105.4z"/>
<path class="st12" d="M993.4,1109.4c1.5-4.3,5.2-2.4,7.8-2.4c31.5-0.1,63.1,0,94.6,0c-2.2,4-6.1,2.3-9.2,2.3
	C1055.6,1109.5,1024.5,1109.4,993.4,1109.4z"/>
<path class="st15" d="M760.3,752.9c15,1.1,30,0.7,45.1,4.2c20.3,4.8,31.9,17.6,40.9,34.9c8.5,16.1,12.5,33.8,19.4,50.4
	c9.4,22.4,13,45.8,17,69.2c3.3,19.3-6.2,31.7-22.9,40c-15.2,7.5-28.6,18.3-44.9,23.7c0.6,0.7,1.2,1.5,1.8,2.2
	c-13-0.3-25.2,5.6-38.2,4.8c-0.6-2.3-1.2-4.6-1.9-6.8c-3.8-13.3-10-24.1-26.2-24c-1,0-2-0.5-2.9-0.8c-12.4-4.7-24.7-6-36.6,1.4
	c-0.5-0.8-1.5-1.5-1.6-2.4c-1.8-27-7.8-53.4-10.6-80.3c-0.9-8.1-4.3-14.1-14.2-11.4c-3.5-0.4-6.9-0.7-10.4-1.1
	c0.5-7.2,1-14.4,1.5-21.6c0,0-0.5-0.1-1.8-0.4c-3.3,6.6-7.8,12.9-7.8,21.1c-0.7,0.5-1.4,1-2.2,1.5c-2.7-0.6-5.5-1.3-8.2-1.9
	c1.4-0.9,7.1-2.1,0.2-2.8c-8.9-0.8-17.9-0.7-26.8-0.9c-1.3-0.2-2.6-0.3-3.9-0.5c2.1-15.6,8.7-29.9,14.2-44.4
	c3.8-10.1,8.9-19.8,14-29.4c9-16.5,24.3-22.8,42-24.3c8.1-0.7,16.3-0.5,24.5-0.6C736.7,765.3,741.5,765.3,760.3,752.9z M811.2,844.8
	c-0.2,16.1-5.3,31.1-5.6,46.8c-0.3,11.1,1.6,22.4-2.2,33.3c-0.5,1.4-0.8,3.5,1.2,4.4c1.8,0.8,3.5-0.3,4.5-1.6
	c6.4-8.5,17.8-12.1,22.4-22.8c0.9-2.2,2.5-4.1,1.8-6.3C827.7,880.1,820,862.3,811.2,844.8z"/>
<path class="st10" d="M778.6,982.3c13,0.8,25.2-5.2,38.2-4.8c14.1,6.9,28.2,13.5,40.8,23.3c17.9,13.9,22.4,31.4,11.1,51.4
	c-5.5-12.6-23.9-27.1-33.5-24.3c-11.9,3.4-24.9,3.7-35.7,8.8c-24,11.3-51.9,14.4-72,33.8l0.1,0.1c0-0.7,0-1.4,0-2.1
	c0.3-0.1,0.5-0.1,0.7-0.3c0.1-0.1,0.1-0.3,0.2-0.5c-0.3,0.3-0.6,0.6-0.9,0.8c-2.2-0.2-4.4-0.4-6.6-0.6c7.7-9.3,19.6-12.7,29.7-20.4
	c-17.8-10.1-35.8-9.4-54-6.9c-29.7,4-59.3,8-89,12c-3.4,0.5-8-0.7-8.7,4.8c-0.2,2.3-0.5,4.7-0.8,8.2c-7.9-9.7-13-19.9-18.1-30.1
	c-7.8-15.7-18.1-28.9-36-33.9c-6.2-1.7-8.8,0.4-12.8,6.6c-14.4,22.2-8.3,44.8-5.2,67.8c0.5,3.8-1,7.9-1.6,11.8
	c-3.8-18-6-36.2-5.3-54.6c0.7-19.8,9.6-35.5,26.1-46.6c35.9,0.3,71.6,4.7,107.5,5.5c16.9,0.4,33,7.1,50,4.5
	c4.3-0.1,8.6-0.1,12.9-0.2c16.6,1.3,33.2,2.4,49.8,3.8c5.1,0.4,7.7-0.9,7.3-6.5c-0.3-4-0.7-8.3,3.8-10.7
	C777.3,982.8,777.9,982.6,778.6,982.3z"/>
<path class="st7" d="M715.7,996.4c-4.3,0.1-8.6,0.1-12.8,0.2c-3.7-26.4-7.3-52.8-11-79.2c-2.8-19.7-6.5-39.3-7.2-59.3
	c9.9-2.7,13.4,3.3,14.2,11.4c2.8,26.9,8.8,53.3,10.6,80.3c0.1,0.8,1,1.6,1.6,2.3c0.9,6.7-1,13.8,2.7,20.1c-0.2,2.3-0.8,4.7,1.5,6.3
	l-0.1,0C715.3,984.5,715.5,990.5,715.7,996.4z"/>
<path class="st1" d="M594.6,882.9c7.1,0.2,15.1,9.6,17.1,20.2c1.6,8.7-1.7,16.3-7,22.5c-4.2,5-10.5,4.3-15.8,1
	c-11.7-7.4-13.2-31.7-2.7-40.7C588.5,883.9,591.4,882.9,594.6,882.9z"/>
<path class="st8" d="M666.1,856.1c0-8.2,4.5-14.5,7.8-21.1c1.3,0.3,1.8,0.3,1.8,0.4c-0.5,7.2-1,14.4-1.5,21.6
	C671.4,857.5,668.7,857.3,666.1,856.1z"/>
<path class="st5" d="M629,851.9c9,0.3,18,0.1,26.8,0.9c6.9,0.7,1.3,1.9-0.1,2.8c-7.1,0.3-14.3,0.5-21.5,0.8
	C631.8,855.8,629.4,855,629,851.9z"/>
<path class="st10" d="M634.3,856.4c7.2-0.3,14.4-0.5,21.5-0.8c2.7,0.6,5.4,1.3,8.1,1.9C654,857.7,644.1,858.2,634.3,856.4z"/>
<path class="st0" d="M811.5,540.4c-0.9,3.6,2.6,9-4,10.4c-7.5,5.5-15.9,6.3-25,6.3c-100.3-0.2-200.7-0.1-301-0.2
	c-14.6,0-24.3-9.8-24.3-24.5c0-42.3,0-84.6,0.1-126.8c5.1,0.7,3.8,4.7,4,7.9c0.4,5.1-0.9,10.4,1.5,16.5c3.4-3.3,2.4-6.4,2.6-9.2
	c0.2-2.6,0.7-5.3,3.9-4.5c10.3,2.4,21.3-9.2,31,1.6c-0.6,1.5-1,3.3-2,4.6c-17.5,23.9-19.7,49-7.2,76c12.9,28,38.7,36.3,64.6,33.7
	c24.4-2.4,44.2-22.1,51.7-47.2c3.4-11.3-0.1-22,1-33c-2.2-10.6-5.9-20.6-12.2-29.5c0.4-2.7,1-5.3,3.2-7.1
	c10,6.9,14.7,17.4,20.2,28.3c0.9-6.9,1.6-13.4,7.6-17.9c3.4-2.6,5.6-6.6,8.3-10c0.2,12,2.4,24.2,1.3,35.8
	c-1.9,20.1-0.9,40.1-1.3,60.1c-0.3,18.5,12.6,31,30.9,31c31.4,0,62.8-1,94.1,0.4c16.5,0.8,31-13.6,30.6-30.6
	c-0.9-35.7,2.3-71.4-2.1-107c4.6-0.7,7,2.7,10.4,4.9c4.5,3,4.3,9.9,10.2,11.4c0.9,5.5-2.1,11.4,2.1,16.5c0,7.4,0,14.8,0.1,22.3
	c-3.5,9-3.5,18,0,27c0,8.1-0.1,16.2-0.1,24.3C808.4,521.3,808.4,530.8,811.5,540.4z"/>
<path class="st6" d="M809.5,421.8c-5.8-1.6-5.6-8.4-10.2-11.4c-3.3-2.2-5.8-5.6-10.4-4.9c-9.3-14.5-23-17.1-39.1-16.6
	c-26.5,0.9-53.1,1.3-79.6-0.1c-17.9-0.9-31.5,11.3-34.9,26.9c-2.7,3.4-4.9,7.5-8.3,10c-5.9,4.5-6.6,11-7.6,17.9
	c-5.5-10.9-10.2-21.4-20.2-28.3c-2.3,1.8-2.9,4.4-3.2,7.1c-4.6-4-8.6-8.9-13.8-11.8c-11.2-6.4-22.6-13.5-36.6-9.1
	c-18.2-3.1-31.8,6.7-45.5,16.2c-9.8-10.8-20.8,0.8-31-1.6c-3.2-0.8-3.7,2-3.9,4.5c-0.2,2.7,0.8,5.9-2.6,9.2
	c-2.4-6.1-1.1-11.4-1.5-16.5c-0.3-3.2,1-7.2-4-7.9c-1.2-13.1,0.9-25.6,7-39.9c0.1,14.3,8.6,14,17.3,13.2c19.1-1.8,37.8,2.5,56.7,4.1
	c2.9,0.3,5.4,0.8,6.6,3.8c1.1,2.6,2.1,5.9,5.5,2.9c1.9-1.7,1.3-4.4-0.7-6.3c-2.1-2-6.5-3.4-5-6.7c1.6-3.7,6.2-2.2,9.2-1.7
	c17.5,2.7,35.2,0.7,52.7,3.7c9.8,1.7,19.5-1.6,29.2-3c5.1-0.7,9.8-2.1,14,2.7c4,4.6,9.7,3.4,14.1,1.3c5.9-2.8,11.8-2.7,17.9-2.9
	c21.7-0.6,43.4-2.5,65.2-2.3c10.2,0.1,21.4,5.8,30.7-3.6c0.7-0.7,3.1-0.8,3.9-0.2c7.7,6.5,19.6,1.6,26.7,9.8
	c3.4,3.8,8.3,1.9,12.6,2.4c3.4,0.4,7.9-1.7,9,4c-2.6,0-5.3,0.4-7.9,0.1c-8.1-1.1-11.9,1.8-10.7,10.2c-2.4,0.4-5.8-0.5-5.4,3.6
	c0.3,3.1,3.3,2.4,5.4,2.7c0.1,2.1,0.1,4.2,0.2,6.3C810.9,413.7,810.2,417.8,809.5,421.8z M617.1,412.3c-2.9,0.2-3.9,2.3-4.1,4.9
	c-0.2,2.2,0.6,4.1,3.2,4.4c2.8,0.3,4.7-0.8,4.7-3.9C620.9,415.1,620.1,413,617.1,412.3z M605.8,407.2c-0.2,1.9,1.3,2,2.6,2.2
	c1.3,0.2,2.9,0,3.2-1.5c0.5-1.9-1.3-2-2.5-2.2C607.8,405.5,606.5,405.8,605.8,407.2z"/>
<path class="st4" d="M739.5,575.6c-1.7,0.9-3.9,3.1-5.1,2.7c-10.9-3.9-19.6,1.9-28.8,6c-2.3-20.8-2.2-20,17.8-21.1
	C733.9,562.5,738.7,565.5,739.5,575.6z"/>
<path class="st13" d="M808.2,632.3c0-2.5,0.1-5,0.1-7.5C810.1,627.4,810.1,629.9,808.2,632.3z"/>
<path class="st0" d="M1417.9,552.8c-89.7,0-179.4,0-269-0.1c-14.6,0-15.7-1.1-15.7-15.7c0.2-46.3,0.4-92.6,0.6-139
	c7.5-0.6,14-5.7,21-6.5c20.8-2.6,41.9-3.8,60.7,8.7c7.3,21.8,12.5,44.2,19.4,66.1c5.5,17.4,16.5,27,33.1,32c4.4,1.3,8.1,2.1,9.2-3.9
	c1.3,2,2.8,3.9,3.8,6c6.4,14,17.9,21.1,34.2,20.8c14.2-0.3,27.8-10.4,33.9-22.2c12-23.4,19.4-48.5,29.9-72.4
	c3.8-8.5,6.8-18,15.3-23.7c10.3,1.8,10.4,11.3,13.4,18.4c3.2,7.7,4.8,16.1,10.3,22.8C1417.9,480.4,1417.9,516.6,1417.9,552.8z"/>
<path class="st3" d="M1394.2,403.1c-8.4,5.7-11.5,15.1-15.3,23.7c-10.5,23.9-18,49-29.9,72.4c-6.1,11.8-19.7,21.9-33.9,22.2
	c-16.3,0.3-27.8-6.8-34.2-20.8c-1-2.1-2.5-4-3.8-6c-9-20.9-18.2-41.7-29.2-61.8c-7.8-14.2-17.6-25.7-32.5-32.5
	c-18.8-12.5-39.9-11.3-60.7-8.7c-7,0.9-13.5,5.9-21,6.5c-1.3-3.5-0.4-5.9,3.4-7c23.1-4.7,46.3-6.9,69.6-1.1
	c19.6,9.5,35.2,22.4,45.7,42.4c10.1,19.3,18.4,39.4,28.4,58.7c0,1.7,0.7,2.9,2.5,3.2c0,0,0.2,0.5,0.2,0.5
	c2.6,14.9,13.4,20.8,26.6,22.5c11.6,1.4,22.8-1.8,29.7-12c7.2-10.6,13.9-21.8,18.1-34c9.9-28.4,18.2-57.6,40-80
	c4.6-1.9,9.2-3.8,13.9-5.7c1.1-0.4,2.2-0.8,3.3-1.1c0.8,0.2,1.6,0.4,2.4,0.6c1.7,1.3,1.6,2.7,0.1,4.1c-7.1,1-14.1,2.1-18.3,9.1
	c-1,0.9-2,1.9-3,2.8C1395.5,401.7,1394.8,402.4,1394.2,403.1z"/>
<path class="st14" d="M1399.2,398.2c4.1-7,11.2-8,18.3-9.1c0.1,18.4,0.2,36.8,0.4,55.1c-5.5-6.7-7.1-15.1-10.3-22.8
	c-2.9-7.1-3.1-16.5-13.4-18.4c0.7-0.7,1.3-1.4,2-2.1C1398,400.9,1399,400,1399.2,398.2z"/>
<path class="st1" d="M761.7,340.9c-0.7,4.1-2.8,7-7.2,7.2c-4.5,0.2-7-2.7-7.2-6.8c-0.2-4.3,2.3-7.1,6.8-7.1
	C758.4,334.2,760.9,336.7,761.7,340.9z"/>
<path class="st1" d="M725.4,334.1c4.3,0.5,6.7,2.7,6.6,7.2c-0.1,4.4-2.6,6.9-7,6.8c-4.3-0.1-7-3-7-7.1
	C718,336.7,721.1,334.5,725.4,334.1z"/>
<path class="st1" d="M790.5,341.4c-0.8,4-2.6,7-7.2,6.8c-4.5-0.2-6.7-2.8-6.8-7.1c-0.1-4.7,3-6.7,7-6.8
	C787.8,334.3,790.2,337,790.5,341.4z"/>
<path class="st0" d="M810.7,336c2.5,0,5.2-0.8,7.1,1.7c-6.8,0.8-2.3,7.9-5.8,10.5c-0.5-0.1-1-0.1-1.6-0.2
	C810.5,344,810.6,340,810.7,336z"/>
<path class="st8" d="M810.4,348c0.5,0.1,1,0.1,1.6,0.2c-0.2,2.8-0.4,5.6-0.6,8.5C809.2,354,809.7,351,810.4,348z"/>
<path class="st10" d="M1154.3,1031.4c-5.2,0.7-5-3.9-6-6.6c-4.6-13.2-4-26.6-0.8-40.1c0.1,5.7,0.8,11.4,0.3,17
	C1146.7,1012.5,1149.4,1022.1,1154.3,1031.4z"/>
<path class="st9" d="M887.6,667.2c-0.1,0.7-0.1,1.3-0.1,2c-4.4,9.2,2.7,16.7,5,24.4c4.1,13.8,7.7,27.9,10.7,41.9
	c7.1,33.8,12.8,67.9,13.4,102.8c0.2,9.2,2.4,19.2,4.6,28.4c2.3,9.5,3.1,18.7,3,28.2c-0.1,29.7,6.7,59.1,4.2,88.9
	c-1.2,13.5-5.1,26.4-6.9,39.6c-2.3,17.1-11.5,31.2-17.5,46.6c-2.7,6.9-6.7,13.1-10,19.6c-11,21.9-21.5,44.3-36.3,64.1
	c-17.5,23.4-39.3,40.6-67.5,50.5c-9.2,3.2-18.3,8.1-27.8,11.7c-12.2,4.5-25.1,5.3-37.2,9.6c-6,2.2-10.5,0.2-13.1-7.2
	c-6.7-19.7-1.4-38.3,4.1-56.7c2.1-7,10.4-9.6,16.7-12.2c28.1-12,53.8-28.4,80.7-42.7c20.4-10.9,38.4-25.2,55.8-40
	c13-11.1,23.8-24.3,22.4-44.5c-1.2-17.7-11.1-27.4-24.6-35.4c-4.7-2.8-9.9-5.2-17.4-5c10.4-7.5,19.2-14.1,28.3-20.2
	c21.9-14.7,30.4-45.9,22.9-70.9c-4.3-14.2-6-29.7-9.9-44.3c-5.3-20-11.8-39.5-21.5-58.2c-9.6-18.5-25-32-36.4-48.7
	c-4.8-7.1-6-15.1-1.1-20.6c14.6-16.5,20.4-35.1,18.2-56.8c-0.5-5.1,0-10.2,0-15.3c1.3,0,2.7,0,4,0
	C866.4,652.4,876.6,660.5,887.6,667.2z"/>
<path class="st12" d="M721,1068c2.2,0.2,4.4,0.4,6.6,0.6l0,0c0,0.7,0,1.4,0,2.1c-0.2,0.1-0.5,0.2-0.7,0.3c-0.1,0.1-0.1,0.3-0.2,0.5
	c0.3-0.3,0.5-0.6,0.8-0.9c20.1-19.4,48-22.5,72-33.8c10.9-5.1,23.8-5.5,35.7-8.8c9.6-2.7,28,11.7,33.5,24.3
	c-8,16.3-21.7,26.6-37.3,34.7c-23.7,12.4-47.8,23.9-72.3,34.8c-16.4,7.3-32.5,15.1-48.2,23.7c-6.1,3.3-10.6,2.7-15.6-0.9
	c-9.7-11.5-15.4-25.1-20.8-38.9c-1.9-16.9,13.5-17.5,22.6-24.1c6.8,1.4,20.8-5.2,24.3-11.5C721.7,1069.5,721.2,1068.7,721,1068
	L721,1068z"/>
<path class="st15" d="M674.5,1105.6c5.4,13.8,11.1,27.4,20.8,38.9c-1.7,10.2-6.7,19.9-4.3,30.6c2.1,9.2,4.3,18.2,3.9,27.9
	c-0.4,10-4.8,17.8-12.6,18.4c-9.3,0.8-15.8-4.7-20-12.3c-2.7-4.8-3.2-10.7-8.3-14.1c1.3-8.4-3.1-15.6-5.9-22.7
	c-7-17.6-13-35.1-11-54.4c2.7-5.5,9.4-6.8,13.3-7.2C658.9,1109.8,666.5,1106.9,674.5,1105.6z"/>
<path class="st9" d="M637.2,1117.8c-2.1,19.3,4,36.8,11,54.4c2.8,7.1,7.1,14.3,5.9,22.7c-1,17.4,10.1,28.4,22.7,40.1
	c-16,6.1-31.2,2.7-46.2,3.1c-3.7,0.1-3.5-3.8-3.8-6.3c-3-23.9-5.4-47.9-2.8-71.9c0.6-6.1,1.1-12.1,1.1-18.2
	c-0.1-15.9,6.1-30.9,5.7-49C636,1102.3,633.1,1110.8,637.2,1117.8z"/>
<path class="st0" d="M957,1076.7c42.6,0,85.2-0.1,127.8,0c3.3,0,8.5-2,9.1,3.6c0.6,5.7-4.4,6.5-8.4,6.4c-41.2-0.7-82.4,2-123.5-1.4
	c-3.3-0.3-5.9,1.6-8.9,1.6C953.5,1083.3,954.3,1079.6,957,1076.7z"/>
<path class="st10" d="M721,1068c0.1,0.7,0.6,1.5,0.4,1.9c-3.5,6.3-17.5,13-24.3,11.5C705,1076.9,712.4,1071.4,721,1068z"/>
<path class="st0" d="M953.6,808.4c2.4,0.8,4.3,1.8,1.4,4.4C953.3,811.7,953,810.2,953.6,808.4z"/>
<path class="st0" d="M959.5,849.5c2,1.8,1.7,4.1,1.3,6.4C958.9,854.1,959,851.9,959.5,849.5z"/>
<path class="st0" d="M956.9,1068.4c0,0.8,0,1.6-0.1,2.4C955.7,1070,955.7,1069.2,956.9,1068.4z"/>
<path class="st0" d="M1397.9,391.3c-21.8,22.5-30.1,51.6-40,80c-4.2,12.2-10.9,23.4-18.1,34c-6.9,10.2-18.1,13.5-29.7,12
	c-13.2-1.6-24-7.6-26.6-22.5c13.2-5.5,17.2-18.2,20.9-29.8c8-24.4,14.8-49,32.4-69c9.4-10.7,24.6-15.5,38-11.5
	C1382.5,386.9,1389.1,393.3,1397.9,391.3z"/>
<path class="st0" d="M1206.7,390.1c-23.3-5.9-46.4-3.7-69.6,1.1c-7.9-11.5-3-24.1-3.2-36.3c-0.1-3.2,4.3-2.7,6.8-2.6
	c25.7,1.7,47.3,12,64.6,31C1207.2,385.4,1206.8,387.7,1206.7,390.1z"/>
<path class="st0" d="M1283.3,494.4c-1.8-0.3-2.5-1.5-2.5-3.2c1.2,0,2.3-0.1,3.5-0.1C1283.9,492.2,1283.6,493.3,1283.3,494.4z"/>
<path class="st8" d="M1415.1,384.4c-1.1,0.4-2.2,0.8-3.3,1.1C1412.5,384.1,1413.6,383.6,1415.1,384.4z"/>
<path class="st2" d="M1506,874.1c-2.8,0-5.6,0.1-8.3,0.1c-0.6,0-1.3-0.1-1.9-0.4c1.5-2.5,2.3-5.1,2-8c6.3,0,12.7,0,20.1,0
	C1515.4,872.8,1506.4,866.8,1506,874.1z"/>
<path class="st0" d="M1165.8,769.4c1.2-4.8,5.2-3.7,8.4-3.7c112.9,0,225.7,0,338.6,0c2.7,0,5.5-0.5,7.6,2c-30,0.1-60,0.3-89.9,0.4
	c-81.8,0-163.6,0-245.3,0C1178.6,768.1,1172.2,768.9,1165.8,769.4z"/>
<path class="st1" d="M1478.7,784.8c4.9,0.6,8,3.3,8,8c0.1,4.7-2.8,7.6-7.7,7.6c-4.9,0-7.7-2.5-7.7-7.5
	C1471.5,788.1,1474.4,785.6,1478.7,784.8z"/>
<path class="st1" d="M1510.3,784.8c3.9,1,7.8,2.3,8,7.6c0.2,5-2.2,7.8-7.2,8c-4.8,0.2-8.1-2.5-8.4-7.1
	C1502.5,788.8,1505.3,785.7,1510.3,784.8z"/>
<path class="st1" d="M1448.6,800.6c-5.6-0.2-9-2.6-9.2-7.2c-0.3-4.6,2.6-8,7.3-8.2c4.5-0.2,7.8,2.2,8.1,7.2
	C1455.1,797.4,1452.6,799.9,1448.6,800.6z"/>
<path class="st8" d="M811.7,487.5c-3.5-9-3.5-18,0-27c43.7,0.1,87.3,0.2,131,0.2c0.6,6.5-1.2,10.7-8.8,10.2c-3-0.2-5.5,0.8-5.2,4.5
	c0.3,3.2,2.7,3.6,5.2,3.5c5.8-0.1,10,1.9,10.9,8.2C900.4,487.4,856,487.4,811.7,487.5z"/>
<path class="st8" d="M811.5,540.4c-3.1-9.5-3.2-19.1,0.1-28.6c38.9,1.6,77.8,0.2,116.7,0.2c0,3.1-0.3,6.2,0.1,9.2
	c1.2,9.4-0.9,15.4-12.3,13.3c-4.1-0.8-6.5,1.3-6.3,5.7C877.1,540.2,844.3,540.3,811.5,540.4z"/>
<path class="st0" d="M1057.4,511.9c-0.8,4.3,1.4,8.1,2,12.2c-6.3-2.3-16.1-0.5-14.4-12.2C1049.2,511.9,1053.3,511.9,1057.4,511.9z"
	/>
<path class="st0" d="M1401.4,891c2.8,7.2,3.2,12.1,5.5,16.6c2.5,4.8,1.3,10.3-6.6,9.6c-3.3-0.3-6.7,0.6-12.1-2.3
	C1405,913.7,1397.3,901.2,1401.4,891z"/>
<path class="st0" d="M1276.9,882.3c0-2.7,0-5.5,0.1-8.2c2.6,0.7,6.9-4.7,7.8,2.1C1285.5,882.5,1281.2,882.5,1276.9,882.3z"/>
<path class="st0" d="M1393.4,891.7c2.3,5.4,2.6,8.7,0,13C1390.5,900.4,1390.9,897.2,1393.4,891.7z"/>
<path class="st8" d="M1484,869.3c-0.6-0.2-1.4-0.4-1.6-0.8c-0.2-0.4,0.4-1.1,0.6-1.7c0.6,0.2,1.5,0.4,1.6,0.8
	C1484.8,868,1484.2,868.7,1484,869.3z"/>
<path class="st8" d="M809.5,421.8c0.7-4,1.3-8.1,2-12.1c38.9,0.1,77.8,0.2,116.7,0.2c1.1,6.7-2.6,9.2-8.5,9.9
	c-1.9,0.2-3.3,1.2-3.2,3.2c0.1,1.4,1.2,2.7,2.6,2.6c12.3-1.4,6.5,7.3,7,12.4c-38.2,0.1-76.4,0.2-114.6,0.3
	C807.4,433.2,810.5,427.3,809.5,421.8z"/>
<path class="st0" d="M1026.6,386.9c5.5-5.7,12.9-5.7,18.5,0C1039,386.9,1032.8,386.9,1026.6,386.9z"/>
<path class="st0" d="M811.4,403.5c-2.1-0.3-5.1,0.5-5.4-2.7c-0.4-4,3.1-3.2,5.4-3.6C811.4,399.3,811.4,401.4,811.4,403.5z"/>
<path class="st0" d="M821.8,337.7c2.3-2.8,5.4-1.7,8.3-1.7C827.8,338.7,824.7,337.7,821.8,337.7z"/>
<path class="st0" d="M991.8,718.8c-0.4,0.9-0.7,2.6-1.2,2.6c-11.3,1-22.8,4.4-33.5-2.6C968.7,718.8,980.3,718.8,991.8,718.8z"/>
<path class="st13" d="M928.7,692.9c0.7-0.1,1.4-0.2,2.1-0.3C930.1,692.7,929.4,692.8,928.7,692.9z"/>
<path class="st0" d="M1818.9,626.8c-0.7-0.1-1.2-0.5-1.5-1c0-3.9-3.8-6.1-4.8-9.5c4.3-3.9,5.5,3.1,8.9,2l0,0
	C1821.3,621.3,1822.4,624.7,1818.9,626.8z"/>
<path class="st0" d="M1817.2,631.8c0.8-0.4,1.5-0.8,2.3-1.2c5.6,6.1-0.5,6.8-3.6,9.4C1812.5,636,1817.8,634.6,1817.2,631.8z"/>
<path class="st0" d="M1805.1,591.7c2.4,0.6,5.8-1.5,7,2c0.6,1.9-1.8,2.8-3.3,3.1C1804.2,597.7,1805.5,594,1805.1,591.7
	C1805.1,591.7,1805.1,591.7,1805.1,591.7z"/>
<path class="st0" d="M1821.5,618.3c0.3-1.8-0.6-4.1,1.8-5c0.4-0.1,1.7,0.9,1.8,1.6C1825.6,617.5,1823.6,618,1821.5,618.3
	C1821.5,618.3,1821.5,618.3,1821.5,618.3z"/>
<path class="st0" d="M1841.7,604c0.2,1.3,0.3,2.7,0.5,4c-1.5-0.2-3.5,0-3.3-2.2C1838.9,605.1,1840.7,604.6,1841.7,604z"/>
<path class="st1" d="M1931,962.1c8-0.6,9.2,4.5,9.3,10.4c0.1,6.6-4.9,9.5-9.7,9.5c-7,0.1-7.9-6.8-8.3-11.9
	C1921.7,964.7,1925.1,961.4,1931,962.1z"/>
<path class="st1" d="M1940.3,855.5c0.6,6-2.4,8.8-8.9,8.5c-7.8-0.3-9.3-5.7-9.4-11.7c-0.1-5.6,3.3-8.7,8.9-8.7
	C1938.4,843.6,1940.6,848.4,1940.3,855.5z"/>
<path class="st1" d="M1921.8,739.8c1-4.9,1.6-10.7,8.9-10.9c6.1-0.2,9.9,3.2,9.4,9.3c-0.5,5.7-2.9,12-9.4,12.5
	C1924.9,751.1,1922.2,746,1921.8,739.8z"/>
<path class="st11" d="M713.7,972.3c-3.7-6.3-1.8-13.4-2.7-20.1c11.9-7.5,24.2-6.1,36.6-1.4c0.9,0.4,1.9,0.8,2.9,0.8
	c16.2-0.2,22.4,10.6,26.2,24c0.7,2.3,1.3,4.5,1.9,6.8c-0.7,0.2-1.4,0.5-2,0.7c-20.6,0.3-41-1.9-61.5-4.4c0,0,0.1,0,0.1,0
	C714.7,976.5,714.2,974.4,713.7,972.3z"/>
<path class="st13" d="M811.2,844.8c8.8,17.5,16.5,35.3,22.1,53.8c0.7,2.2-0.9,4.2-1.8,6.3c-4.6,10.6-15.9,14.2-22.4,22.8
	c-1,1.3-2.7,2.4-4.5,1.6c-2-0.9-1.7-3-1.2-4.4c3.7-10.9,1.9-22.2,2.2-33.3C805.9,875.9,811,860.9,811.2,844.8z"/>
<path class="st13" d="M715.1,978.6c20.4,2.5,40.9,4.7,61.5,4.4c-4.5,2.4-4.1,6.7-3.8,10.7c0.4,5.7-2.1,7-7.3,6.5
	c-16.6-1.4-33.2-2.6-49.8-3.8C715.5,990.5,715.3,984.5,715.1,978.6z"/>
<path class="st12" d="M727.6,1068.6c0.3-0.3,0.6-0.6,0.9-0.8c-0.1,0.2-0.1,0.4-0.2,0.5C728.1,1068.4,727.8,1068.5,727.6,1068.6
	C727.6,1068.6,727.6,1068.6,727.6,1068.6z"/>
<path class="st13" d="M713.7,972.3c0.5,2.1,1,4.2,1.5,6.3C712.9,977,713.5,974.6,713.7,972.3z"/>
<path class="st14" d="M635.5,415.7c3.4-15.6,17-27.8,34.9-26.9c26.5,1.4,53.1,1,79.6,0.1c16.1-0.5,29.9,2.1,39.1,16.6
	c4.3,35.6,1.1,71.3,2.1,107c0.4,16.9-14.1,31.3-30.6,30.6c-31.3-1.4-62.7-0.4-94.1-0.4c-18.3,0-31.2-12.5-30.9-31
	c0.3-20-0.6-40,1.3-60.1C637.9,439.9,635.6,427.7,635.5,415.7z"/>
<path class="st14" d="M500.3,417.8c13.7-9.6,27.3-19.4,45.5-16.2c-0.2,2.6-0.3,5.3-0.5,7.9c-1.6,0.7-1.6,1.4,0,2.2
	c0.4,0.5,0.5,1,0.2,1.5c-3.2,3.6-7.7,3.9-12,4.7c-16.8,3.4-25,16.1-31.3,30c-8.1,17.9-3.3,33.7,6,50.8c13.8,25.2,57.3,25.3,74.3,3.1
	c11.2-14.6,12.3-30.3,12.1-47.1c1.3-0.1,2.6-0.1,3.8-0.2c3.1,3.2,5.3,2.8,6.3-1.7c1.2-0.3,2.4-0.6,3.7-0.8c-1.1,10.9,2.4,21.6-1,33
	c-7.5,25-27.3,44.7-51.7,47.2c-25.9,2.6-51.7-5.7-64.6-33.7c-12.4-27-10.2-52.1,7.2-76C499.3,421.1,499.7,419.3,500.3,417.8z"/>
<path class="st3" d="M545.4,409.5c0.2-2.6,0.3-5.3,0.5-7.9c14-4.5,25.4,2.6,36.6,9.1c5.2,3,9.2,7.8,13.8,11.8
	c6.3,8.9,10,18.9,12.2,29.5c-1.2,0.3-2.4,0.6-3.7,0.8c-2.3-0.3-4.5,0.2-6.3,1.7c-1.3,0.1-2.6,0.1-3.8,0.2c-1.9-3.5-3.9-7-5.8-10.5
	c-7.3-13.3-16.3-24.4-32.6-26.7c-3.9-0.6-8.2-0.2-10.6-4.3c0.3-0.6,0.2-1.1-0.2-1.5C545.3,410.9,545.4,410.2,545.4,409.5z"/>
<path class="st0" d="M617.1,412.3c2.9,0.7,3.8,2.8,3.7,5.3c0,3.1-1.9,4.2-4.7,3.9c-2.6-0.3-3.3-2.2-3.2-4.4
	C613.2,414.7,614.2,412.6,617.1,412.3z"/>
<path class="st0" d="M605.8,407.2c0.7-1.4,2-1.7,3.3-1.5c1.3,0.2,3,0.3,2.5,2.2c-0.4,1.5-1.9,1.7-3.2,1.5
	C607.1,409.2,605.6,409.1,605.8,407.2z"/>
<path class="st14" d="M1215.4,400.3c14.9,6.8,24.7,18.3,32.5,32.5c11,20,20.1,40.8,29.2,61.8c-1.1,6-4.8,5.2-9.2,3.9
	c-16.6-5-27.6-14.6-33.1-32C1227.9,444.4,1222.7,422,1215.4,400.3z"/>
<path class="st0" d="M1399.2,398.2c-0.2,1.8-1.3,2.7-3,2.8C1397.2,400.1,1398.2,399.1,1399.2,398.2z"/>
<path class="st10" d="M727.6,1070.6c-0.3,0.3-0.5,0.6-0.8,0.9c0-0.2,0-0.4,0.2-0.5C727.1,1070.8,727.4,1070.7,727.6,1070.6
	C727.6,1070.6,727.6,1070.6,727.6,1070.6z"/>
<path class="st0" d="M545.5,413.2c2.5,4.1,6.7,3.7,10.6,4.3c16.3,2.3,25.3,13.4,32.6,26.7c1.9,3.5,3.9,7,5.8,10.5
	c0.2,16.8-0.9,32.5-12,47.1c-17,22.2-60.5,22.2-74.3-3.1c-9.4-17.1-14.2-32.9-6-50.8c6.3-13.9,14.5-26.6,31.3-30
	C537.8,417.1,542.3,416.8,545.5,413.2z"/>
<path class="st0" d="M598.4,454.5c1.9-1.5,4-2.1,6.3-1.7C603.7,457.3,601.6,457.7,598.4,454.5z"/>
<path class="st0" d="M545.4,409.5c0,0.7,0,1.4,0,2.2C543.8,410.9,543.8,410.2,545.4,409.5z"/>
</svg>
